<svg width="25" height="25" viewBox="0 0 25 25" fill="none" xmlns="http://www.w3.org/2000/svg">
<path d="M21.2617 16.2419V8.24194C21.2614 7.89121 21.1688 7.54675 20.9933 7.2431C20.8177 6.93945 20.5655 6.6873 20.2617 6.51194L13.2617 2.51194C12.9577 2.3364 12.6128 2.24399 12.2617 2.24399C11.9106 2.24399 11.5658 2.3364 11.2617 2.51194L4.26172 6.51194C3.95798 6.6873 3.7057 6.93945 3.53018 7.2431C3.35466 7.54675 3.26208 7.89121 3.26172 8.24194V16.2419C3.26208 16.5927 3.35466 16.9371 3.53018 17.2408C3.7057 17.5444 3.95798 17.7966 4.26172 17.9719L11.2617 21.9719C11.5658 22.1475 11.9106 22.2399 12.2617 22.2399C12.6128 22.2399 12.9577 22.1475 13.2617 21.9719L20.2617 17.9719C20.5655 17.7966 20.8177 17.5444 20.9933 17.2408C21.1688 16.9371 21.2614 16.5927 21.2617 16.2419Z" stroke="white" stroke-linecap="round" stroke-linejoin="round"/>
<path d="M3.53174 7.20193L12.2617 12.2519L20.9917 7.20193" stroke="white" stroke-linecap="round" stroke-linejoin="round"/>
<path d="M12.2617 22.3219V12.2419" stroke="white" stroke-linecap="round" stroke-linejoin="round"/>
</svg>
