<svg width="32" height="32" viewBox="0 0 32 32" fill="none" xmlns="http://www.w3.org/2000/svg">
<g clip-path="url(#clip0)">
<path d="M29.7362 30.3521L24.8583 26.1505C26.7778 25.5637 28.1871 23.7964 28.1871 21.6875V8.5C28.1871 5.98344 26.1322 3.8125 23.4996 3.8125H22.2041L21.1064 1.55456C20.6266 0.596 19.6626 0 18.5905 0H13.4086C12.3366 0 11.3725 0.596 10.8928 1.55456L9.79509 3.8125H8.49959C5.86902 3.8125 3.81209 5.98219 3.81209 8.5V21.6875C3.81209 23.7964 5.2214 25.5638 7.14096 26.1504L2.26302 30.352C1.87027 30.6899 1.82634 31.2822 2.16415 31.6741C2.50384 32.0672 3.09384 32.1103 3.48615 31.7729L5.3994 30.125H26.5998L28.5131 31.7729C28.9054 32.1103 29.4955 32.0672 29.8351 31.6741C30.1729 31.2822 30.129 30.6899 29.7362 30.3521ZM6.1339 9.4375H25.8653L23.572 15.1696C23.1425 16.2435 22.1171 16.9375 20.9608 16.9375H11.0383C9.88202 16.9375 8.85665 16.2435 8.42727 15.1696L6.1339 9.4375ZM8.49959 20.75H10.3746C10.8928 20.75 11.3121 21.1693 11.3121 21.6875C11.3121 22.2057 10.8928 22.625 10.3746 22.625H8.49959C7.9814 22.625 7.56209 22.2057 7.56209 21.6875C7.56209 21.1693 7.9814 20.75 8.49959 20.75ZM7.57615 28.25L9.75302 26.375H13.1871V23.5625C13.1871 22.0116 14.4487 20.75 15.9996 20.75C17.5505 20.75 18.8121 22.0116 18.8121 23.5625V26.375H22.2461L24.423 28.25H7.57615ZM23.4996 22.625H21.6246C21.1064 22.625 20.6871 22.2057 20.6871 21.6875C20.6871 21.1693 21.1064 20.75 21.6246 20.75H23.4996C24.0178 20.75 24.4371 21.1693 24.4371 21.6875C24.4371 22.2057 24.0178 22.625 23.4996 22.625Z" fill="#0E4F32"/>
<path d="M16 22.625C15.4827 22.625 15.0625 23.0452 15.0625 23.5625V26.375H16.9375V23.5625C16.9375 23.0452 16.5173 22.625 16 22.625Z" fill="#0E4F32"/>
</g>
<defs>
<clipPath id="clip0">
<rect width="32" height="32" fill="white"/>
</clipPath>
</defs>
</svg>
