<svg width="767" height="44" viewBox="0 0 767 44" fill="none" xmlns="http://www.w3.org/2000/svg">
<path fill-rule="evenodd" clip-rule="evenodd" d="M103.718 29.367C104.906 28.8577 105.925 28.5182 106.773 28.5182C109.15 28.5182 110.678 30.046 112.206 31.5737L112.715 32.083C113.224 32.4225 113.733 32.9317 114.243 33.2712C115.261 33.9502 116.449 34.2897 117.807 34.2897C118.996 34.2897 120.184 33.9502 121.372 33.2712C121.881 32.9317 122.391 32.5922 122.9 32.083L123.409 31.5737C125.107 30.046 126.634 28.5182 128.841 28.5182C129.86 28.5182 130.878 28.8577 131.897 29.367C128.841 20.3701 124.428 10.6943 120.184 2.20676C119.505 0.678997 118.996 0.169749 117.638 0.169749C116.28 0.169749 115.77 0.678997 115.091 2.20676C111.357 10.6943 106.773 20.3701 103.718 29.367ZM124.597 3.39503C123.749 3.39503 122.9 2.71602 122.9 1.69751C122.9 0.848756 123.579 0 124.597 0C125.446 0 126.295 0.679005 126.295 1.69751C126.295 2.71602 125.446 3.39503 124.597 3.39503ZM131.218 3.39503C130.369 3.39503 129.52 2.71602 129.52 1.69751C129.52 0.848756 130.199 0 131.218 0C132.066 0 132.915 0.679005 132.915 1.69751C132.915 2.71602 132.236 3.39503 131.218 3.39503ZM131.218 16.8054C130.369 16.8054 129.52 16.1264 129.52 15.1079C129.52 14.2591 130.199 13.4103 131.218 13.4103C132.066 13.4103 132.915 14.0893 132.915 15.1079C132.915 16.1264 132.236 16.8054 131.218 16.8054ZM131.218 10.0153C130.369 10.0153 129.52 9.33631 129.52 8.3178C129.52 7.46905 130.199 6.62029 131.218 6.62029C132.066 6.62029 132.915 7.29929 132.915 8.3178C132.915 9.33631 132.236 10.0153 131.218 10.0153ZM138.008 3.39503C138.856 3.39503 139.705 2.71602 139.705 1.69751C139.705 0.848756 139.026 0 138.008 0C137.159 0 136.31 0.679005 136.31 1.69751C136.31 2.71602 136.989 3.39503 138.008 3.39503ZM138.008 30.2157C138.856 30.2157 139.705 29.5367 139.705 28.5182C139.705 27.6694 139.026 26.8207 138.008 26.8207C137.159 26.8207 136.31 27.4997 136.31 28.5182C136.31 29.367 136.989 30.2157 138.008 30.2157ZM138.008 23.4257C138.856 23.4257 139.705 22.7467 139.705 21.7282C139.705 20.8794 139.026 20.0306 138.008 20.0306C137.159 20.0306 136.31 20.7096 136.31 21.7282C136.31 22.7467 136.989 23.4257 138.008 23.4257ZM138.008 10.0153C138.856 10.0153 139.705 9.33631 139.705 8.3178C139.705 7.46905 139.026 6.62029 138.008 6.62029C137.159 6.62029 136.31 7.29929 136.31 8.3178C136.31 9.33631 136.989 10.0153 138.008 10.0153ZM138.008 16.8054C138.856 16.8054 139.705 16.1264 139.705 15.1079C139.705 14.2591 139.026 13.4103 138.008 13.4103C137.159 13.4103 136.31 14.0893 136.31 15.1079C136.31 16.1264 136.989 16.8054 138.008 16.8054ZM111.187 3.39503C110.338 3.39503 109.49 2.71602 109.49 1.69751C109.49 0.848756 110.169 0 111.187 0C112.036 0 112.885 0.679005 112.885 1.69751C112.885 2.71602 112.036 3.39503 111.187 3.39503ZM104.567 3.39503C103.718 3.39503 102.869 2.71602 102.869 1.69751C102.869 0.848756 103.548 0 104.567 0C105.415 0 106.264 0.679005 106.264 1.69751C106.094 2.71602 105.415 3.39503 104.567 3.39503ZM104.567 16.8054C103.718 16.8054 102.869 16.1264 102.869 15.1079C102.869 14.2591 103.548 13.4103 104.567 13.4103C105.415 13.4103 106.264 14.0893 106.264 15.1079C106.094 16.1264 105.415 16.8054 104.567 16.8054ZM104.567 10.0153C103.718 10.0153 102.869 9.33631 102.869 8.3178C102.869 7.46905 103.548 6.62029 104.567 6.62029C105.415 6.62029 106.264 7.29929 106.264 8.3178C106.094 9.33631 105.415 10.0153 104.567 10.0153ZM97.7767 3.39503C98.6254 3.39503 99.4742 2.71602 99.4742 1.69751C99.4742 0.848756 98.7952 0 97.7767 0C96.9279 0 96.0792 0.679005 96.0792 1.69751C96.0792 2.71602 96.9279 3.39503 97.7767 3.39503ZM97.7767 30.2157C98.6254 30.2157 99.4742 29.5367 99.4742 28.5182C99.4742 27.6694 98.7952 26.8207 97.7767 26.8207C96.9279 26.8207 96.0792 27.4997 96.0792 28.5182C96.0792 29.367 96.9279 30.2157 97.7767 30.2157ZM97.7767 23.4257C98.6254 23.4257 99.4742 22.7467 99.4742 21.7282C99.4742 20.8794 98.7952 20.0306 97.7767 20.0306C96.9279 20.0306 96.0792 20.7096 96.0792 21.7282C96.0792 22.7467 96.9279 23.4257 97.7767 23.4257ZM97.7767 10.0153C98.6254 10.0153 99.4742 9.33631 99.4742 8.3178C99.4742 7.46905 98.7952 6.62029 97.7767 6.62029C96.9279 6.62029 96.0792 7.29929 96.0792 8.3178C96.0792 9.33631 96.9279 10.0153 97.7767 10.0153ZM97.7767 16.8054C98.6254 16.8054 99.4742 16.1264 99.4742 15.1079C99.4742 14.2591 98.7952 13.4103 97.7767 13.4103C96.9279 13.4103 96.0792 14.0893 96.0792 15.1079C96.0792 16.1264 96.9279 16.8054 97.7767 16.8054ZM132.745 32.083C134.952 33.441 138.856 35.6478 139.705 36.157C139.535 37.0058 138.517 39.8915 134.443 43.6261H120.523C120.523 41.0798 119.335 39.2125 117.977 39.2125C116.619 39.2125 115.431 41.2495 115.431 43.6261H101.511C97.4372 39.8915 96.4187 37.0058 96.2489 36.157C97.0977 35.6478 101.002 33.441 103.209 32.083L103.718 31.9132C104.227 31.5737 104.567 31.404 104.736 31.404C104.906 31.2342 105.246 31.2342 105.415 31.0645H105.585H105.755C105.925 31.0645 106.094 30.8947 106.264 30.8947C106.774 30.725 107.283 30.725 107.962 30.8947C108.132 30.8947 108.301 31.0645 108.471 31.0645C108.98 31.2342 109.32 31.5737 109.829 31.9132C110.169 32.083 110.338 32.4225 110.678 32.762C110.848 32.9317 110.848 32.9317 111.017 33.1015L111.696 33.7805C112.206 34.2897 112.885 34.799 113.564 35.1385C116.28 36.836 119.844 36.836 122.56 35.1385C123.239 34.799 123.918 34.2897 124.428 33.7805L124.767 33.441C124.937 33.2712 125.276 32.9317 125.446 32.762C125.786 32.4225 126.125 32.2527 126.295 31.9132C126.804 31.404 127.313 31.2342 127.653 31.0645C127.823 31.0645 127.992 30.8947 128.162 30.8947C128.671 30.725 129.181 30.725 129.86 30.8947C130.029 30.8947 130.199 30.8947 130.369 31.0645C130.539 31.0645 130.539 31.0645 130.708 31.2342C130.878 31.2342 131.048 31.404 131.387 31.5737C131.557 31.7435 132.066 31.9132 132.406 32.2527C132.406 31.9132 132.576 32.083 132.745 32.083Z" fill="#0A8232"/>
<path fill-rule="evenodd" clip-rule="evenodd" d="M473.267 31.7437V28.0092H475.473C476.322 28.0092 476.831 26.9907 476.152 26.4814C468.513 19.6914 462.063 11.8828 457.31 3.05577C457.14 2.71627 456.801 2.54651 456.291 2.54651C455.952 2.54651 455.443 2.71627 455.273 3.05577C450.35 11.8828 444.069 19.8611 436.431 26.4814C435.752 26.9907 436.261 28.0092 437.11 28.0092H439.316V31.7437C436.6 32.4227 434.563 34.7993 434.563 37.685C434.563 41.0801 437.279 43.7961 440.674 43.7961C444.069 43.7961 446.785 41.0801 446.785 37.685C446.785 34.7993 444.748 32.4227 442.202 31.7437V28.0092H455.103V31.7437C452.387 32.4227 450.35 34.7993 450.35 37.685C450.35 41.0801 453.066 43.7961 456.461 43.7961C459.856 43.7961 462.572 41.0801 462.572 37.685C462.572 34.7993 460.535 32.4227 457.989 31.7437V28.0092H470.89V31.7437C468.174 32.4227 466.307 34.7993 466.307 37.685C466.307 41.0801 469.023 43.7961 472.418 43.7961C475.813 43.7961 478.529 41.0801 478.529 37.685C478.02 34.7993 475.983 32.4227 473.267 31.7437ZM476.322 16.8056C475.473 16.8056 474.625 16.1266 474.625 15.1081C474.625 14.2594 475.304 13.4106 476.322 13.4106C477.171 13.4106 478.02 14.0896 478.02 15.1081C478.02 15.9569 477.341 16.8056 476.322 16.8056ZM469.702 10.1853C468.853 10.1853 468.004 9.50631 468.004 8.48781C468.004 7.63905 468.683 6.79029 469.702 6.79029C470.55 6.79029 471.399 7.4693 471.399 8.48781C471.229 9.33656 470.55 10.1853 469.702 10.1853ZM476.322 10.1853C475.473 10.1853 474.625 9.50631 474.625 8.48781C474.625 7.63905 475.304 6.79029 476.322 6.79029C477.171 6.79029 478.02 7.4693 478.02 8.48781C478.02 9.33656 477.341 10.1853 476.322 10.1853ZM462.912 3.39527C462.063 3.39527 461.214 2.71626 461.214 1.69776C461.214 0.849 461.893 0.000244141 462.912 0.000244141C463.76 0.000244141 464.609 0.679249 464.609 1.69776C464.609 2.71626 463.93 3.39527 462.912 3.39527ZM469.702 3.39527C468.853 3.39527 468.004 2.71626 468.004 1.69776C468.004 0.849 468.683 0.000244141 469.702 0.000244141C470.55 0.000244141 471.399 0.679249 471.399 1.69776C471.229 2.71626 470.55 3.39527 469.702 3.39527ZM476.322 3.39527C475.473 3.39527 474.625 2.71626 474.625 1.69776C474.625 0.849 475.304 0.000244141 476.322 0.000244141C477.171 0.000244141 478.02 0.679249 478.02 1.69776C478.02 2.71626 477.341 3.39527 476.322 3.39527ZM436.261 16.8056C435.412 16.8056 434.563 16.1266 434.563 15.1081C434.563 14.2594 435.242 13.4106 436.261 13.4106C437.11 13.4106 437.958 14.0896 437.958 15.1081C437.789 15.9569 437.11 16.8056 436.261 16.8056ZM442.881 10.1853C442.032 10.1853 441.184 9.50631 441.184 8.48781C441.184 7.63905 441.863 6.79029 442.881 6.79029C443.73 6.79029 444.579 7.4693 444.579 8.48781C444.579 9.33656 443.73 10.1853 442.881 10.1853ZM436.261 10.1853C435.412 10.1853 434.563 9.50631 434.563 8.48781C434.563 7.63905 435.242 6.79029 436.261 6.79029C437.11 6.79029 437.958 7.4693 437.958 8.48781C437.789 9.33656 437.11 10.1853 436.261 10.1853ZM449.501 3.39527C448.653 3.39527 447.804 2.71626 447.804 1.69776C447.804 0.849 448.483 0.000244141 449.501 0.000244141C450.35 0.000244141 451.199 0.679249 451.199 1.69776C451.199 2.71626 450.52 3.39527 449.501 3.39527ZM442.881 3.39527C442.032 3.39527 441.184 2.71626 441.184 1.69776C441.184 0.849 441.863 0.000244141 442.881 0.000244141C443.73 0.000244141 444.579 0.679249 444.579 1.69776C444.579 2.71626 443.73 3.39527 442.881 3.39527ZM436.261 3.39527C435.412 3.39527 434.563 2.71626 434.563 1.69776C434.563 0.849 435.242 0.000244141 436.261 0.000244141C437.11 0.000244141 437.958 0.679249 437.958 1.69776C437.789 2.71626 437.11 3.39527 436.261 3.39527ZM456.291 15.4476C458.159 15.4476 459.517 16.9754 459.517 18.6729C459.517 20.5401 457.989 21.8982 456.291 21.8982C454.424 21.8982 453.066 20.3704 453.066 18.6729C452.896 16.9754 454.424 15.4476 456.291 15.4476ZM443.9 37.5153C443.9 39.3825 442.372 40.7405 440.674 40.7405C438.807 40.7405 437.449 39.2128 437.449 37.5153C437.449 35.8178 438.977 34.29 440.674 34.29C442.372 34.29 443.9 35.8178 443.9 37.5153ZM459.517 37.5153C459.517 39.3825 457.989 40.7405 456.291 40.7405C454.424 40.7405 453.066 39.2128 453.066 37.5153C453.066 35.8178 454.594 34.29 456.291 34.29C458.159 34.29 459.517 35.8178 459.517 37.5153ZM456.291 24.7839C452.896 24.7839 450.18 22.0679 450.18 18.6729C450.18 15.2779 452.896 12.5618 456.291 12.5618C459.686 12.5618 462.402 15.2779 462.402 18.6729C462.233 22.0679 459.686 24.7839 456.291 24.7839ZM471.909 40.9103C470.041 40.9103 468.683 39.3825 468.683 37.685C468.683 35.9875 470.211 34.4598 471.909 34.4598C473.776 34.4598 475.134 35.9875 475.134 37.685C475.134 39.3825 473.776 40.9103 471.909 40.9103Z" fill="#0A8232"/>
<path fill-rule="evenodd" clip-rule="evenodd" d="M490.581 35.4779C493.297 35.3082 494.995 33.7804 495.165 31.2342V30.8947C495.504 28.1786 495.844 25.1231 496.013 22.9163C496.013 21.7281 496.862 20.3701 498.39 20.0306C498.56 20.0306 498.729 20.0306 498.899 20.0306C500.257 20.0306 501.445 20.0306 502.294 20.0306C502.124 25.9719 501.615 34.2897 500.257 36.836C500.087 37.1755 500.257 37.515 500.597 37.515H507.556C507.896 37.515 508.066 37.1755 507.896 36.836C506.538 34.2897 506.029 25.9719 505.859 20.0306C506.708 20.0306 507.896 20.0306 509.254 20.0306C509.424 20.0306 509.593 20.0306 509.763 20.0306C511.461 20.2003 512.14 21.7281 512.14 22.9163C512.309 25.1231 512.649 28.1786 512.819 30.7249V31.0644C513.158 33.6107 514.686 35.1384 517.402 35.3082C517.402 35.3082 517.402 35.3082 517.572 35.3082C518.251 35.3082 518.93 34.7989 518.93 33.9502C518.93 33.2712 518.42 32.5922 517.572 32.4224C516.044 32.2527 515.704 31.4039 515.535 30.5552V30.2157C515.195 27.4996 514.856 24.6139 514.856 22.4071C514.686 19.5213 512.649 17.3146 509.933 16.9751C509.593 16.9751 509.424 16.9751 509.084 16.9751C507.726 16.9751 506.538 16.9751 505.519 16.9751C505.519 16.296 505.519 15.7868 505.519 15.2775C507.217 14.5985 508.405 13.2405 508.745 11.3733H512.309C512.988 11.3733 513.667 10.6943 513.667 10.0153C513.667 9.33625 512.988 8.65724 512.309 8.65724H508.575C507.896 6.78998 506.029 5.43198 503.822 5.43198C500.936 5.43198 498.729 7.80849 498.729 10.5245C498.729 12.7313 500.087 14.5985 502.124 15.2775C502.124 15.7868 502.124 16.296 502.124 16.9751C501.106 16.9751 499.918 16.9751 498.56 16.9751C498.22 16.9751 498.05 16.9751 497.711 16.9751C494.995 17.3146 492.958 19.3516 492.788 22.4071C492.618 24.6139 492.279 27.4996 492.109 30.2157V30.5552C491.939 31.4039 491.769 32.2527 490.072 32.4224C489.393 32.4224 488.714 33.1014 488.714 33.9502C489.223 34.9687 489.902 35.4779 490.581 35.4779ZM490.921 16.8053C490.072 16.8053 489.223 16.1263 489.223 15.1078C489.223 14.259 489.902 13.4103 490.921 13.4103C491.769 13.4103 492.618 14.0893 492.618 15.1078C492.618 15.9565 491.939 16.8053 490.921 16.8053ZM517.741 16.8053C516.893 16.8053 516.044 16.1263 516.044 15.1078C516.044 14.259 516.723 13.4103 517.741 13.4103C518.59 13.4103 519.439 14.0893 519.439 15.1078C519.439 15.9565 518.59 16.8053 517.741 16.8053ZM524.192 0.169678C525.21 0.169678 526.059 1.01844 526.059 2.03695V41.7587C526.059 42.7772 525.21 43.626 524.192 43.626H484.47C483.452 43.626 482.603 42.7772 482.603 41.7587V2.03695C482.603 1.01844 483.452 0.169678 484.47 0.169678H524.192ZM522.664 40.0612H486.168V3.73446H522.664V40.0612ZM504.331 8.48749C505.689 8.48749 506.708 9.506 506.708 10.864C506.708 12.222 505.689 13.2405 504.331 13.2405C502.973 13.2405 501.955 12.222 501.955 10.864C501.955 9.506 502.973 8.48749 504.331 8.48749Z" fill="#B87F04"/>
<path fill-rule="evenodd" clip-rule="evenodd" d="M764.729 0.000244141H725.008C723.989 0.000244141 723.14 0.848998 723.14 1.86751V41.5893C723.14 42.6078 723.989 43.4566 725.008 43.4566H764.729C765.748 43.4566 766.597 42.6078 766.597 41.5893V1.86751C766.597 0.848998 765.748 0.000244141 764.729 0.000244141ZM763.032 21.7284C759.467 19.3519 756.072 16.6359 753.017 13.5803C749.961 10.5248 747.245 7.12979 744.868 3.56502H763.032V21.7284ZM744.868 21.7284V33.9505C743.171 31.574 741.134 29.537 739.097 27.4999C737.06 25.4629 734.853 23.5957 732.477 21.7284H744.868V9.50632C746.566 11.8828 748.603 13.9198 750.64 15.9569C752.677 17.9939 754.884 19.8611 757.26 21.7284H744.868ZM726.535 40.0616V3.56502H744.699C743.001 6.11129 741.134 8.65755 739.097 10.8643C738.248 11.7131 737.399 12.7316 736.551 13.5803C735.702 14.4291 734.683 15.2779 733.835 16.1266C731.458 18.1636 729.082 20.0309 726.535 21.7284C730.1 24.1049 733.495 26.821 736.551 29.8765C739.606 32.932 742.322 36.327 744.699 39.8918C747.075 36.327 749.791 32.932 752.847 29.8765C754.035 28.6882 755.223 27.6697 756.412 26.6512C757.77 25.4629 759.297 24.2747 760.825 23.2562C761.504 22.7469 762.183 22.2377 762.862 21.7284V39.8918H726.535V40.0616Z" fill="#B87F04"/>
<path fill-rule="evenodd" clip-rule="evenodd" d="M408.082 8.31806C409.44 8.31806 410.628 8.48781 411.816 8.82732C411.816 8.82732 411.816 5.60204 409.61 3.90453C407.912 2.54652 408.082 1.35826 408.591 0.509503C408.761 0.339752 408.421 0.169993 408.252 0.169993C406.724 0.848998 403.159 3.05577 404.517 8.82732C405.705 8.48781 406.894 8.31806 408.082 8.31806ZM428.282 40.401C427.434 40.401 426.585 41.08 426.585 42.0986C426.585 42.9473 427.264 43.7961 428.282 43.7961C429.131 43.7961 429.98 43.1171 429.98 42.0986C429.81 41.08 429.131 40.401 428.282 40.401ZM388.051 40.401C387.203 40.401 386.354 41.08 386.354 42.0986C386.354 42.9473 387.033 43.7961 388.051 43.7961C388.9 43.7961 389.749 43.1171 389.749 42.0986C389.749 41.08 389.07 40.401 388.051 40.401ZM428.282 3.39527C429.131 3.39527 429.98 2.71626 429.98 1.69776C429.98 0.849 429.301 0.000244141 428.282 0.000244141C427.434 0.000244141 426.585 0.679249 426.585 1.69776C426.585 2.71626 427.264 3.39527 428.282 3.39527ZM388.051 3.39527C388.9 3.39527 389.749 2.71626 389.749 1.69776C389.749 0.849 389.07 0.000244141 388.051 0.000244141C387.203 0.000244141 386.354 0.679249 386.354 1.69776C386.354 2.71626 387.203 3.39527 388.051 3.39527ZM408.761 32.5925C414.363 32.253 418.946 27.4999 418.946 21.8982C418.946 15.9569 414.193 11.0341 408.082 11.0341C406.384 11.0341 404.687 11.3736 403.329 12.2223C398.576 15.2779 399.085 20.3704 399.085 20.3704C399.085 21.8982 399.594 23.2562 400.613 24.4444C401.122 25.1234 401.801 25.6327 402.31 26.1419C404.008 27.3302 406.045 27.3302 407.403 26.8209C408.761 26.4814 409.779 25.6327 410.119 24.7839C410.628 23.9352 410.798 23.5957 410.798 22.9167C411.137 20.8796 410.289 19.0124 408.761 18.3334C407.233 17.6544 406.215 17.9939 405.705 18.3334C405.536 18.3334 405.366 18.5031 405.536 18.6729C405.536 18.8426 405.705 18.8426 405.875 18.8426C406.045 18.8426 406.215 18.8426 406.384 18.8426C407.233 19.0124 408.082 19.5216 408.421 20.3704C408.591 20.8796 408.761 21.2192 408.761 21.7284C408.761 22.9167 407.912 23.9352 406.724 24.2747C404.857 24.7839 402.48 23.7654 402.31 20.8797C402.31 19.3519 402.65 18.1636 403.329 17.4846C404.347 16.1266 405.875 15.4476 407.573 15.2779C409.27 15.1081 410.628 15.7871 411.816 16.6359C414.023 18.3334 415.042 21.2191 414.363 23.9352C413.684 26.6512 411.647 29.1975 407.912 29.8765C405.366 30.3857 403.159 29.537 401.631 28.5185C399.594 27.1604 398.576 25.2932 398.406 25.2932C398.236 25.1234 398.236 25.1234 398.067 25.2932C398.067 25.4629 398.067 25.6327 398.067 25.6327C398.067 25.8024 398.067 25.9722 398.067 26.1419C398.236 26.8209 398.406 27.4999 398.915 28.0092C399.425 28.858 400.273 29.7067 400.952 30.3857L401.122 30.5555C401.292 30.7252 401.462 30.895 401.631 30.895C403.668 32.0832 406.215 32.7622 408.761 32.5925ZM396.369 15.1081C391.446 12.0526 392.295 7.97856 392.974 6.28105C392.974 6.1113 393.314 6.1113 393.483 6.28105C393.823 7.29956 394.502 8.14831 396.709 7.97856C399.594 7.63906 401.801 9.84582 401.801 9.84582C399.425 11.2038 397.727 12.9013 396.369 15.1081ZM386.693 21.3889C386.524 21.2191 386.354 21.5587 386.354 21.7284C387.033 23.2562 389.24 26.8209 395.011 25.4629C394.672 24.2747 394.502 23.0864 394.502 21.8982C394.502 20.5401 394.672 19.3519 395.011 18.1636C395.011 18.1636 391.786 18.1636 390.088 20.3704C388.9 21.8982 387.712 21.8982 386.693 21.3889ZM396.369 28.3487C397.557 30.5555 399.425 32.253 401.462 33.611C398.406 38.5338 394.332 37.685 392.635 37.006C392.465 37.006 392.465 36.6665 392.635 36.4968C393.653 36.1573 394.502 35.4782 394.332 33.2715C393.993 30.5555 396.199 28.3487 396.369 28.3487C396.199 28.3487 396.369 28.3487 396.369 28.3487ZM408.082 35.4783C406.724 35.4783 405.536 35.3085 404.347 34.969C404.347 34.969 404.347 38.1943 406.554 39.8918C408.252 41.2498 408.082 42.4381 407.573 43.2868C407.403 43.4566 407.742 43.6263 407.912 43.6263C409.44 42.9473 413.005 40.7405 411.647 34.969C410.628 35.3085 409.44 35.4783 408.082 35.4783ZM419.965 28.6882C424.887 31.7437 424.039 35.8178 423.36 37.5153C423.36 37.685 423.02 37.685 422.85 37.5153C422.511 36.4968 421.832 35.648 419.625 35.8178C416.739 36.1573 414.532 33.9505 414.532 33.9505C416.909 32.5925 418.606 30.7252 419.965 28.6882ZM429.471 22.4074C429.64 22.5772 429.81 22.2377 429.81 22.0679C429.131 20.5401 426.924 16.9754 421.153 18.3334C421.492 19.5216 421.662 20.7099 421.662 21.8982C421.662 23.2562 421.492 24.4444 421.153 25.6327C421.323 25.6327 424.378 25.6327 426.076 23.4259C427.434 21.7284 428.622 21.8982 429.471 22.4074ZM419.965 15.4476C418.776 13.2408 416.909 11.5433 414.872 10.1853C417.927 5.26253 422.002 6.11129 423.699 6.79029C423.869 6.79029 423.869 7.1298 423.699 7.29955C422.681 7.63906 421.832 8.31806 422.002 10.5248C422.341 13.0711 419.965 15.4476 419.965 15.4476Z" fill="#B87F04"/>
<path fill-rule="evenodd" clip-rule="evenodd" d="M43.4563 20.5399C43.4563 33.2712 33.7805 43.4563 21.7282 43.4563C9.67583 43.4563 0 33.1015 0 20.5399C0 11.5431 4.92279 3.90428 11.8826 0C8.99682 3.56478 6.6203 8.48756 6.6203 13.7498C6.6203 24.7837 13.4104 31.404 21.7282 31.404C30.046 31.404 36.836 24.9534 36.836 13.7498C36.836 8.48756 34.4595 3.56478 31.5737 0C38.5335 3.90428 43.4563 11.7128 43.4563 20.5399Z" fill="#0A8232"/>
<path fill-rule="evenodd" clip-rule="evenodd" d="M307.25 9.1665C307.25 8.31774 306.571 7.63874 305.552 7.63874C304.704 7.63874 303.855 8.31774 303.855 9.1665V22.9163H290.275C290.445 27.3299 291.972 31.4039 294.519 34.7989H307.25V9.1665ZM319.981 22.9163V9.1665C319.981 8.31774 319.302 7.63874 318.284 7.63874C317.435 7.63874 316.586 8.31774 316.586 9.1665V34.7989H329.318C331.864 31.4039 333.392 27.3299 333.561 22.9163H319.981ZM299.611 9.1665V18.6726H290.444C291.972 8.14799 300.969 0.169678 312.003 0.169678C322.867 0.169678 331.864 8.14799 333.561 18.6726H324.395V9.1665C324.395 5.94123 321.679 3.39495 318.453 3.39495C315.907 3.39495 313.7 4.92272 312.852 7.12949H311.154C310.305 4.92272 308.099 3.39495 305.552 3.39495C304.704 3.39495 303.685 3.56471 303.006 4.07396C300.969 4.92272 299.611 6.95973 299.611 9.1665ZM312.003 43.626C317.095 43.626 321.848 41.9285 325.583 38.873H298.423C302.157 41.9285 306.741 43.626 312.003 43.626Z" fill="#B87F04"/>
<path fill-rule="evenodd" clip-rule="evenodd" d="M69.2584 0.169678C57.2061 0.169678 47.5303 9.84549 47.5303 21.8978C47.5303 33.9502 57.2061 43.626 69.2584 43.626C81.3108 43.626 90.9866 33.9502 90.9866 21.8978C90.9866 9.84549 81.3108 0.169678 69.2584 0.169678ZM75.8787 25.6324C77.4065 25.8021 78.9342 25.2929 80.462 24.2743C81.141 23.5953 81.82 22.9163 82.499 21.8978C84.8755 25.8021 86.0638 31.5737 86.0638 31.5737C86.0638 31.5737 80.462 33.6107 75.8787 33.4409C76.388 32.4224 76.7275 31.4039 76.8972 30.5552C77.2367 28.5181 76.8972 26.8206 75.8787 25.6324ZM82.499 21.8978C81.9898 20.8793 81.3108 20.0306 80.462 19.5213C78.9342 18.3331 77.4065 17.8238 75.8787 18.1633C76.8972 16.975 77.2367 15.2775 76.8972 13.4103C76.7275 12.3918 76.388 11.3733 75.8787 10.5245C80.462 10.3548 86.0638 12.3918 86.0638 12.3918C86.0638 12.3918 84.8755 17.9936 82.499 21.8978ZM75.8787 10.3548C74.6905 10.3548 73.672 10.5245 72.8232 10.864C71.1257 11.543 69.9374 12.7313 69.2584 14.0893C68.7492 12.5615 67.3912 11.543 65.6937 10.864C64.8449 10.5245 63.6566 10.3548 62.6381 10.3548C64.8449 6.28072 69.2584 2.5462 69.2584 2.5462C69.2584 2.5462 73.672 6.28072 75.8787 10.3548ZM62.6381 10.3548C62.1289 11.3733 61.7894 12.3918 61.6196 13.2405C61.2801 15.1078 61.7894 16.6355 62.6381 17.9936C61.1104 17.8238 59.5826 18.3331 58.0548 19.3516C57.3758 20.0306 56.6968 20.8793 56.0178 21.7281C53.6413 17.8238 52.453 12.0523 52.453 12.0523C52.453 12.0523 58.0548 10.185 62.6381 10.3548ZM56.0178 21.8978C56.5271 22.9163 57.2061 23.7651 58.0548 24.2743C59.5826 25.4626 61.1104 25.9719 62.6381 25.6324C61.6196 26.8206 61.2801 28.5181 61.6196 30.3854C61.7894 31.4039 62.1289 32.4224 62.6381 33.2712C58.0548 33.4409 52.453 31.4039 52.453 31.4039C52.453 31.4039 53.6413 25.6324 56.0178 21.8978ZM62.6381 33.2712C63.8264 33.2712 64.8449 33.1014 65.6937 32.7619C67.3912 32.0829 68.5794 30.8946 69.2584 29.5366C69.7677 31.0644 71.1257 32.0829 72.8232 32.7619C73.672 33.1014 74.8602 33.2712 75.8787 33.2712C73.672 37.3452 69.2584 41.0797 69.2584 41.0797C69.2584 41.0797 64.8449 37.3452 62.6381 33.2712ZM69.2584 25.1231C67.3912 25.1231 66.0331 23.5953 66.0331 21.8978C66.0331 20.0306 67.5609 18.6726 69.2584 18.6726C70.9559 18.6726 72.4837 20.2003 72.4837 21.8978C72.4837 23.5953 71.1257 25.1231 69.2584 25.1231ZM78.2552 4.75296C79.104 4.75296 79.9528 5.43196 79.9528 6.45047C79.9528 7.29922 79.2738 8.14798 78.2552 8.14798C77.4065 8.14798 76.5577 7.46898 76.5577 6.45047C76.5577 5.43196 77.2367 4.75296 78.2552 4.75296ZM60.2616 4.75296C61.1104 4.75296 61.9591 5.43196 61.9591 6.45047C61.9591 7.29922 61.2801 8.14798 60.2616 8.14798C59.4129 8.14798 58.5641 7.46898 58.5641 6.45047C58.7339 5.43196 59.4129 4.75296 60.2616 4.75296ZM51.4345 23.4256C50.5858 23.4256 49.737 22.7466 49.737 21.7281C49.737 20.8793 50.416 20.0306 51.4345 20.0306C52.2833 20.0306 53.1321 20.7096 53.1321 21.7281C52.9623 22.7466 52.2833 23.4256 51.4345 23.4256ZM60.2616 39.0427C59.4129 39.0427 58.5641 38.3637 58.5641 37.3452C58.5641 36.4964 59.2431 35.6477 60.2616 35.6477C61.1104 35.6477 61.9591 36.3267 61.9591 37.3452C61.9591 38.194 61.2801 39.0427 60.2616 39.0427ZM78.2552 39.0427C77.4065 39.0427 76.5577 38.3637 76.5577 37.3452C76.5577 36.4964 77.2367 35.6477 78.2552 35.6477C79.104 35.6477 79.9528 36.3267 79.9528 37.3452C79.783 38.194 79.104 39.0427 78.2552 39.0427ZM87.2521 23.4256C86.4033 23.4256 85.5545 22.7466 85.5545 21.7281C85.5545 20.8793 86.2335 20.0306 87.2521 20.0306C88.1008 20.0306 88.9496 20.7096 88.9496 21.7281C88.7798 22.7466 88.1008 23.4256 87.2521 23.4256Z" fill="#B87F04"/>
<path fill-rule="evenodd" clip-rule="evenodd" d="M668.48 0.000244141H628.759C627.74 0.000244141 626.891 0.848998 626.891 1.86751V41.5893C626.891 42.6078 627.74 43.4566 628.759 43.4566H637.755H659.484H668.48C669.499 43.4566 670.348 42.6078 670.348 41.5893V1.86751C670.348 0.848998 669.499 0.000244141 668.48 0.000244141ZM636.397 19.1821C635.039 19.1821 634.021 18.1636 634.021 16.8056C634.021 15.4476 635.039 14.4291 636.397 14.4291C637.755 14.4291 638.774 15.4476 638.774 16.8056C638.774 18.1636 637.755 19.1821 636.397 19.1821ZM636.397 11.7131C635.039 11.7131 634.021 10.6946 634.021 9.33656C634.021 7.97855 635.039 6.96004 636.397 6.96004C637.755 6.96004 638.774 7.97855 638.774 9.33656C638.774 10.6946 637.755 11.7131 636.397 11.7131ZM660.842 19.1821C659.484 19.1821 658.465 18.1636 658.465 16.8056C658.465 15.4476 659.484 14.4291 660.842 14.4291C662.2 14.4291 663.218 15.4476 663.218 16.8056C663.218 18.1636 662.03 19.1821 660.842 19.1821ZM660.842 11.7131C659.484 11.7131 658.465 10.6946 658.465 9.33656C658.465 7.97855 659.484 6.96004 660.842 6.96004C662.2 6.96004 663.218 7.97855 663.218 9.33656C663.218 10.6946 662.03 11.7131 660.842 11.7131ZM641.151 40.0616V25.2932H655.919V33.7807L651.505 31.574C650.657 31.0647 649.638 31.574 649.129 32.4227C648.62 33.2715 649.129 34.29 649.978 34.7993L656.089 37.8548V40.2313H641.151V40.0616ZM648.62 16.2964C646.752 16.2964 645.055 14.7686 645.055 12.7316C645.055 10.8643 646.583 9.16681 648.62 9.16681C650.487 9.16681 652.184 10.6946 652.184 12.7316C652.184 14.7686 650.657 16.2964 648.62 16.2964ZM666.783 40.0616H659.484V21.7284H650.317V19.6914C653.373 18.8426 655.579 16.1266 655.579 12.9014C655.579 8.99707 652.354 5.94154 648.62 5.94154C644.715 5.94154 641.66 9.16682 641.66 12.9014C641.66 16.1266 643.867 18.8426 646.922 19.6914V21.7284H637.755V40.0616H630.456V3.56502H666.953V40.0616H666.783Z" fill="#B87F04"/>
<path fill-rule="evenodd" clip-rule="evenodd" d="M343.746 43.626H338.314V0.169678H381.771V38.194H349.178V11.0338H370.906V27.3299H360.042V21.8978H365.474V16.4658H354.61V32.7619H376.339V5.60173H343.746V43.626Z" fill="#0A8232"/>
<path fill-rule="evenodd" clip-rule="evenodd" d="M613.141 21.7284L619.762 15.1081C623.157 11.7131 623.157 5.94154 619.762 2.54651C618.064 0.849 615.688 0.000244141 613.481 0.000244141C611.274 0.000244141 608.898 0.849 607.2 2.54651L600.58 9.16681L593.96 2.54651C592.262 0.849 589.886 0.000244141 587.679 0.000244141C585.472 0.000244141 583.095 0.849 581.398 2.54651C578.003 5.94154 578.003 11.7131 581.398 15.1081L588.018 21.7284L581.398 28.3487C578.003 31.7437 578.003 37.5153 581.398 40.9103C583.095 42.6078 585.472 43.4566 587.679 43.4566C589.886 43.4566 592.262 42.6078 593.96 40.9103L600.58 34.29L607.2 40.9103C608.898 42.6078 611.274 43.4566 613.481 43.4566C615.688 43.4566 618.064 42.6078 619.762 40.9103C623.157 37.5153 623.157 31.7437 619.762 28.3487L613.141 21.7284ZM609.577 5.09278C610.595 4.07427 611.953 3.56502 613.481 3.56502C615.009 3.56502 616.367 4.07427 617.385 5.09278C618.404 6.11129 618.913 7.4693 618.913 8.99707C618.913 10.5248 618.404 11.8828 617.385 12.9014L610.765 19.5216L603.126 11.8828L609.577 5.09278ZM608.219 21.7284L600.58 29.3672L592.941 21.7284L600.58 14.0896L608.219 21.7284ZM583.774 12.7316C582.756 11.7131 582.247 10.3551 582.247 8.8273C582.247 7.29954 582.756 5.94154 583.774 4.92303C584.793 3.90453 586.151 3.39527 587.679 3.39527C589.207 3.39527 590.565 3.90453 591.583 4.92303L598.203 11.5433L590.565 19.1821L583.774 12.7316ZM591.583 38.5338C590.565 39.5523 589.207 40.0616 587.679 40.0616C586.151 40.0616 584.793 39.5523 583.774 38.5338C582.756 37.5153 582.247 36.1572 582.247 34.6295C582.247 33.1017 582.756 31.7437 583.774 30.7252L590.395 24.1049L598.034 31.7437L591.583 38.5338ZM617.215 38.5338C616.197 39.5523 614.839 40.0616 613.311 40.0616C611.783 40.0616 610.425 39.5523 609.407 38.5338L602.787 31.9135L610.425 24.2747L617.046 30.895C618.064 31.9135 618.573 33.2715 618.573 34.7993C618.743 36.1573 618.234 37.5153 617.215 38.5338Z" fill="#0A8232"/>
<path fill-rule="evenodd" clip-rule="evenodd" d="M276.695 21.8978L283.315 15.2775C286.71 11.8825 286.71 6.11097 283.315 2.71595C281.617 1.01843 279.241 0.169678 277.034 0.169678C274.827 0.169678 272.451 1.01843 270.753 2.71595L264.133 9.33625L257.513 2.71595C255.815 1.01843 253.439 0.169678 251.232 0.169678C249.025 0.169678 246.649 1.01843 244.951 2.71595C241.556 6.11097 241.556 11.8825 244.951 15.2775L251.571 21.8978L244.951 28.5181C241.556 31.9132 241.556 37.6847 244.951 41.0797C246.649 42.7772 249.025 43.626 251.232 43.626C253.439 43.626 255.815 42.7772 257.513 41.0797L264.133 34.4594L270.753 41.0797C272.451 42.7772 274.827 43.626 277.034 43.626C279.241 43.626 281.617 42.7772 283.315 41.0797C286.71 37.6847 286.71 31.9132 283.315 28.5181L276.695 21.8978ZM273.13 5.09247C274.148 4.07396 275.506 3.5647 277.034 3.5647C278.562 3.5647 279.92 4.07396 280.938 5.09247C281.957 6.11097 282.466 7.46898 282.466 8.99674C282.466 10.5245 281.957 11.8825 280.938 12.901L274.318 19.5213L266.679 11.8825L273.13 5.09247ZM271.772 21.8978L264.133 29.5366L256.494 21.8978L264.133 14.259L271.772 21.8978ZM247.328 12.7313C246.309 11.7128 245.8 10.3547 245.8 8.82699C245.8 7.29923 246.309 5.94121 247.328 4.92271C248.346 3.9042 249.704 3.39495 251.232 3.39495C252.76 3.39495 254.118 3.9042 255.136 4.92271L261.756 11.543L254.118 19.1818L247.328 12.7313ZM254.966 38.5335C253.948 39.552 252.59 40.0612 251.062 40.0612C249.534 40.0612 248.176 39.552 247.158 38.5335C246.139 37.5149 245.63 36.1569 245.63 34.6292C245.63 33.1014 246.139 31.7434 247.158 30.7249L253.778 24.1046L261.417 31.7434L254.966 38.5335ZM280.769 38.5335C279.75 39.552 278.392 40.0612 276.864 40.0612C275.337 40.0612 273.979 39.552 272.96 38.5335L266.34 31.9132L273.979 24.2743L280.599 30.8947C281.617 31.9132 282.127 33.2712 282.127 34.7989C282.296 36.1569 281.787 37.5149 280.769 38.5335Z" fill="#B87F04"/>
<path fill-rule="evenodd" clip-rule="evenodd" d="M237.312 16.8054C237.312 14.7683 236.294 12.9011 234.936 11.7128C236.463 10.5246 237.312 8.6573 237.312 6.62029C237.312 3.05551 234.426 0 230.692 0C228.655 0 226.788 1.0185 225.599 2.37651C224.411 0.848746 222.544 0 220.507 0C218.47 0 216.602 1.0185 215.414 2.37651C214.226 0.848746 212.359 0 210.322 0C208.285 0 206.417 1.0185 205.229 2.37651C204.041 0.848746 202.174 0 200.137 0C196.572 0 193.516 2.88576 193.516 6.62029C193.516 8.6573 194.535 10.5246 195.893 11.7128C194.365 12.9011 193.516 14.7683 193.516 16.8054C193.516 18.8424 194.535 20.7096 195.893 21.8979C194.365 23.0862 193.516 24.9534 193.516 26.9904C193.516 29.0275 194.535 30.8947 195.893 32.083C194.365 33.2712 193.516 35.1385 193.516 37.1755C193.516 40.7403 196.402 43.7958 200.137 43.7958C202.174 43.7958 204.041 42.7773 205.229 41.4193C206.417 42.9471 208.285 43.7958 210.322 43.7958C212.359 43.7958 214.226 42.7773 215.414 41.4193C216.602 42.9471 218.47 43.7958 220.507 43.7958C222.544 43.7958 224.411 42.7773 225.599 41.4193C226.788 42.9471 228.655 43.7958 230.692 43.7958C234.257 43.7958 237.312 40.91 237.312 37.1755C237.312 35.1385 236.294 33.2712 234.936 32.083C236.463 30.8947 237.312 29.0275 237.312 26.9904C237.312 24.9534 236.294 23.0862 234.936 21.8979C236.463 20.7096 237.312 18.8424 237.312 16.8054ZM200.476 40.5705C198.439 40.5705 196.911 39.0428 196.911 37.0058C196.911 34.9688 198.439 33.441 200.476 33.441C202.513 33.441 204.041 34.9688 204.041 37.0058C204.041 39.0428 202.343 40.5705 200.476 40.5705ZM200.476 30.5552C198.439 30.5552 196.911 29.0275 196.911 26.9904C196.911 24.9534 198.439 23.4257 200.476 23.4257C202.513 23.4257 204.041 24.9534 204.041 26.9904C204.041 28.8577 202.343 30.5552 200.476 30.5552ZM200.476 20.3701C198.439 20.3701 196.911 18.8424 196.911 16.8054C196.911 14.7683 198.439 13.2406 200.476 13.2406C202.513 13.2406 204.041 14.7683 204.041 16.8054C204.041 18.6726 202.343 20.3701 200.476 20.3701ZM200.476 10.1851C198.439 10.1851 196.911 8.6573 196.911 6.62029C196.911 4.58327 198.439 3.05551 200.476 3.05551C202.513 3.05551 204.041 4.58327 204.041 6.62029C204.041 8.6573 202.343 10.1851 200.476 10.1851ZM210.491 40.5705C208.454 40.5705 206.927 39.0428 206.927 37.0058C206.927 34.9688 208.454 33.441 210.491 33.441C212.528 33.441 214.056 34.9688 214.056 37.0058C214.056 39.0428 212.528 40.5705 210.491 40.5705ZM210.491 30.5552C208.454 30.5552 206.927 29.0275 206.927 26.9904C206.927 24.9534 208.454 23.4257 210.491 23.4257C212.528 23.4257 214.056 24.9534 214.056 26.9904C214.056 28.8577 212.528 30.5552 210.491 30.5552ZM210.491 20.3701C208.454 20.3701 206.927 18.8424 206.927 16.8054C206.927 14.7683 208.454 13.2406 210.491 13.2406C212.528 13.2406 214.056 14.7683 214.056 16.8054C214.056 18.6726 212.528 20.3701 210.491 20.3701ZM210.491 10.1851C208.454 10.1851 206.927 8.6573 206.927 6.62029C206.927 4.58327 208.454 3.05551 210.491 3.05551C212.528 3.05551 214.056 4.58327 214.056 6.62029C214.056 8.6573 212.528 10.1851 210.491 10.1851ZM220.676 40.5705C218.639 40.5705 217.112 39.0428 217.112 37.0058C217.112 34.9688 218.639 33.441 220.676 33.441C222.714 33.441 224.241 34.9688 224.241 37.0058C224.241 39.0428 222.714 40.5705 220.676 40.5705ZM220.676 30.5552C218.639 30.5552 217.112 29.0275 217.112 26.9904C217.112 24.9534 218.639 23.4257 220.676 23.4257C222.714 23.4257 224.241 24.9534 224.241 26.9904C224.241 28.8577 222.714 30.5552 220.676 30.5552ZM220.676 20.3701C218.639 20.3701 217.112 18.8424 217.112 16.8054C217.112 14.7683 218.639 13.2406 220.676 13.2406C222.714 13.2406 224.241 14.7683 224.241 16.8054C224.241 18.6726 222.714 20.3701 220.676 20.3701ZM220.676 10.1851C218.639 10.1851 217.112 8.6573 217.112 6.62029C217.112 4.58327 218.639 3.05551 220.676 3.05551C222.714 3.05551 224.241 4.58327 224.241 6.62029C224.241 8.6573 222.714 10.1851 220.676 10.1851ZM230.862 40.5705C228.825 40.5705 227.297 39.0428 227.297 37.0058C227.297 34.9688 228.825 33.441 230.862 33.441C232.899 33.441 234.426 34.9688 234.426 37.0058C234.426 39.0428 232.729 40.5705 230.862 40.5705ZM230.862 30.5552C228.825 30.5552 227.297 29.0275 227.297 26.9904C227.297 24.9534 228.825 23.4257 230.862 23.4257C232.899 23.4257 234.426 24.9534 234.426 26.9904C234.426 28.8577 232.729 30.5552 230.862 30.5552ZM230.862 20.3701C228.825 20.3701 227.297 18.8424 227.297 16.8054C227.297 14.7683 228.825 13.2406 230.862 13.2406C232.899 13.2406 234.426 14.7683 234.426 16.8054C234.426 18.6726 232.729 20.3701 230.862 20.3701ZM230.862 10.1851C228.825 10.1851 227.297 8.6573 227.297 6.62029C227.297 4.58327 228.825 3.05551 230.862 3.05551C232.899 3.05551 234.426 4.58327 234.426 6.62029C234.426 8.6573 232.729 10.1851 230.862 10.1851Z" fill="#0A8232"/>
<path fill-rule="evenodd" clip-rule="evenodd" d="M676.628 3.39527C677.477 3.39527 678.326 2.71626 678.326 1.69776C678.326 0.849 677.647 0.000244141 676.628 0.000244141C675.78 0.000244141 674.931 0.679249 674.931 1.69776C674.931 2.54651 675.78 3.39527 676.628 3.39527ZM710.069 33.4412C709.221 33.4412 708.372 34.1202 708.372 35.1388C708.372 36.1573 709.051 36.8363 710.069 36.8363C710.918 36.8363 711.767 36.1573 711.767 35.1388C711.767 34.1202 711.088 33.4412 710.069 33.4412ZM716.859 40.2313C716.011 40.2313 715.162 40.9103 715.162 41.9288C715.162 42.7776 715.841 43.6263 716.859 43.6263C717.708 43.6263 718.557 42.9473 718.557 41.9288C718.387 40.9103 717.708 40.2313 716.859 40.2313ZM716.859 26.8209C716.011 26.8209 715.162 27.5 715.162 28.5185C715.162 29.3672 715.841 30.216 716.859 30.216C717.708 30.216 718.557 29.537 718.557 28.5185C718.387 27.5 717.708 26.8209 716.859 26.8209ZM716.859 33.4412C716.011 33.4412 715.162 34.1202 715.162 35.1388C715.162 36.1573 715.841 36.8363 716.859 36.8363C717.708 36.8363 718.557 36.1573 718.557 35.1388C718.557 34.1202 717.708 33.4412 716.859 33.4412ZM683.418 33.4412C682.57 33.4412 681.721 34.1202 681.721 35.1388C681.721 36.1573 682.4 36.8363 683.418 36.8363C684.267 36.8363 685.116 36.1573 685.116 35.1388C685.116 34.1202 684.267 33.4412 683.418 33.4412ZM676.628 40.2313C675.78 40.2313 674.931 40.9103 674.931 41.9288C674.931 42.7776 675.61 43.6263 676.628 43.6263C677.477 43.6263 678.326 42.9473 678.326 41.9288C678.326 40.9103 677.647 40.2313 676.628 40.2313ZM676.628 26.8209C675.78 26.8209 674.931 27.5 674.931 28.5185C674.931 29.3672 675.61 30.216 676.628 30.216C677.477 30.216 678.326 29.537 678.326 28.5185C678.326 27.5 677.647 26.8209 676.628 26.8209ZM676.628 33.4412C675.78 33.4412 674.931 34.1202 674.931 35.1388C674.931 36.1573 675.61 36.8363 676.628 36.8363C677.477 36.8363 678.326 36.1573 678.326 35.1388C678.326 34.1202 677.647 33.4412 676.628 33.4412ZM707.014 40.7405C707.693 40.7405 708.372 41.2498 708.372 41.9288C708.542 42.7776 707.863 43.4566 707.014 43.4566H686.304C685.455 43.4566 684.776 42.7776 684.946 41.9288C685.116 41.2498 685.625 40.7405 686.304 40.7405C688.511 40.7405 690.718 39.3825 691.567 37.3455C692.076 36.1573 692.415 33.1017 692.585 31.9135C693.943 32.0832 695.131 32.253 696.489 32.253C697.847 32.253 699.205 32.0832 700.394 31.9135C700.563 33.1017 700.903 36.1573 701.412 37.3455C702.6 39.5523 704.807 40.7405 707.014 40.7405ZM676.968 13.5803C678.326 13.5803 678.835 13.0711 679.684 12.5618C680.533 12.0526 681.551 11.2038 683.588 11.2038C685.286 11.2038 686.304 11.7131 687.153 12.3921C687.323 12.3921 687.323 12.5618 687.493 12.5618C688.172 13.0711 688.851 13.5803 690.209 13.5803C691.567 13.5803 692.076 13.2408 692.925 12.7316C693.773 12.2223 694.792 11.3736 696.829 11.3736C698.696 11.3736 699.884 12.0526 700.733 12.7316C701.412 13.2408 702.091 13.5803 703.449 13.5803C704.807 13.5803 705.316 13.0711 706.165 12.5618C706.335 12.5618 706.335 12.3921 706.505 12.3921C707.353 11.8828 708.372 11.2038 710.069 11.2038C712.106 11.2038 713.125 11.8828 713.974 12.5618C714.653 13.0711 715.332 13.5803 716.69 13.5803C717.199 13.5803 717.708 13.5803 718.048 13.4106C718.387 11.7131 718.727 10.0156 718.727 8.31806H675.27C675.27 10.0156 675.44 11.7131 675.949 13.4106C675.949 13.5803 676.459 13.5803 676.968 13.5803ZM716.52 15.7871C716.69 15.7871 717.029 15.7871 717.199 15.7871C714.143 24.2747 706.165 30.3857 696.829 30.3857C687.493 30.3857 679.514 24.2747 676.459 15.7871C676.628 15.7871 676.968 15.7871 677.138 15.7871C679.175 15.7871 680.193 15.1081 681.042 14.4291C681.891 13.9198 682.4 13.4106 683.758 13.4106C685.116 13.4106 685.625 13.9198 686.474 14.4291C686.983 14.7686 687.662 15.2779 688.681 15.4476C688.681 15.4476 688.681 15.4476 688.851 15.4476C689.02 15.4476 689.19 15.6174 689.53 15.6174H689.699C690.039 15.6174 690.209 15.6174 690.548 15.6174C691.567 15.6174 692.246 15.4476 692.925 15.1081C693.604 14.9383 693.943 14.5988 694.452 14.2593C695.301 13.7501 695.81 13.2408 697.168 13.2408C698.526 13.2408 699.036 13.7501 699.884 14.2593C700.224 14.5988 700.733 14.9383 701.412 15.1081C702.091 15.2778 702.77 15.6174 703.789 15.6174C704.128 15.6174 704.298 15.6174 704.637 15.6174H704.807C704.977 15.6174 705.147 15.6174 705.486 15.4476C705.486 15.4476 705.486 15.4476 705.656 15.4476C706.505 15.1081 707.184 14.7686 707.863 14.4291C708.542 13.9198 709.221 13.4106 710.579 13.4106C711.937 13.4106 712.446 13.9198 713.295 14.4291C713.464 14.9384 714.483 15.7871 716.52 15.7871ZM683.588 19.1821C684.437 19.1821 685.286 18.5031 685.286 17.4846C685.286 16.6359 684.607 15.7871 683.588 15.7871C682.739 15.7871 681.891 16.4661 681.891 17.4846C682.06 18.3334 682.739 19.1821 683.588 19.1821ZM696.659 19.1821C697.508 19.1821 698.357 18.5031 698.357 17.4846C698.357 16.6359 697.678 15.7871 696.659 15.7871C695.81 15.7871 694.962 16.4661 694.962 17.4846C695.131 18.3334 695.81 19.1821 696.659 19.1821ZM709.9 19.1821C710.748 19.1821 711.597 18.5031 711.597 17.4846C711.597 16.6359 710.918 15.7871 709.9 15.7871C709.051 15.7871 708.202 16.4661 708.202 17.4846C708.202 18.3334 708.881 19.1821 709.9 19.1821ZM716.859 3.39527C717.708 3.39527 718.557 2.71626 718.557 1.69776C718.557 0.849 717.878 0.000244141 716.859 0.000244141C716.011 0.000244141 715.162 0.679249 715.162 1.69776C715.162 2.54651 715.841 3.39527 716.859 3.39527ZM710.069 3.39527C710.918 3.39527 711.767 2.71626 711.767 1.69776C711.767 0.849 711.088 0.000244141 710.069 0.000244141C709.221 0.000244141 708.372 0.679249 708.372 1.69776C708.542 2.54651 709.221 3.39527 710.069 3.39527ZM703.449 3.39527C704.298 3.39527 705.147 2.71626 705.147 1.69776C705.147 0.849 704.468 0.000244141 703.449 0.000244141C702.6 0.000244141 701.752 0.679249 701.752 1.69776C701.752 2.54651 702.431 3.39527 703.449 3.39527ZM696.659 3.39527C697.508 3.39527 698.357 2.71626 698.357 1.69776C698.357 0.849 697.678 0.000244141 696.659 0.000244141C695.81 0.000244141 694.962 0.679249 694.962 1.69776C695.131 2.54651 695.81 3.39527 696.659 3.39527ZM690.039 3.39527C690.888 3.39527 691.736 2.71626 691.736 1.69776C691.736 0.849 691.057 0.000244141 690.039 0.000244141C689.19 0.000244141 688.341 0.679249 688.341 1.69776C688.341 2.54651 689.19 3.39527 690.039 3.39527ZM683.418 3.39527C684.267 3.39527 685.116 2.71626 685.116 1.69776C685.116 0.849 684.437 0.000244141 683.418 0.000244141C682.57 0.000244141 681.721 0.679249 681.721 1.69776C681.721 2.54651 682.4 3.39527 683.418 3.39527Z" fill="#0A8232"/>
<path fill-rule="evenodd" clip-rule="evenodd" d="M549.824 7.1298H552.54H555.256C555.935 6.62055 556.275 5.94154 556.275 5.26253C556.275 4.24402 554.408 1.86752 553.389 0.339754C553.219 0.170003 552.88 0.000244141 552.54 0.000244141C552.201 0.000244141 551.861 0.170003 551.692 0.339754C550.673 1.69776 548.806 4.24402 548.806 5.26253C548.806 6.11129 549.145 6.62055 549.824 7.1298ZM565.781 3.39527C566.63 3.39527 567.478 2.71626 567.478 1.69776C567.478 0.849 566.799 0.000244141 565.781 0.000244141C564.932 0.000244141 564.083 0.679249 564.083 1.69776C564.253 2.71626 564.932 3.39527 565.781 3.39527ZM565.781 16.8056C566.63 16.8056 567.478 16.1266 567.478 15.1081C567.478 14.2594 566.799 13.4106 565.781 13.4106C564.932 13.4106 564.083 14.0896 564.083 15.1081C564.253 16.1266 564.932 16.8056 565.781 16.8056ZM565.781 10.1853C566.63 10.1853 567.478 9.50631 567.478 8.48781C567.478 7.63905 566.799 6.79029 565.781 6.79029C564.932 6.79029 564.083 7.4693 564.083 8.48781C564.253 9.33656 564.932 10.1853 565.781 10.1853ZM572.571 3.39527C573.42 3.39527 574.268 2.71626 574.268 1.69776C574.268 0.849 573.589 0.000244141 572.571 0.000244141C571.722 0.000244141 570.873 0.679249 570.873 1.69776C570.873 2.71626 571.722 3.39527 572.571 3.39527ZM572.571 20.2006C571.722 20.2006 570.873 20.8797 570.873 21.8982C570.873 22.7469 571.552 23.5957 572.571 23.5957C573.42 23.5957 574.268 22.9167 574.268 21.8982C574.268 21.0494 573.42 20.2006 572.571 20.2006ZM572.571 6.79029C571.722 6.79029 570.873 7.4693 570.873 8.48781C570.873 9.33656 571.552 10.1853 572.571 10.1853C573.42 10.1853 574.268 9.50631 574.268 8.48781C574.268 7.63905 573.42 6.79029 572.571 6.79029ZM572.571 13.5803C571.722 13.5803 570.873 14.2593 570.873 15.2779C570.873 16.1266 571.552 16.9754 572.571 16.9754C573.42 16.9754 574.268 16.2964 574.268 15.2779C574.268 14.2593 573.42 13.5803 572.571 13.5803ZM539.13 3.39527C539.979 3.39527 540.827 2.71626 540.827 1.69776C540.827 0.849 540.148 0.000244141 539.13 0.000244141C538.281 0.000244141 537.432 0.679249 537.432 1.69776C537.432 2.71626 538.111 3.39527 539.13 3.39527ZM539.13 16.8056C539.979 16.8056 540.827 16.1266 540.827 15.1081C540.827 14.2594 540.148 13.4106 539.13 13.4106C538.281 13.4106 537.432 14.0896 537.432 15.1081C537.432 16.1266 538.111 16.8056 539.13 16.8056ZM539.13 10.1853C539.979 10.1853 540.827 9.50631 540.827 8.48781C540.827 7.63905 540.148 6.79029 539.13 6.79029C538.281 6.79029 537.432 7.4693 537.432 8.48781C537.432 9.33656 538.111 10.1853 539.13 10.1853ZM532.34 3.39527C533.189 3.39527 534.037 2.71626 534.037 1.69776C534.037 0.849 533.358 0.000244141 532.34 0.000244141C531.491 0.000244141 530.642 0.679249 530.642 1.69776C530.812 2.71626 531.491 3.39527 532.34 3.39527ZM532.34 23.5957C533.189 23.5957 534.037 22.9167 534.037 21.8982C534.037 21.0494 533.358 20.2006 532.34 20.2006C531.491 20.2006 530.642 20.8797 530.642 21.8982C530.812 22.7469 531.491 23.5957 532.34 23.5957ZM532.34 10.1853C533.189 10.1853 534.037 9.50631 534.037 8.48781C534.037 7.63905 533.358 6.79029 532.34 6.79029C531.491 6.79029 530.642 7.4693 530.642 8.48781C530.812 9.33656 531.491 10.1853 532.34 10.1853ZM532.34 16.8056C533.189 16.8056 534.037 16.1266 534.037 15.1081C534.037 14.2594 533.358 13.4106 532.34 13.4106C531.491 13.4106 530.642 14.0896 530.642 15.1081C530.812 16.1266 531.491 16.8056 532.34 16.8056ZM564.423 24.1049C570.704 23.9352 576.305 30.5555 573.42 37.006C572.571 39.043 571.213 40.7405 569.515 41.759C567.818 42.9473 565.781 43.6263 563.574 43.6263H552.54H541.337C539.13 43.6263 537.093 42.9473 535.395 41.759C533.698 40.5708 532.34 38.8733 531.491 37.006C528.605 30.5555 534.207 23.9352 540.488 24.1049C544.732 24.1049 545.241 26.8209 544.732 28.0092C544.732 28.0092 544.732 28.1789 544.562 28.1789C544.392 28.3487 544.053 28.0092 543.883 27.8395C543.543 27.4999 543.034 27.3302 542.355 27.3302C540.997 27.3302 539.809 28.5185 539.979 30.0462C540.148 31.2345 541.167 32.0832 542.355 32.0832C545.92 32.0832 546.769 28.179 547.108 24.9537L548.297 8.99707C548.297 8.65756 548.636 8.48781 548.976 8.48781H552.371H555.766C556.105 8.48781 556.445 8.65756 556.445 8.99707L557.633 24.9537C557.972 28.179 558.821 32.0832 562.386 32.0832C563.574 32.0832 564.593 31.2345 564.762 30.0462C564.932 28.6882 563.914 27.3302 562.386 27.3302C561.877 27.3302 561.367 27.4999 560.858 27.8395C560.688 28.0092 560.349 28.3487 560.179 28.1789L560.009 28.0092C559.67 26.8209 560.179 24.1049 564.423 24.1049ZM552.54 40.401C554.408 40.401 555.935 38.8733 555.935 37.006C555.935 35.1388 554.408 33.611 552.54 33.611C550.673 33.611 549.145 35.1388 549.145 37.006C549.145 38.8733 550.673 40.401 552.54 40.401Z" fill="#0A8232"/>
<path fill-rule="evenodd" clip-rule="evenodd" d="M146.495 3.39503C147.344 3.39503 148.193 2.71602 148.193 1.69751C148.193 0.848756 147.514 0 146.495 0C145.647 0 144.798 0.679005 144.798 1.69751C144.798 2.71602 145.477 3.39503 146.495 3.39503ZM182.822 21.5584C180.955 20.3701 178.748 20.0306 176.881 20.0306C174.674 20.0306 172.467 20.5399 170.94 21.0491C170.091 21.3886 169.412 21.5584 169.072 21.8979C171.449 12.9011 166.526 8.48756 166.526 8.48756C166.526 8.48756 161.603 12.9011 163.98 21.8979C163.47 21.7281 162.961 21.3886 162.112 21.0491C160.585 20.5399 158.378 20.0306 156.171 20.0306C154.134 20.0306 152.097 20.3701 150.23 21.5584C148.193 22.7467 144.968 25.4627 144.968 30.725C144.968 31.5737 144.968 32.2527 145.137 33.2712C145.477 34.9688 146.156 35.9873 146.156 36.157C146.835 37.515 148.023 38.7033 149.551 39.552C154.134 41.7588 157.869 39.2125 158.038 39.2125C158.038 39.2125 160.754 37.515 160.924 33.7805C160.924 31.2342 159.396 29.0275 157.359 28.1787C156.001 27.6695 154.983 27.8392 154.134 28.1787C152.946 28.688 152.267 30.046 152.267 31.5737C152.267 31.9132 152.267 32.4225 152.437 32.9317V33.1015C152.437 33.2712 152.437 33.2712 152.606 33.2712C152.606 33.2712 152.606 33.2712 152.776 33.1015V32.9317C153.116 31.5737 154.304 30.8947 155.662 30.8947C157.02 31.0645 157.869 31.9132 157.869 33.2712C158.038 34.4595 157.529 35.3083 156.68 35.9873C154.643 37.515 151.758 37.1755 149.89 35.3083C148.363 33.7805 148.193 31.404 148.193 30.2157C148.193 29.7065 148.363 29.1972 148.363 29.1972C148.532 28.5182 148.702 27.8392 149.042 27.3299C150.06 25.2929 151.758 24.2744 152.946 23.7652C153.625 23.4257 154.474 23.2559 155.322 23.2559C160.585 23.2559 164.829 27.8392 164.829 33.441C164.829 37.515 162.622 40.91 159.227 42.7773C159.227 42.7773 158.887 42.9471 158.717 42.9471C158.378 43.1168 158.208 43.1168 157.869 43.2866H166.696H175.523C175.183 43.1168 175.014 43.1168 174.674 42.9471C174.504 42.9471 174.335 42.7773 174.165 42.7773C170.77 40.91 168.563 37.6848 168.563 33.441C168.563 27.8392 172.807 23.2559 178.069 23.2559C178.918 23.2559 179.597 23.4257 180.446 23.7652C181.634 24.2744 183.162 25.2929 184.35 27.3299C184.689 27.8392 184.859 28.5182 185.029 29.1972C185.029 29.1972 185.199 29.7065 185.199 30.2157C185.199 31.404 185.199 33.6107 183.501 35.3083C181.634 37.1755 178.748 37.515 176.711 35.9873C175.862 35.3083 175.353 34.2897 175.523 33.2712C175.693 31.9132 176.541 31.0645 177.73 30.8947C179.088 30.725 180.276 31.5737 180.615 32.9317V33.1015C180.615 33.1015 180.615 33.2712 180.785 33.2712C180.785 33.2712 180.955 33.2712 180.955 33.1015V32.9317C181.125 32.4225 181.125 32.083 181.125 31.5737C181.125 30.046 180.446 28.688 179.257 28.1787C178.409 27.8392 177.39 27.6695 176.032 28.1787C173.995 29.0275 172.298 31.2342 172.467 33.7805C172.467 37.3453 175.353 39.2125 175.353 39.2125C175.523 39.3823 179.257 41.9286 183.841 39.552C185.368 38.7033 186.557 37.515 187.236 36.157C187.405 35.9873 187.915 34.799 188.254 33.2712C188.424 32.4225 188.424 31.5737 188.424 30.725C188.254 25.4627 184.859 22.7467 182.822 21.5584ZM159.736 10.0153C158.887 10.0153 158.038 9.33631 158.038 8.3178C158.038 7.46904 158.717 6.62029 159.736 6.62029C160.585 6.62029 161.433 7.29929 161.433 8.3178C161.433 9.33631 160.754 10.0153 159.736 10.0153ZM159.736 3.39503C160.585 3.39503 161.433 2.71602 161.433 1.69751C161.433 0.848756 160.754 0 159.736 0C158.887 0 158.038 0.679005 158.038 1.69751C158.208 2.71602 158.887 3.39503 159.736 3.39503ZM166.526 3.39503C167.375 3.39503 168.224 2.71602 168.224 1.69751C168.224 0.848756 167.545 0 166.526 0C165.677 0 164.829 0.679005 164.829 1.69751C164.829 2.71602 165.508 3.39503 166.526 3.39503ZM179.936 16.8054C179.088 16.8054 178.239 16.1264 178.239 15.1079C178.239 14.2591 178.918 13.4103 179.936 13.4103C180.785 13.4103 181.634 14.0893 181.634 15.1079C181.464 16.1264 180.785 16.8054 179.936 16.8054ZM179.936 10.0153C179.088 10.0153 178.239 9.33631 178.239 8.3178C178.239 7.46904 178.918 6.62029 179.936 6.62029C180.785 6.62029 181.634 7.29929 181.634 8.3178C181.464 9.33631 180.785 10.0153 179.936 10.0153ZM179.936 3.39503C180.785 3.39503 181.634 2.71602 181.634 1.69751C181.634 0.848756 180.955 0 179.936 0C179.088 0 178.239 0.679005 178.239 1.69751C178.239 2.71602 178.918 3.39503 179.936 3.39503ZM173.146 10.0153C172.298 10.0153 171.449 9.33631 171.449 8.3178C171.449 7.46904 172.128 6.62029 173.146 6.62029C173.995 6.62029 174.844 7.29929 174.844 8.3178C174.844 9.33631 174.165 10.0153 173.146 10.0153ZM173.146 3.39503C173.995 3.39503 174.844 2.71602 174.844 1.69751C174.844 0.848756 174.165 0 173.146 0C172.298 0 171.449 0.679005 171.449 1.69751C171.619 2.71602 172.298 3.39503 173.146 3.39503ZM186.557 13.4103C187.405 13.4103 188.254 14.0893 188.254 15.1079C188.254 15.9566 187.575 16.8054 186.557 16.8054C185.708 16.8054 184.859 16.1264 184.859 15.1079C184.859 14.2591 185.708 13.4103 186.557 13.4103ZM186.557 6.79005C187.405 6.79005 188.254 7.46906 188.254 8.48756C188.254 9.33632 187.575 10.1851 186.557 10.1851C185.708 10.1851 184.859 9.50607 184.859 8.48756C184.859 7.46906 185.708 6.79005 186.557 6.79005ZM186.557 3.39503C187.405 3.39503 188.254 2.71602 188.254 1.69751C188.254 0.848756 187.575 0 186.557 0C185.708 0 184.859 0.679005 184.859 1.69751C184.859 2.71602 185.708 3.39503 186.557 3.39503ZM153.116 16.8054C152.267 16.8054 151.418 16.1264 151.418 15.1079C151.418 14.2591 152.097 13.4103 153.116 13.4103C153.964 13.4103 154.813 14.0893 154.813 15.1079C154.813 16.1264 153.964 16.8054 153.116 16.8054ZM153.116 10.0153C152.267 10.0153 151.418 9.33631 151.418 8.3178C151.418 7.46904 152.097 6.62029 153.116 6.62029C153.964 6.62029 154.813 7.29929 154.813 8.3178C154.813 9.33631 153.964 10.0153 153.116 10.0153ZM153.116 3.39503C153.964 3.39503 154.813 2.71602 154.813 1.69751C154.813 0.848756 154.134 0 153.116 0C152.267 0 151.418 0.679005 151.418 1.69751C151.418 2.71602 152.267 3.39503 153.116 3.39503ZM146.495 16.8054C145.647 16.8054 144.798 16.1264 144.798 15.1079C144.798 14.2591 145.477 13.4103 146.495 13.4103C147.344 13.4103 148.193 14.0893 148.193 15.1079C148.023 16.1264 147.344 16.8054 146.495 16.8054ZM146.495 10.0153C145.647 10.0153 144.798 9.33631 144.798 8.3178C144.798 7.46904 145.477 6.62029 146.495 6.62029C147.344 6.62029 148.193 7.29929 148.193 8.3178C148.023 9.33631 147.344 10.0153 146.495 10.0153Z" fill="#B87F04"/>
</svg>
