<svg width="25" height="24" viewBox="0 0 25 24" fill="none" xmlns="http://www.w3.org/2000/svg">
<path d="M21.037 10C21.037 17 12.037 23 12.037 23C12.037 23 3.03699 17 3.03699 10C3.03699 7.61305 3.9852 5.32387 5.67303 3.63604C7.36085 1.94821 9.65004 1 12.037 1C14.4239 1 16.7131 1.94821 18.4009 3.63604C20.0888 5.32387 21.037 7.61305 21.037 10Z" stroke="#7A7A7A" stroke-linecap="round" stroke-linejoin="round"/>
<path d="M12.037 13C13.6938 13 15.037 11.6569 15.037 10C15.037 8.34315 13.6938 7 12.037 7C10.3801 7 9.03699 8.34315 9.03699 10C9.03699 11.6569 10.3801 13 12.037 13Z" stroke="#7A7A7A" stroke-linecap="round" stroke-linejoin="round"/>
</svg>
