<svg width="24" height="25" viewBox="0 0 24 25" fill="none" xmlns="http://www.w3.org/2000/svg">
<path d="M22 17.131V20.131C22.0011 20.4095 21.9441 20.6852 21.8325 20.9404C21.7209 21.1956 21.5573 21.4246 21.3521 21.6129C21.1468 21.8012 20.9046 21.9445 20.6407 22.0337C20.3769 22.123 20.0974 22.1561 19.82 22.131C16.7428 21.7967 13.787 20.7452 11.19 19.061C8.77382 17.5257 6.72533 15.4772 5.18999 13.061C3.49997 10.4522 2.44824 7.48203 2.11999 4.39103C2.095 4.1145 2.12787 3.83579 2.21649 3.57266C2.30512 3.30952 2.44756 3.06772 2.63476 2.86266C2.82196 2.65759 3.0498 2.49374 3.30379 2.38156C3.55777 2.26937 3.83233 2.2113 4.10999 2.21103H7.10999C7.5953 2.20626 8.06579 2.37811 8.43376 2.69457C8.80173 3.01102 9.04207 3.45048 9.10999 3.93103C9.23662 4.8911 9.47144 5.83376 9.80999 6.74103C9.94454 7.09896 9.97366 7.48795 9.8939 7.86191C9.81415 8.23588 9.62886 8.57915 9.35999 8.85103L8.08999 10.121C9.51355 12.6246 11.5864 14.6975 14.09 16.121L15.36 14.851C15.6319 14.5822 15.9751 14.3969 16.3491 14.3171C16.7231 14.2374 17.1121 14.2665 17.47 14.401C18.3773 14.7396 19.3199 14.9744 20.28 15.101C20.7658 15.1696 21.2094 15.4142 21.5265 15.7885C21.8437 16.1628 22.0122 16.6406 22 17.131Z" stroke="#7A7A7A" stroke-linecap="round" stroke-linejoin="round"/>
</svg>
