<svg width="32" height="32" viewBox="0 0 32 32" fill="none" xmlns="http://www.w3.org/2000/svg">
<g clip-path="url(#clip0)">
<path d="M8.0985 31.969L8.68763 31.8044C9.2543 31.646 9.58529 31.0582 9.42694 30.4916L2.69133 6.3874C2.59628 6.04723 2.36999 5.75875 2.06224 5.58543C1.7545 5.41211 1.3905 5.36814 1.05033 5.46321L0.974252 5.48445C0.265852 5.68237 -0.147971 6.41709 0.0499482 7.1255L6.78573 31.2297C6.94407 31.7963 7.53182 32.1274 8.0985 31.969Z" fill="#0E4F32"/>
<path d="M31.8181 15.1249C29.6821 14.0598 27.706 12.7004 25.9478 11.0863C25.8 10.951 25.7421 10.7433 25.7988 10.5511C26.67 7.25519 27.317 3.90407 27.7353 0.520742C27.8015 -0.0420168 27.4981 -0.207534 27.1781 0.178673C20.8995 7.68764 10.036 -1.19512 3.56982 5.62971C3.64746 5.77506 3.70853 5.92866 3.75189 6.08764L8.12155 21.7345C14.5988 14.9925 25.4236 23.8201 31.6912 16.3276C32.0112 15.9414 32.0719 15.2352 31.8181 15.1249Z" fill="#0E4F32"/>
</g>
<defs>
<clipPath id="clip0">
<rect width="32" height="32" fill="white"/>
</clipPath>
</defs>
</svg>
