<svg width="32" height="32" viewBox="0 0 32 32" fill="none" xmlns="http://www.w3.org/2000/svg">
<path d="M3.33331 14.6666V10.6666C3.70131 10.6666 4 10.3679 4 9.99994C4 9.63194 3.70131 9.33325 3.33331 9.33325C1.49469 9.33325 0 10.8293 0 12.6666V13.9999C0 15.1026 0.897313 15.9999 2 15.9999H3.33331C3.70131 15.9999 4 15.7013 4 15.3333C4 14.9653 3.70131 14.6666 3.33331 14.6666Z" fill="#0E4F32"/>
<path d="M28.6667 9.33325C28.2987 9.33325 28 9.63194 28 9.99994C28 10.3679 28.2987 10.6666 28.6667 10.6666V14.6666C28.2987 14.6666 28 14.9653 28 15.3333C28 15.7013 28.2987 15.9999 28.6667 15.9999H30C31.1027 15.9999 32 15.1026 32 13.9999V12.6666C32 10.8293 30.5053 9.33325 28.6667 9.33325Z" fill="#0E4F32"/>
<path d="M11.3336 28C10.9656 28 10.6669 28.2987 10.6669 28.6667H6.66687C6.66687 28.2987 6.36818 28 6.00018 28C5.63218 28 5.3335 28.2987 5.3335 28.6667V30C5.3335 31.1027 6.23081 32 7.3335 32H10.0002C11.1029 32 12.0002 31.1027 12.0002 30V28.6667C12.0002 28.2987 11.7016 28 11.3336 28Z" fill="#0E4F32"/>
<path d="M26 28C25.632 28 25.3333 28.2987 25.3333 28.6667H21.3333C21.3333 28.2987 21.0346 28 20.6666 28C20.2986 28 20 28.2987 20 28.6667V30C20 31.1027 20.8973 32 22 32H24.6667C25.7694 32 26.6667 31.1027 26.6667 30V28.6667C26.6667 28.2987 26.368 28 26 28Z" fill="#0E4F32"/>
<path d="M25.9998 0H5.99982C4.16113 0 2.6665 1.496 2.6665 3.33331V26C2.6665 27.8373 4.16119 29.3333 5.99982 29.3333H25.9998C27.8385 29.3333 29.3331 27.8373 29.3331 26V3.33331C29.3331 1.496 27.8385 0 25.9998 0ZM8.6665 2.66669H23.3332C24.4359 2.66669 25.3332 3.564 25.3332 4.66669C25.3332 5.76937 24.4359 6.66669 23.3332 6.66669H8.6665C7.56382 6.66669 6.6665 5.76937 6.6665 4.66669C6.6665 3.564 7.56382 2.66669 8.6665 2.66669ZM8.6665 25.3333C7.56382 25.3333 6.6665 24.436 6.6665 23.3333C6.6665 22.2306 7.56382 21.3333 8.6665 21.3333C9.76919 21.3333 10.6665 22.2306 10.6665 23.3333C10.6665 24.436 9.76913 25.3333 8.6665 25.3333ZM23.3331 25.3333C22.2304 25.3333 21.3331 24.436 21.3331 23.3333C21.3331 22.2306 22.2304 21.3333 23.3331 21.3333C24.4358 21.3333 25.3331 22.2306 25.3331 23.3333C25.3331 24.436 24.4358 25.3333 23.3331 25.3333ZM26.6665 16.6667C26.6665 17.7694 25.7692 18.6667 24.6665 18.6667H7.33313C6.23044 18.6667 5.33313 17.7694 5.33313 16.6667V10C5.33313 8.89731 6.23044 8 7.33313 8H24.6664C25.7691 8 26.6664 8.89731 26.6664 10V16.6667H26.6665Z" fill="#0E4F32"/>
</svg>
