<svg width="100" height="98" viewBox="0 0 100 98" fill="none" xmlns="http://www.w3.org/2000/svg">
<path d="M70.3915 50.3655C70.943 51.4012 72.2851 51.9206 73.3909 51.5325L75.1531 50.9111L74.2749 49.2626C73.7235 48.2268 72.3814 47.7075 71.2756 48.0955C70.9313 48.2181 70.66 48.4194 70.4557 48.6645L74.2341 50.5522L70.1727 49.3939C70.1552 49.7119 70.2194 50.0445 70.3915 50.3655Z" fill="black"/>
<path d="M85.7875 20.976C86.1522 20.9935 86.4819 20.9118 86.762 20.763L83.9873 17.5799L87.3017 20.197C87.436 19.9081 87.5031 19.5755 87.468 19.2137C87.3513 18.0467 86.3097 17.0547 85.1398 16.9934L83.2754 16.8971L83.4592 18.7557C83.573 19.9227 84.6175 20.9176 85.7875 20.976Z" fill="black"/>
<path d="M81.9974 14.0758L78.0031 15.4471C78.1724 15.7184 78.4145 15.9518 78.7413 16.1181C79.7858 16.652 81.1863 16.3107 81.869 15.3595L82.9573 13.8424L81.2943 12.9933C80.2497 12.4594 78.8493 12.8008 78.1665 13.7519C77.9535 14.0495 77.8456 14.3704 77.8193 14.6885L81.9974 14.0758Z" fill="black"/>
<path d="M84.419 33.4781C85.2943 32.6991 85.4839 31.2695 84.845 30.2891L83.8238 28.7253L82.4291 29.9682C81.5539 30.7472 81.3642 32.1769 82.0032 33.1572C82.2016 33.4635 82.4642 33.6794 82.7501 33.8195L83.6925 29.7027L83.5262 33.9216C83.8384 33.8633 84.1447 33.7232 84.419 33.4781Z" fill="black"/>
<path d="M72.4423 17.3435C72.7895 17.4573 73.1279 17.4661 73.4401 17.399L71.6137 13.5914L74.1112 16.9963C74.3183 16.7542 74.4701 16.4507 74.5342 16.0919C74.7326 14.9365 73.9945 13.6994 72.8799 13.3318L71.106 12.7424L70.788 14.5834C70.5896 15.7388 71.3307 16.973 72.4423 17.3435Z" fill="black"/>
<path d="M64.4279 12.4944C64.7138 12.722 65.0289 12.8474 65.344 12.8883L64.9443 8.68395L66.1114 12.7424C66.3886 12.5878 66.6366 12.3543 66.8204 12.0392C67.4068 11.0239 67.1384 9.60884 66.2193 8.87651L64.7576 7.71237L63.8239 9.33167C63.2433 10.3499 63.5118 11.765 64.4279 12.4944Z" fill="black"/>
<path d="M53.8945 14.1224C53.3081 15.1378 53.5765 16.5528 54.4955 17.2852C54.7815 17.5127 55.0966 17.6382 55.4117 17.6791L55.012 13.4747L56.179 17.5332C56.4562 17.3785 56.7042 17.1451 56.888 16.83C57.4745 15.8147 57.206 14.3996 56.287 13.6673L54.8252 12.5031L53.8945 14.1224Z" fill="black"/>
<path d="M84.7699 22.1897L82.958 22.6449L83.6787 24.3692C84.1309 25.4517 85.4205 26.0965 86.5555 25.8105C86.9114 25.7201 87.2003 25.545 87.4249 25.3204L83.8391 23.0884L87.775 24.6201C87.8188 24.305 87.7867 23.9666 87.6437 23.6311C87.1944 22.5486 85.9048 21.9038 84.7699 22.1897Z" fill="black"/>
<path d="M76.5038 46.3333L78.2602 46.9693L78.6278 45.1371C78.8583 43.9875 78.1522 42.7329 77.0494 42.3332C76.7051 42.2077 76.3666 42.1902 76.0544 42.2515L77.7759 46.1086L75.3717 42.6366C75.1587 42.873 74.9983 43.1706 74.9253 43.5294C74.6948 44.679 75.4038 45.9336 76.5038 46.3333Z" fill="black"/>
<path d="M92.4834 41.9568C92.7139 40.8072 92.0078 39.5526 90.905 39.1529C90.5607 39.0275 90.2222 39.01 89.91 39.0712L91.6315 42.9254L89.2273 39.4534C89.0143 39.6898 88.8539 39.9874 88.7809 40.3463C88.5504 41.4958 89.2565 42.7504 90.3594 43.1501L92.1158 43.7862L92.4834 41.9568Z" fill="black"/>
<path d="M79.3573 23.7303C79.051 22.5982 77.8606 21.79 76.6935 21.9242L74.8379 22.1372L75.3251 23.9403C75.6315 25.0724 76.8219 25.8806 77.9889 25.7463C78.3537 25.7055 78.6629 25.5684 78.9168 25.3758L75.6577 22.6916L79.3573 24.7281C79.4419 24.4217 79.4536 24.0833 79.3573 23.7303Z" fill="black"/>
<path d="M85.3799 46.2457C84.2625 45.8956 82.9379 46.4675 82.4244 47.5207L81.6074 49.2013L83.3901 49.7586C84.5076 50.1087 85.8322 49.5368 86.3457 48.4836C86.5062 48.1539 86.5587 47.8212 86.5324 47.5032L82.5177 48.8103L86.2231 46.7855C86.0102 46.5462 85.7301 46.3537 85.3799 46.2457Z" fill="black"/>
<path d="M97.8256 38.7474L96.1012 39.4622C95.0188 39.9115 94.3682 41.1982 94.6512 42.3361C94.7387 42.692 94.9137 42.9809 95.1384 43.2085L97.3821 39.6314L95.8387 43.5615C96.1538 43.6082 96.4922 43.5761 96.8277 43.436C97.9102 42.9867 98.5608 41.7 98.2778 40.5622L97.8256 38.7474Z" fill="black"/>
<path d="M91.9854 27.8967L93.8264 28.2176L93.8673 26.3503C93.8936 25.1774 92.9774 24.0658 91.8249 23.8645C91.4661 23.8032 91.1276 23.8441 90.83 23.9578L93.1992 27.4532L90.2261 24.4538C90.0568 24.7252 89.9518 25.0461 89.9431 25.4108C89.9139 26.5808 90.83 27.6953 91.9854 27.8967Z" fill="black"/>
<path d="M94.7653 45.9861L93.1197 49.8753L94.0213 45.7498C93.7032 45.7556 93.3735 45.8402 93.0643 46.0328C92.0664 46.6484 91.6288 48.0197 92.0898 49.0992L92.8221 50.8177L94.4122 49.8374C95.4101 49.2218 95.8477 47.8505 95.3867 46.7709C95.2408 46.4354 95.022 46.1757 94.7653 45.9861Z" fill="black"/>
<path d="M28.7213 48.0955C27.6155 47.7046 26.2734 48.2268 25.722 49.2626L24.8438 50.9111L26.606 51.5325C27.7118 51.9235 29.0539 51.4012 29.6054 50.3654C29.7775 50.0416 29.8417 49.709 29.8271 49.391L25.7657 50.5493L29.5441 48.6615C29.3369 48.4194 29.0656 48.2181 28.7213 48.0955Z" fill="black"/>
<path d="M16.0068 17.5799L13.2321 20.763C13.5151 20.9118 13.8419 20.9935 14.2066 20.976C15.3766 20.9176 16.4211 19.9227 16.5349 18.7557L16.7187 16.8971L14.8543 16.9934C13.6843 17.0518 12.6398 18.0467 12.526 19.2137C12.491 19.5784 12.5552 19.9081 12.6923 20.197L16.0068 17.5799Z" fill="black"/>
<path d="M21.2551 16.121C21.5818 15.9547 21.824 15.7184 21.9932 15.45L17.999 14.0787L22.177 14.6885C22.1508 14.3704 22.0428 14.0495 21.8298 13.7519C21.1471 12.8008 19.7466 12.4594 18.7021 12.9933L17.0391 13.8424L18.1273 15.3595C18.813 16.3136 20.2105 16.655 21.2551 16.121Z" fill="black"/>
<path d="M17.9937 33.1572C18.6356 32.1769 18.443 30.7472 17.5677 29.9682L16.1731 28.7253L15.1519 30.2891C14.51 31.2695 14.7026 32.6991 15.5779 33.4781C15.8521 33.7203 16.1585 33.8633 16.4707 33.9245L16.3044 29.7056L17.2468 33.8224C17.5327 33.6794 17.7924 33.4635 17.9937 33.1572Z" fill="black"/>
<path d="M25.8859 16.9963L28.3834 13.5914L26.5569 17.399C26.8691 17.469 27.2075 17.4602 27.5547 17.3435C28.6664 16.973 29.4074 15.7388 29.209 14.5834L28.891 12.7424L27.1171 13.3318C26.0055 13.7023 25.2644 14.9365 25.4628 16.0919C25.527 16.4507 25.6787 16.7542 25.8859 16.9963Z" fill="black"/>
<path d="M33.8827 12.7453L35.0498 8.68688L34.6501 12.8912C34.9652 12.8474 35.2803 12.7249 35.5662 12.4973C36.4823 11.7679 36.7508 10.3499 36.1672 9.33459L35.2336 7.7153L33.7719 8.87944C32.8557 9.60885 32.5873 11.0268 33.1708 12.0422C33.3575 12.3573 33.6026 12.5878 33.8827 12.7453Z" fill="black"/>
<path d="M43.8173 17.5332L44.9843 13.4747L44.5846 17.6791C44.8997 17.6353 45.2148 17.5127 45.5008 17.2852C46.4169 16.5558 46.6853 15.1378 46.0989 14.1224L45.1652 12.5031L43.7035 13.6673C42.7874 14.3967 42.5189 15.8147 43.1025 16.83C43.2921 17.1451 43.5401 17.3785 43.8173 17.5332Z" fill="black"/>
<path d="M16.1556 23.0884L12.5698 25.3204C12.7945 25.545 13.0862 25.7201 13.4393 25.8105C14.5771 26.0965 15.8638 25.4517 16.3161 24.3692L17.0367 22.6449L15.2249 22.1897C14.087 21.9038 12.8003 22.5486 12.3481 23.6311C12.208 23.9695 12.173 24.305 12.2197 24.6201L16.1556 23.0884Z" fill="black"/>
<path d="M22.9473 42.3332C21.8444 42.7329 21.1383 43.9875 21.3688 45.1371L21.7364 46.9693L23.4928 46.3333C24.5957 45.9336 25.3018 44.679 25.0713 43.5294C24.9984 43.1706 24.8379 42.873 24.6249 42.6366L22.2208 46.1086L23.9422 42.2515C23.63 42.1902 23.2915 42.2077 22.9473 42.3332Z" fill="black"/>
<path d="M11.2129 40.3492C11.14 39.9903 10.9795 39.6927 10.7665 39.4564L8.36236 42.9284L10.0838 39.0742C9.77158 39.0129 9.43314 39.0304 9.08885 39.1559C7.98598 39.5556 7.27991 40.8102 7.5104 41.9597L7.87803 43.792L9.63445 43.156C10.7373 42.7533 11.4434 41.4987 11.2129 40.3492Z" fill="black"/>
<path d="M22.0082 25.7464C23.1724 25.8806 24.3657 25.0695 24.672 23.9403L25.1593 22.1372L23.3037 21.9243C22.1395 21.79 20.9462 22.6011 20.6398 23.7303C20.5436 24.0833 20.5552 24.4218 20.6428 24.7281L24.3423 22.6916L21.0833 25.3758C21.3342 25.5684 21.6435 25.7026 22.0082 25.7464Z" fill="black"/>
<path d="M13.6492 48.4836C14.1628 49.5368 15.4844 50.1087 16.6048 49.7586L18.3875 49.2013L17.5706 47.5207C17.0571 46.4675 15.7354 45.8956 14.615 46.2457C14.2649 46.3537 13.9877 46.5462 13.7747 46.7826L17.4801 48.8074L13.4654 47.5003C13.4392 47.8213 13.4917 48.1539 13.6492 48.4836Z" fill="black"/>
<path d="M4.85795 43.2085C5.08261 42.9809 5.25767 42.692 5.34519 42.3361C5.62821 41.1982 4.97757 39.9115 3.89512 39.4622L2.17079 38.7474L1.72148 40.5592C1.43847 41.6971 2.0891 42.9838 3.17155 43.4331C3.51 43.5732 3.84553 43.6053 4.16063 43.5586L2.61719 39.6285L4.85795 43.2085Z" fill="black"/>
<path d="M8.01135 27.8967C9.16674 27.6953 10.08 26.5837 10.0537 25.4108C10.045 25.0461 9.93992 24.7252 9.77069 24.4538L6.80053 27.4532L9.16966 23.9578C8.87206 23.8441 8.53653 23.8032 8.17474 23.8645C7.01935 24.0658 6.10613 25.1774 6.13239 26.3503L6.17324 28.2176L8.01135 27.8967Z" fill="black"/>
<path d="M6.93539 46.0328C6.62321 45.8402 6.29643 45.7556 5.97841 45.7498L6.87996 49.8753L5.2344 45.9861C4.97765 46.1728 4.75883 46.4325 4.61587 46.7709C4.15779 47.8505 4.59252 49.2218 5.59036 49.8374L7.18047 50.8177L7.91281 49.0992C8.37088 48.0197 7.93323 46.6484 6.93539 46.0328Z" fill="black"/>
<path d="M99.3018 34.2513C99.0859 33.9916 98.765 33.6182 98.3098 33.1776C98.0793 32.9617 97.8197 32.7254 97.5075 32.5065C97.2011 32.279 96.8335 32.0718 96.4104 31.9201C95.9874 31.7684 95.4972 31.6984 94.9896 31.7567C94.4819 31.8092 93.9713 31.9814 93.4724 32.206C92.4745 32.6641 91.4913 33.306 90.4234 33.9041C89.3527 34.511 88.206 35.0711 86.9485 35.5059C85.6998 35.9406 84.3635 36.2791 83.0476 36.139C82.397 36.0719 81.7405 35.8735 81.157 35.5992C81.0082 35.5321 80.8419 35.4359 80.6872 35.3571L80.2409 35.1003L79.3218 34.5489C78.0935 33.8078 76.8214 33.0405 75.38 32.5736C74.6535 32.3432 73.9183 32.1973 73.1101 32.1973C73.0109 32.1973 72.9 32.1944 72.8125 32.2002L72.5558 32.2206L72.4274 32.2323L72.3632 32.2381L72.3311 32.241H72.3136L72.264 32.2469L71.9897 32.2994C71.625 32.3752 71.2545 32.4278 70.9131 32.5561C69.5127 32.9909 68.3106 33.7378 67.2923 34.5431C66.2741 35.3542 65.4163 36.2265 64.6956 37.0756C64.3513 37.4782 64.0333 37.875 63.7386 38.2572C63.8232 38.1464 63.8553 37.9129 63.902 37.7787C63.9545 37.627 64.01 37.4724 64.0683 37.3207C64.1763 37.0289 64.293 36.74 64.4126 36.4541C64.6168 35.9639 64.8386 35.4767 65.0778 35.0011C65.5768 34.0062 66.1078 32.7808 66.8897 31.9726C67.1319 31.7217 67.3711 31.4241 67.6804 31.1615C67.8321 31.0273 67.9751 30.8756 68.1472 30.7443C68.3164 30.613 68.4915 30.4788 68.6665 30.3416C68.8387 30.1958 69.04 30.0849 69.2326 29.9565C69.428 29.834 69.6206 29.6939 69.8307 29.5801C70.0408 29.4693 70.2537 29.3584 70.4697 29.2446L70.7935 29.0754C70.9044 29.0229 71.0182 28.9791 71.129 28.9324C71.5813 28.7515 72.0277 28.5327 72.4974 28.4043C72.9613 28.2672 73.4136 28.0863 73.8716 28.0046C74.3268 27.9054 74.7673 27.7945 75.1904 27.7158C75.6164 27.6545 76.019 27.5991 76.3925 27.5465C76.5792 27.5203 76.7572 27.4911 76.9293 27.4736C77.1014 27.4619 77.2649 27.4532 77.4166 27.4415C77.7229 27.4211 77.9913 27.4065 78.2102 27.3919C78.6536 27.3627 78.9046 27.3481 78.9046 27.3481C78.9046 27.3481 78.6536 27.3306 78.2102 27.3044C77.9884 27.2898 77.72 27.2723 77.4107 27.2548C77.2561 27.246 77.0927 27.2343 76.9176 27.2227C76.7455 27.2198 76.5617 27.2256 76.372 27.2285C75.9898 27.2344 75.5755 27.2402 75.135 27.246C74.6973 27.2694 74.2363 27.3277 73.7549 27.3686C73.2706 27.3948 72.7863 27.5203 72.2815 27.602C71.7738 27.6749 71.2807 27.8412 70.776 27.9725C70.6505 28.0075 70.5222 28.0396 70.3996 28.0805L70.032 28.2176C69.7869 28.311 69.5418 28.4014 69.2997 28.4919C69.0575 28.5881 68.8299 28.7107 68.5965 28.8186C68.366 28.9324 68.1297 29.0287 67.9196 29.1658C67.7037 29.2942 67.4907 29.4197 67.2836 29.5422C67.0735 29.6648 66.8868 29.8135 66.6971 29.9448C66.3091 30.2016 65.9852 30.505 65.6672 30.7647C64.1004 32.0455 63.2222 33.9799 62.4695 35.8122C61.9793 37.0056 61.5767 38.2368 61.2616 39.4885C59.2863 37.91 58.1747 36.1419 57.95 34.2163C57.7575 32.5766 58.2272 31.0156 58.8457 29.7494C58.8662 29.7319 58.9537 29.6589 59.1083 29.5247C59.2805 29.3817 59.5343 29.1658 59.8669 28.9003C60.5292 28.3693 61.495 27.6253 62.7087 26.8084C62.8546 26.7121 63.0005 26.6129 63.1522 26.5137C63.3185 26.4145 63.4877 26.3095 63.6599 26.2073C63.8378 26.0935 63.9954 26.0206 64.1646 25.9302C64.3309 25.8426 64.4972 25.7493 64.6898 25.6676C65.425 25.3116 66.2449 24.9994 67.1144 24.6843C67.9838 24.3692 68.9029 24.0541 69.8307 23.6836C70.7585 23.313 71.7009 22.8841 72.582 22.3239L73.2268 21.8805C73.434 21.7229 73.6324 21.5508 73.8337 21.3874C74.035 21.2211 74.2101 21.0256 74.3968 20.8476L74.5339 20.7105L74.6652 20.5588L74.9045 20.2787C75.5609 19.4909 76.0861 18.636 76.4946 17.7753C76.906 16.9117 77.2007 16.0364 77.4166 15.1961C77.6296 14.3559 77.7754 13.5506 77.8542 12.8008C77.9359 12.0538 77.9797 11.3653 77.9855 10.7584C78.0001 10.1515 77.9826 9.6176 77.9476 9.18287C77.8922 8.31341 77.863 7.81741 77.863 7.81741C77.863 7.81741 77.863 8.31341 77.86 9.18579C77.8659 9.62343 77.8484 10.1457 77.7959 10.7496C77.7521 11.3507 77.6646 12.0276 77.5391 12.757C77.4137 13.4864 77.2211 14.2654 76.9614 15.0648C76.6988 15.8643 76.3604 16.6841 75.9169 17.4807C75.4763 18.2772 74.9307 19.0416 74.2888 19.7185C73.6324 20.4158 72.8971 20.9847 72.0598 21.4428C71.2282 21.9009 70.3267 22.2452 69.4164 22.5399C68.5061 22.8375 67.5812 23.0884 66.6796 23.351C65.7781 23.6136 64.8911 23.8878 64.0625 24.2233C63.8553 24.2992 63.6453 24.3955 63.4381 24.4888C63.2339 24.5822 63.018 24.6727 62.8488 24.766C62.6883 24.8506 62.5278 24.9323 62.3732 25.014C62.4228 24.9528 62.4695 24.8944 62.522 24.8331C63.2164 23.9899 64.0304 22.9979 64.932 22.0088C65.3929 21.5158 65.9094 20.9322 66.3412 20.3254C66.5688 20.0248 66.7642 19.6981 66.9714 19.3771C67.1552 19.0416 67.3565 18.7177 67.5111 18.3705L67.7562 17.857L67.9692 17.3289C68.1209 16.9817 68.2201 16.62 68.3368 16.2669C68.5498 15.555 68.7103 14.846 68.8153 14.1516C68.8854 13.8073 68.9029 13.4631 68.9408 13.1304C68.9583 12.9641 68.9729 12.7978 68.9904 12.6344C68.9992 12.4711 69.0021 12.3077 69.0079 12.1501C69.0167 11.8321 69.0312 11.5228 69.0312 11.2223C69.0196 10.9247 69.0079 10.6359 68.9992 10.3587C68.9933 9.80433 68.9174 9.30249 68.8766 8.85609C68.8416 8.40969 68.7716 8.02456 68.7191 7.70654C68.614 7.07341 68.5527 6.71162 68.5527 6.71162C68.5527 6.71162 68.5819 7.07633 68.6315 7.71529C68.6578 8.03332 68.6928 8.42136 68.6899 8.86776C68.6899 9.31416 68.722 9.81308 68.6811 10.3587C68.6665 10.63 68.6549 10.913 68.6403 11.2077C68.614 11.4995 68.5732 11.8 68.5382 12.1093C68.5177 12.2639 68.5032 12.4215 68.4798 12.579C68.4506 12.7366 68.4215 12.8941 68.3894 13.0546C68.3252 13.3726 68.2814 13.7023 68.1822 14.0262C68.0217 14.6797 67.8146 15.342 67.5549 15.9927C67.4149 16.3136 67.2923 16.6462 67.1231 16.9555L66.8839 17.4281L66.6154 17.8833C66.4462 18.1926 66.2303 18.4727 66.0377 18.7644C65.8218 19.0416 65.6205 19.3217 65.39 19.5784C64.9378 20.1095 64.471 20.5529 63.9487 21.0198C63.3477 21.5741 62.7641 22.1431 62.1894 22.7237C61.6759 23.2401 61.1448 23.7098 60.6022 24.1912C59.7794 24.9236 59.0179 25.7172 58.3672 26.6071C57.6291 27.6136 57.0047 28.7107 56.5612 29.8777C56.0098 31.3249 55.7443 32.8887 55.9223 34.4351C56.0915 35.8968 56.6371 37.2652 57.5416 38.5373C56.0069 37.91 54.5539 37.4957 53.1943 37.2506C52.9287 37.201 52.6545 37.1544 52.3744 37.1135C53.3401 35.6313 53.8799 34.0937 54.1279 32.5736C54.3292 31.9697 54.513 31.357 54.6677 30.7268C55.047 29.1833 55.2804 27.6282 55.3679 26.1081C55.4087 25.3933 55.3796 24.6902 55.3562 24.0074C55.3475 23.7624 55.3387 23.5202 55.33 23.2751L55.3271 23.1788C55.3125 22.5982 55.26 21.9563 55.6451 21.4691C55.6451 21.4691 55.6334 21.4603 55.6334 21.4574C55.6918 21.3465 55.7851 21.1831 55.9398 20.9818C56.0185 20.8826 56.109 20.7747 56.2199 20.6609C56.3599 20.5238 56.5116 20.375 56.6721 20.2174C57.0076 19.876 57.3519 19.4763 57.702 19.027C58.3993 18.1284 59.1112 17.0138 59.6948 15.7388C60.2783 14.4667 60.7247 13.0225 60.8356 11.552C60.8531 11.3682 60.8531 11.1844 60.8677 11.0035L60.9085 10.4637C60.9319 10.1019 60.9464 9.74306 60.9581 9.3871C60.9815 8.6752 60.996 7.97496 61.0281 7.30099C61.0631 6.62701 61.1157 5.97637 61.2295 5.36659C61.3374 4.75971 61.5095 4.19661 61.7488 3.7152C61.991 3.2367 62.3119 2.84866 62.6474 2.56856C62.983 2.28555 63.3302 2.11341 63.619 1.99087C63.7649 1.9296 63.8962 1.88292 64.0158 1.85082C64.1325 1.81289 64.2317 1.78371 64.3163 1.76913C64.4826 1.7312 64.5702 1.71077 64.5702 1.71077C64.5702 1.71077 64.4826 1.72828 64.3163 1.76329C64.2317 1.77788 64.1325 1.80414 64.0129 1.83915C63.8933 1.86833 63.7591 1.91501 63.6132 1.97336C63.3185 2.08715 62.9655 2.25637 62.6212 2.53355C62.274 2.81073 61.9414 3.19877 61.6846 3.68019C61.4308 4.16452 61.244 4.73346 61.1215 5.34324C60.9931 5.95595 60.9289 6.61242 60.8764 7.28932C60.8297 7.96621 60.8006 8.66644 60.7626 9.37543C60.7422 9.72847 60.7218 10.0873 60.6897 10.4433L60.6401 10.9801C60.6138 11.1552 60.5788 11.3332 60.538 11.5053C60.217 12.897 59.5927 14.1866 58.872 15.2837C58.1513 16.3865 57.3373 17.3085 56.5875 18.0233C56.214 18.3793 55.8551 18.6856 55.5313 18.9278C55.3562 19.0533 55.1928 19.1729 55.0411 19.2808C54.5568 19.6455 54.0287 20.0978 53.7282 20.6346C53.5415 20.9672 53.4306 21.3407 53.3606 21.7142C53.2672 22.2131 53.276 22.7208 53.2905 23.2284L53.2935 23.3218C53.2993 23.5756 53.311 23.8265 53.3197 24.0804C53.3314 24.3984 53.3431 24.7106 53.3489 25.0169C53.346 24.8039 53.1709 24.5034 53.0951 24.3021C53.0075 24.0687 52.9171 23.8382 52.8208 23.6077C52.5232 22.89 52.0009 22.2948 51.6771 21.5887C51.4933 21.1861 51.3007 20.7251 51.1431 20.2087C50.9856 19.6952 50.8601 19.1291 50.8164 18.5368C50.7726 17.9446 50.8193 17.3231 51.0089 16.7279C51.1111 16.4215 51.2278 16.1677 51.4203 15.8147C51.5983 15.4733 51.7763 15.1203 51.9426 14.7702C52.281 14.0641 52.6049 13.3405 52.9054 12.6082C54.1133 9.68762 55.0032 6.61534 55.152 4.23746C55.2366 3.05289 55.1228 2.05506 54.9303 1.39275C54.8836 1.22645 54.8369 1.08056 54.7844 0.955104C54.7377 0.829645 54.6968 0.72461 54.6502 0.642916C54.5685 0.479528 54.5247 0.391998 54.5247 0.391998C54.5247 0.391998 54.5626 0.482445 54.6297 0.651669C54.6677 0.73628 54.6998 0.844232 54.7348 0.969691C54.7756 1.09515 54.8106 1.24395 54.8427 1.41026C54.9799 2.07548 55.012 3.05581 54.834 4.19953C54.5014 6.50155 53.3868 9.42795 51.9776 12.1764C51.6246 12.8649 51.254 13.5418 50.8718 14.1954C50.6792 14.5251 50.4867 14.8402 50.2912 15.1524C50.2037 15.2837 50.1103 15.4354 50.0169 15.5988C49.9236 15.4354 49.8302 15.2837 49.7427 15.1524C49.5472 14.8402 49.3517 14.5251 49.1621 14.1954C48.7799 13.5418 48.4064 12.8649 48.0563 12.1764C46.6471 9.42795 45.5325 6.49863 45.1999 4.19953C45.0219 3.05289 45.054 2.07256 45.1911 1.41026C45.2232 1.24395 45.2553 1.09515 45.2991 0.969691C45.337 0.841315 45.3662 0.733363 45.4041 0.651669C45.4712 0.482445 45.5092 0.391998 45.5092 0.391998C45.5092 0.391998 45.4654 0.479528 45.3837 0.642916C45.3399 0.72461 45.2991 0.829645 45.2495 0.955104C45.197 1.07765 45.1503 1.22353 45.1036 1.39275C44.9081 2.05506 44.7943 3.05289 44.8819 4.23746C45.0307 6.61826 45.9206 9.68762 47.1285 12.6082C47.429 13.3405 47.7528 14.0641 48.0913 14.7702C48.2576 15.1203 48.4356 15.4733 48.6136 15.8147C48.8061 16.1677 48.9228 16.4215 49.0249 16.7279C49.2175 17.3231 49.2613 17.9446 49.2175 18.5368C49.1737 19.132 49.0483 19.6952 48.8907 20.2087C48.7361 20.7222 48.5435 21.1861 48.3568 21.5887C48.0329 22.2948 47.5107 22.89 47.2131 23.6077C47.1168 23.8382 47.0264 24.0687 46.9388 24.3021C46.863 24.5034 46.6879 24.8039 46.685 25.0169C46.6908 24.7106 46.7025 24.4013 46.7142 24.0804C46.7229 23.8265 46.7346 23.5756 46.7404 23.3218L46.7433 23.2284C46.755 22.7237 46.7638 22.2131 46.6733 21.7142C46.6033 21.3407 46.4924 20.9643 46.3057 20.6346C46.0052 20.1007 45.4771 19.6455 44.9927 19.2808C44.841 19.1729 44.6776 19.0533 44.5026 18.9278C44.1787 18.6827 43.8199 18.3793 43.4464 18.0233C42.6995 17.3085 41.8855 16.3865 41.1619 15.2837C40.4412 14.1837 39.8168 12.897 39.4959 11.5053C39.4551 11.3332 39.42 11.1552 39.3938 10.9801L39.3442 10.4433C39.315 10.0873 39.2917 9.72847 39.2712 9.37543C39.2333 8.66644 39.2041 7.96621 39.1575 7.28932C39.1079 6.61242 39.0407 5.95595 38.9124 5.34324C38.7898 4.73054 38.6031 4.16452 38.3493 3.68019C38.0925 3.19877 37.7599 2.81073 37.4127 2.53355C37.0655 2.25346 36.7125 2.08715 36.4207 1.97336C36.2719 1.91501 36.1406 1.87125 36.021 1.83915C35.9043 1.80414 35.8022 1.77788 35.7175 1.76329C35.5512 1.72828 35.4637 1.71077 35.4637 1.71077C35.4637 1.71077 35.5512 1.7312 35.7175 1.76913C35.7992 1.78663 35.9014 1.81289 36.0181 1.85082C36.1377 1.88292 36.269 1.9296 36.4149 1.99087C36.7037 2.11049 37.0509 2.28555 37.3864 2.56856C37.722 2.84866 38.04 3.2367 38.2851 3.7152C38.5243 4.19661 38.6965 4.7568 38.8044 5.36659C38.9182 5.97346 38.9707 6.62409 39.0057 7.30099C39.0378 7.97496 39.0524 8.6752 39.0758 9.3871C39.0874 9.74306 39.102 10.1019 39.1254 10.4637L39.1662 11.0035C39.1808 11.1873 39.1808 11.3711 39.1983 11.552C39.3092 13.0225 39.7556 14.4696 40.3391 15.7388C40.9226 17.0138 41.6375 18.1255 42.3319 19.027C42.682 19.4763 43.0263 19.876 43.3618 20.2174C43.5223 20.375 43.674 20.5238 43.814 20.6609C43.9249 20.7747 44.0153 20.8826 44.0941 20.9818C44.2488 21.1802 44.3421 21.3436 44.4005 21.4574C44.4005 21.4603 44.3888 21.4691 44.3888 21.4691C44.7739 21.9534 44.7214 22.5982 44.7068 23.1788L44.7039 23.2751C44.6981 23.5202 44.6893 23.7624 44.6776 24.0074C44.6514 24.6872 44.6251 25.3904 44.666 26.1081C44.7506 27.6312 44.9869 29.1833 45.3633 30.7268C45.5179 31.357 45.6988 31.9697 45.9031 32.5736C46.1511 34.0937 46.6908 35.6343 47.6566 37.1135C47.3765 37.1514 47.1051 37.1981 46.8367 37.2506C45.4771 37.4957 44.0241 37.91 42.4894 38.5373C43.3939 37.2652 43.9424 35.8968 44.1087 34.4351C44.2867 32.8887 44.0212 31.3249 43.4697 29.8777C43.0233 28.7107 42.4019 27.6136 41.6637 26.6071C41.0102 25.7172 40.2516 24.9236 39.4288 24.1912C38.8861 23.7098 38.3551 23.2372 37.8416 22.7237C37.2668 22.146 36.6833 21.5741 36.0823 21.0198C35.5629 20.5529 35.0961 20.1065 34.6409 19.5784C34.4104 19.3217 34.2062 19.0416 33.9932 18.7644C33.8007 18.4727 33.5877 18.1926 33.4155 17.8833L33.1471 17.4281L32.9078 16.9555C32.7386 16.6462 32.6161 16.3136 32.476 15.9927C32.2164 15.342 32.0063 14.6797 31.8488 14.0262C31.7525 13.7023 31.7087 13.3726 31.6416 13.0546C31.6124 12.8941 31.5803 12.7366 31.5511 12.579C31.5278 12.4215 31.5132 12.2639 31.4928 12.1093C31.4578 11.8 31.4169 11.4995 31.3907 11.2077C31.3761 10.913 31.3615 10.63 31.3498 10.3587C31.309 9.81308 31.3411 9.31124 31.3411 8.86776C31.3382 8.42136 31.3732 8.03623 31.3994 7.71529C31.449 7.07633 31.4782 6.71162 31.4782 6.71162C31.4782 6.71162 31.4169 7.07341 31.3119 7.70654C31.2565 8.02456 31.1894 8.40969 31.1544 8.85609C31.1135 9.30249 31.0376 9.80433 31.0318 10.3587C31.0201 10.6359 31.0114 10.9247 30.9997 11.2223C31.0026 11.5199 31.0143 11.8321 31.0231 12.1501C31.0289 12.3106 31.0318 12.4711 31.0406 12.6344C31.0581 12.7978 31.0727 12.9641 31.0902 13.1304C31.1281 13.4631 31.1456 13.8103 31.2156 14.1516C31.3207 14.846 31.4782 15.555 31.6941 16.2669C31.8108 16.62 31.9129 16.9817 32.0617 17.3289L32.2747 17.857L32.5198 18.3705C32.6744 18.7177 32.8787 19.0416 33.0596 19.3771C33.2667 19.6981 33.4622 20.0248 33.6898 20.3254C34.1216 20.9351 34.638 21.5187 35.099 22.0088C36.0006 22.9979 36.8146 23.9928 37.509 24.8331C37.5586 24.8944 37.6082 24.9557 37.6578 25.014C37.5002 24.9323 37.3427 24.8506 37.1822 24.766C37.013 24.6727 36.7971 24.5822 36.5928 24.4888C36.3857 24.3955 36.1756 24.2992 35.9685 24.2233C35.1399 23.8878 34.2529 23.6136 33.3513 23.351C32.4498 23.0884 31.5249 22.8375 30.6146 22.5399C29.7043 22.2423 28.8027 21.9009 27.9712 21.4428C27.1338 20.9847 26.3957 20.4158 25.7421 19.7185C25.1002 19.0387 24.5546 18.2743 24.1141 17.4807C23.6735 16.6871 23.3321 15.8643 23.0695 15.0648C22.8099 14.2654 22.6173 13.4864 22.4919 12.757C22.3664 12.0276 22.2759 11.3536 22.2351 10.7496C22.1826 10.1457 22.1651 9.62343 22.1709 9.18579C22.1709 8.31633 22.168 7.81741 22.168 7.81741C22.168 7.81741 22.1359 8.31341 22.0834 9.18287C22.0484 9.61468 22.0309 10.1515 22.0455 10.7584C22.0484 11.3682 22.095 12.0538 22.1767 12.8008C22.2555 13.5477 22.4014 14.3559 22.6144 15.1961C22.8303 16.0364 23.1279 16.9088 23.5364 17.7753C23.9448 18.639 24.47 19.4938 25.1265 20.2787L25.3657 20.5588L25.497 20.7105L25.6342 20.8476C25.8209 21.0256 25.9959 21.2211 26.1973 21.3874C26.3986 21.5508 26.597 21.7229 26.8041 21.8805L27.4489 22.3239C28.3271 22.8841 29.2725 23.313 30.2003 23.6836C31.131 24.0541 32.0501 24.3663 32.9166 24.6843C33.7861 24.9994 34.6088 25.3116 35.3412 25.6676C35.5308 25.7522 35.7 25.8426 35.8663 25.9302C36.0356 26.0206 36.1931 26.0935 36.3711 26.2073C36.5432 26.3124 36.7125 26.4145 36.8788 26.5137C37.0305 26.6129 37.1764 26.7121 37.3223 26.8084C38.536 27.6253 39.5017 28.3664 40.164 28.9003C40.4967 29.1658 40.7505 29.3817 40.9226 29.5247C41.0773 29.656 41.1648 29.7319 41.1852 29.7494C41.8038 31.0156 42.2735 32.5736 42.0809 34.2163C41.8563 36.1448 40.7417 37.9129 38.7694 39.4885C38.4543 38.2368 38.0517 37.0056 37.5615 35.8122C36.8087 33.9799 35.9305 32.0455 34.3638 30.7647C34.0457 30.505 33.7219 30.2016 33.3338 29.9448C33.1413 29.8135 32.9575 29.6648 32.7474 29.5422C32.5402 29.4197 32.3272 29.2942 32.1113 29.1658C31.9013 29.0316 31.6649 28.9353 31.4344 28.8186C31.201 28.7107 30.9735 28.5881 30.7313 28.4919C30.4891 28.4014 30.244 28.308 29.999 28.2176L29.6313 28.0805C29.5059 28.0396 29.3804 28.0075 29.255 27.9725C28.7502 27.8412 28.2542 27.6749 27.7495 27.602C27.2447 27.5203 26.7604 27.3948 26.276 27.3686C25.7946 27.3248 25.3336 27.2694 24.896 27.246C24.4583 27.2402 24.0411 27.2344 23.6589 27.2285C23.4693 27.2285 23.2855 27.2198 23.1133 27.2227C22.9383 27.2343 22.7749 27.2431 22.6202 27.2548C22.311 27.2752 22.0425 27.2927 21.8208 27.3044C21.3802 27.3335 21.1264 27.3481 21.1264 27.3481C21.1264 27.3481 21.3802 27.3627 21.8208 27.3919C22.0425 27.4065 22.308 27.424 22.6144 27.4415C22.7661 27.4503 22.9295 27.4619 23.1016 27.4736C23.2738 27.4911 23.4518 27.5203 23.6385 27.5465C24.0119 27.5991 24.4146 27.6574 24.8406 27.7158C25.2636 27.7945 25.7042 27.9054 26.1593 28.0046C26.6174 28.0892 27.0696 28.2672 27.5335 28.4043C28.0033 28.5327 28.4468 28.7515 28.9019 28.9324C29.0128 28.982 29.1295 29.0229 29.2375 29.0754L29.5613 29.2446C29.7743 29.3584 29.9873 29.4693 30.2003 29.5801C30.4074 29.6939 30.6 29.834 30.7984 29.9565C30.991 30.0849 31.1923 30.1958 31.3644 30.3416C31.5395 30.4788 31.7145 30.613 31.8838 30.7443C32.053 30.8727 32.1989 31.0273 32.3506 31.1615C32.6599 31.4241 32.8991 31.7217 33.1413 31.9726C33.9203 32.7808 34.4542 34.0062 34.9531 35.0011C35.1924 35.4767 35.4141 35.961 35.6183 36.4541C35.738 36.74 35.8518 37.0289 35.9626 37.3207C36.0181 37.4724 36.0735 37.6241 36.1289 37.7787C36.1756 37.9129 36.2077 38.1464 36.2923 38.2572C35.9976 37.875 35.6767 37.4782 35.3353 37.0756C34.6147 36.2265 33.7569 35.3542 32.7386 34.5431C31.7204 33.7378 30.5183 32.9909 29.1178 32.5561C28.7765 32.4248 28.4059 32.3752 28.0412 32.2994L27.767 32.2469L27.7174 32.241H27.6999L27.6678 32.2381L27.6036 32.2323L27.4752 32.2206L27.2184 32.2002C27.1309 32.1944 27.02 32.1973 26.9208 32.1973C26.1127 32.1973 25.3774 32.3432 24.6509 32.5736C23.2096 33.0376 21.9375 33.8078 20.7092 34.5489L19.7901 35.1003L19.3437 35.3571C19.1862 35.4359 19.0228 35.5321 18.874 35.5992C18.2904 35.8735 17.634 36.0719 16.9833 36.139C15.6675 36.2791 14.3312 35.9377 13.0824 35.5059C11.8249 35.0711 10.6783 34.511 9.60752 33.9041C8.53675 33.306 7.55642 32.6612 6.55858 32.206C6.05966 31.9784 5.54908 31.8063 5.04141 31.7567C4.53374 31.7013 4.04357 31.7713 3.62051 31.9201C3.19745 32.0718 2.82983 32.279 2.52347 32.5065C2.21129 32.7283 1.9487 32.9617 1.72112 33.1776C1.26597 33.6152 0.945025 33.9916 0.729119 34.2513C0.516131 34.511 0.402344 34.651 0.402344 34.651C0.402344 34.651 0.52197 34.5168 0.746628 34.2659C0.971287 34.0179 1.31265 33.6561 1.77947 33.2418C2.0158 33.0376 2.28423 32.8187 2.59933 32.6174C2.9086 32.4073 3.27331 32.2235 3.67886 32.0981C4.08441 31.9726 4.53957 31.9318 5.00931 32.0018C5.47905 32.0689 5.95171 32.2527 6.42145 32.492C7.36385 32.9734 8.31208 33.6561 9.36827 34.3096C10.4157 34.969 11.5915 35.608 12.8578 36.1098C13.4909 36.3608 14.1561 36.5942 14.8564 36.7575C15.5566 36.9239 16.3006 37.0056 17.0534 36.9647C17.8119 36.918 18.5501 36.7371 19.2737 36.4337C19.4517 36.3608 19.6034 36.282 19.7697 36.2061L20.2686 35.9464L21.2198 35.43C22.4743 34.7444 23.7231 34.0762 24.9981 33.732C25.3161 33.6473 25.6342 33.5773 25.9493 33.5394C26.1068 33.5102 26.2644 33.5102 26.419 33.4985C26.5795 33.484 26.7224 33.4927 26.8654 33.4956C26.9413 33.4985 27.0025 33.4927 27.0871 33.5044L27.3439 33.5365L27.5656 33.5656L27.7932 33.6211C28.0937 33.6999 28.3972 33.7495 28.6831 33.8778C29.8414 34.2951 30.8626 34.9836 31.7408 35.7451C32.619 36.5125 33.3718 37.344 34.0078 38.1668C34.6439 38.9866 35.1924 39.7715 35.6417 40.498C35.9947 41.0669 36.3944 41.6096 36.7475 42.1785C37.0334 42.6366 37.1851 43.1735 37.436 43.6607C37.4477 43.6811 37.4565 43.6986 37.4652 43.7191C37.6053 45.0699 37.6432 46.4179 37.579 47.7687C37.5323 47.6958 37.4827 47.6141 37.4244 47.5266C37.4244 47.5237 37.4185 47.5178 37.4185 47.5149C37.3748 47.4449 37.3252 47.3719 37.2756 47.2961C37.0713 46.9868 36.8204 46.6163 36.5228 46.1991C36.2194 45.7848 35.8751 45.3179 35.4725 44.8307C35.0757 44.3376 34.6176 43.8241 34.1158 43.3018C33.611 42.7767 33.045 42.2573 32.4352 41.7467C31.8196 41.242 31.1456 40.7635 30.4278 40.3317C29.7101 39.8969 28.9282 39.5381 28.1258 39.2521C27.3235 38.9604 26.4832 38.7824 25.6517 38.692C24.8201 38.5898 23.9944 38.6278 23.2125 38.7153C22.8215 38.7736 22.4393 38.8232 22.0746 38.9224C21.8908 38.9662 21.7099 39.0041 21.5319 39.0537C21.3569 39.1092 21.1847 39.1646 21.0126 39.22C20.6683 39.3192 20.3503 39.4564 20.041 39.5848C19.7259 39.7015 19.44 39.8503 19.1628 39.9874C19.0257 40.0545 18.8886 40.1216 18.7573 40.1887C18.626 40.2587 18.5034 40.3346 18.3809 40.4046C18.1387 40.5476 17.9053 40.6759 17.6952 40.8102C17.2809 41.0932 16.9133 41.3237 16.6274 41.5396C16.0584 41.9743 15.7346 42.2194 15.7346 42.2194C15.7346 42.2194 16.0759 41.9976 16.677 41.6125C16.9775 41.4229 17.3626 41.2215 17.7915 40.9735C18.0103 40.8598 18.2496 40.7489 18.5005 40.6293C18.626 40.5709 18.7514 40.5067 18.8856 40.4455C19.0198 40.39 19.157 40.3375 19.2999 40.2791C19.58 40.1654 19.8718 40.0428 20.184 39.9524C20.4933 39.8532 20.8113 39.7452 21.1497 39.6752C21.316 39.6343 21.4853 39.5964 21.6574 39.5556C21.8295 39.5235 22.0075 39.5001 22.1855 39.471C22.5385 39.4039 22.9062 39.3863 23.2767 39.3601C24.0178 39.3368 24.7851 39.3601 25.5408 39.5147C26.2965 39.6577 27.0492 39.8794 27.7582 40.2033C28.4672 40.5242 29.1528 40.9035 29.7772 41.3499C30.4016 41.7963 30.9851 42.2807 31.5161 42.7912C32.0413 43.3047 32.5256 43.827 32.9545 44.3493C33.3834 44.8715 33.7715 45.3821 34.1041 45.8723C34.4454 46.3566 34.7314 46.8176 34.9852 47.2261C35.1194 47.4507 35.2887 47.6812 35.3937 47.9205C35.8693 49.0117 36.5228 49.9949 37.2318 50.9519C37.2347 50.9607 37.2376 50.9694 37.2406 50.9782C37.0276 52.2503 36.7271 53.5078 36.3448 54.7419C35.7788 56.5771 35.0669 58.424 34.142 60.1133C32.5898 62.9522 30.9151 66.5467 28.0996 68.3236C27.5715 68.6562 26.9646 68.9538 26.2819 69.1318C25.5087 69.3214 24.6918 69.5227 23.8486 69.727C22.1447 70.1559 20.327 70.6752 18.5676 71.3725C16.8141 72.0727 15.0956 72.951 13.736 74.1355C13.0591 74.7249 12.4785 75.3959 12.0642 76.1137C11.6499 76.8314 11.4077 77.5929 11.3202 78.3019C11.2297 79.0138 11.2852 79.6703 11.3844 80.2334C11.4865 80.7994 11.6411 81.2721 11.7812 81.6543C11.9212 82.0365 12.0554 82.3283 12.1517 82.5238C12.248 82.7192 12.2976 82.8243 12.2976 82.8243C12.2976 82.8243 12.2538 82.7163 12.1721 82.515C12.0904 82.3137 11.9796 82.0132 11.8658 81.6251C11.752 81.2371 11.6324 80.7586 11.5711 80.2042C11.5127 79.6499 11.504 79.0168 11.6353 78.3515C11.7637 77.6863 12.0379 76.9977 12.4668 76.3617C12.8957 75.7256 13.4734 75.1421 14.1445 74.6344C15.4895 73.6133 17.1817 72.8868 18.9148 72.3295C20.6537 71.7751 22.4481 71.39 24.1462 71.0866C25.0069 70.9378 25.8384 70.7919 26.6262 70.6577C27.5044 70.4914 28.2951 70.1763 28.9719 69.8116C32.0822 68.1339 33.5906 64.8341 35.5425 62.0185C36.5462 60.017 37.2639 58.2664 37.7716 56.8514C37.7687 56.8543 37.7657 56.8543 37.7628 56.8572C38.2442 55.518 38.6177 54.2226 38.9007 52.9738C39.032 53.1168 39.172 53.2598 39.3092 53.4056C42.1801 56.3262 45.5471 57.6654 45.5471 57.6654L41.3136 59.5064C39.0378 60.7785 37.4448 62.4007 36.6483 64.2826C35.7467 66.4184 35.8693 68.8079 37.0188 71.3813C37.366 72.1603 37.7862 72.8926 38.2326 73.6016C37.4711 73.8379 36.7533 74.0013 36.1348 74.118L36.1377 74.1268C35.9772 74.1647 35.7876 74.2085 35.5658 74.2668C34.8568 74.4536 33.8503 74.7424 32.689 75.2617C32.1084 75.5243 31.4899 75.8453 30.8713 76.28C30.565 76.4988 30.2586 76.7468 29.9698 77.0357C29.8239 77.1815 29.6868 77.3391 29.5555 77.5054L29.3629 77.7709L29.1995 78.0306C28.7794 78.7425 28.4935 79.4894 28.2192 80.2363C27.9479 80.9862 27.6999 81.7418 27.4227 82.48C27.1455 83.2182 26.845 83.9388 26.4569 84.5924C26.0718 85.2401 25.5875 85.8236 24.966 86.1708C24.6567 86.3459 24.3183 86.4538 23.974 86.4976C23.621 86.5326 23.2709 86.5384 22.9324 86.5355C22.2526 86.5268 21.6107 86.448 21.0243 86.3459C20.4349 86.2467 19.8981 86.1241 19.4108 86.0745C18.9236 86.0191 18.4888 86.0541 18.1504 86.1475C17.809 86.2379 17.5639 86.3663 17.4006 86.4597C17.2372 86.553 17.1555 86.6085 17.1555 86.6085C17.1555 86.6085 17.2401 86.556 17.4035 86.4684C17.5669 86.3809 17.8178 86.2613 18.1562 86.1825C18.4947 86.1008 18.9207 86.0804 19.3991 86.1504C19.8776 86.2146 20.4087 86.3517 20.998 86.4713C21.5845 86.591 22.2322 86.6931 22.9237 86.7252C23.2709 86.7427 23.6239 86.7398 23.9915 86.7252C24.365 86.7135 24.7501 86.6318 25.1119 86.4713C25.8442 86.1533 26.4423 85.5581 26.9238 84.9046C27.4052 84.2452 27.7932 83.5216 28.1521 82.7951C28.508 82.0686 28.8319 81.3334 29.1674 80.6331C29.503 79.9358 29.8472 79.2618 30.247 78.7192C30.6263 78.194 31.1281 77.8234 31.6678 77.5112C32.2076 77.2049 32.7678 76.9773 33.3017 76.7993C34.3696 76.4405 35.3149 76.2683 35.9685 76.1633C36.1785 76.1312 36.3565 76.1049 36.5053 76.0874L36.5141 76.1283C36.6541 76.102 36.7883 76.0699 36.9284 76.0407C36.9634 76.0378 36.9838 76.0349 36.9838 76.0291C37.8387 75.8511 38.6498 75.6294 39.4259 75.3639C39.4667 75.4222 39.5076 75.4806 39.5484 75.5389C40.6863 77.167 41.76 78.7016 42.2968 80.4726C42.717 81.8556 42.7432 83.3728 42.1889 84.7207C41.9321 85.3451 41.5558 85.9199 41.086 86.4013C39.6622 87.8572 37.8066 88.7646 35.986 89.6107C35.6475 89.7683 35.2945 89.9258 34.9327 90.0542C34.7518 90.1184 34.568 90.1826 34.3813 90.2322L34.2412 90.2701L34.2062 90.2789L34.1887 90.2847C34.1916 90.2847 34.1624 90.2905 34.1975 90.2847L34.1887 90.2876L34.0516 90.2993L33.7452 90.3635C33.5322 90.4131 33.363 90.4218 33.1704 90.4539C32.9779 90.4743 32.7795 90.4889 32.584 90.5006C32.1901 90.5181 31.7904 90.5094 31.3965 90.5064C30.9997 90.5035 30.5971 90.5123 30.2178 90.5823C29.8326 90.6523 29.4942 90.8128 29.2141 90.9879C29.0799 91.0841 28.9574 91.1833 28.8407 91.2767C28.7385 91.3817 28.6393 91.4809 28.5489 91.5743C28.3797 91.7698 28.2396 91.9478 28.1317 92.0936C27.9274 92.3971 27.8107 92.5721 27.8107 92.5721C27.8107 92.5721 27.9508 92.4175 28.1988 92.1491C28.3271 92.0207 28.4876 91.869 28.6773 91.7085C28.7765 91.6356 28.8815 91.5568 28.9953 91.4722C29.1149 91.4051 29.2375 91.3321 29.3717 91.265C29.643 91.1513 29.9435 91.0608 30.2761 91.052C30.6087 91.0433 30.9647 91.0871 31.344 91.1483C31.7262 91.2125 32.1318 91.2825 32.5577 91.3292C32.7707 91.3496 32.9866 91.3672 33.2084 91.3759C33.4272 91.3759 33.6781 91.3876 33.8765 91.373L34.1887 91.3584L34.2675 91.3555L34.3696 91.3438L34.5359 91.3234C34.7606 91.3 34.9765 91.2592 35.1895 91.2183C35.6183 91.1367 36.0297 91.0258 36.4236 90.912C37.544 90.5881 38.644 90.133 39.7089 89.6516C40.7709 89.1702 41.8038 88.5779 42.6119 87.723C44.6076 85.6223 45.0219 82.5763 44.1962 79.8687C43.5894 77.873 42.4427 76.1896 41.3107 74.5673C43.3064 73.6074 44.9548 72.3178 46.2065 70.7394C46.5099 75.3639 47.7266 80.1634 48.8645 83.7959C48.4852 84.9746 48.0825 86.1475 47.6478 87.3087C47.076 88.8492 46.7025 90.4481 46.119 91.9799C46.0052 92.2804 45.8826 92.5896 45.7426 92.8931C45.6755 93.0477 45.6054 93.1994 45.5267 93.3482C45.4537 93.4999 45.375 93.6458 45.2903 93.7888C45.1299 94.0806 44.9431 94.3431 44.7447 94.5707C44.6543 94.6758 44.5026 94.8158 44.3917 94.9208C44.275 95.0259 44.1554 95.1338 44.0299 95.233C43.5339 95.6415 43.0087 95.9712 42.5653 96.2746C42.1189 96.5751 41.7629 96.8757 41.5849 97.147C41.4974 97.2783 41.442 97.3921 41.4186 97.4738C41.3924 97.5526 41.3778 97.5963 41.3778 97.5963C41.3778 97.5963 41.3982 97.5584 41.4391 97.4855C41.4741 97.4125 41.547 97.3133 41.652 97.2054C41.8621 96.9865 42.2385 96.7677 42.7199 96.5576C43.2013 96.3417 43.7848 96.1112 44.3888 95.7757C44.5405 95.6969 44.6922 95.6007 44.8498 95.5044C45.0103 95.4023 45.1299 95.3264 45.2962 95.2009C45.6084 94.9559 45.8885 94.6787 46.1277 94.3898C46.2532 94.2469 46.3728 94.0981 46.4808 93.9493C46.5945 93.8005 46.7025 93.6517 46.8046 93.4999C47.0147 93.1994 47.2014 92.896 47.3823 92.6042C47.9046 91.7406 48.4823 90.9032 48.9082 89.9842C49.3313 89.071 49.6552 88.1169 49.9994 87.1716C50.3437 88.1198 50.688 89.068 51.1169 89.9813C51.5487 90.9003 52.1147 91.7377 52.6399 92.6042C52.8179 92.8989 53.0075 93.2023 53.2176 93.4999C53.3168 93.6517 53.4277 93.8005 53.5415 93.9493C53.6494 94.0981 53.769 94.2469 53.8945 94.3898C54.1337 94.6816 54.4138 94.9559 54.726 95.2009C54.8923 95.3293 55.0149 95.4023 55.1724 95.5044C55.33 95.6007 55.4817 95.694 55.6334 95.7757C56.2374 96.1112 56.8209 96.3417 57.3023 96.5576C57.7866 96.7677 58.1601 96.9865 58.3702 97.2054C58.4752 97.3133 58.5481 97.4125 58.5831 97.4855C58.624 97.5584 58.6444 97.5963 58.6444 97.5963C58.6444 97.5963 58.6298 97.5555 58.6036 97.4738C58.5802 97.3921 58.5248 97.2812 58.4373 97.147C58.2622 96.8786 57.9033 96.5751 57.4569 96.2746C57.0135 95.9683 56.4883 95.6415 55.9923 95.233C55.8639 95.1309 55.7472 95.0259 55.6305 94.9208C55.5196 94.8158 55.3679 94.6758 55.2775 94.5707C55.0791 94.3402 54.8923 94.0806 54.7319 93.7888C54.6472 93.6458 54.5685 93.4999 54.4955 93.3482C54.4197 93.1994 54.3467 93.0506 54.2796 92.8931C54.1396 92.5896 54.02 92.2804 53.9032 91.9799C53.2905 90.3751 52.8675 88.7033 52.2723 87.0928C52.0914 86.5997 51.9134 86.1037 51.7413 85.6077C51.6392 85.313 51.537 85.0154 51.4378 84.7207C51.3882 84.569 51.3386 84.4202 51.289 84.2685C51.2569 84.1751 51.1081 83.8892 51.1373 83.7988C52.2752 80.1663 53.4919 75.3668 53.7953 70.7423C55.047 72.3208 56.6954 73.6104 58.6911 74.5703C57.5591 76.1925 56.4124 77.8759 55.8055 79.8716C54.9799 82.5792 55.3942 85.6252 57.3898 87.7259C58.2009 88.5779 59.2309 89.1731 60.2929 89.6545C61.3549 90.1359 62.4578 90.5881 63.5782 90.9149C63.972 91.0287 64.3805 91.1425 64.8123 91.2213C65.0282 91.2621 65.2441 91.3 65.4659 91.3263L65.6322 91.3467L65.7343 91.3584L65.8131 91.3613L66.1253 91.3759C66.3237 91.3934 66.5746 91.3788 66.7934 91.3788C67.0152 91.3701 67.2311 91.3526 67.444 91.3321C67.87 91.2855 68.2756 91.2154 68.6578 91.1512C69.0371 91.09 69.393 91.0462 69.7256 91.055C70.0583 91.0637 70.3588 91.1542 70.6301 91.2679C70.7614 91.3351 70.8839 91.408 71.0065 91.4751C71.1174 91.5568 71.2224 91.6356 71.3245 91.7114C71.5142 91.8719 71.6746 92.0236 71.803 92.152C72.0481 92.4204 72.1911 92.5751 72.1911 92.5751C72.1911 92.5751 72.0743 92.4 71.8701 92.0966C71.7622 91.9478 71.6221 91.7727 71.4529 91.5772C71.3595 91.4838 71.2632 91.3847 71.1611 91.2796C71.0444 91.1892 70.9248 91.0871 70.7877 90.9908C70.5076 90.8157 70.1691 90.6553 69.784 90.5852C69.4047 90.5152 69.0021 90.5035 68.6053 90.5094C68.2114 90.5152 67.8117 90.521 67.4178 90.5035C67.2223 90.4919 67.0239 90.4773 66.8313 90.4568C66.6388 90.4248 66.4696 90.416 66.2566 90.3664L65.9502 90.3022L65.8744 90.2876L65.8656 90.2847C65.9006 90.2905 65.8744 90.2847 65.8744 90.2847L65.8568 90.2789L65.8218 90.2701L65.6818 90.2322C65.4951 90.1826 65.3112 90.1184 65.1303 90.0542C64.7656 89.9258 64.4126 89.7683 64.0771 89.6107C62.2536 88.7617 60.3979 87.8543 58.977 86.4013C58.5044 85.9199 58.1309 85.3451 57.8742 84.7207C57.3198 83.3728 57.3461 81.8527 57.7662 80.4726C58.306 78.7016 59.3797 77.167 60.5146 75.5389C60.5555 75.4806 60.5963 75.4222 60.6372 75.3639C61.4104 75.6264 62.2244 75.8511 63.0792 76.0291C63.0792 76.0349 63.0997 76.0378 63.1347 76.0407C63.2747 76.0699 63.4089 76.102 63.549 76.1283L63.5577 76.0874C63.7065 76.1049 63.8845 76.1312 64.0946 76.1633C64.7481 76.2683 65.6935 76.4434 66.7613 76.7993C67.2923 76.9773 67.8554 77.2049 68.3952 77.5112C68.935 77.8234 69.4368 78.194 69.8161 78.7192C70.2158 79.2618 70.5601 79.9358 70.8956 80.6331C71.2311 81.3334 71.555 82.0686 71.911 82.7951C72.2669 83.5216 72.655 84.2452 73.1393 84.9046C73.6178 85.5581 74.2159 86.1562 74.9511 86.4713C75.3129 86.6318 75.6981 86.7135 76.0715 86.7252C76.4391 86.7369 76.7922 86.7398 77.1394 86.7252C77.8309 86.6931 78.4786 86.591 79.065 86.4713C79.6544 86.3517 80.1854 86.2146 80.6639 86.1504C81.1424 86.0804 81.5684 86.1008 81.9068 86.1825C82.2453 86.2613 82.4962 86.3809 82.6596 86.4684C82.8259 86.556 82.9076 86.6085 82.9076 86.6085C82.9076 86.6085 82.8259 86.553 82.6625 86.4597C82.502 86.3663 82.254 86.2379 81.9127 86.1475C81.5742 86.0541 81.1395 86.0191 80.6522 86.0745C80.165 86.1241 79.6281 86.2467 79.0388 86.3459C78.4523 86.448 77.8104 86.5268 77.1306 86.5355C76.7922 86.5384 76.4391 86.5326 76.089 86.4976C75.7447 86.4538 75.4063 86.343 75.097 86.1708C74.4756 85.8265 73.9912 85.243 73.6061 84.5924C73.2181 83.9388 72.9176 83.2182 72.6404 82.48C72.3632 81.7418 72.1152 80.9862 71.8439 80.2363C71.5696 79.4865 71.2837 78.7425 70.8635 78.0306L70.7001 77.7709L70.5076 77.5054C70.3763 77.3391 70.2362 77.1815 70.0933 77.0357C69.8044 76.7468 69.4981 76.4988 69.1917 76.28C68.5761 75.8453 67.9546 75.5243 67.374 75.2617C66.2128 74.7424 65.2062 74.4536 64.4972 74.2668C64.2755 74.2085 64.0858 74.1647 63.9254 74.1268L63.9283 74.118C63.3097 74.0042 62.5949 73.8379 61.8305 73.6016C62.2798 72.8926 62.7 72.1574 63.0442 71.3813C64.1938 68.805 64.3163 66.4184 63.4148 64.2826C62.6183 62.3978 61.0252 60.7756 58.7465 59.5035L54.5364 57.6712C54.5305 57.6683 54.5247 57.6654 54.516 57.6625C54.5189 57.6625 54.5218 57.6596 54.5247 57.6596C54.6939 57.5925 57.9383 56.2562 60.7276 53.429C60.8764 53.2773 61.0223 53.1255 61.1624 52.9738C61.1624 52.9738 61.1623 52.9797 61.1653 52.9855C61.4483 54.2313 61.8188 55.5239 62.3002 56.8572C62.2973 56.8543 62.2944 56.8543 62.2915 56.8514C62.7992 58.2664 63.5169 60.0141 64.5206 62.0156C66.4725 64.8341 67.9809 68.1339 71.0911 69.8087C71.768 70.1734 72.5587 70.4914 73.4369 70.6548C74.2247 70.7919 75.0562 70.9349 75.9169 71.0837C77.615 71.39 79.4093 71.7722 81.1482 72.3266C82.8784 72.8839 84.5706 73.6104 85.9186 74.6315C86.5896 75.1392 87.1673 75.7227 87.5962 76.3588C88.0251 76.9977 88.2994 77.6834 88.4278 78.3486C88.5591 79.0138 88.5503 79.647 88.492 80.2013C88.4307 80.7586 88.3111 81.2342 88.1973 81.6222C88.0835 82.0102 87.9697 82.3108 87.8909 82.5121C87.8092 82.7134 87.7655 82.8214 87.7655 82.8214C87.7655 82.8214 87.8151 82.7163 87.9113 82.5208C88.0047 82.3254 88.1389 82.0336 88.2819 81.6514C88.4219 81.2692 88.5766 80.7936 88.6787 80.2305C88.7779 79.6674 88.8333 79.0109 88.7429 78.299C88.6553 77.5871 88.4132 76.8285 87.9989 76.1108C87.5846 75.393 87.004 74.722 86.3271 74.1326C84.9674 72.948 83.2489 72.0698 81.4954 71.3696C79.7361 70.6723 77.9184 70.1529 76.2145 69.724C75.3713 69.5169 74.5544 69.3185 73.7812 69.1288C73.0984 68.9509 72.4887 68.6533 71.9635 68.3207C69.1479 66.5409 67.4732 62.9493 65.921 60.1104C64.9991 58.4211 64.2871 56.5742 63.7182 54.739C63.336 53.5019 63.0355 52.2415 62.8196 50.9636C63.5344 50.0008 64.1909 49.0146 64.6694 47.9146C64.7744 47.6754 64.9436 47.4449 65.0778 47.2202C65.3317 46.8118 65.6176 46.3508 65.959 45.8664C66.2945 45.3763 66.6796 44.8686 67.1085 44.3434C67.5374 43.8212 68.0217 43.2989 68.5469 42.7854C69.075 42.2748 69.6585 41.7905 70.2858 41.3441C70.9102 40.8948 71.5929 40.5155 72.3048 40.1975C73.0138 39.8736 73.7666 39.6519 74.5223 39.5089C75.2779 39.3543 76.0453 39.328 76.7863 39.3543C77.1569 39.3805 77.5216 39.398 77.8775 39.4651C78.0555 39.4943 78.2306 39.5176 78.4056 39.5497C78.5778 39.5906 78.747 39.6314 78.9133 39.6694C79.2518 39.7394 79.5698 39.8473 79.8791 39.9465C80.1913 40.037 80.483 40.1595 80.7631 40.2733C80.9032 40.3288 81.0403 40.3842 81.1774 40.4396C81.3087 40.498 81.4371 40.5622 81.5625 40.6234C81.8105 40.746 82.0498 40.8539 82.2715 40.9677C82.7004 41.2128 83.0826 41.417 83.3861 41.6067C83.9871 41.9947 84.3285 42.2136 84.3285 42.2136C84.3285 42.2136 84.0046 41.9655 83.4357 41.5337C83.1497 41.3208 82.7821 41.0873 82.3678 40.8043C82.1548 40.673 81.9243 40.5417 81.6822 40.3988C81.5596 40.3288 81.4371 40.2529 81.3058 40.1829C81.1745 40.1187 81.0374 40.0516 80.9002 39.9816C80.6231 39.8444 80.3371 39.6956 80.022 39.5789C79.7128 39.4535 79.3947 39.3134 79.0504 39.2142C78.8812 39.1588 78.7062 39.1033 78.5311 39.0479C78.3531 38.9983 78.1722 38.9604 77.9884 38.9166C77.6237 38.8174 77.2386 38.7678 76.8505 38.7095C76.0686 38.6219 75.2429 38.584 74.4114 38.6861C73.5799 38.7766 72.7396 38.9545 71.9372 39.2463C71.1349 39.5322 70.3529 39.8911 69.6352 40.3258C68.9175 40.7576 68.2406 41.2361 67.6279 41.7409C67.0181 42.2515 66.452 42.7737 65.9473 43.296C65.4455 43.8212 64.9874 44.3347 64.5906 44.8248C64.188 45.3121 63.8437 45.7789 63.5402 46.1932C63.2426 46.6104 62.9917 46.981 62.7875 47.2903C62.7379 47.369 62.6912 47.442 62.6445 47.5091C62.6445 47.5091 62.6416 47.5178 62.6387 47.5207C62.5803 47.6112 62.5307 47.69 62.484 47.7629C62.4199 46.412 62.4549 45.0612 62.5978 43.7132C62.6095 43.6928 62.6153 43.6782 62.627 43.6549C62.7525 43.4069 62.9246 43.083 63.1405 42.6833C63.6219 42.0152 63.9925 41.1836 64.4214 40.4921C64.8707 39.7686 65.4192 38.9808 66.0552 38.1609C66.6913 37.3382 67.444 36.5066 68.3223 35.7393C69.2005 34.9778 70.2216 34.2863 71.38 33.872C71.663 33.7465 71.9693 33.694 72.2698 33.6152L72.4974 33.5598L72.7192 33.5306L72.9759 33.4985C73.0605 33.4898 73.1218 33.4927 73.1976 33.4898C73.3406 33.4869 73.4836 33.4752 73.6441 33.4927C73.7987 33.5044 73.9562 33.5044 74.1138 33.5336C74.4289 33.5715 74.7469 33.6386 75.0649 33.7261C76.34 34.0733 77.5887 34.7385 78.8433 35.4242L79.7944 35.9406L80.2934 36.2003C80.4597 36.2761 80.6085 36.3549 80.7894 36.4279C81.5129 36.7313 82.2511 36.9122 83.0097 36.9589C83.7625 36.9997 84.5064 36.918 85.2067 36.7517C85.9069 36.5854 86.5692 36.3549 87.2053 36.104C88.4744 35.6022 89.6474 34.9632 90.6948 34.3038C91.751 33.6503 92.6992 32.9675 93.6416 32.4861C94.1113 32.2469 94.584 32.0631 95.0537 31.9959C95.5206 31.923 95.9757 31.9668 96.3842 32.0922C96.7897 32.2177 97.1545 32.4015 97.4637 32.6116C97.7788 32.8129 98.0473 33.0346 98.2836 33.236C98.7533 33.6503 99.0918 34.012 99.3164 34.26C99.5411 34.511 99.6607 34.6452 99.6607 34.6452C99.6607 34.6452 99.5119 34.511 99.3018 34.2513ZM47.8695 28.6757C47.9979 27.7566 48.2167 26.8521 48.5027 25.971C48.6369 25.5567 48.7769 25.1395 48.9462 24.7368C49.1212 24.3196 49.3546 23.9287 49.5472 23.5173C49.6872 23.2197 49.8448 22.8608 49.9994 22.4465C50.157 22.8608 50.3145 23.2197 50.4517 23.5173C50.6442 23.9257 50.8776 24.3167 51.0527 24.7368C51.2219 25.1395 51.362 25.5567 51.4962 25.971C51.7792 26.8521 52.0009 27.7595 52.1293 28.6757C52.2869 29.796 52.3044 30.9398 52.1381 32.0631C51.5983 33.6386 50.8806 35.1032 49.9994 36.4483C49.1154 35.1062 48.4006 33.6386 47.8608 32.0631C47.6916 30.9427 47.712 29.799 47.8695 28.6757ZM52.5115 42.8379C53.7048 44.8861 54.0258 47.1415 53.5356 49.8111C52.99 51.9468 51.6567 53.6478 49.9994 54.9987C48.3422 53.6507 47.0059 51.9468 46.4632 49.8111C45.9731 47.1385 46.2911 44.8861 47.4873 42.8379C48.0183 42.021 48.6807 41.277 49.3692 40.5096C49.518 40.3433 49.6697 40.177 49.8185 40.0078C49.8798 39.9495 49.9411 39.894 50.0024 39.8357C50.0636 39.894 50.1249 39.9495 50.1862 40.0078C50.335 40.177 50.4867 40.3433 50.6355 40.5096C51.3182 41.2741 51.9805 42.0181 52.5115 42.8379ZM39.6039 50.7068C39.5076 50.5901 39.4113 50.4734 39.3208 50.3596C39.6768 47.7775 39.6564 45.4551 39.4463 43.4594L39.4551 43.4652C39.6447 43.2435 42.1889 40.355 46.7142 39.3309C47.073 39.2551 47.4261 39.1909 47.7733 39.1413C46.9651 39.9699 46.2969 40.8247 45.7659 41.7146C45.2583 42.4966 44.8323 43.3602 44.5726 44.3726C44.1087 46.164 44.0241 47.9788 44.3246 49.6215C44.7768 52.084 46.0869 54.2809 48.1905 56.1453C45.375 55.5355 42.5011 53.7149 39.6039 50.7068ZM40.1349 72.8605C39.6389 72.1048 39.1895 71.3463 38.8307 70.5468C37.9233 68.5103 37.8037 66.6664 38.4776 65.0733C39.5572 62.5175 42.4369 61.009 44.6631 60.1921C45.8214 59.7661 46.8921 59.2964 47.8812 58.7887C48.1234 58.9492 48.348 59.1271 48.5639 59.311C47.1226 61.2891 46.4253 63.8392 46.2094 66.6197C45.0132 69.8699 42.5478 71.7635 40.1349 72.8605ZM49.9965 79.9241C48.3247 73.6162 47.111 65.5635 49.9965 60.9886C52.8821 65.5635 51.6712 73.6162 49.9965 79.9241ZM55.3329 60.1921C57.5591 61.009 60.4388 62.5204 61.5183 65.0733C62.1923 66.6664 62.0727 68.5103 61.1653 70.5468C60.8093 71.3492 60.3571 72.1048 59.8611 72.8605C57.4482 71.7635 54.9828 69.8699 53.7895 66.6168C53.5735 63.8362 52.8733 61.2862 51.4349 59.308C51.6508 59.1213 51.8755 58.9463 52.1176 58.7858C53.1038 59.2964 54.1746 59.7661 55.3329 60.1921ZM60.3921 50.7068C57.4949 53.7149 54.6239 55.5355 51.8025 56.1453C53.9062 54.278 55.2162 52.084 55.6684 49.6215C55.9689 47.9817 55.8843 46.167 55.4204 44.3726C55.1607 43.3602 54.7348 42.4966 54.2271 41.7146C53.6961 40.8247 53.025 39.9699 52.2198 39.1413C52.567 39.1909 52.92 39.2551 53.2789 39.3309C57.8041 40.355 60.3483 43.2406 60.538 43.4652L60.5467 43.4594C60.3396 45.458 60.3191 47.7804 60.6722 50.3596C60.5817 50.4763 60.4884 50.5901 60.3921 50.7068Z" fill="black"/>
</svg>
