<svg width="124" height="124" viewBox="0 0 124 124" fill="none" xmlns="http://www.w3.org/2000/svg">
<path d="M121.92 68.3809C121.885 67.9345 121.774 67.5377 121.655 67.1788C121.407 66.4611 121.053 65.898 120.724 65.3787C120.102 64.4188 119.507 63.6222 119.554 62C119.504 60.3778 120.099 59.5813 120.724 58.6214C121.056 58.102 121.407 57.5389 121.655 56.8212C121.774 56.4623 121.888 56.0655 121.92 55.6191C121.955 55.1727 121.943 54.6767 121.873 54.1195C121.797 53.5622 121.695 53.0779 121.535 52.6577C121.369 52.2376 121.176 51.8787 120.966 51.5636C120.546 50.9334 120.07 50.4782 119.612 50.061C119.174 49.6817 118.769 49.3345 118.425 48.8852C118.253 48.6605 118.098 48.4096 117.964 48.1179C117.832 47.8232 117.713 47.4906 117.596 47.0996C117.153 45.5357 117.517 44.6167 117.853 43.5313C118.042 42.9419 118.244 42.303 118.305 41.5444C118.349 40.7916 118.22 39.9251 117.812 38.8777C117.386 37.8361 116.817 37.1563 116.266 36.6486C115.717 36.138 115.104 35.8404 114.55 35.5603C113.517 35.0468 112.668 34.6208 111.84 33.2233C111.635 32.8702 111.492 32.5464 111.39 32.2371C111.288 31.9278 111.209 31.6507 111.171 31.3706C111.093 30.8133 111.128 30.2852 111.166 29.7075C111.183 29.3953 111.206 29.0685 111.198 28.733C111.186 28.4004 111.151 28.0503 111.072 27.6797C110.993 27.3092 110.874 26.9211 110.693 26.5098C110.602 26.3055 110.495 26.0925 110.369 25.8766C110.235 25.6666 110.083 25.4507 109.911 25.2289C108.543 23.4404 107.107 23.1282 105.911 22.8627C105.359 22.7372 104.831 22.6439 104.303 22.4309C103.778 22.2179 103.259 21.8853 102.696 21.2959C102.106 20.7357 101.774 20.2135 101.561 19.6883C101.348 19.1631 101.254 18.6321 101.129 18.0807C100.866 16.8815 100.551 15.449 98.7626 14.0806C98.5409 13.9084 98.325 13.7538 98.1149 13.6225C97.899 13.4971 97.686 13.392 97.4818 13.2987C97.0704 13.1148 96.6824 12.9952 96.3118 12.9194C95.9413 12.8435 95.5941 12.8085 95.2585 12.7939C94.923 12.7851 94.5962 12.8085 94.2841 12.826C93.7093 12.861 93.1783 12.8989 92.621 12.8202C92.3409 12.7822 92.0608 12.7035 91.7545 12.6013C91.4452 12.4992 91.1213 12.3563 90.7683 12.152C89.3707 11.3234 88.9448 10.4744 88.4313 9.44152C88.1512 8.88717 87.8536 8.27446 87.343 7.72595C86.8353 7.17451 86.1526 6.60557 85.1139 6.17959C84.0665 5.76821 83.1999 5.64275 82.4472 5.68651C81.6857 5.74778 81.0496 5.94618 80.4602 6.13875C79.3749 6.47428 78.4558 6.83898 76.892 6.3955C76.501 6.27879 76.1684 6.15917 75.8737 6.02788C75.5819 5.89366 75.331 5.73611 75.1064 5.56689C74.657 5.22552 74.3098 4.81705 73.9305 4.37941C73.5162 3.92134 73.0582 3.44576 72.428 3.02562C72.1128 2.81555 71.754 2.62298 71.3338 2.45668C70.9137 2.29621 70.4294 2.19117 69.8721 2.11823C69.3148 2.04821 68.8188 2.03654 68.3724 2.07155C67.926 2.10656 67.5292 2.21743 67.1704 2.33705C66.4526 2.58505 65.8895 2.93809 65.3702 3.26778C64.4103 3.88924 63.6137 4.48444 61.9915 4.43776C60.3693 4.48736 59.5728 3.89216 58.6129 3.26778C58.0936 2.93517 57.5305 2.58505 56.8127 2.33705C56.4538 2.21743 56.057 2.10364 55.6106 2.07155C55.1642 2.03654 54.6682 2.04821 54.111 2.11823C53.5537 2.19409 53.0694 2.29621 52.6492 2.45668C52.2291 2.62298 51.8702 2.81555 51.5551 3.02562C50.9249 3.44576 50.4697 3.92134 50.0525 4.37941C49.6732 4.81705 49.326 5.22261 48.8767 5.56689C48.6521 5.73903 48.4011 5.89366 48.1094 6.02788C47.8147 6.15917 47.4821 6.27879 47.0911 6.3955C45.5273 6.83898 44.6082 6.47428 43.5228 6.13875C42.9335 5.9491 42.2945 5.74778 41.5359 5.68651C40.7832 5.64275 39.9166 5.77112 38.8692 6.17959C37.8276 6.60557 37.1478 7.17451 36.6401 7.72595C36.1295 8.27446 35.8319 8.88717 35.5518 9.44152C35.0383 10.4744 34.6123 11.3234 33.2148 12.152C32.8617 12.3563 32.5379 12.4992 32.2286 12.6013C31.9193 12.7035 31.6422 12.7822 31.3621 12.8202C30.8048 12.9019 30.2767 12.8639 29.699 12.826C29.3868 12.8085 29.0601 12.7851 28.7245 12.7939C28.3919 12.8056 28.0418 12.8406 27.6713 12.9194C27.3007 12.9952 26.9127 13.1178 26.5013 13.2987C26.297 13.3891 26.0841 13.4971 25.8682 13.6225C25.6581 13.7567 25.4422 13.9084 25.2204 14.0806C23.4319 15.449 23.1197 16.8844 22.8542 18.0807C22.7288 18.6321 22.6354 19.1602 22.4224 19.6883C22.2094 20.2135 21.8768 20.7328 21.2874 21.2959C20.7273 21.8853 20.205 22.2179 19.6798 22.4309C19.1546 22.6439 18.6236 22.7372 18.0722 22.8627C16.873 23.1253 15.4405 23.4404 14.0721 25.2289C13.9 25.4507 13.7453 25.6666 13.614 25.8766C13.4886 26.0925 13.3835 26.3055 13.2902 26.5098C13.1064 26.9211 12.9867 27.3092 12.9109 27.6797C12.835 28.0503 12.8 28.3975 12.7854 28.733C12.7767 29.0685 12.8 29.3953 12.8175 29.7075C12.8525 30.2823 12.8905 30.8133 12.8117 31.3706C12.7737 31.6507 12.695 31.9307 12.5929 32.2371C12.4907 32.5464 12.3478 32.8702 12.1435 33.2233C11.3149 34.6208 10.4659 35.0468 9.43304 35.5603C8.87869 35.8404 8.26598 36.138 7.71746 36.6486C7.16603 37.1563 6.59709 37.839 6.17111 38.8777C5.75972 39.9251 5.63426 40.7916 5.67803 41.5444C5.7393 42.3059 5.9377 42.9419 6.13026 43.5313C6.46579 44.6167 6.8305 45.5357 6.38702 47.0996C6.27031 47.4906 6.15069 47.8232 6.01939 48.1179C5.88518 48.4096 5.72763 48.6605 5.55841 48.8852C5.21704 49.3345 4.80857 49.6817 4.37092 50.061C3.91285 50.4753 3.43728 50.9334 3.01714 51.5636C2.80706 51.8787 2.6145 52.2376 2.44819 52.6577C2.28772 53.0779 2.18269 53.5622 2.10975 54.1195C2.03972 54.6767 2.02805 55.1727 2.06306 55.6191C2.09808 56.0655 2.20895 56.4623 2.32857 56.8212C2.57657 57.5389 2.92961 58.102 3.2593 58.6214C3.88076 59.5813 4.47596 60.3778 4.42928 62C4.47888 63.6222 3.88368 64.4188 3.2593 65.3787C2.92669 65.898 2.57657 66.4611 2.32857 67.1788C2.20895 67.5377 2.09516 67.9345 2.06306 68.3809C2.02805 68.8273 2.03972 69.3233 2.10975 69.8806C2.18561 70.4379 2.28772 70.9222 2.44819 71.3423C2.6145 71.7625 2.80706 72.1213 3.01714 72.4364C3.43728 73.0667 3.91285 73.5218 4.37092 73.939C4.80857 74.3183 5.21413 74.6655 5.55841 75.1148C5.73055 75.3395 5.88518 75.5904 6.01939 75.8822C6.15069 76.1769 6.27031 76.5095 6.38702 76.9004C6.8305 78.4643 6.46579 79.3834 6.13026 80.4687C5.94062 81.0581 5.7393 81.6971 5.67803 82.4556C5.63426 83.2084 5.76264 84.0749 6.17111 85.1224C6.59709 86.164 7.16603 86.8438 7.71746 87.3515C8.26598 87.862 8.87869 88.1596 9.43304 88.4397C10.4659 88.9532 11.3149 89.3792 12.1435 90.7768C12.3478 91.1298 12.4907 91.4537 12.5929 91.7629C12.695 92.0722 12.7737 92.3494 12.8117 92.6295C12.8905 93.1867 12.8554 93.7148 12.8175 94.2925C12.8 94.6047 12.7767 94.9315 12.7854 95.267C12.7971 95.5996 12.8321 95.9498 12.9109 96.3203C12.9867 96.6908 13.1093 97.0789 13.2902 97.4903C13.3806 97.6945 13.4886 97.9075 13.614 98.1234C13.7482 98.3335 13.9 98.5494 14.0721 98.7711C15.4405 100.56 16.876 100.872 18.0722 101.137C18.6236 101.263 19.1517 101.356 19.6798 101.569C20.205 101.782 20.7243 102.115 21.2874 102.704C21.8768 103.264 22.2094 103.787 22.4224 104.312C22.6354 104.837 22.7288 105.368 22.8542 105.919C23.1168 107.119 23.4319 108.551 25.2204 109.919C25.4422 110.092 25.6581 110.246 25.8682 110.378C26.0841 110.503 26.297 110.608 26.5013 110.701C26.9127 110.885 27.3007 111.005 27.6713 111.081C28.0418 111.157 28.389 111.192 28.7245 111.206C29.0601 111.215 29.3868 111.192 29.699 111.174C30.2738 111.139 30.8048 111.101 31.3621 111.18C31.6422 111.218 31.9223 111.297 32.2286 111.399C32.5379 111.501 32.8617 111.644 33.2148 111.848C34.6123 112.677 35.0383 113.526 35.5518 114.559C35.8319 115.113 36.1295 115.726 36.6401 116.274C37.1478 116.826 37.8305 117.394 38.8692 117.82C39.9166 118.232 40.7832 118.357 41.5359 118.314C42.2974 118.252 42.9335 118.054 43.5228 117.861C44.6082 117.526 45.5273 117.161 47.0911 117.605C47.4821 117.721 47.8147 117.841 48.1094 117.972C48.4011 118.106 48.6521 118.264 48.8767 118.433C49.326 118.775 49.6732 119.183 50.0525 119.621C50.4668 120.079 50.9249 120.554 51.5551 120.974C51.8702 121.184 52.2291 121.377 52.6492 121.543C53.0694 121.704 53.5537 121.809 54.111 121.882C54.6682 121.952 55.1642 121.963 55.6106 121.928C56.057 121.893 56.4538 121.783 56.8127 121.663C57.5305 121.415 58.0936 121.062 58.6129 120.732C59.5728 120.111 60.3693 119.516 61.9915 119.562C63.6137 119.513 64.4103 120.108 65.3702 120.732C65.8895 121.065 66.4526 121.415 67.1704 121.663C67.5292 121.783 67.926 121.896 68.3724 121.928C68.8188 121.963 69.3148 121.952 69.8721 121.882C70.4294 121.806 70.9137 121.704 71.3338 121.543C71.754 121.377 72.1128 121.184 72.428 120.974C73.0582 120.554 73.5133 120.079 73.9305 119.621C74.3098 119.183 74.657 118.777 75.1064 118.433C75.331 118.261 75.5819 118.106 75.8737 117.972C76.1684 117.841 76.501 117.721 76.892 117.605C78.4558 117.161 79.3749 117.526 80.4602 117.861C81.0496 118.051 81.6886 118.252 82.4472 118.314C83.1999 118.357 84.0665 118.229 85.1139 117.82C86.1555 117.394 86.8353 116.826 87.343 116.274C87.8536 115.726 88.1512 115.113 88.4313 114.559C88.9448 113.526 89.3707 112.677 90.7683 111.848C91.1213 111.644 91.4452 111.501 91.7545 111.399C92.0637 111.297 92.3409 111.218 92.621 111.18C93.1783 111.101 93.7064 111.136 94.2841 111.174C94.5962 111.192 94.923 111.215 95.2585 111.206C95.5912 111.194 95.9413 111.159 96.3118 111.081C96.6824 111.002 97.0704 110.882 97.4818 110.701C97.686 110.611 97.899 110.503 98.1149 110.378C98.325 110.243 98.5409 110.092 98.7626 109.919C100.551 108.551 100.863 107.116 101.129 105.919C101.254 105.368 101.348 104.84 101.561 104.312C101.774 103.787 102.106 103.267 102.696 102.704C103.256 102.115 103.778 101.782 104.303 101.569C104.828 101.356 105.359 101.263 105.911 101.137C107.11 100.875 108.543 100.56 109.911 98.7711C110.083 98.5494 110.238 98.3335 110.369 98.1234C110.495 97.9075 110.6 97.6945 110.693 97.4903C110.877 97.0789 110.996 96.6908 111.072 96.3203C111.148 95.9498 111.183 95.6026 111.198 95.267C111.206 94.9315 111.183 94.6047 111.166 94.2925C111.131 93.7178 111.093 93.1867 111.171 92.6295C111.209 92.3494 111.288 92.0693 111.39 91.7629C111.492 91.4537 111.635 91.1298 111.84 90.7768C112.668 89.3792 113.517 88.9532 114.55 88.4397C115.104 88.1596 115.717 87.862 116.266 87.3515C116.817 86.8438 117.386 86.161 117.812 85.1224C118.223 84.0749 118.349 83.2084 118.305 82.4556C118.244 81.6941 118.045 81.0581 117.853 80.4687C117.517 79.3834 117.153 78.4643 117.596 76.9004C117.713 76.5095 117.832 76.1769 117.964 75.8822C118.098 75.5904 118.255 75.3395 118.425 75.1148C118.766 74.6655 119.174 74.3183 119.612 73.939C120.07 73.5247 120.546 73.0667 120.966 72.4364C121.176 72.1213 121.369 71.7625 121.535 71.3423C121.695 70.9222 121.8 70.4379 121.873 69.8806C121.946 69.3204 121.955 68.8244 121.92 68.3809ZM117.316 49.7897C117.535 50.0727 117.774 50.3207 118.005 50.5482C118.229 50.7787 118.46 50.9888 118.681 51.1931C119.096 51.5753 119.484 51.94 119.805 52.4126C120.137 52.8853 120.359 53.4776 120.461 54.3033C120.56 55.1319 120.511 55.7592 120.315 56.2989C120.123 56.8387 119.84 57.2909 119.533 57.7665C119.195 58.2771 118.874 58.811 118.582 59.4733C118.273 58.8373 117.815 58.3617 117.424 57.9211C117.05 57.5098 116.703 57.1363 116.435 56.6753C116.169 56.2114 115.93 55.6687 115.84 54.9072C115.746 54.1457 115.822 53.5622 115.953 53.0458C116.096 52.5293 116.339 52.08 116.598 51.5869C116.738 51.3214 116.881 51.0472 117.01 50.7496C117.141 50.452 117.24 50.1369 117.316 49.7897ZM111.805 39.3912C111.813 38.8543 111.945 38.3496 112.061 37.8069C112.178 37.2321 112.298 36.6077 112.268 35.8929C112.832 36.3306 113.412 36.6136 113.964 36.8849C114.465 37.1446 114.924 37.4013 115.352 37.7777C115.77 38.1599 116.187 38.653 116.493 39.4291C117.103 40.9842 116.867 41.9324 116.493 43.0178C116.304 43.5984 116.096 44.2082 116.018 44.9114C115.525 44.3891 114.991 44.0331 114.495 43.7122C113.587 43.1024 112.744 42.6385 112.187 41.2118C111.91 40.497 111.787 39.9309 111.805 39.3912ZM105.675 24.3069C106.229 24.4266 106.754 24.5403 107.268 24.7913C107.769 25.0509 108.265 25.4448 108.782 26.1013C109.307 26.749 109.532 27.353 109.648 27.9102C109.762 28.4704 109.748 28.9985 109.727 29.5587C109.704 30.1627 109.643 30.8191 109.745 31.5223C109.138 31.1401 108.554 30.9242 107.982 30.7491C107.448 30.5857 106.952 30.4398 106.483 30.1802C106.007 29.9234 105.578 29.5354 105.094 28.9402C104.618 28.3362 104.385 27.7994 104.265 27.2683C104.131 26.749 104.108 26.2443 104.082 25.6899C104.049 25.1005 104.02 24.4499 103.804 23.7701C104.458 24.0443 105.076 24.1815 105.675 24.3069ZM94.4387 14.2731C94.9989 14.2527 95.5299 14.2381 96.0872 14.3519C96.6444 14.4686 97.2484 14.6904 97.8961 15.2155C98.5526 15.7291 98.9465 16.228 99.2061 16.7298C99.457 17.2433 99.5708 17.7685 99.6905 18.3228C99.8159 18.921 99.953 19.5395 100.227 20.1989C99.5475 19.983 98.8969 19.9538 98.3075 19.9217C97.7531 19.8955 97.2484 19.8721 96.729 19.7379C96.198 19.6183 95.6612 19.3819 95.0572 18.9093C94.462 18.425 94.074 17.9931 93.8172 17.5205C93.5576 17.0507 93.4117 16.5547 93.2483 16.0208C93.0732 15.449 92.8544 14.8654 92.4751 14.2586C93.1812 14.3578 93.8377 14.2965 94.4387 14.2731ZM80.9825 7.50421C82.0708 7.13075 83.0161 6.89442 84.5712 7.50421C85.3473 7.81056 85.8404 8.22778 86.2226 8.64501C86.599 9.0739 86.8557 9.52905 87.1154 10.0338C87.3897 10.5852 87.6698 11.1688 88.1074 11.729C87.3926 11.6998 86.7682 11.8194 86.1934 11.9361C85.6507 12.0557 85.146 12.1841 84.6091 12.1929C84.0665 12.2133 83.5033 12.0878 82.7885 11.8077C81.3618 11.2505 80.895 10.4073 80.2881 9.5028C79.9642 9.00679 79.6112 8.47578 79.089 7.97978C79.7921 7.89809 80.4019 7.69385 80.9825 7.50421ZM66.228 4.46402C66.7035 4.15766 67.1558 3.87465 67.6955 3.68209C68.2353 3.48661 68.8626 3.43992 69.6912 3.53621C70.5198 3.63832 71.1092 3.86298 71.5818 4.19268C72.0574 4.51362 72.4192 4.90167 72.8014 5.31597C73.0056 5.53771 73.2157 5.76821 73.4462 5.99287C73.6738 6.22336 73.9218 6.46261 74.2048 6.68143C73.8576 6.75729 73.5425 6.85649 73.2449 6.97903C72.9473 7.11032 72.673 7.25329 72.4075 7.39042C71.9144 7.65009 71.4651 7.89225 70.9487 8.03522C70.4352 8.16651 69.8488 8.24529 69.0873 8.14901C68.3258 8.05856 67.7802 7.81931 67.3192 7.55381C66.8582 7.28538 66.4818 6.93818 66.0733 6.56472C65.6328 6.17376 65.1543 5.71569 64.5211 5.40642C65.1834 5.12341 65.7174 4.79955 66.228 4.46402ZM50.5456 5.99578C50.7761 5.77112 50.9862 5.54063 51.1904 5.31889C51.5726 4.90458 51.9373 4.51654 52.41 4.19559C52.8826 3.86298 53.4749 3.64124 54.3006 3.53912C55.1292 3.43992 55.7565 3.48952 56.2963 3.68501C56.836 3.87757 57.2883 4.16058 57.7639 4.46694C58.2745 4.80538 58.8084 5.12632 59.4707 5.41809C58.8346 5.72736 58.3591 6.18543 57.9185 6.5764C57.5071 6.94985 57.1337 7.29705 56.6727 7.56548C56.2088 7.83098 55.6661 8.07023 54.9046 8.16068C54.1431 8.25404 53.5595 8.17818 53.0431 8.04689C52.5267 7.90392 52.0774 7.66176 51.5843 7.40209C51.3188 7.26204 51.0445 7.11908 50.7469 6.9907C50.4522 6.86524 50.1371 6.76604 49.787 6.6931C50.0729 6.46552 50.318 6.22628 50.5456 5.99578ZM36.8823 10.0338C37.1419 9.53197 37.3987 9.0739 37.7751 8.64501C38.1573 8.22778 38.6504 7.81056 39.4265 7.50421C40.9816 6.89442 41.9298 7.13075 43.0152 7.50421C43.5958 7.69385 44.2056 7.90101 44.9087 7.97978C44.3864 8.47287 44.0305 9.00679 43.7096 9.49988C43.0998 10.4073 42.6359 11.2505 41.2091 11.8077C40.4943 12.0878 39.9312 12.2133 39.3885 12.1929C38.8517 12.1841 38.3469 12.0528 37.8042 11.9361C37.2295 11.8194 36.6051 11.6998 35.8903 11.729C36.3279 11.1659 36.6109 10.5852 36.8823 10.0338ZM24.3043 18.3258C24.4239 17.7714 24.5377 17.2462 24.7886 16.7327C25.0483 16.2309 25.4422 15.7349 26.0986 15.2185C26.7464 14.6933 27.3503 14.4686 27.9076 14.3519C28.4678 14.2381 28.9959 14.2527 29.5561 14.2731C30.16 14.2965 30.8165 14.3578 31.5196 14.2556C31.1374 14.8625 30.9215 15.446 30.7465 16.0179C30.5831 16.5518 30.4372 17.0478 30.1775 17.5176C29.9208 17.9931 29.5327 18.422 28.9375 18.9064C28.3336 19.3819 27.7967 19.6154 27.2657 19.735C26.7464 19.8692 26.2416 19.8925 25.6873 19.9188C25.0979 19.9509 24.4473 19.9801 23.7674 20.196C24.0417 19.5395 24.1817 18.9239 24.3043 18.3258ZM14.2734 29.5587C14.253 28.9985 14.2384 28.4675 14.3522 27.9102C14.4689 27.353 14.6906 26.749 15.2158 26.1013C15.7293 25.4448 16.2282 25.0509 16.7301 24.7913C17.2436 24.5403 17.7688 24.4266 18.3231 24.3069C18.9212 24.1815 19.5398 24.0443 20.1992 23.7701C19.9833 24.4499 19.9541 25.1005 19.922 25.6899C19.8957 26.2443 19.8724 26.749 19.7382 27.2683C19.6185 27.7994 19.3822 28.3362 18.9096 28.9402C18.4252 29.5354 17.9934 29.9234 17.5208 30.1802C17.051 30.4398 16.555 30.5857 16.0211 30.7491C15.4492 30.9242 14.8657 31.143 14.2588 31.5223C14.3551 30.8191 14.2968 30.1627 14.2734 29.5587ZM7.50448 39.4291C7.81083 38.653 8.22805 38.1599 8.64527 37.7777C9.07417 37.4013 9.52932 37.1446 10.0341 36.8849C10.5855 36.6107 11.169 36.3306 11.7292 35.8929C11.7001 36.6077 11.8197 37.2321 11.9364 37.8069C12.056 38.3496 12.1844 38.8543 12.1931 39.3912C12.2136 39.9339 12.0881 40.497 11.808 41.2118C11.2507 42.6385 10.4075 43.1053 9.50306 43.7122C9.00706 44.0361 8.47605 44.3891 7.98005 44.9114C7.90127 44.2082 7.69412 43.5984 7.50448 43.0178C7.13102 41.9295 6.89469 40.9842 7.50448 39.4291ZM3.67944 56.3018C3.48396 55.7621 3.43728 55.1348 3.53356 54.3062C3.63568 53.4776 3.86034 52.8882 4.19003 52.4155C4.51097 51.94 4.89902 51.5782 5.31332 51.196C5.53506 50.9917 5.76556 50.7817 5.99022 50.5512C6.22071 50.3236 6.45996 50.0756 6.67878 49.7926C6.75464 50.1398 6.85384 50.4549 6.97638 50.7525C7.10768 51.0501 7.25064 51.3243 7.38777 51.5899C7.64744 52.0829 7.88961 52.5323 8.03257 53.0487C8.16387 53.5622 8.24264 54.1486 8.14636 54.9101C8.05591 55.6716 7.81666 56.2172 7.55116 56.6782C7.28273 57.1392 6.93553 57.5156 6.56207 57.9241C6.17111 58.3646 5.71304 58.8431 5.40377 59.4763C5.112 58.8139 4.79106 58.28 4.45262 57.7694C4.15502 57.2938 3.87201 56.8416 3.67944 56.3018ZM6.6817 74.2104C6.46288 73.9274 6.22363 73.6794 5.99313 73.4518C5.76848 73.2213 5.53798 73.0112 5.31624 72.807C4.90194 72.4248 4.51389 72.0601 4.19295 71.5874C3.86033 71.1147 3.63859 70.5225 3.53648 69.6968C3.43728 68.8682 3.48688 68.2409 3.68236 67.7011C3.87492 67.1613 4.15794 66.7091 4.46429 66.2335C4.80274 65.7229 5.12368 65.189 5.41544 64.5267C5.72471 65.1627 6.18278 65.6383 6.57375 66.0789C6.94721 66.4903 7.29441 66.8637 7.56283 67.3247C7.82834 67.7886 8.06758 68.3313 8.15803 69.0928C8.25139 69.8543 8.17553 70.4379 8.04424 70.9543C7.90128 71.4707 7.65911 71.92 7.39944 72.4131C7.2594 72.6786 7.11643 72.9529 6.98805 73.2505C6.85676 73.5481 6.75756 73.8632 6.6817 74.2104ZM12.1931 84.6118C12.1844 85.1486 12.0531 85.6534 11.9364 86.1961C11.8197 86.7708 11.7001 87.3952 11.7292 88.11C11.1661 87.6724 10.5855 87.3894 10.0341 87.118C9.53224 86.8584 9.07417 86.6016 8.64527 86.2252C8.22805 85.843 7.81083 85.3499 7.50448 84.5739C6.89469 83.0187 7.13102 82.0705 7.50448 80.9851C7.69412 80.4045 7.90127 79.7947 7.98005 79.0916C8.47313 79.6139 9.00706 79.9698 9.50306 80.2907C10.4105 80.9005 11.2537 81.3644 11.8109 82.7912C12.0881 83.5031 12.2106 84.0691 12.1931 84.6118ZM18.3231 99.6931C17.7688 99.5735 17.2436 99.4597 16.7301 99.2088C16.2282 98.9491 15.7322 98.5552 15.2158 97.8988C14.6906 97.251 14.466 96.6471 14.3493 96.0898C14.2355 95.5296 14.2501 95.0015 14.2705 94.4413C14.2938 93.8374 14.3551 93.1809 14.253 92.4778C14.8599 92.86 15.4434 93.0759 16.0153 93.2509C16.5492 93.4143 17.0452 93.5602 17.5149 93.8199C17.9905 94.0766 18.4194 94.4647 18.9037 95.0599C19.3793 95.6638 19.6127 96.2007 19.7323 96.7317C19.8665 97.251 19.8899 97.7558 19.9161 98.3101C19.9482 98.8995 19.9774 99.5501 20.1933 100.23C19.5398 99.9557 18.9212 99.8186 18.3231 99.6931ZM29.559 109.727C28.9988 109.747 28.4678 109.762 27.9105 109.648C27.3532 109.531 26.7493 109.31 26.1016 108.784C25.4451 108.271 25.0512 107.772 24.7915 107.27C24.5406 106.757 24.4268 106.232 24.3072 105.677C24.1817 105.079 24.0446 104.461 23.7704 103.801C24.4502 104.017 25.1008 104.046 25.6902 104.078C26.2445 104.105 26.7493 104.128 27.2686 104.262C27.7996 104.382 28.3365 104.618 28.9404 105.091C29.5356 105.575 29.9237 106.007 30.1804 106.48C30.4401 106.949 30.586 107.445 30.7494 107.979C30.9244 108.551 31.1433 109.135 31.5226 109.741C30.8165 109.642 30.16 109.704 29.559 109.727ZM43.0152 116.496C41.9269 116.866 40.9816 117.106 39.4265 116.496C38.6504 116.189 38.1573 115.772 37.7751 115.355C37.3987 114.926 37.1419 114.471 36.8823 113.966C36.608 113.415 36.3279 112.831 35.8903 112.271C36.6051 112.3 37.2295 112.181 37.8042 112.064C38.3469 111.944 38.8517 111.816 39.3885 111.807C39.9312 111.787 40.4943 111.912 41.2091 112.192C42.6359 112.75 43.1027 113.593 43.7096 114.5C44.0334 114.996 44.3864 115.527 44.9087 116.023C44.2056 116.102 43.5958 116.306 43.0152 116.496ZM57.7697 119.536C57.2941 119.842 56.8419 120.125 56.3021 120.318C55.7624 120.513 55.1351 120.56 54.3065 120.464C53.4778 120.362 52.8885 120.137 52.4158 119.807C51.9402 119.486 51.5785 119.098 51.1962 118.684C50.992 118.462 50.7819 118.232 50.5514 118.007C50.3239 117.777 50.0759 117.537 49.7929 117.319C50.1401 117.243 50.4552 117.144 50.7528 117.021C51.0504 116.89 51.3246 116.747 51.5901 116.61C52.0832 116.35 52.5325 116.108 53.049 115.965C53.5625 115.834 54.1489 115.755 54.9104 115.851C55.6719 115.941 56.2175 116.181 56.6785 116.446C57.1395 116.715 57.5159 117.062 57.9243 117.435C58.3649 117.826 58.8434 118.284 59.4765 118.594C58.8142 118.877 58.2803 119.2 57.7697 119.536ZM73.4491 118.004C73.2186 118.229 73.0086 118.459 72.8043 118.681C72.4221 119.095 72.0574 119.483 71.5848 119.804C71.1121 120.137 70.5198 120.359 69.6941 120.461C68.8655 120.56 68.2382 120.511 67.6985 120.315C67.1587 120.122 66.7065 119.839 66.2309 119.533C65.7203 119.195 65.1864 118.874 64.5241 118.582C65.1601 118.273 65.6357 117.815 66.0762 117.424C66.4876 117.05 66.8611 116.703 67.3221 116.435C67.786 116.169 68.3287 115.93 69.0902 115.839C69.8517 115.746 70.4352 115.822 70.9516 115.953C71.468 116.096 71.9174 116.338 72.4105 116.598C72.676 116.738 72.9502 116.881 73.2478 117.009C73.5425 117.135 73.8576 117.234 74.2077 117.307C73.9247 117.535 73.6796 117.774 73.4491 118.004ZM87.1154 113.966C86.8557 114.468 86.599 114.926 86.2226 115.355C85.8404 115.772 85.3473 116.189 84.5712 116.496C83.0161 117.106 82.0679 116.869 80.9825 116.496C80.4019 116.306 79.7921 116.099 79.089 116.02C79.6112 115.527 79.9672 114.993 80.2881 114.497C80.8979 113.59 81.3618 112.747 82.7885 112.189C83.5033 111.909 84.0665 111.784 84.6091 111.804C85.146 111.813 85.6507 111.944 86.1934 112.061C86.7682 112.178 87.3926 112.297 88.1074 112.268C87.6698 112.834 87.3867 113.415 87.1154 113.966ZM99.6934 105.677C99.5738 106.232 99.46 106.757 99.209 107.27C98.9494 107.772 98.5555 108.268 97.899 108.784C97.2513 109.31 96.6473 109.534 96.0901 109.651C95.5299 109.765 95.0018 109.75 94.4416 109.73C93.8377 109.706 93.1812 109.645 92.478 109.747C92.8602 109.14 93.0761 108.557 93.2512 107.985C93.4146 107.451 93.5605 106.955 93.8202 106.485C94.0769 106.01 94.465 105.581 95.0602 105.097C95.6641 104.621 96.201 104.388 96.732 104.268C97.2513 104.134 97.7561 104.11 98.3104 104.084C98.8998 104.052 99.5504 104.023 100.23 103.807C99.956 104.461 99.8159 105.079 99.6934 105.677ZM109.724 94.4413C109.745 95.0015 109.759 95.5325 109.645 96.0898C109.529 96.6471 109.307 97.251 108.782 97.8988C108.268 98.5552 107.769 98.9491 107.268 99.2088C106.754 99.4597 106.229 99.5735 105.675 99.6931C105.076 99.8186 104.458 99.9557 103.799 100.23C104.014 99.5501 104.044 98.8995 104.076 98.3101C104.102 97.7558 104.125 97.251 104.259 96.7317C104.379 96.2007 104.615 95.6638 105.088 95.0599C105.572 94.4647 106.004 94.0766 106.477 93.8199C106.947 93.5602 107.443 93.4143 107.977 93.2509C108.548 93.0759 109.132 92.857 109.739 92.4778C109.643 93.1809 109.701 93.8374 109.724 94.4413ZM110.877 82.2427C110.098 84.0399 110.439 85.3237 110.661 86.4762C110.88 87.5411 111.075 88.5068 110.273 89.8665C110.077 90.2078 109.873 90.4879 109.666 90.7184C109.459 90.9489 109.222 91.121 108.995 91.2669C108.531 91.5587 108.047 91.725 107.533 91.8971C107.253 91.9905 106.97 92.0868 106.675 92.1977C106.375 92.3056 106.071 92.4311 105.768 92.5974C105.464 92.7637 105.164 92.9679 104.866 93.2305C104.718 93.3618 104.572 93.5077 104.426 93.6711C104.271 93.8286 104.117 94.0008 103.965 94.1933C102.774 95.7514 102.719 97.038 102.666 98.2343C102.649 98.7886 102.602 99.2934 102.433 99.8069C102.264 100.32 101.966 100.846 101.424 101.417C100.852 101.96 100.327 102.258 99.813 102.427C99.2995 102.599 98.7947 102.643 98.2404 102.66C97.0412 102.713 95.7575 102.768 94.1994 103.959C94.0069 104.11 93.8318 104.265 93.6772 104.42C93.5138 104.566 93.3679 104.711 93.2366 104.86C92.974 105.158 92.7698 105.458 92.6035 105.762C92.4372 106.065 92.3117 106.369 92.2038 106.669C92.0929 106.964 91.9966 107.247 91.9033 107.527C91.7311 108.043 91.5648 108.528 91.273 108.989C91.1272 109.216 90.955 109.453 90.7245 109.66C90.494 109.867 90.2139 110.071 89.8726 110.267C88.513 111.072 87.5472 110.874 86.4823 110.655C85.3298 110.433 84.046 110.092 82.2488 110.871C81.3326 111.227 80.7199 111.705 80.2443 112.204C79.7629 112.685 79.4274 113.213 79.1065 113.712C78.5171 114.652 77.9569 115.41 76.4368 115.842C76.0604 115.956 75.7161 116.003 75.404 116.003C75.0918 116.009 74.8058 115.976 74.5403 115.918C74.0093 115.801 73.5483 115.583 73.064 115.343C72.5359 115.069 71.9786 114.763 71.3193 114.576C70.9896 114.483 70.6307 114.416 70.2368 114.395C69.84 114.369 69.4024 114.36 68.9151 114.427C68.4279 114.488 68.0048 114.596 67.6313 114.734C67.2579 114.874 66.9253 115.011 66.6306 115.189C66.0383 115.536 65.5802 115.968 65.1397 116.37C64.3257 117.106 63.5846 117.689 62.0061 117.739C60.4277 117.692 59.6866 117.109 58.8726 116.37C58.432 115.965 57.971 115.536 57.3816 115.189C57.087 115.011 56.7573 114.874 56.3809 114.734C56.0074 114.594 55.5844 114.488 55.0971 114.427C54.6099 114.363 54.1722 114.372 53.7754 114.395C53.3816 114.416 53.0227 114.483 52.693 114.576C52.0336 114.763 51.4763 115.069 50.9482 115.343C50.4639 115.583 50.0029 115.801 49.4719 115.918C49.2064 115.976 48.9234 116.009 48.6083 116.003C48.2932 116.003 47.9518 115.956 47.5754 115.842C46.0553 115.41 45.4952 114.652 44.9058 113.712C44.5849 113.213 44.2493 112.685 43.7679 112.204C43.2894 111.705 42.6767 111.227 41.7635 110.871C39.9662 110.092 38.6825 110.433 37.53 110.655C36.465 110.874 35.4993 111.069 34.1397 110.267C33.7983 110.071 33.5182 109.867 33.2877 109.66C33.0572 109.453 32.8851 109.216 32.7392 108.989C32.4474 108.525 32.2811 108.04 32.109 107.527C32.0156 107.247 31.9193 106.964 31.8085 106.669C31.7005 106.369 31.5751 106.065 31.4088 105.762C31.2425 105.458 31.0382 105.158 30.7756 104.86C30.6443 104.711 30.4985 104.566 30.3351 104.42C30.1775 104.265 30.0054 104.11 29.8128 103.959C28.2548 102.768 26.9681 102.713 25.7719 102.66C25.2175 102.643 24.7128 102.596 24.1993 102.427C23.6857 102.258 23.1606 101.96 22.5887 101.417C22.046 100.846 21.7484 100.32 21.5792 99.8069C21.4071 99.2934 21.3633 98.7886 21.3458 98.2343C21.2933 97.0351 21.2378 95.7514 20.0474 94.1933C19.8957 94.0008 19.7411 93.8257 19.5865 93.6711C19.4406 93.5077 19.2947 93.3618 19.1459 93.2305C18.8483 92.9679 18.5478 92.7637 18.2443 92.5974C17.9409 92.4311 17.6375 92.3056 17.3369 92.1977C17.0423 92.0868 16.7593 91.9905 16.4792 91.8971C15.9627 91.725 15.4784 91.5587 15.0174 91.2669C14.7898 91.121 14.5535 90.9489 14.3464 90.7184C14.1392 90.4879 13.935 90.2078 13.7395 89.8665C12.9342 88.5068 13.1326 87.5411 13.3514 86.4762C13.5732 85.3237 13.9145 84.0399 13.1355 82.2427C12.7796 81.3265 12.3011 80.7138 11.8022 80.2382C11.3208 79.7568 10.7927 79.4213 10.2937 79.1003C9.35427 78.511 8.59568 77.9508 8.16386 76.4307C8.05008 76.0543 8.00339 75.71 8.00339 75.3949C7.99756 75.0827 8.02965 74.7968 8.08801 74.5313C8.20471 74.0003 8.42354 73.5393 8.66278 73.055C8.93704 72.5269 9.24339 71.9696 9.43012 71.3102C9.52349 70.9805 9.5906 70.6217 9.61102 70.2278C9.63728 69.831 9.64603 69.3933 9.57893 68.9061C9.51765 68.4188 9.4097 67.9958 9.27257 67.6223C9.13252 67.2489 8.9954 66.9163 8.81742 66.6216C8.47022 66.0293 8.03841 65.5712 7.63577 65.1307C6.90052 64.3166 6.31699 63.5756 6.26739 61.9971C6.31408 60.4187 6.89761 59.6776 7.63577 58.8635C8.04132 58.423 8.47022 57.962 8.81742 57.3726C8.9954 57.0779 9.13252 56.7483 9.27257 56.3719C9.41262 55.9984 9.51765 55.5754 9.57893 55.0881C9.64311 54.6009 9.63436 54.1632 9.61102 53.7664C9.5906 53.3725 9.52349 53.0137 9.43012 52.684C9.24339 52.0246 8.93704 51.4673 8.66278 50.9392C8.42645 50.4549 8.20471 49.9939 8.08801 49.4629C8.02965 49.1974 7.99756 48.9144 8.00339 48.5993C8.00339 48.2842 8.05008 47.9428 8.16386 47.5664C8.59568 46.0463 9.35427 45.4861 10.2937 44.8968C10.7927 44.5758 11.3208 44.2403 11.8022 43.7589C12.3011 43.2804 12.7796 42.6677 13.1355 41.7545C13.9145 39.9572 13.5732 38.6734 13.3514 37.521C13.1326 36.456 12.9371 35.4903 13.7395 34.1307C13.935 33.7893 14.1392 33.5092 14.3464 33.2787C14.5535 33.0482 14.7898 32.8761 15.0174 32.7302C15.4813 32.4384 15.9657 32.2721 16.4792 32.1C16.7593 32.0066 17.0423 31.9103 17.3369 31.7995C17.6375 31.6915 17.9409 31.566 18.2443 31.3997C18.5478 31.2334 18.8483 31.0292 19.1459 30.7666C19.2947 30.6353 19.4406 30.4894 19.5865 30.326C19.7411 30.1685 19.8957 29.9963 20.0474 29.8038C21.2378 28.2458 21.2933 26.9591 21.3458 25.7628C21.3633 25.2085 21.41 24.7037 21.5792 24.1902C21.7484 23.6767 22.046 23.1515 22.5887 22.5797C23.1606 22.037 23.6857 21.7394 24.1993 21.5702C24.7128 21.398 25.2175 21.3543 25.7719 21.3368C26.971 21.2843 28.2548 21.2288 29.8128 20.0384C30.0054 19.8867 30.1804 19.7321 30.3351 19.5774C30.4985 19.4315 30.6443 19.2857 30.7756 19.1369C31.0382 18.8393 31.2425 18.5387 31.4088 18.2353C31.5751 17.9319 31.7005 17.6284 31.8085 17.3279C31.9193 17.0332 32.0156 16.7502 32.109 16.4701C32.2811 15.9537 32.4474 15.4694 32.7392 15.0084C32.8851 14.7808 33.0572 14.5445 33.2877 14.3373C33.5182 14.1302 33.7983 13.9259 34.1397 13.7305C35.4993 12.9252 36.465 13.1236 37.53 13.3424C38.6825 13.5642 39.9662 13.9055 41.7635 13.1265C42.6796 12.7706 43.2923 12.2921 43.7679 11.7931C44.2493 11.3117 44.5849 10.7836 44.9058 10.2847C45.4952 9.34524 46.0553 8.58665 47.5754 8.15484C47.9518 8.04105 48.2961 7.99437 48.6083 7.99437C48.9205 7.98854 49.2064 8.02063 49.4719 8.07898C50.0029 8.19569 50.4639 8.41451 50.9482 8.65376C51.4763 8.92802 52.0336 9.23437 52.693 9.4211C53.0227 9.51447 53.3816 9.58157 53.7754 9.60199C54.1722 9.62825 54.6099 9.63701 55.0971 9.5699C55.5844 9.50863 56.0074 9.40068 56.3809 9.26355C56.7544 9.1235 57.087 8.98637 57.3816 8.80839C57.9739 8.46119 58.432 8.02938 58.8726 7.62675C59.6866 6.8915 60.4277 6.30797 62.0061 6.25837C63.5846 6.30505 64.3257 6.88858 65.1397 7.62675C65.5802 8.0323 66.0412 8.46119 66.6306 8.80839C66.9253 8.98637 67.255 9.1235 67.6313 9.26355C68.0048 9.40359 68.4279 9.50863 68.9151 9.5699C69.4024 9.63409 69.84 9.62534 70.2368 9.60199C70.6307 9.58157 70.9896 9.51447 71.3193 9.4211C71.9786 9.23437 72.5359 8.92802 73.064 8.65376C73.5483 8.41743 74.0093 8.19569 74.5403 8.07898C74.8058 8.02063 75.0889 7.98854 75.404 7.99437C75.7191 7.99437 76.0604 8.04105 76.4368 8.15484C77.9569 8.58665 78.5171 9.34524 79.1065 10.2847C79.4274 10.7836 79.7629 11.3117 80.2443 11.7931C80.7228 12.2921 81.3355 12.7706 82.2488 13.1265C84.046 13.9055 85.3298 13.5642 86.4823 13.3424C87.5472 13.1236 88.513 12.9281 89.8726 13.7305C90.2139 13.9259 90.494 14.1302 90.7245 14.3373C90.955 14.5445 91.1272 14.7808 91.273 15.0084C91.5648 15.4723 91.7311 15.9566 91.9033 16.4701C91.9966 16.7502 92.0929 17.0332 92.2038 17.3279C92.3117 17.6284 92.4372 17.9319 92.6035 18.2353C92.7698 18.5387 92.974 18.8393 93.2366 19.1369C93.3679 19.2857 93.5138 19.4315 93.6772 19.5774C93.8347 19.7321 94.0069 19.8867 94.1994 20.0384C95.7575 21.2288 97.0442 21.2843 98.2404 21.3368C98.7947 21.3543 99.2995 21.401 99.813 21.5702C100.327 21.7394 100.852 22.037 101.424 22.5797C101.966 23.1515 102.264 23.6767 102.433 24.1902C102.605 24.7037 102.649 25.2085 102.666 25.7628C102.719 26.962 102.774 28.2458 103.965 29.8038C104.117 29.9963 104.271 30.1714 104.426 30.326C104.572 30.4894 104.718 30.6353 104.866 30.7666C105.164 31.0292 105.464 31.2334 105.768 31.3997C106.071 31.566 106.375 31.6915 106.675 31.7995C106.97 31.9103 107.253 32.0066 107.533 32.1C108.05 32.2721 108.534 32.4384 108.995 32.7302C109.222 32.8761 109.459 33.0482 109.666 33.2787C109.873 33.5092 110.077 33.7893 110.273 34.1307C111.078 35.4903 110.88 36.456 110.661 37.521C110.439 38.6734 110.098 39.9572 110.877 41.7545C111.233 42.6706 111.711 43.2833 112.21 43.7589C112.691 44.2403 113.22 44.5758 113.718 44.8968C114.658 45.4861 115.417 46.0463 115.848 47.5664C115.962 47.9428 116.009 48.2871 116.009 48.5993C116.015 48.9115 115.983 49.1974 115.924 49.4629C115.808 49.9939 115.589 50.4549 115.349 50.9392C115.075 51.4673 114.769 52.0246 114.582 52.684C114.489 53.0137 114.422 53.3725 114.401 53.7664C114.375 54.1632 114.366 54.6009 114.433 55.0881C114.495 55.5754 114.603 55.9984 114.74 56.3719C114.88 56.7453 115.017 57.0779 115.195 57.3726C115.542 57.9649 115.974 58.423 116.376 58.8635C117.112 59.6776 117.695 60.4187 117.745 61.9971C117.698 63.5756 117.115 64.3166 116.376 65.1307C115.971 65.5712 115.542 66.0322 115.195 66.6216C115.017 66.9163 114.88 67.2459 114.74 67.6223C114.6 67.9958 114.495 68.4188 114.433 68.9061C114.369 69.3933 114.378 69.831 114.401 70.2278C114.422 70.6217 114.489 70.9805 114.582 71.3102C114.769 71.9696 115.075 72.5269 115.349 73.055C115.586 73.5393 115.808 74.0003 115.924 74.5313C115.983 74.7968 116.015 75.0798 116.009 75.3949C116.009 75.71 115.962 76.0514 115.848 76.4278C115.417 77.9479 114.658 78.5081 113.718 79.0974C113.22 79.4184 112.691 79.7539 112.21 80.2353C111.711 80.7138 111.233 81.3294 110.877 82.2427ZM116.493 84.5739C116.187 85.3499 115.77 85.843 115.352 86.2252C114.924 86.6016 114.468 86.8584 113.964 87.118C113.412 87.3923 112.829 87.6724 112.268 88.11C112.298 87.3952 112.178 86.7708 112.061 86.1961C111.942 85.6534 111.813 85.1486 111.805 84.6118C111.784 84.0691 111.91 83.506 112.19 82.7912C112.747 81.3644 113.59 80.8976 114.498 80.2907C114.994 79.9669 115.525 79.6139 116.021 79.0916C116.099 79.7947 116.306 80.4045 116.496 80.9851C116.867 82.0705 117.103 83.0158 116.493 84.5739ZM120.461 69.6938C120.359 70.5225 120.134 71.1118 119.805 71.5845C119.484 72.0601 119.096 72.4219 118.681 72.8041C118.46 73.0083 118.229 73.2184 118.005 73.4489C117.774 73.6764 117.535 73.9244 117.316 74.2075C117.24 73.8603 117.141 73.5452 117.018 73.2476C116.887 72.95 116.744 72.6757 116.607 72.4102C116.347 71.9171 116.105 71.4678 115.962 70.9514C115.831 70.4379 115.752 69.8514 115.848 69.0899C115.939 68.3284 116.178 67.7828 116.444 67.3218C116.712 66.8608 117.059 66.4844 117.433 66.076C117.824 65.6354 118.282 65.1569 118.591 64.5238C118.883 65.1861 119.204 65.72 119.542 66.2306C119.848 66.7062 120.131 67.1584 120.324 67.6982C120.514 68.2409 120.56 68.8652 120.461 69.6938Z" fill="#F8F8F9"/>
<path d="M61.9966 9.34229C32.9601 9.34229 9.33887 32.9636 9.33887 62C9.33887 91.0364 32.9601 114.658 61.9966 114.658C91.033 114.658 114.654 91.0364 114.654 62C114.654 32.9636 91.033 9.34229 61.9966 9.34229Z" fill="#F8F8F9"/>
<path d="M105.841 18.1594C94.1291 6.448 78.5606 0 62 0C45.4394 0 29.868 6.448 18.1594 18.1594C6.448 29.8709 0 45.4394 0 62C0 78.5606 6.448 94.132 18.1594 105.841C29.8709 117.552 45.4394 124 62 124C78.5606 124 94.132 117.552 105.841 105.841C117.552 94.1291 124 78.5606 124 62C124 45.4394 117.552 29.868 105.841 18.1594ZM61.9971 122.74C28.5054 122.74 1.25751 95.4917 1.25751 62C1.25751 28.5083 28.5054 1.26042 61.9971 1.26042C95.4888 1.26042 122.737 28.5083 122.737 62C122.737 95.4917 95.4888 122.74 61.9971 122.74Z" fill="#F8F8F9"/>
</svg>
