<svg width="25" height="25" viewBox="0 0 25 25" fill="none" xmlns="http://www.w3.org/2000/svg">
<path fill-rule="evenodd" clip-rule="evenodd" d="M12.55 17.95H13.55C13.55 17.95 13.85 17.9 14 17.75C14.15 17.6 14.15 17.3 14.15 17.3C14.15 17.3 14.15 16 14.75 15.8C15.35 15.6 16.15 17.1 16.95 17.65C17.55 18.1 18 18 18 18L20.2 17.95C20.2 17.95 21.35 17.9 20.8 16.95C20.75 16.9 20.5 16.3 19.15 15.05C17.75 13.75 17.95 14 19.6 11.75C20.6 10.4 21 9.60005 20.9 9.20005C20.8 8.85005 20.05 8.95005 20.05 8.95005H17.55C17.55 8.95005 17.35 8.90005 17.25 9.00005C17.1 9.10005 17.05 9.25005 17.05 9.25005C17.05 9.25005 16.65 10.3 16.15 11.2C15.05 13.05 14.6 13.15 14.45 13.05C14.05 12.8 14.15 11.95 14.15 11.4C14.15 9.60005 14.45 8.85005 13.6 8.65005C13.35 8.60005 13.15 8.55005 12.45 8.55005C11.55 8.55005 10.8 8.55005 10.4 8.75005C10.1 8.90005 9.90001 9.20005 10.05 9.20005C10.2 9.20005 10.6 9.30005 10.8 9.55005C11 10 11 10.75 11 10.75C11 10.75 11.15 12.9 10.65 13.15C10.3 13.35 9.85001 12.95 8.85001 11.25C8.35001 10.4 7.95001 9.40005 7.95001 9.40005C7.95001 9.40005 7.90001 9.20005 7.75001 9.10005C7.60001 9.00005 7.35001 8.95005 7.35001 8.95005H5.00001C5.00001 8.95005 4.65001 8.95005 4.50001 9.10005C4.40001 9.25005 4.50001 9.50005 4.50001 9.50005C4.50001 9.50005 6.35001 13.8 8.45001 16C10.4 18.1 12.55 17.95 12.55 17.95Z" fill="#0E4F32"/>
</svg>
