<svg width="666" height="39" viewBox="0 0 666 39" fill="none" xmlns="http://www.w3.org/2000/svg">
<path fill-rule="evenodd" clip-rule="evenodd" d="M90.0329 26.1672C91.0644 25.7143 91.9485 25.4123 92.6852 25.4123C94.7482 25.4123 96.0744 26.7711 97.4006 28.1298L97.8426 28.5827C98.2847 28.8847 98.7267 29.3376 99.1688 29.6395C100.053 30.2434 101.084 30.5454 102.263 30.5454C103.295 30.5454 104.326 30.2434 105.358 29.6395C105.8 29.3376 106.242 29.0356 106.684 28.5827L107.126 28.1298C108.599 26.7711 109.926 25.4123 111.841 25.4123C112.725 25.4123 113.609 25.7143 114.494 26.1672C111.841 18.1657 108.01 9.56028 104.326 2.0117C103.737 0.652952 103.295 0.200042 102.116 0.200042C100.937 0.200042 100.495 0.652952 99.9056 2.0117C96.6638 9.56028 92.6852 18.1657 90.0329 26.1672ZM108.157 3.06851C107.421 3.06851 106.684 2.46462 106.684 1.55879C106.684 0.803931 107.273 0.0490723 108.157 0.0490723C108.894 0.0490723 109.631 0.652959 109.631 1.55879C109.631 2.46462 108.894 3.06851 108.157 3.06851ZM113.904 3.06851C113.167 3.06851 112.431 2.46462 112.431 1.55879C112.431 0.803931 113.02 0.0490723 113.904 0.0490723C114.641 0.0490723 115.378 0.652959 115.378 1.55879C115.378 2.46462 114.788 3.06851 113.904 3.06851ZM113.904 14.9953C113.167 14.9953 112.431 14.3914 112.431 13.4855C112.431 12.7307 113.02 11.9758 113.904 11.9758C114.641 11.9758 115.378 12.5797 115.378 13.4855C115.378 14.3914 114.788 14.9953 113.904 14.9953ZM113.904 8.9564C113.167 8.9564 112.431 8.35251 112.431 7.44668C112.431 6.69182 113.02 5.93696 113.904 5.93696C114.641 5.93696 115.378 6.54085 115.378 7.44668C115.378 8.35251 114.788 8.9564 113.904 8.9564ZM119.798 3.06851C120.535 3.06851 121.272 2.46462 121.272 1.55879C121.272 0.803931 120.682 0.0490723 119.798 0.0490723C119.062 0.0490723 118.325 0.652959 118.325 1.55879C118.325 2.46462 118.914 3.06851 119.798 3.06851ZM119.798 26.922C120.535 26.922 121.272 26.3181 121.272 25.4123C121.272 24.6575 120.682 23.9026 119.798 23.9026C119.062 23.9026 118.325 24.5065 118.325 25.4123C118.325 26.1672 118.914 26.922 119.798 26.922ZM119.798 20.8832C120.535 20.8832 121.272 20.2793 121.272 19.3734C121.272 18.6186 120.682 17.8637 119.798 17.8637C119.062 17.8637 118.325 18.4676 118.325 19.3734C118.325 20.2793 118.914 20.8832 119.798 20.8832ZM119.798 8.9564C120.535 8.9564 121.272 8.35251 121.272 7.44668C121.272 6.69182 120.682 5.93696 119.798 5.93696C119.062 5.93696 118.325 6.54085 118.325 7.44668C118.325 8.35251 118.914 8.9564 119.798 8.9564ZM119.798 14.9953C120.535 14.9953 121.272 14.3914 121.272 13.4855C121.272 12.7307 120.682 11.9758 119.798 11.9758C119.062 11.9758 118.325 12.5797 118.325 13.4855C118.325 14.3914 118.914 14.9953 119.798 14.9953ZM96.5164 3.06851C95.7797 3.06851 95.0429 2.46462 95.0429 1.55879C95.0429 0.803931 95.6323 0.0490723 96.5164 0.0490723C97.2532 0.0490723 97.99 0.652959 97.99 1.55879C97.99 2.46462 97.2532 3.06851 96.5164 3.06851ZM90.7697 3.06851C90.0329 3.06851 89.2961 2.46462 89.2961 1.55879C89.2961 0.803931 89.8855 0.0490723 90.7697 0.0490723C91.5064 0.0490723 92.2432 0.652959 92.2432 1.55879C92.0958 2.46462 91.5064 3.06851 90.7697 3.06851ZM90.7697 14.9953C90.0329 14.9953 89.2961 14.3914 89.2961 13.4855C89.2961 12.7307 89.8855 11.9758 90.7697 11.9758C91.5064 11.9758 92.2432 12.5797 92.2432 13.4855C92.0958 14.3914 91.5064 14.9953 90.7697 14.9953ZM90.7697 8.9564C90.0329 8.9564 89.2961 8.35251 89.2961 7.44668C89.2961 6.69182 89.8855 5.93696 90.7697 5.93696C91.5064 5.93696 92.2432 6.54085 92.2432 7.44668C92.0958 8.35251 91.5064 8.9564 90.7697 8.9564ZM84.8755 3.06851C85.6123 3.06851 86.349 2.46462 86.349 1.55879C86.349 0.803931 85.7596 0.0490723 84.8755 0.0490723C84.1387 0.0490723 83.402 0.652959 83.402 1.55879C83.402 2.46462 84.1387 3.06851 84.8755 3.06851ZM84.8755 26.922C85.6123 26.922 86.349 26.3181 86.349 25.4123C86.349 24.6575 85.7596 23.9026 84.8755 23.9026C84.1387 23.9026 83.402 24.5065 83.402 25.4123C83.402 26.1672 84.1387 26.922 84.8755 26.922ZM84.8755 20.8832C85.6123 20.8832 86.349 20.2793 86.349 19.3734C86.349 18.6186 85.7596 17.8637 84.8755 17.8637C84.1387 17.8637 83.402 18.4676 83.402 19.3734C83.402 20.2793 84.1387 20.8832 84.8755 20.8832ZM84.8755 8.9564C85.6123 8.9564 86.349 8.35251 86.349 7.44668C86.349 6.69182 85.7596 5.93696 84.8755 5.93696C84.1387 5.93696 83.402 6.54085 83.402 7.44668C83.402 8.35251 84.1387 8.9564 84.8755 8.9564ZM84.8755 14.9953C85.6123 14.9953 86.349 14.3914 86.349 13.4855C86.349 12.7307 85.7596 11.9758 84.8755 11.9758C84.1387 11.9758 83.402 12.5797 83.402 13.4855C83.402 14.3914 84.1387 14.9953 84.8755 14.9953ZM115.23 28.5827C117.146 29.7905 120.535 31.7531 121.272 32.206C121.124 32.9609 120.24 35.5274 116.704 38.8488H104.621C104.621 36.5842 103.589 34.9235 102.411 34.9235C101.232 34.9235 100.2 36.7352 100.2 38.8488H88.1173C84.5808 35.5274 83.6967 32.9609 83.5493 32.206C84.2861 31.7531 87.6752 29.7905 89.5908 28.5827L90.0329 28.4318C90.4749 28.1298 90.7697 27.9788 90.917 27.9788C91.0644 27.8279 91.3591 27.8279 91.5064 27.6769H91.6538H91.8011C91.9485 27.6769 92.0958 27.5259 92.2432 27.5259C92.6853 27.375 93.1273 27.375 93.7167 27.5259C93.8641 27.5259 94.0114 27.6769 94.1588 27.6769C94.6008 27.8279 94.8955 28.1298 95.3376 28.4318C95.6323 28.5827 95.7797 28.8847 96.0744 29.1866C96.2217 29.3376 96.2217 29.3376 96.3691 29.4886L96.9585 30.0924C97.4006 30.5454 97.99 30.9983 98.5794 31.3002C100.937 32.8099 104.031 32.8099 106.389 31.3002C106.979 30.9983 107.568 30.5454 108.01 30.0924L108.305 29.7905C108.452 29.6395 108.747 29.3376 108.894 29.1866C109.189 28.8847 109.484 28.7337 109.631 28.4318C110.073 27.9788 110.515 27.8279 110.81 27.6769C110.957 27.6769 111.104 27.5259 111.252 27.5259C111.694 27.375 112.136 27.375 112.725 27.5259C112.873 27.5259 113.02 27.5259 113.167 27.6769C113.315 27.6769 113.315 27.6769 113.462 27.8279C113.609 27.8279 113.757 27.9788 114.052 28.1298C114.199 28.2808 114.641 28.4318 114.936 28.7337C114.936 28.4318 115.083 28.5827 115.23 28.5827Z" fill="#F1F1F1"/>
<path fill-rule="evenodd" clip-rule="evenodd" d="M410.822 28.281V24.9596H412.737C413.474 24.9596 413.916 24.0538 413.327 23.6008C406.696 17.562 401.096 10.6173 396.97 2.76675C396.823 2.46481 396.528 2.31383 396.086 2.31383C395.792 2.31383 395.349 2.46481 395.202 2.76675C390.929 10.6173 385.477 17.7129 378.846 23.6008C378.256 24.0538 378.699 24.9596 379.435 24.9596H381.351V28.281C378.993 28.8849 377.225 30.9985 377.225 33.565C377.225 36.5844 379.583 39 382.53 39C385.477 39 387.834 36.5844 387.834 33.565C387.834 30.9985 386.066 28.8849 383.856 28.281V24.9596H395.055V28.281C392.697 28.8849 390.929 30.9985 390.929 33.565C390.929 36.5844 393.287 39 396.234 39C399.181 39 401.538 36.5844 401.538 33.565C401.538 30.9985 399.77 28.8849 397.56 28.281V24.9596H408.759V28.281C406.401 28.8849 404.78 30.9985 404.78 33.565C404.78 36.5844 407.138 39 410.085 39C413.032 39 415.39 36.5844 415.39 33.565C414.948 30.9985 413.179 28.8849 410.822 28.281ZM413.474 14.9955C412.737 14.9955 412 14.3916 412 13.4857C412 12.7309 412.59 11.976 413.474 11.976C414.211 11.976 414.948 12.5799 414.948 13.4857C414.948 14.2406 414.358 14.9955 413.474 14.9955ZM407.727 9.10756C406.99 9.10756 406.254 8.50367 406.254 7.59784C406.254 6.84299 406.843 6.08813 407.727 6.08813C408.464 6.08813 409.201 6.69201 409.201 7.59784C409.053 8.3527 408.464 9.10756 407.727 9.10756ZM413.474 9.10756C412.737 9.10756 412 8.50367 412 7.59784C412 6.84299 412.59 6.08813 413.474 6.08813C414.211 6.08813 414.948 6.69201 414.948 7.59784C414.948 8.3527 414.358 9.10756 413.474 9.10756ZM401.833 3.06869C401.096 3.06869 400.36 2.4648 400.36 1.55897C400.36 0.804114 400.949 0.0492554 401.833 0.0492554C402.57 0.0492554 403.307 0.653142 403.307 1.55897C403.307 2.4648 402.717 3.06869 401.833 3.06869ZM407.727 3.06869C406.99 3.06869 406.254 2.4648 406.254 1.55897C406.254 0.804114 406.843 0.0492554 407.727 0.0492554C408.464 0.0492554 409.201 0.653142 409.201 1.55897C409.053 2.4648 408.464 3.06869 407.727 3.06869ZM413.474 3.06869C412.737 3.06869 412 2.4648 412 1.55897C412 0.804114 412.59 0.0492554 413.474 0.0492554C414.211 0.0492554 414.948 0.653142 414.948 1.55897C414.948 2.4648 414.358 3.06869 413.474 3.06869ZM378.699 14.9955C377.962 14.9955 377.225 14.3916 377.225 13.4857C377.225 12.7309 377.814 11.976 378.699 11.976C379.435 11.976 380.172 12.5799 380.172 13.4857C380.025 14.2406 379.435 14.9955 378.699 14.9955ZM384.445 9.10756C383.709 9.10756 382.972 8.50367 382.972 7.59784C382.972 6.84299 383.561 6.08813 384.445 6.08813C385.182 6.08813 385.919 6.69201 385.919 7.59784C385.919 8.3527 385.182 9.10756 384.445 9.10756ZM378.699 9.10756C377.962 9.10756 377.225 8.50367 377.225 7.59784C377.225 6.84299 377.814 6.08813 378.699 6.08813C379.435 6.08813 380.172 6.69201 380.172 7.59784C380.025 8.3527 379.435 9.10756 378.699 9.10756ZM390.192 3.06869C389.455 3.06869 388.719 2.4648 388.719 1.55897C388.719 0.804114 389.308 0.0492554 390.192 0.0492554C390.929 0.0492554 391.666 0.653142 391.666 1.55897C391.666 2.4648 391.076 3.06869 390.192 3.06869ZM384.445 3.06869C383.709 3.06869 382.972 2.4648 382.972 1.55897C382.972 0.804114 383.561 0.0492554 384.445 0.0492554C385.182 0.0492554 385.919 0.653142 385.919 1.55897C385.919 2.4648 385.182 3.06869 384.445 3.06869ZM378.699 3.06869C377.962 3.06869 377.225 2.4648 377.225 1.55897C377.225 0.804114 377.814 0.0492554 378.699 0.0492554C379.435 0.0492554 380.172 0.653142 380.172 1.55897C380.025 2.4648 379.435 3.06869 378.699 3.06869ZM396.086 13.7877C397.707 13.7877 398.886 15.1464 398.886 16.6562C398.886 18.3168 397.56 19.5246 396.086 19.5246C394.465 19.5246 393.287 18.1659 393.287 16.6562C393.139 15.1464 394.465 13.7877 396.086 13.7877ZM385.329 33.414C385.329 35.0747 384.003 36.2825 382.53 36.2825C380.909 36.2825 379.73 34.9237 379.73 33.414C379.73 31.9043 381.056 30.5456 382.53 30.5456C384.003 30.5456 385.329 31.9043 385.329 33.414ZM398.886 33.414C398.886 35.0747 397.56 36.2825 396.086 36.2825C394.465 36.2825 393.287 34.9237 393.287 33.414C393.287 31.9043 394.613 30.5456 396.086 30.5456C397.707 30.5456 398.886 31.9043 398.886 33.414ZM396.086 22.0911C393.139 22.0911 390.782 19.6756 390.782 16.6562C390.782 13.6367 393.139 11.2212 396.086 11.2212C399.033 11.2212 401.391 13.6367 401.391 16.6562C401.244 19.6756 399.033 22.0911 396.086 22.0911ZM409.643 36.4334C408.022 36.4334 406.843 35.0747 406.843 33.565C406.843 32.0553 408.169 30.6965 409.643 30.6965C411.264 30.6965 412.442 32.0553 412.442 33.565C412.442 35.0747 411.264 36.4334 409.643 36.4334Z" fill="#F1F1F1"/>
<path fill-rule="evenodd" clip-rule="evenodd" d="M425.852 31.6023C428.209 31.4513 429.683 30.0925 429.83 27.828V27.526C430.125 25.1105 430.42 22.393 430.567 20.4303C430.567 19.3735 431.304 18.1658 432.63 17.8638C432.777 17.8638 432.925 17.8638 433.072 17.8638C434.251 17.8638 435.282 17.8638 436.019 17.8638C435.872 23.1478 435.43 30.5455 434.251 32.81C434.104 33.112 434.251 33.4139 434.546 33.4139H440.587C440.882 33.4139 441.029 33.112 440.882 32.81C439.703 30.5455 439.261 23.1478 439.114 17.8638C439.85 17.8638 440.882 17.8638 442.061 17.8638C442.208 17.8638 442.355 17.8638 442.503 17.8638C443.976 18.0148 444.566 19.3735 444.566 20.4303C444.713 22.393 445.008 25.1105 445.155 27.375V27.677C445.45 29.9416 446.776 31.3003 449.134 31.4513C449.134 31.4513 449.134 31.4513 449.281 31.4513C449.87 31.4513 450.46 30.9984 450.46 30.2435C450.46 29.6396 450.018 29.0357 449.281 28.8848C447.955 28.7338 447.66 27.9789 447.513 27.2241V26.9221C447.218 24.5066 446.923 21.9401 446.923 19.9774C446.776 17.4109 445.008 15.4483 442.65 15.1463C442.355 15.1463 442.208 15.1463 441.913 15.1463C440.735 15.1463 439.703 15.1463 438.819 15.1463C438.819 14.5425 438.819 14.0895 438.819 13.6366C440.292 13.0327 441.324 11.825 441.619 10.1643H444.713C445.302 10.1643 445.892 9.56039 445.892 8.9565C445.892 8.35261 445.302 7.74872 444.713 7.74872H441.471C440.882 6.08803 439.261 4.88027 437.345 4.88027C434.84 4.88027 432.925 6.99387 432.925 9.40942C432.925 11.3721 434.104 13.0327 435.872 13.6366C435.872 14.0895 435.872 14.5425 435.872 15.1463C434.988 15.1463 433.956 15.1463 432.777 15.1463C432.483 15.1463 432.335 15.1463 432.041 15.1463C429.683 15.4483 427.915 17.2599 427.767 19.9774C427.62 21.9401 427.325 24.5066 427.178 26.9221V27.2241C427.031 27.9789 426.883 28.7338 425.41 28.8848C424.82 28.8848 424.231 29.4887 424.231 30.2435C424.673 31.1493 425.262 31.6023 425.852 31.6023ZM426.147 14.9954C425.41 14.9954 424.673 14.3915 424.673 13.4857C424.673 12.7308 425.262 11.9759 426.147 11.9759C426.883 11.9759 427.62 12.5798 427.62 13.4857C427.62 14.2405 427.031 14.9954 426.147 14.9954ZM449.428 14.9954C448.692 14.9954 447.955 14.3915 447.955 13.4857C447.955 12.7308 448.544 11.9759 449.428 11.9759C450.165 11.9759 450.902 12.5798 450.902 13.4857C450.902 14.2405 450.165 14.9954 449.428 14.9954ZM455.028 0.200134C455.912 0.200134 456.649 0.955002 456.649 1.86083V37.1882C456.649 38.094 455.912 38.8489 455.028 38.8489H420.547C419.663 38.8489 418.926 38.094 418.926 37.1882V1.86083C418.926 0.955002 419.663 0.200134 420.547 0.200134H455.028ZM453.702 35.6785H422.021V3.37055H453.702V35.6785ZM437.787 7.59775C438.966 7.59775 439.85 8.50358 439.85 9.71136C439.85 10.9191 438.966 11.825 437.787 11.825C436.609 11.825 435.724 10.9191 435.724 9.71136C435.724 8.50358 436.609 7.59775 437.787 7.59775Z" fill="#F1F1F1"/>
<path fill-rule="evenodd" clip-rule="evenodd" d="M663.828 0.0492554H629.347C628.463 0.0492554 627.726 0.804112 627.726 1.70994V37.0373C627.726 37.9432 628.463 38.698 629.347 38.698H663.828C664.712 38.698 665.449 37.9432 665.449 37.0373V1.70994C665.449 0.804112 664.712 0.0492554 663.828 0.0492554ZM662.354 19.3736C659.26 17.26 656.313 14.8445 653.66 12.127C651.008 9.4095 648.65 6.39007 646.587 3.21966H662.354V19.3736ZM646.587 19.3736V30.2436C645.114 28.13 643.346 26.3183 641.577 24.5067C639.809 22.695 637.893 21.0343 635.831 19.3736H646.587V8.50368C648.061 10.6173 649.829 12.4289 651.597 14.2406C653.366 16.0522 655.281 17.713 657.344 19.3736H646.587ZM630.673 35.6786V3.21966H646.44C644.966 5.48424 643.346 7.7488 641.577 9.71144C640.841 10.4663 640.104 11.3721 639.367 12.127C638.63 12.8819 637.746 13.6367 637.009 14.3916C634.946 16.2032 632.883 17.8639 630.673 19.3736C633.768 21.4872 636.715 23.9028 639.367 26.6203C642.019 29.3378 644.377 32.3572 646.44 35.5276C648.503 32.3572 650.861 29.3378 653.513 26.6203C654.544 25.5635 655.576 24.6576 656.607 23.7518C657.786 22.695 659.112 21.6382 660.439 20.7324C661.028 20.2795 661.617 19.8266 662.207 19.3736V35.5276H630.673V35.6786Z" fill="#F1F1F1"/>
<path fill-rule="evenodd" clip-rule="evenodd" d="M354.238 7.44687C355.417 7.44687 356.448 7.59785 357.48 7.89979C357.48 7.89979 357.48 5.03133 355.564 3.52161C354.09 2.31384 354.238 1.25703 354.68 0.502175C354.827 0.351204 354.533 0.200225 354.385 0.200225C353.059 0.804112 349.965 2.76675 351.143 7.89979C352.175 7.59785 353.206 7.44687 354.238 7.44687ZM371.773 35.9805C371.036 35.9805 370.299 36.5844 370.299 37.4903C370.299 38.2451 370.889 39 371.773 39C372.51 39 373.246 38.3961 373.246 37.4903C373.099 36.5844 372.51 35.9805 371.773 35.9805ZM336.85 35.9805C336.113 35.9805 335.377 36.5844 335.377 37.4903C335.377 38.2451 335.966 39 336.85 39C337.587 39 338.324 38.3961 338.324 37.4903C338.324 36.5844 337.734 35.9805 336.85 35.9805ZM371.773 3.06869C372.51 3.06869 373.246 2.4648 373.246 1.55897C373.246 0.804114 372.657 0.0492554 371.773 0.0492554C371.036 0.0492554 370.299 0.653142 370.299 1.55897C370.299 2.4648 370.889 3.06869 371.773 3.06869ZM336.85 3.06869C337.587 3.06869 338.324 2.4648 338.324 1.55897C338.324 0.804114 337.734 0.0492554 336.85 0.0492554C336.113 0.0492554 335.377 0.653142 335.377 1.55897C335.377 2.4648 336.113 3.06869 336.85 3.06869ZM354.827 29.0358C359.69 28.7339 363.668 24.5067 363.668 19.5246C363.668 14.2406 359.543 9.86242 354.238 9.86242C352.764 9.86242 351.291 10.1644 350.112 10.9192C345.986 13.6367 346.428 18.1659 346.428 18.1659C346.428 19.5246 346.87 20.7324 347.754 21.7892C348.196 22.3931 348.786 22.846 349.228 23.2989C350.701 24.3557 352.47 24.3557 353.648 23.9028C354.827 23.6009 355.711 22.846 356.006 22.0911C356.448 21.3363 356.595 21.0343 356.595 20.4304C356.89 18.6188 356.153 16.9581 354.827 16.3542C353.501 15.7503 352.617 16.0523 352.175 16.3542C352.028 16.3542 351.88 16.5052 352.027 16.6562C352.027 16.8071 352.175 16.8071 352.322 16.8071C352.47 16.8071 352.617 16.8071 352.764 16.8071C353.501 16.9581 354.238 17.411 354.533 18.1659C354.68 18.6188 354.827 18.9207 354.827 19.3736C354.827 20.4304 354.09 21.3363 353.059 21.6382C351.438 22.0911 349.375 21.1853 349.228 18.6188C349.228 17.26 349.523 16.2032 350.112 15.5994C350.996 14.3916 352.322 13.7877 353.796 13.6367C355.269 13.4857 356.448 14.0896 357.48 14.8445C359.395 16.3542 360.279 18.9207 359.69 21.3363C359.1 23.7518 357.332 26.0164 354.09 26.6203C351.88 27.0732 349.965 26.3183 348.638 25.4125C346.87 24.2047 345.986 22.5441 345.839 22.5441C345.691 22.3931 345.691 22.3931 345.544 22.5441C345.544 22.695 345.544 22.846 345.544 22.846C345.544 22.997 345.544 23.1479 345.544 23.2989C345.691 23.9028 345.839 24.5067 346.281 24.9596C346.723 25.7145 347.46 26.4693 348.049 27.0732L348.196 27.2242C348.344 27.3751 348.491 27.5261 348.638 27.5261C350.407 28.5829 352.617 29.1868 354.827 29.0358ZM344.07 13.4857C339.797 10.7683 340.534 7.14494 341.123 5.63522C341.123 5.48425 341.418 5.48425 341.565 5.63522C341.86 6.54105 342.45 7.29591 344.365 7.14494C346.87 6.84299 348.786 8.80562 348.786 8.80562C346.723 10.0134 345.249 11.5231 344.07 13.4857ZM335.671 19.0717C335.524 18.9207 335.377 19.2227 335.377 19.3736C335.966 20.7324 337.882 23.9028 342.892 22.695C342.597 21.6382 342.45 20.5814 342.45 19.5246C342.45 18.3168 342.597 17.26 342.892 16.2032C342.892 16.2032 340.092 16.2032 338.618 18.1659C337.587 19.5246 336.555 19.5246 335.671 19.0717ZM344.07 25.2615C345.102 27.2242 346.723 28.7339 348.491 29.9417C345.839 34.3199 342.302 33.565 340.829 32.9611C340.681 32.9611 340.681 32.6592 340.829 32.5082C341.713 32.2062 342.45 31.6024 342.302 29.6397C342.007 27.2242 343.923 25.2615 344.07 25.2615C343.923 25.2615 344.07 25.2615 344.07 25.2615ZM354.238 31.6024C353.059 31.6024 352.028 31.4514 350.996 31.1494C350.996 31.1494 350.996 34.0179 352.912 35.5276C354.385 36.7354 354.238 37.7922 353.796 38.5471C353.648 38.698 353.943 38.849 354.09 38.849C355.417 38.2451 358.511 36.2825 357.332 31.1494C356.448 31.4514 355.417 31.6024 354.238 31.6024ZM364.553 25.5635C368.826 28.281 368.089 31.9043 367.5 33.414C367.5 33.565 367.205 33.565 367.058 33.414C366.763 32.5082 366.173 31.7533 364.258 31.9043C361.753 32.2062 359.837 30.2436 359.837 30.2436C361.9 29.0358 363.374 27.3751 364.553 25.5635ZM372.804 19.9775C372.952 20.1285 373.099 19.8266 373.099 19.6756C372.51 18.3168 370.594 15.1464 365.584 16.3542C365.879 17.411 366.026 18.4678 366.026 19.5246C366.026 20.7324 365.879 21.7892 365.584 22.846C365.731 22.846 368.384 22.846 369.857 20.8834C371.036 19.3736 372.068 19.5246 372.804 19.9775ZM364.553 13.7877C363.521 11.8251 361.9 10.3153 360.132 9.10756C362.784 4.72938 366.321 5.48424 367.794 6.08813C367.942 6.08813 367.942 6.39007 367.794 6.54105C366.91 6.84299 366.173 7.44688 366.321 9.40951C366.616 11.6741 364.553 13.7877 364.553 13.7877Z" fill="#F1F1F1"/>
<path fill-rule="evenodd" clip-rule="evenodd" d="M37.7225 18.3167C37.7225 29.6395 29.3234 38.6978 18.8613 38.6978C8.39916 38.6978 0 29.4886 0 18.3167C0 10.3151 4.27325 3.52142 10.3147 0.0490723C7.80974 3.21948 5.74679 7.59766 5.74679 12.2778C5.74679 22.0909 11.6409 27.9788 18.8613 27.9788C26.0816 27.9788 31.9757 22.2419 31.9757 12.2778C31.9757 7.59766 29.9128 3.21948 27.4078 0.0490723C33.4493 3.52142 37.7225 10.4661 37.7225 18.3167Z" fill="#F1F1F1"/>
<path fill-rule="evenodd" clip-rule="evenodd" d="M266.71 8.20164C266.71 7.44678 266.121 6.84289 265.236 6.84289C264.5 6.84289 263.763 7.44678 263.763 8.20164V20.4303H251.975C252.122 24.3556 253.448 27.9789 255.659 30.9984H266.71V8.20164ZM277.762 20.4303V8.20164C277.762 7.44678 277.172 6.84289 276.288 6.84289C275.551 6.84289 274.814 7.44678 274.814 8.20164V30.9984H285.866C288.076 27.9789 289.402 24.3556 289.55 20.4303H277.762ZM260.079 8.20164V16.6561H252.122C253.448 7.29581 261.258 0.200134 270.836 0.200134C280.267 0.200134 288.076 7.29581 289.55 16.6561H281.593V8.20164C281.593 5.33318 279.235 3.0686 276.435 3.0686C274.225 3.0686 272.309 4.42735 271.573 6.38998H270.099C269.362 4.42735 267.447 3.0686 265.236 3.0686C264.5 3.0686 263.616 3.21957 263.026 3.67249C261.258 4.42735 260.079 6.23901 260.079 8.20164ZM270.836 38.8489C275.257 38.8489 279.382 37.3392 282.624 34.6217H259.048C262.289 37.3392 266.268 38.8489 270.836 38.8489Z" fill="#F1F1F1"/>
<path fill-rule="evenodd" clip-rule="evenodd" d="M60.1202 0.200134C49.6581 0.200134 41.259 8.80552 41.259 19.5245C41.259 30.2435 49.6581 38.8489 60.1202 38.8489C70.5823 38.8489 78.9815 30.2435 78.9815 19.5245C78.9815 8.80552 70.5823 0.200134 60.1202 0.200134ZM65.867 22.8459C67.1932 22.9969 68.5194 22.5439 69.8456 21.6381C70.435 21.0342 71.0244 20.4303 71.6138 19.5245C73.6768 22.9969 74.7082 28.1299 74.7082 28.1299C74.7082 28.1299 69.8456 29.9416 65.867 29.7906C66.3091 28.8848 66.6038 27.9789 66.7511 27.2241C67.0458 25.4124 66.7511 23.9027 65.867 22.8459ZM71.6138 19.5245C71.1717 18.6187 70.5823 17.8638 69.8456 17.4109C68.5194 16.3541 67.1932 15.9012 65.867 16.2031C66.7511 15.1463 67.0458 13.6366 66.7511 11.9759C66.6038 11.0701 66.3091 10.1643 65.867 9.40941C69.8456 9.25844 74.7082 11.0701 74.7082 11.0701C74.7082 11.0701 73.6768 16.0522 71.6138 19.5245ZM65.867 9.25844C64.8355 9.25844 63.9514 9.4094 63.2146 9.71135C61.7411 10.3152 60.7096 11.372 60.1202 12.5798C59.6782 11.2211 58.4993 10.3152 57.0258 9.71135C56.289 9.4094 55.2576 9.25844 54.3734 9.25844C56.289 5.63512 60.1202 2.31374 60.1202 2.31374C60.1202 2.31374 63.9514 5.63512 65.867 9.25844ZM54.3734 9.25844C53.9314 10.1643 53.6367 11.0701 53.4893 11.825C53.1946 13.4856 53.6367 14.8444 54.3734 16.0522C53.0472 15.9012 51.7211 16.3541 50.3949 17.2599C49.8055 17.8638 49.2161 18.6187 48.6266 19.3735C46.5637 15.9012 45.5322 10.7682 45.5322 10.7682C45.5322 10.7682 50.3949 9.10747 54.3734 9.25844ZM48.6266 19.5245C49.0687 20.4303 49.6581 21.1852 50.3949 21.6381C51.7211 22.6949 53.0472 23.1478 54.3734 22.8459C53.4893 23.9027 53.1946 25.4124 53.4893 27.0731C53.6367 27.9789 53.9314 28.8848 54.3734 29.6396C50.3949 29.7906 45.5322 27.9789 45.5322 27.9789C45.5322 27.9789 46.5637 22.8459 48.6266 19.5245ZM54.3734 29.6396C55.4049 29.6396 56.289 29.4886 57.0258 29.1867C58.4993 28.5828 59.5308 27.526 60.1202 26.3182C60.5623 27.677 61.7411 28.5828 63.2146 29.1867C63.9514 29.4886 64.9829 29.6396 65.867 29.6396C63.9514 33.2629 60.1202 36.5843 60.1202 36.5843C60.1202 36.5843 56.289 33.2629 54.3734 29.6396ZM60.1202 22.393C58.4993 22.393 57.3205 21.0342 57.3205 19.5245C57.3205 17.8638 58.6467 16.6561 60.1202 16.6561C61.5938 16.6561 62.9199 18.0148 62.9199 19.5245C62.9199 21.0342 61.7411 22.393 60.1202 22.393ZM67.93 4.27637C68.6667 4.27637 69.4035 4.88025 69.4035 5.78608C69.4035 6.54094 68.8141 7.2958 67.93 7.2958C67.1932 7.2958 66.4564 6.69192 66.4564 5.78608C66.4564 4.88025 67.0458 4.27637 67.93 4.27637ZM52.3105 4.27637C53.0473 4.27637 53.784 4.88025 53.784 5.78608C53.784 6.54094 53.1946 7.2958 52.3105 7.2958C51.5737 7.2958 50.837 6.69192 50.837 5.78608C50.9843 4.88025 51.5737 4.27637 52.3105 4.27637ZM44.6481 20.8833C43.9113 20.8833 43.1746 20.2794 43.1746 19.3735C43.1746 18.6187 43.764 17.8638 44.6481 17.8638C45.3849 17.8638 46.1216 18.4677 46.1216 19.3735C45.9743 20.2794 45.3849 20.8833 44.6481 20.8833ZM52.3105 34.7727C51.5737 34.7727 50.837 34.1688 50.837 33.263C50.837 32.5081 51.4264 31.7532 52.3105 31.7532C53.0473 31.7532 53.784 32.3571 53.784 33.263C53.784 34.0178 53.1946 34.7727 52.3105 34.7727ZM67.93 34.7727C67.1932 34.7727 66.4564 34.1688 66.4564 33.263C66.4564 32.5081 67.0458 31.7532 67.93 31.7532C68.6667 31.7532 69.4035 32.3571 69.4035 33.263C69.2561 34.0178 68.6667 34.7727 67.93 34.7727ZM75.7397 20.8833C75.0029 20.8833 74.2662 20.2794 74.2662 19.3735C74.2662 18.6187 74.8556 17.8638 75.7397 17.8638C76.4765 17.8638 77.2132 18.4677 77.2132 19.3735C77.0659 20.2794 76.4765 20.8833 75.7397 20.8833Z" fill="#F1F1F1"/>
<path fill-rule="evenodd" clip-rule="evenodd" d="M580.278 0.0492554H545.797C544.913 0.0492554 544.177 0.804112 544.177 1.70994V37.0373C544.177 37.9432 544.913 38.698 545.797 38.698H553.607H572.468H580.278C581.162 38.698 581.899 37.9432 581.899 37.0373V1.70994C581.899 0.804112 581.162 0.0492554 580.278 0.0492554ZM552.428 17.1091C551.249 17.1091 550.365 16.2032 550.365 14.9954C550.365 13.7877 551.249 12.8819 552.428 12.8819C553.607 12.8819 554.491 13.7877 554.491 14.9954C554.491 16.2032 553.607 17.1091 552.428 17.1091ZM552.428 10.4663C551.249 10.4663 550.365 9.56047 550.365 8.3527C550.365 7.14493 551.249 6.23909 552.428 6.23909C553.607 6.23909 554.491 7.14493 554.491 8.3527C554.491 9.56047 553.607 10.4663 552.428 10.4663ZM573.647 17.1091C572.468 17.1091 571.584 16.2032 571.584 14.9954C571.584 13.7877 572.468 12.8819 573.647 12.8819C574.826 12.8819 575.71 13.7877 575.71 14.9954C575.71 16.2032 574.679 17.1091 573.647 17.1091ZM573.647 10.4663C572.468 10.4663 571.584 9.56047 571.584 8.3527C571.584 7.14493 572.468 6.23909 573.647 6.23909C574.826 6.23909 575.71 7.14493 575.71 8.3527C575.71 9.56047 574.679 10.4663 573.647 10.4663ZM556.554 35.6786V22.544H569.374V30.0926L565.543 28.13C564.806 27.6771 563.922 28.13 563.48 28.8849C563.038 29.6397 563.48 30.5455 564.217 30.9985L569.521 33.716V35.8296H556.554V35.6786ZM563.038 14.5426C561.417 14.5426 559.943 13.1838 559.943 11.3721C559.943 9.71145 561.27 8.20173 563.038 8.20173C564.659 8.20173 566.132 9.56047 566.132 11.3721C566.132 13.1838 564.806 14.5426 563.038 14.5426ZM578.805 35.6786H572.468V19.3736H564.511V17.562C567.164 16.8071 569.079 14.3916 569.079 11.5231C569.079 8.05077 566.28 5.33327 563.038 5.33327C559.649 5.33327 556.996 8.20174 556.996 11.5231C556.996 14.3916 558.912 16.8071 561.564 17.562V19.3736H553.607V35.6786H547.271V3.21966H578.952V35.6786H578.805Z" fill="#F1F1F1"/>
<path fill-rule="evenodd" clip-rule="evenodd" d="M298.391 38.8489H293.676V0.200134H331.398V34.0178H303.106V9.86233H321.967V24.3556H312.537V19.5245H317.252V14.6934H307.821V29.1867H326.683V5.03124H298.391V38.8489Z" fill="#F1F1F1"/>
<path fill-rule="evenodd" clip-rule="evenodd" d="M532.241 19.3736L537.988 13.4857C540.935 10.4663 540.935 5.33327 537.988 2.31383C536.514 0.804114 534.451 0.0492554 532.536 0.0492554C530.62 0.0492554 528.557 0.804114 527.083 2.31383L521.337 8.20173L515.59 2.31383C514.116 0.804114 512.053 0.0492554 510.138 0.0492554C508.222 0.0492554 506.159 0.804114 504.686 2.31383C501.739 5.33327 501.739 10.4663 504.686 13.4857L510.433 19.3736L504.686 25.2615C501.739 28.281 501.739 33.414 504.686 36.4335C506.159 37.9432 508.222 38.698 510.138 38.698C512.053 38.698 514.116 37.9432 515.59 36.4335L521.337 30.5455L527.083 36.4335C528.557 37.9432 530.62 38.698 532.536 38.698C534.451 38.698 536.514 37.9432 537.988 36.4335C540.935 33.414 540.935 28.281 537.988 25.2615L532.241 19.3736ZM529.146 4.57841C530.031 3.67258 531.209 3.21966 532.536 3.21966C533.862 3.21966 535.041 3.67258 535.925 4.57841C536.809 5.48424 537.251 6.69202 537.251 8.05076C537.251 9.40951 536.809 10.6173 535.925 11.5231L530.178 17.411L523.547 10.6173L529.146 4.57841ZM527.968 19.3736L521.337 26.1674L514.706 19.3736L521.337 12.5799L527.968 19.3736ZM506.749 11.3721C505.865 10.4663 505.423 9.25853 505.423 7.89978C505.423 6.54104 505.865 5.33327 506.749 4.42744C507.633 3.52161 508.812 3.06869 510.138 3.06869C511.464 3.06869 512.643 3.52161 513.527 4.42744L519.274 10.3153L512.643 17.1091L506.749 11.3721ZM513.527 34.3198C512.643 35.2257 511.464 35.6786 510.138 35.6786C508.812 35.6786 507.633 35.2257 506.749 34.3198C505.865 33.414 505.423 32.2062 505.423 30.8475C505.423 29.4887 505.865 28.281 506.749 27.3751L512.495 21.4872L519.126 28.281L513.527 34.3198ZM535.777 34.3198C534.893 35.2257 533.714 35.6786 532.388 35.6786C531.062 35.6786 529.883 35.2257 528.999 34.3198L523.252 28.4319L529.883 21.6382L535.63 27.5261C536.514 28.4319 536.956 29.6397 536.956 30.9985C537.104 32.2062 536.661 33.414 535.777 34.3198Z" fill="#F1F1F1"/>
<path fill-rule="evenodd" clip-rule="evenodd" d="M240.186 19.5245L245.933 13.6366C248.88 10.6172 248.88 5.48415 245.933 2.46471C244.46 0.954993 242.397 0.200134 240.481 0.200134C238.565 0.200134 236.502 0.954993 235.029 2.46471L229.282 8.35261L223.535 2.46471C222.062 0.954993 219.999 0.200134 218.083 0.200134C216.168 0.200134 214.105 0.954993 212.631 2.46471C209.684 5.48415 209.684 10.6172 212.631 13.6366L218.378 19.5245L212.631 25.4124C209.684 28.4318 209.684 33.5649 212.631 36.5843C214.105 38.094 216.168 38.8489 218.083 38.8489C219.999 38.8489 222.062 38.094 223.535 36.5843L229.282 30.6964L235.029 36.5843C236.502 38.094 238.565 38.8489 240.481 38.8489C242.397 38.8489 244.46 38.094 245.933 36.5843C248.88 33.5649 248.88 28.4318 245.933 25.4124L240.186 19.5245ZM237.092 4.57832C237.976 3.67249 239.155 3.21957 240.481 3.21957C241.807 3.21957 242.986 3.67249 243.87 4.57832C244.754 5.48415 245.196 6.69192 245.196 8.05066C245.196 9.40941 244.754 10.6172 243.87 11.523L238.123 17.4109L231.492 10.6172L237.092 4.57832ZM235.913 19.5245L229.282 26.3182L222.651 19.5245L229.282 12.7308L235.913 19.5245ZM214.694 11.372C213.81 10.4662 213.368 9.25844 213.368 7.89969C213.368 6.54095 213.81 5.33317 214.694 4.42734C215.578 3.52151 216.757 3.0686 218.083 3.0686C219.409 3.0686 220.588 3.52151 221.472 4.42734L227.219 10.3152L220.588 17.109L214.694 11.372ZM221.325 34.3197C220.441 35.2256 219.262 35.6785 217.936 35.6785C216.61 35.6785 215.431 35.2256 214.547 34.3197C213.663 33.4139 213.221 32.2061 213.221 30.8474C213.221 29.4886 213.663 28.2809 214.547 27.375L220.294 21.4871L226.924 28.2809L221.325 34.3197ZM243.723 34.3197C242.839 35.2256 241.66 35.6785 240.334 35.6785C239.007 35.6785 237.829 35.2256 236.944 34.3197L231.198 28.4318L237.829 21.6381L243.575 27.526C244.46 28.4318 244.902 29.6396 244.902 30.9984C245.049 32.2061 244.607 33.4139 243.723 34.3197Z" fill="#F1F1F1"/>
<path fill-rule="evenodd" clip-rule="evenodd" d="M206 14.9953C206 13.1836 205.116 11.5229 203.937 10.4661C205.263 9.40931 206 7.74862 206 5.93696C206 2.76655 203.495 0.0490723 200.253 0.0490723C198.485 0.0490723 196.864 0.954894 195.833 2.16267C194.801 0.803922 193.18 0.0490723 191.412 0.0490723C189.644 0.0490723 188.023 0.954894 186.992 2.16267C185.96 0.803922 184.339 0.0490723 182.571 0.0490723C180.803 0.0490723 179.182 0.954894 178.15 2.16267C177.119 0.803922 175.498 0.0490723 173.73 0.0490723C170.635 0.0490723 167.983 2.61558 167.983 5.93696C167.983 7.74862 168.867 9.40931 170.046 10.4661C168.72 11.5229 167.983 13.1836 167.983 14.9953C167.983 16.8069 168.867 18.4676 170.046 19.5244C168.72 20.5812 167.983 22.2419 167.983 24.0536C167.983 25.8652 168.867 27.5259 170.046 28.5827C168.72 29.6395 167.983 31.3002 167.983 33.1119C167.983 36.2823 170.488 38.9998 173.73 38.9998C175.498 38.9998 177.119 38.0939 178.15 36.8862C179.182 38.2449 180.803 38.9998 182.571 38.9998C184.339 38.9998 185.96 38.0939 186.992 36.8862C188.023 38.2449 189.644 38.9998 191.412 38.9998C193.18 38.9998 194.801 38.0939 195.833 36.8862C196.864 38.2449 198.485 38.9998 200.253 38.9998C203.348 38.9998 206 36.4333 206 33.1119C206 31.3002 205.116 29.6395 203.937 28.5827C205.263 27.5259 206 25.8652 206 24.0536C206 22.2419 205.116 20.5812 203.937 19.5244C205.263 18.4676 206 16.8069 206 14.9953ZM174.024 36.1313C172.256 36.1313 170.93 34.7726 170.93 32.9609C170.93 31.1492 172.256 29.7905 174.024 29.7905C175.793 29.7905 177.119 31.1492 177.119 32.9609C177.119 34.7726 175.645 36.1313 174.024 36.1313ZM174.024 27.224C172.256 27.224 170.93 25.8652 170.93 24.0536C170.93 22.2419 172.256 20.8832 174.024 20.8832C175.793 20.8832 177.119 22.2419 177.119 24.0536C177.119 25.7143 175.645 27.224 174.024 27.224ZM174.024 18.1657C172.256 18.1657 170.93 16.8069 170.93 14.9953C170.93 13.1836 172.256 11.8249 174.024 11.8249C175.793 11.8249 177.119 13.1836 177.119 14.9953C177.119 16.656 175.645 18.1657 174.024 18.1657ZM174.024 9.10738C172.256 9.10738 170.93 7.74862 170.93 5.93696C170.93 4.1253 172.256 2.76656 174.024 2.76656C175.793 2.76656 177.119 4.1253 177.119 5.93696C177.119 7.74862 175.645 9.10738 174.024 9.10738ZM182.718 36.1313C180.95 36.1313 179.624 34.7726 179.624 32.9609C179.624 31.1492 180.95 29.7905 182.718 29.7905C184.487 29.7905 185.813 31.1492 185.813 32.9609C185.813 34.7726 184.487 36.1313 182.718 36.1313ZM182.718 27.224C180.95 27.224 179.624 25.8652 179.624 24.0536C179.624 22.2419 180.95 20.8832 182.718 20.8832C184.487 20.8832 185.813 22.2419 185.813 24.0536C185.813 25.7143 184.487 27.224 182.718 27.224ZM182.718 18.1657C180.95 18.1657 179.624 16.8069 179.624 14.9953C179.624 13.1836 180.95 11.8249 182.718 11.8249C184.487 11.8249 185.813 13.1836 185.813 14.9953C185.813 16.656 184.487 18.1657 182.718 18.1657ZM182.718 9.10738C180.95 9.10738 179.624 7.74862 179.624 5.93696C179.624 4.1253 180.95 2.76656 182.718 2.76656C184.487 2.76656 185.813 4.1253 185.813 5.93696C185.813 7.74862 184.487 9.10738 182.718 9.10738ZM191.56 36.1313C189.791 36.1313 188.465 34.7726 188.465 32.9609C188.465 31.1492 189.791 29.7905 191.56 29.7905C193.328 29.7905 194.654 31.1492 194.654 32.9609C194.654 34.7726 193.328 36.1313 191.56 36.1313ZM191.56 27.224C189.791 27.224 188.465 25.8652 188.465 24.0536C188.465 22.2419 189.791 20.8832 191.56 20.8832C193.328 20.8832 194.654 22.2419 194.654 24.0536C194.654 25.7143 193.328 27.224 191.56 27.224ZM191.56 18.1657C189.791 18.1657 188.465 16.8069 188.465 14.9953C188.465 13.1836 189.791 11.8249 191.56 11.8249C193.328 11.8249 194.654 13.1836 194.654 14.9953C194.654 16.656 193.328 18.1657 191.56 18.1657ZM191.56 9.10738C189.791 9.10738 188.465 7.74862 188.465 5.93696C188.465 4.1253 189.791 2.76656 191.56 2.76656C193.328 2.76656 194.654 4.1253 194.654 5.93696C194.654 7.74862 193.328 9.10738 191.56 9.10738ZM200.401 36.1313C198.632 36.1313 197.306 34.7726 197.306 32.9609C197.306 31.1492 198.632 29.7905 200.401 29.7905C202.169 29.7905 203.495 31.1492 203.495 32.9609C203.495 34.7726 202.022 36.1313 200.401 36.1313ZM200.401 27.224C198.632 27.224 197.306 25.8652 197.306 24.0536C197.306 22.2419 198.632 20.8832 200.401 20.8832C202.169 20.8832 203.495 22.2419 203.495 24.0536C203.495 25.7143 202.022 27.224 200.401 27.224ZM200.401 18.1657C198.632 18.1657 197.306 16.8069 197.306 14.9953C197.306 13.1836 198.632 11.8249 200.401 11.8249C202.169 11.8249 203.495 13.1836 203.495 14.9953C203.495 16.656 202.022 18.1657 200.401 18.1657ZM200.401 9.10738C198.632 9.10738 197.306 7.74862 197.306 5.93696C197.306 4.1253 198.632 2.76656 200.401 2.76656C202.169 2.76656 203.495 4.1253 203.495 5.93696C203.495 7.74862 202.022 9.10738 200.401 9.10738Z" fill="#F1F1F1"/>
<path fill-rule="evenodd" clip-rule="evenodd" d="M587.351 3.06869C588.088 3.06869 588.825 2.4648 588.825 1.55897C588.825 0.804114 588.235 0.0492554 587.351 0.0492554C586.614 0.0492554 585.878 0.653142 585.878 1.55897C585.878 2.31383 586.614 3.06869 587.351 3.06869ZM616.38 29.7907C615.643 29.7907 614.906 30.3946 614.906 31.3004C614.906 32.2062 615.496 32.8101 616.38 32.8101C617.116 32.8101 617.853 32.2062 617.853 31.3004C617.853 30.3946 617.264 29.7907 616.38 29.7907ZM622.274 35.8296C621.537 35.8296 620.8 36.4334 620.8 37.3393C620.8 38.0941 621.39 38.849 622.274 38.849C623.011 38.849 623.747 38.2451 623.747 37.3393C623.6 36.4334 623.011 35.8296 622.274 35.8296ZM622.274 23.9028C621.537 23.9028 620.8 24.5067 620.8 25.4125C620.8 26.1674 621.39 26.9222 622.274 26.9222C623.011 26.9222 623.747 26.3183 623.747 25.4125C623.6 24.5067 623.011 23.9028 622.274 23.9028ZM622.274 29.7907C621.537 29.7907 620.8 30.3946 620.8 31.3004C620.8 32.2062 621.39 32.8101 622.274 32.8101C623.011 32.8101 623.747 32.2062 623.747 31.3004C623.747 30.3946 623.011 29.7907 622.274 29.7907ZM593.245 29.7907C592.508 29.7907 591.772 30.3946 591.772 31.3004C591.772 32.2062 592.361 32.8101 593.245 32.8101C593.982 32.8101 594.719 32.2062 594.719 31.3004C594.719 30.3946 593.982 29.7907 593.245 29.7907ZM587.351 35.8296C586.614 35.8296 585.878 36.4334 585.878 37.3393C585.878 38.0941 586.467 38.849 587.351 38.849C588.088 38.849 588.825 38.2451 588.825 37.3393C588.825 36.4334 588.235 35.8296 587.351 35.8296ZM587.351 23.9028C586.614 23.9028 585.878 24.5067 585.878 25.4125C585.878 26.1674 586.467 26.9222 587.351 26.9222C588.088 26.9222 588.825 26.3183 588.825 25.4125C588.825 24.5067 588.235 23.9028 587.351 23.9028ZM587.351 29.7907C586.614 29.7907 585.878 30.3946 585.878 31.3004C585.878 32.2062 586.467 32.8101 587.351 32.8101C588.088 32.8101 588.825 32.2062 588.825 31.3004C588.825 30.3946 588.235 29.7907 587.351 29.7907ZM613.727 36.2825C614.317 36.2825 614.906 36.7354 614.906 37.3393C615.054 38.0941 614.464 38.698 613.727 38.698H595.75C595.013 38.698 594.424 38.0941 594.571 37.3393C594.719 36.7354 595.161 36.2825 595.75 36.2825C597.666 36.2825 599.581 35.0747 600.318 33.263C600.76 32.2062 601.055 29.4887 601.202 28.4319C602.381 28.5829 603.413 28.7339 604.591 28.7339C605.77 28.7339 606.949 28.5829 607.981 28.4319C608.128 29.4887 608.423 32.2062 608.865 33.263C609.896 35.2257 611.812 36.2825 613.727 36.2825ZM587.646 12.127C588.825 12.127 589.267 11.6741 590.003 11.2212C590.74 10.7682 591.624 10.0134 593.393 10.0134C594.866 10.0134 595.75 10.4663 596.487 11.0702C596.634 11.0702 596.634 11.2212 596.782 11.2212C597.371 11.6741 597.961 12.127 599.139 12.127C600.318 12.127 600.76 11.8251 601.497 11.3721C602.234 10.9192 603.118 10.1644 604.886 10.1644C606.507 10.1644 607.538 10.7682 608.275 11.3721C608.865 11.8251 609.454 12.127 610.633 12.127C611.812 12.127 612.254 11.6741 612.991 11.2212C613.138 11.2212 613.138 11.0702 613.285 11.0702C614.022 10.6173 614.906 10.0134 616.38 10.0134C618.148 10.0134 619.032 10.6173 619.769 11.2212C620.358 11.6741 620.948 12.127 622.126 12.127C622.569 12.127 623.011 12.127 623.305 11.976C623.6 10.4663 623.895 8.95659 623.895 7.44687H586.172C586.172 8.95659 586.32 10.4663 586.762 11.976C586.762 12.127 587.204 12.127 587.646 12.127ZM621.979 14.0896C622.126 14.0896 622.421 14.0896 622.569 14.0896C619.916 21.6382 612.991 27.0732 604.886 27.0732C596.782 27.0732 589.856 21.6382 587.204 14.0896C587.351 14.0896 587.646 14.0896 587.793 14.0896C589.561 14.0896 590.445 13.4857 591.182 12.8819C591.919 12.4289 592.361 11.976 593.54 11.976C594.719 11.976 595.161 12.4289 595.898 12.8819C596.34 13.1838 596.929 13.6367 597.813 13.7877C597.813 13.7877 597.813 13.7877 597.96 13.7877C598.108 13.7877 598.255 13.9387 598.55 13.9387H598.697C598.992 13.9387 599.139 13.9387 599.434 13.9387C600.318 13.9387 600.908 13.7877 601.497 13.4857C602.086 13.3348 602.381 13.0328 602.823 12.7309C603.56 12.278 604.002 11.8251 605.181 11.8251C606.36 11.8251 606.802 12.278 607.538 12.7309C607.833 13.0328 608.275 13.3348 608.865 13.4857C609.454 13.6367 610.043 13.9387 610.928 13.9387C611.222 13.9387 611.37 13.9387 611.664 13.9387H611.812C611.959 13.9387 612.106 13.9387 612.401 13.7877C612.401 13.7877 612.401 13.7877 612.548 13.7877C613.285 13.4857 613.875 13.1838 614.464 12.8819C615.054 12.4289 615.643 11.976 616.822 11.976C618.001 11.976 618.443 12.4289 619.179 12.8819C619.327 13.3348 620.211 14.0896 621.979 14.0896ZM593.393 17.1091C594.129 17.1091 594.866 16.5052 594.866 15.5993C594.866 14.8445 594.277 14.0896 593.393 14.0896C592.656 14.0896 591.919 14.6935 591.919 15.5993C592.066 16.3542 592.656 17.1091 593.393 17.1091ZM604.739 17.1091C605.476 17.1091 606.212 16.5052 606.212 15.5993C606.212 14.8445 605.623 14.0896 604.739 14.0896C604.002 14.0896 603.265 14.6935 603.265 15.5993C603.413 16.3542 604.002 17.1091 604.739 17.1091ZM616.232 17.1091C616.969 17.1091 617.706 16.5052 617.706 15.5993C617.706 14.8445 617.116 14.0896 616.232 14.0896C615.496 14.0896 614.759 14.6935 614.759 15.5993C614.759 16.3542 615.348 17.1091 616.232 17.1091ZM622.274 3.06869C623.011 3.06869 623.747 2.4648 623.747 1.55897C623.747 0.804114 623.158 0.0492554 622.274 0.0492554C621.537 0.0492554 620.8 0.653142 620.8 1.55897C620.8 2.31383 621.39 3.06869 622.274 3.06869ZM616.38 3.06869C617.116 3.06869 617.853 2.4648 617.853 1.55897C617.853 0.804114 617.264 0.0492554 616.38 0.0492554C615.643 0.0492554 614.906 0.653142 614.906 1.55897C615.054 2.31383 615.643 3.06869 616.38 3.06869ZM610.633 3.06869C611.37 3.06869 612.106 2.4648 612.106 1.55897C612.106 0.804114 611.517 0.0492554 610.633 0.0492554C609.896 0.0492554 609.159 0.653142 609.159 1.55897C609.159 2.31383 609.749 3.06869 610.633 3.06869ZM604.739 3.06869C605.476 3.06869 606.212 2.4648 606.212 1.55897C606.212 0.804114 605.623 0.0492554 604.739 0.0492554C604.002 0.0492554 603.265 0.653142 603.265 1.55897C603.413 2.31383 604.002 3.06869 604.739 3.06869ZM598.992 3.06869C599.729 3.06869 600.466 2.4648 600.466 1.55897C600.466 0.804114 599.876 0.0492554 598.992 0.0492554C598.255 0.0492554 597.518 0.653142 597.518 1.55897C597.518 2.31383 598.255 3.06869 598.992 3.06869ZM593.245 3.06869C593.982 3.06869 594.719 2.4648 594.719 1.55897C594.719 0.804114 594.129 0.0492554 593.245 0.0492554C592.508 0.0492554 591.772 0.653142 591.772 1.55897C591.772 2.31383 592.361 3.06869 593.245 3.06869Z" fill="#F1F1F1"/>
<path fill-rule="evenodd" clip-rule="evenodd" d="M477.278 6.39008H479.636H481.993C482.583 5.93716 482.877 5.33326 482.877 4.72938C482.877 3.82355 481.257 1.70995 480.372 0.351206C480.225 0.200234 479.93 0.0492554 479.636 0.0492554C479.341 0.0492554 479.046 0.200234 478.899 0.351206C478.015 1.55898 476.394 3.82355 476.394 4.72938C476.394 5.48424 476.689 5.93716 477.278 6.39008ZM491.129 3.06869C491.866 3.06869 492.603 2.4648 492.603 1.55897C492.603 0.804114 492.013 0.0492554 491.129 0.0492554C490.392 0.0492554 489.656 0.653142 489.656 1.55897C489.803 2.4648 490.392 3.06869 491.129 3.06869ZM491.129 14.9955C491.866 14.9955 492.603 14.3916 492.603 13.4857C492.603 12.7309 492.013 11.976 491.129 11.976C490.392 11.976 489.656 12.5799 489.656 13.4857C489.803 14.3916 490.392 14.9955 491.129 14.9955ZM491.129 9.10756C491.866 9.10756 492.603 8.50367 492.603 7.59784C492.603 6.84298 492.013 6.08812 491.129 6.08812C490.392 6.08812 489.656 6.69201 489.656 7.59784C489.803 8.3527 490.392 9.10756 491.129 9.10756ZM497.023 3.06869C497.76 3.06869 498.497 2.4648 498.497 1.55897C498.497 0.804114 497.908 0.0492554 497.023 0.0492554C496.287 0.0492554 495.55 0.653142 495.55 1.55897C495.55 2.4648 496.287 3.06869 497.023 3.06869ZM497.023 18.0149C496.287 18.0149 495.55 18.6188 495.55 19.5246C495.55 20.2795 496.139 21.0343 497.023 21.0343C497.76 21.0343 498.497 20.4304 498.497 19.5246C498.497 18.7698 497.76 18.0149 497.023 18.0149ZM497.023 6.08812C496.287 6.08812 495.55 6.69201 495.55 7.59784C495.55 8.3527 496.139 9.10756 497.023 9.10756C497.76 9.10756 498.497 8.50367 498.497 7.59784C498.497 6.84298 497.76 6.08812 497.023 6.08812ZM497.023 12.127C496.287 12.127 495.55 12.7309 495.55 13.6367C495.55 14.3916 496.139 15.1464 497.023 15.1464C497.76 15.1464 498.497 14.5425 498.497 13.6367C498.497 12.7309 497.76 12.127 497.023 12.127ZM467.995 3.06869C468.732 3.06869 469.468 2.4648 469.468 1.55897C469.468 0.804114 468.879 0.0492554 467.995 0.0492554C467.258 0.0492554 466.521 0.653142 466.521 1.55897C466.521 2.4648 467.111 3.06869 467.995 3.06869ZM467.995 14.9955C468.732 14.9955 469.468 14.3916 469.468 13.4857C469.468 12.7309 468.879 11.976 467.995 11.976C467.258 11.976 466.521 12.5799 466.521 13.4857C466.521 14.3916 467.111 14.9955 467.995 14.9955ZM467.995 9.10756C468.732 9.10756 469.468 8.50367 469.468 7.59784C469.468 6.84298 468.879 6.08812 467.995 6.08812C467.258 6.08812 466.521 6.69201 466.521 7.59784C466.521 8.3527 467.111 9.10756 467.995 9.10756ZM462.101 3.06869C462.837 3.06869 463.574 2.4648 463.574 1.55897C463.574 0.804114 462.985 0.0492554 462.101 0.0492554C461.364 0.0492554 460.627 0.653142 460.627 1.55897C460.774 2.4648 461.364 3.06869 462.101 3.06869ZM462.101 21.0343C462.837 21.0343 463.574 20.4304 463.574 19.5246C463.574 18.7698 462.985 18.0149 462.101 18.0149C461.364 18.0149 460.627 18.6188 460.627 19.5246C460.774 20.2795 461.364 21.0343 462.101 21.0343ZM462.101 9.10756C462.837 9.10756 463.574 8.50367 463.574 7.59784C463.574 6.84298 462.985 6.08812 462.101 6.08812C461.364 6.08812 460.627 6.69201 460.627 7.59784C460.774 8.3527 461.364 9.10756 462.101 9.10756ZM462.101 14.9955C462.837 14.9955 463.574 14.3916 463.574 13.4857C463.574 12.7309 462.985 11.976 462.101 11.976C461.364 11.976 460.627 12.5799 460.627 13.4857C460.774 14.3916 461.364 14.9955 462.101 14.9955ZM489.95 21.4872C495.402 21.3363 500.265 27.2242 497.76 32.9611C497.023 34.7728 495.845 36.2825 494.371 37.1883C492.897 38.2451 491.129 38.849 489.214 38.849H479.636H469.91C467.995 38.849 466.226 38.2451 464.753 37.1883C463.279 36.1315 462.101 34.6218 461.364 32.9611C458.859 27.2242 463.721 21.3363 469.174 21.4872C472.857 21.4872 473.299 23.9028 472.857 24.9596C472.857 24.9596 472.857 25.1106 472.71 25.1106C472.563 25.2615 472.268 24.9596 472.121 24.8086C471.826 24.5067 471.384 24.3557 470.794 24.3557C469.616 24.3557 468.584 25.4125 468.732 26.7713C468.879 27.8281 469.763 28.5829 470.794 28.5829C473.889 28.5829 474.626 25.1106 474.92 22.2421L475.952 8.05076C475.952 7.74882 476.247 7.59784 476.541 7.59784H479.488H482.435C482.73 7.59784 483.025 7.74882 483.025 8.05076L484.056 22.2421C484.351 25.1106 485.088 28.5829 488.182 28.5829C489.214 28.5829 490.098 27.8281 490.245 26.7713C490.392 25.5635 489.508 24.3557 488.182 24.3557C487.74 24.3557 487.298 24.5067 486.856 24.8086C486.709 24.9596 486.414 25.2615 486.267 25.1106L486.119 24.9596C485.825 23.9028 486.267 21.4872 489.95 21.4872ZM479.636 35.9805C481.257 35.9805 482.583 34.6218 482.583 32.9611C482.583 31.3004 481.257 29.9417 479.636 29.9417C478.015 29.9417 476.689 31.3004 476.689 32.9611C476.689 34.6218 478.015 35.9805 479.636 35.9805Z" fill="#F1F1F1"/>
<path fill-rule="evenodd" clip-rule="evenodd" d="M127.166 3.06851C127.903 3.06851 128.64 2.46462 128.64 1.55879C128.64 0.803931 128.05 0.0490723 127.166 0.0490723C126.429 0.0490723 125.693 0.652959 125.693 1.55879C125.693 2.46462 126.282 3.06851 127.166 3.06851ZM158.7 19.2225C157.079 18.1657 155.163 17.8637 153.542 17.8637C151.627 17.8637 149.711 18.3166 148.385 18.7696C147.648 19.0715 147.059 19.2225 146.764 19.5244C148.827 11.5229 144.554 7.59766 144.554 7.59766C144.554 7.59766 140.281 11.5229 142.344 19.5244C141.902 19.3734 141.459 19.0715 140.723 18.7696C139.396 18.3166 137.481 17.8637 135.565 17.8637C133.797 17.8637 132.029 18.1657 130.408 19.2225C128.64 20.2793 125.84 22.6948 125.84 27.375C125.84 28.1298 125.84 28.7337 125.987 29.6395C126.282 31.1492 126.871 32.0551 126.871 32.206C127.461 33.4138 128.492 34.4706 129.819 35.2255C133.797 37.1881 137.039 34.9235 137.186 34.9235C137.186 34.9235 139.544 33.4138 139.691 30.0924C139.691 27.8279 138.365 25.8652 136.597 25.1104C135.418 24.6575 134.534 24.8084 133.797 25.1104C132.766 25.5633 132.176 26.7711 132.176 28.1298C132.176 28.4318 132.176 28.8847 132.324 29.3376V29.4886C132.324 29.6395 132.324 29.6395 132.471 29.6395C132.471 29.6395 132.471 29.6395 132.618 29.4886V29.3376C132.913 28.1298 133.944 27.5259 135.123 27.5259C136.302 27.6769 137.039 28.4318 137.039 29.6395C137.186 30.6963 136.744 31.4512 136.007 32.0551C134.239 33.4138 131.734 33.1119 130.113 31.4512C128.787 30.0924 128.64 27.9788 128.64 26.922C128.64 26.4691 128.787 26.0162 128.787 26.0162C128.934 25.4123 129.082 24.8084 129.376 24.3555C130.261 22.5439 131.734 21.638 132.766 21.1851C133.355 20.8832 134.092 20.7322 134.829 20.7322C139.396 20.7322 143.08 24.8084 143.08 29.7905C143.08 33.4138 141.165 36.4333 138.218 38.0939C138.218 38.0939 137.923 38.2449 137.776 38.2449C137.481 38.3959 137.334 38.3959 137.039 38.5469H144.701H152.364C152.069 38.3959 151.922 38.3959 151.627 38.2449C151.479 38.2449 151.332 38.0939 151.185 38.0939C148.238 36.4333 146.322 33.5648 146.322 29.7905C146.322 24.8084 150.006 20.7322 154.574 20.7322C155.311 20.7322 155.9 20.8832 156.637 21.1851C157.668 21.638 158.995 22.5439 160.026 24.3555C160.321 24.8084 160.468 25.4123 160.615 26.0162C160.615 26.0162 160.763 26.4691 160.763 26.922C160.763 27.9788 160.763 29.9415 159.289 31.4512C157.668 33.1119 155.163 33.4138 153.395 32.0551C152.658 31.4512 152.216 30.5454 152.364 29.6395C152.511 28.4318 153.248 27.6769 154.279 27.5259C155.458 27.3749 156.49 28.1298 156.784 29.3376V29.4886C156.784 29.4886 156.784 29.6395 156.932 29.6395C156.932 29.6395 157.079 29.6395 157.079 29.4886V29.3376C157.226 28.8847 157.226 28.5827 157.226 28.1298C157.226 26.7711 156.637 25.5633 155.605 25.1104C154.869 24.8084 153.984 24.6575 152.806 25.1104C151.037 25.8652 149.564 27.8279 149.711 30.0924C149.711 33.2628 152.216 34.9235 152.216 34.9235C152.364 35.0745 155.605 37.3391 159.584 35.2255C160.91 34.4706 161.942 33.4138 162.531 32.206C162.678 32.0551 163.12 30.9983 163.415 29.6395C163.562 28.8847 163.562 28.1298 163.562 27.375C163.415 22.6948 160.468 20.2793 158.7 19.2225ZM138.66 8.95639C137.923 8.95639 137.186 8.35251 137.186 7.44668C137.186 6.69182 137.776 5.93696 138.66 5.93696C139.397 5.93696 140.133 6.54085 140.133 7.44668C140.133 8.35251 139.544 8.95639 138.66 8.95639ZM138.66 3.06851C139.397 3.06851 140.133 2.46462 140.133 1.55879C140.133 0.803931 139.544 0.0490723 138.66 0.0490723C137.923 0.0490723 137.186 0.652959 137.186 1.55879C137.334 2.46462 137.923 3.06851 138.66 3.06851ZM144.554 3.06851C145.291 3.06851 146.027 2.46462 146.027 1.55879C146.027 0.803931 145.438 0.0490723 144.554 0.0490723C143.817 0.0490723 143.08 0.652959 143.08 1.55879C143.08 2.46462 143.67 3.06851 144.554 3.06851ZM156.195 14.9953C155.458 14.9953 154.721 14.3914 154.721 13.4855C154.721 12.7307 155.311 11.9758 156.195 11.9758C156.932 11.9758 157.668 12.5797 157.668 13.4855C157.521 14.3914 156.932 14.9953 156.195 14.9953ZM156.195 8.95639C155.458 8.95639 154.721 8.35251 154.721 7.44668C154.721 6.69182 155.311 5.93696 156.195 5.93696C156.932 5.93696 157.668 6.54085 157.668 7.44668C157.521 8.35251 156.932 8.95639 156.195 8.95639ZM156.195 3.06851C156.932 3.06851 157.668 2.46462 157.668 1.55879C157.668 0.803931 157.079 0.0490723 156.195 0.0490723C155.458 0.0490723 154.721 0.652959 154.721 1.55879C154.721 2.46462 155.311 3.06851 156.195 3.06851ZM150.301 8.95639C149.564 8.95639 148.827 8.35251 148.827 7.44668C148.827 6.69182 149.417 5.93696 150.301 5.93696C151.037 5.93696 151.774 6.54085 151.774 7.44668C151.774 8.35251 151.185 8.95639 150.301 8.95639ZM150.301 3.06851C151.037 3.06851 151.774 2.46462 151.774 1.55879C151.774 0.803931 151.185 0.0490723 150.301 0.0490723C149.564 0.0490723 148.827 0.652959 148.827 1.55879C148.974 2.46462 149.564 3.06851 150.301 3.06851ZM161.942 11.9758C162.678 11.9758 163.415 12.5797 163.415 13.4855C163.415 14.2404 162.826 14.9953 161.942 14.9953C161.205 14.9953 160.468 14.3914 160.468 13.4855C160.468 12.7307 161.205 11.9758 161.942 11.9758ZM161.942 6.08794C162.678 6.08794 163.415 6.69183 163.415 7.59766C163.415 8.35252 162.826 9.10738 161.942 9.10738C161.205 9.10738 160.468 8.50349 160.468 7.59766C160.468 6.69183 161.205 6.08794 161.942 6.08794ZM161.942 3.06851C162.678 3.06851 163.415 2.46462 163.415 1.55879C163.415 0.803931 162.826 0.0490723 161.942 0.0490723C161.205 0.0490723 160.468 0.652959 160.468 1.55879C160.468 2.46462 161.205 3.06851 161.942 3.06851ZM132.913 14.9953C132.176 14.9953 131.439 14.3914 131.439 13.4855C131.439 12.7307 132.029 11.9758 132.913 11.9758C133.65 11.9758 134.386 12.5797 134.386 13.4855C134.386 14.3914 133.65 14.9953 132.913 14.9953ZM132.913 8.95639C132.176 8.95639 131.439 8.35251 131.439 7.44668C131.439 6.69182 132.029 5.93696 132.913 5.93696C133.65 5.93696 134.386 6.54085 134.386 7.44668C134.386 8.35251 133.65 8.95639 132.913 8.95639ZM132.913 3.06851C133.65 3.06851 134.386 2.46462 134.386 1.55879C134.386 0.803931 133.797 0.0490723 132.913 0.0490723C132.176 0.0490723 131.439 0.652959 131.439 1.55879C131.439 2.46462 132.176 3.06851 132.913 3.06851ZM127.166 14.9953C126.429 14.9953 125.693 14.3914 125.693 13.4855C125.693 12.7307 126.282 11.9758 127.166 11.9758C127.903 11.9758 128.64 12.5797 128.64 13.4855C128.492 14.3914 127.903 14.9953 127.166 14.9953ZM127.166 8.95639C126.429 8.95639 125.693 8.35251 125.693 7.44668C125.693 6.69182 126.282 5.93696 127.166 5.93696C127.903 5.93696 128.64 6.54085 128.64 7.44668C128.492 8.35251 127.903 8.95639 127.166 8.95639Z" fill="#F1F1F1"/>
</svg>
