<svg width="139" height="116" viewBox="0 0 139 116" fill="none" xmlns="http://www.w3.org/2000/svg">
<path fill-rule="evenodd" clip-rule="evenodd" d="M62.9641 94.6832L65.7581 97.7958V93.6791H63.962H62.9641L56.079 84.8434L62.6647 78.8191H63.3633V77.815H58.2742V78.7187C59.9706 78.7187 60.2699 79.5219 58.9727 80.6264L53.7839 85.3455V77.9155H49.9921V78.9195H51.0897V94.7836H54.9813V93.7795H53.7839V86.3495L60.3697 94.6832H62.9641ZM117.347 94.6832V78.8191H116.349V77.815H119.941V93.6791H121.139V94.6832H117.347ZM112.657 89.4621C112.657 88.6589 112.457 87.956 112.158 87.2532C111.759 86.5503 111.36 86.0483 110.761 85.6467C110.162 85.2451 109.464 84.9438 108.665 84.8434C107.867 84.743 107.069 84.8434 106.271 85.2451V93.7795H108.466C109.065 93.7795 109.564 93.6791 110.062 93.3779C110.561 93.1771 111.06 92.8759 111.459 92.4743C111.859 92.0726 112.158 91.671 112.358 91.0686C112.557 90.5666 112.657 89.9641 112.657 89.4621ZM103.676 78.7187H102.579V77.815H106.171V84.1406C107.069 83.739 108.067 83.5382 109.065 83.6386C110.162 83.739 111.06 84.0402 111.958 84.4418C112.856 84.9438 113.555 85.5463 114.154 86.4499C114.752 87.2532 115.052 88.2572 115.052 89.3617C115.052 90.0645 114.852 90.7674 114.553 91.4702C114.253 92.0726 113.854 92.6751 113.256 93.1771C112.757 93.6791 112.158 94.0808 111.459 94.2816C110.761 94.5828 110.062 94.6832 109.264 94.6832H102.179V93.6791H103.477L103.676 78.7187ZM45.2024 94.6832V78.8191H44.2046V77.815H47.7968V93.6791H48.9943V94.6832H45.2024ZM40.4128 89.4621C40.4128 88.6589 40.2132 87.956 39.9139 87.2532C39.5147 86.5503 39.1156 86.0483 38.5169 85.6467C37.9182 85.2451 37.2197 84.9438 36.4214 84.8434C35.6231 84.743 34.8248 84.8434 34.0266 85.2451V93.7795H36.2218C36.8205 93.7795 37.3195 93.6791 37.8184 93.3779C38.3173 93.1771 38.8162 92.8759 39.2154 92.4743C39.6145 92.0726 39.9139 91.671 40.1134 91.0686C40.313 90.5666 40.4128 89.9641 40.4128 89.4621ZM31.4322 78.7187H30.3345V77.815H33.9268V84.1406C34.8248 83.739 35.8227 83.5382 36.8205 83.6386C37.9182 83.739 38.8162 84.0402 39.7143 84.4418C40.6124 84.9438 41.3108 85.5463 41.9095 86.4499C42.5083 87.2532 42.8076 88.2572 42.8076 89.3617C42.8076 90.0645 42.608 90.7674 42.3087 91.4702C42.0093 92.0726 41.6102 92.6751 41.0115 93.1771C40.5126 93.6791 39.9139 94.0808 39.2154 94.2816C38.5169 94.5828 37.8184 94.6832 37.0201 94.6832H29.9354V93.6791H31.2326L31.4322 78.7187ZM11.8744 90.0645H8.28213V96.6913L5.68773 99.5027V90.0645H3.09332V91.0686H2.09548V88.7593H5.68773V86.8516L0.997846 78.8191H0V77.815H3.39268L7.78321 85.3455L10.677 80.9276L9.37976 78.8191H8.38191L7.88299 77.815H11.4752L12.6727 80.024L8.28213 86.8516V88.7593H10.8765V87.5544H11.8744V90.0645ZM84.0187 90.0645H80.4264V96.6913L77.832 99.5027V90.0645H75.2376V91.0686H74.2398V88.7593H77.832V86.8516L73.1421 78.8191H72.1443V77.815H75.537L79.9275 85.3455L82.8213 80.9276L81.5241 78.8191H80.5262L80.0273 77.815H83.6195L84.817 80.024L80.4264 86.8516V88.7593H83.0208V87.5544H84.0187V90.0645ZM136.006 81.8313C135.408 80.6264 134.809 79.7228 134.21 79.2207C133.512 78.7187 132.414 78.4175 131.117 78.4175C129.421 78.4175 128.024 79.2207 126.926 80.8272C125.928 82.2329 125.429 83.739 125.429 85.5463C125.429 87.8556 126.128 89.7633 127.525 91.2694C129.022 92.8759 130.818 93.5787 133.113 93.5787C134.809 93.5787 137.204 92.7755 138.302 91.4702L138.8 91.9722C137.703 93.2775 136.306 94.0808 134.809 94.4824C131.117 95.4864 126.826 94.6832 124.332 91.5706C123.034 89.9641 122.436 88.0564 122.436 85.9479C122.436 83.5382 123.334 81.5301 125.23 79.8232C127.724 77.6142 130.618 77.0118 133.711 77.815C135.108 78.2167 135.208 78.4175 136.605 78.0159L138.202 80.7268H139V81.7309H136.006V81.8313ZM92.1012 82.3333L87.2118 93.7795H88.1098V94.7836H84.9167V93.7795H85.8148L91.4027 80.7268L90.4049 78.8191H89.2075V77.815H92.9993L100.284 93.6791H101.082V94.6832H97.4896L92.1012 82.3333ZM19.9569 82.3333L15.0675 93.7795H15.9655V94.7836H12.7724V93.7795H13.6705L19.2584 80.7268L18.2606 78.8191H17.0632V77.815H20.855L28.1393 93.6791H28.9375V94.6832H25.3453L19.9569 82.3333Z" fill="#B77F04"/>
<path fill-rule="evenodd" clip-rule="evenodd" d="M23.9911 108.01C24.6935 108.01 25.1953 108.493 25.1953 109.17C25.1953 109.847 24.6935 110.33 23.9911 110.33C23.2886 110.33 22.7869 109.847 22.7869 109.17C22.7869 108.59 23.2886 108.01 23.9911 108.01ZM115.009 108.01C115.711 108.01 116.213 108.493 116.213 109.17C116.213 109.847 115.711 110.33 115.009 110.33C114.306 110.33 113.805 109.847 113.805 109.17C113.805 108.59 114.306 108.01 115.009 108.01ZM101.763 113.617H102.967L104.071 111.297H108.185L109.289 113.617H110.493L106.078 104.82L101.763 113.617ZM106.078 107.14L107.583 110.233H104.572L106.078 107.14ZM101.261 112.553H100.458L96.7451 104.82L93.0322 112.553H92.3297V115.453H93.4335V113.617H100.157V115.453H101.261V112.553ZM99.3542 112.553H94.2364L96.7451 107.236L99.3542 112.553ZM87.2118 113.617V104.916H89.8209C91.7276 104.916 92.9318 105.98 92.9318 107.623C92.9318 109.266 91.7276 110.33 89.8209 110.33H88.416V113.713H87.2118V113.617ZM88.3157 109.17H89.7206C91.0251 109.17 91.7276 108.59 91.7276 107.526C91.7276 106.463 91.0251 105.883 89.7206 105.883H88.3157V109.17ZM80.7894 112.65C78.7824 112.65 77.3775 111.2 77.3775 109.266C77.3775 107.333 78.8828 105.883 80.7894 105.883C82.7964 105.883 84.2013 107.333 84.2013 109.266C84.2013 111.2 82.7964 112.65 80.7894 112.65ZM80.7894 113.713C83.3985 113.713 85.4055 111.78 85.4055 109.266C85.4055 106.753 83.3985 104.82 80.7894 104.82C78.1803 104.82 76.1733 106.753 76.1733 109.266C76.1733 111.78 78.1803 113.713 80.7894 113.713ZM63.9305 113.617H65.1347V109.653H70.1523V113.617H71.3565V104.916H70.1523V108.59H65.1347V104.916H63.9305V113.617ZM60.5186 113.617H61.7228V104.916H60.5186V113.617ZM54.3972 108.396V104.916H53.193V113.617H55.9025C57.8092 113.617 59.1137 112.65 59.1137 111.007C59.1137 109.363 57.9095 108.396 55.9025 108.396H54.3972ZM54.3972 109.363H55.9025C57.2071 109.363 57.9095 109.943 57.9095 111.007C57.9095 112.07 57.2071 112.65 55.9025 112.65H54.3972V109.363ZM48.0752 113.617H49.2794V105.98H51.8885V104.916H45.5664V105.98H48.1755V113.617H48.0752ZM45.0647 113.617L41.8534 107.14L38.7426 113.617H37.5384L41.9538 104.82L46.3692 113.617H45.0647ZM28.4065 113.617H29.6107L30.7145 111.297H34.8289L35.9328 113.617H37.137L32.7215 104.82L28.4065 113.617ZM32.8219 107.14L34.3272 110.233H31.3167L32.8219 107.14Z" fill="#B77F04"/>
<path fill-rule="evenodd" clip-rule="evenodd" d="M95.9928 9.18019C112.657 14.7681 119.642 32.2304 110.062 42.2089C97.5894 35.7229 86.5133 24.7466 95.9928 9.18019ZM103.576 49.9921C118.245 42.5083 126.726 24.2477 116.05 9.37976C113.156 5.38837 108.965 2.19526 103.576 0C99.5851 2.29505 96.1924 5.1888 93.4982 8.4817C82.2225 22.0524 83.5197 41.8098 103.576 49.9921Z" fill="#B77F04"/>
<path fill-rule="evenodd" clip-rule="evenodd" d="M24.7467 8.68122H43.9053C32.7295 18.4601 24.5471 35.9224 25.8443 52.2871L38.7165 43.7056C38.1178 31.8313 39.7144 16.5642 49.4933 4.88941C49.9922 4.2907 50.4911 3.69199 51.0898 3.09328L51.1896 0.997803H18.56L18.3605 14.5685H20.2564L24.7467 8.68122Z" fill="#B77F04"/>
<path fill-rule="evenodd" clip-rule="evenodd" d="M69.6495 17.8615C82.9208 24.8464 91.203 42.6081 80.3265 54.4824C75.0379 60.1702 70.5475 64.1616 63.1635 70.7473C62.5648 64.0618 53.5842 51.2893 45.0027 48.196L43.4061 47.7969L63.862 34.2262C68.2525 36.1221 72.8426 43.7057 72.643 48.7947L64.8598 55.2807C64.0616 52.5865 62.8641 50.4911 61.3674 48.196C63.2633 46.8988 64.2611 46.3001 66.157 45.0029C65.6581 43.2068 65.1592 41.71 64.1613 40.4128L54.8814 46.6992C59.2719 50.1917 63.9618 59.1723 64.6603 64.7603C71.4456 58.1745 80.526 51.6885 75.3372 40.2132C73.3415 35.8227 70.348 31.8313 65.7579 29.7359C64.1613 29.0374 62.3652 28.6382 60.5691 28.5384L48.5949 36.5212L54.8814 1.09766H82.4219L79.0292 8.6813L57.8749 8.78108L54.4822 27.8399L69.6495 17.8615Z" fill="#B77F04"/>
<path fill-rule="evenodd" clip-rule="evenodd" d="M95.9929 9.18012C112.657 14.7681 119.642 32.2304 110.063 42.2088C97.5894 35.7228 86.5134 24.7465 95.9929 9.18012ZM101.681 44.2045C104.175 45.0028 106.67 45.2024 108.965 44.1048C110.861 43.3065 111.958 42.0093 113.056 40.4127C121.538 27.9396 116.648 14.7681 103.976 7.48378C102.778 7.08464 101.681 6.88507 100.683 6.88507C88.8084 6.78529 83.919 31.033 101.681 44.2045Z" fill="url(#paint0_linear)"/>
<path fill-rule="evenodd" clip-rule="evenodd" d="M24.7465 8.68122H45.0028V8.58143C46.2002 7.08466 44.8032 5.38833 43.8054 4.8894H43.6058H43.506H43.4063H43.2067C43.1069 4.8894 43.0071 4.8894 43.0071 4.8894H22.4515L24.7465 8.68122Z" fill="url(#paint1_linear)"/>
<path fill-rule="evenodd" clip-rule="evenodd" d="M20.356 14.5685L24.7465 8.68122L22.4515 4.8894L19.6575 13.2713L20.356 14.5685Z" fill="url(#paint2_linear)"/>
<path fill-rule="evenodd" clip-rule="evenodd" d="M51.0896 1.09766H18.46L22.4514 4.88948H43.9051C44.2045 4.68991 50.0918 1.69636 51.0896 1.09766Z" fill="#B77F04"/>
<path fill-rule="evenodd" clip-rule="evenodd" d="M18.4603 1.09766L22.4516 4.88948L19.6577 13.2714L18.3605 14.5686L18.4603 1.09766Z" fill="url(#paint3_linear)"/>
<path fill-rule="evenodd" clip-rule="evenodd" d="M19.6577 13.2712L20.3562 14.5684H18.3605L19.6577 13.2712Z" fill="url(#paint4_linear)"/>
<path fill-rule="evenodd" clip-rule="evenodd" d="M25.7446 52.2873L32.6297 40.4129C33.3282 28.9377 37.9183 17.662 45.003 8.6814H43.9054C32.7295 18.5601 24.4474 36.0224 25.7446 52.2873Z" fill="url(#paint5_linear)"/>
<path fill-rule="evenodd" clip-rule="evenodd" d="M38.6166 43.7056C38.0179 31.8313 39.6144 16.5642 49.3933 4.88941C49.8923 4.2907 50.3912 3.69199 50.9899 3.09328L51.0897 0.997803L43.8054 4.78962C44.8032 5.28855 46.2002 6.98488 45.0028 8.48165L44.903 8.58143C37.8183 17.5621 33.2282 28.8377 32.5297 40.313L38.6166 43.7056Z" fill="url(#paint6_linear)"/>
<path fill-rule="evenodd" clip-rule="evenodd" d="M54.682 27.9397L57.9749 8.78101L56.6776 4.8894L51.7882 32.1306V32.2304L54.682 27.9397Z" fill="url(#paint7_linear)"/>
<path fill-rule="evenodd" clip-rule="evenodd" d="M61.4672 48.196C62.964 50.4911 64.2612 52.5866 64.9597 55.2808L66.2569 49.7926L61.4672 48.196Z" fill="#D8A307"/>
<path fill-rule="evenodd" clip-rule="evenodd" d="M65.8578 29.7358C70.3481 31.8313 73.4414 35.8227 75.4371 40.2132C80.6259 51.6884 71.5455 58.1744 64.7602 64.7602L64.4608 67.5542C71.8449 61.168 77.333 55.3805 79.8277 49.8923C81.0251 47.3977 81.1248 44.1048 80.6259 41.5104C79.5283 35.224 75.3373 28.4386 69.6496 25.0459C64.1614 22.252 56.2785 29.1371 51.8879 32.2304L48.7946 36.6209L60.7688 28.6382C62.4651 28.6382 64.2612 29.0373 65.8578 29.7358Z" fill="url(#paint8_linear)"/>
<path fill-rule="evenodd" clip-rule="evenodd" d="M48.695 36.5212L54.9814 1.09766L56.578 4.88948L51.7883 32.1307C51.489 32.8292 50.9901 33.3281 48.695 36.5212Z" fill="url(#paint9_linear)"/>
<path fill-rule="evenodd" clip-rule="evenodd" d="M63.1637 70.7472L64.4609 67.5541C60.6691 57.2763 57.7754 53.4845 49.9922 46.5994L43.5062 47.8966C45.1027 48.1959 46.6993 48.9942 48.0963 49.8923C55.2808 54.0832 62.565 64.361 63.1637 70.7472Z" fill="url(#paint10_linear)"/>
<path fill-rule="evenodd" clip-rule="evenodd" d="M63.962 34.2261L43.5062 47.7968L49.9922 46.4996L64.0618 37.3194L63.962 34.2261Z" fill="url(#paint11_linear)"/>
<path fill-rule="evenodd" clip-rule="evenodd" d="M57.9749 8.78101L79.1293 8.68122L76.934 4.8894H56.6777L57.9749 8.78101Z" fill="url(#paint12_linear)"/>
<path fill-rule="evenodd" clip-rule="evenodd" d="M69.7494 47.0983C69.1507 43.7056 67.8535 40.2132 64.0617 37.4192L64.1615 40.5125C65.1593 41.7099 65.758 43.3065 66.1572 45.1026L69.7494 47.0983Z" fill="url(#paint13_linear)"/>
<path fill-rule="evenodd" clip-rule="evenodd" d="M64.7603 64.7603C64.0618 59.2722 59.3719 50.1918 54.9814 46.6993L49.9921 46.4998C57.8751 53.6842 60.3697 56.8774 64.4609 67.4545L64.7603 64.7603Z" fill="url(#paint14_linear)"/>
<path fill-rule="evenodd" clip-rule="evenodd" d="M54.9814 46.6991L64.2613 40.5124L64.0618 37.3193L49.9921 46.4995L54.9814 46.6991Z" fill="url(#paint15_linear)"/>
<path fill-rule="evenodd" clip-rule="evenodd" d="M54.9813 1.09766L56.6776 4.88948H76.9339L82.5218 1.09766H54.9813Z" fill="url(#paint16_linear)"/>
<path fill-rule="evenodd" clip-rule="evenodd" d="M69.6495 17.8616C69.6495 20.2564 69.6495 22.5514 69.6495 24.9463C64.1614 22.1523 56.2784 29.1372 51.8879 32.1308L54.6818 27.84L69.6495 17.8616Z" fill="url(#paint17_linear)"/>
<path fill-rule="evenodd" clip-rule="evenodd" d="M69.6496 24.9462C78.2311 29.9354 83.2204 42.5083 79.9275 49.7926C77.4328 55.2807 71.9447 61.0683 64.5606 67.4545L63.2634 70.6476C70.6475 64.0618 75.1378 60.1702 80.4264 54.3827C91.3029 42.5083 83.0208 24.7466 69.7494 17.7617L69.6496 24.9462Z" fill="url(#paint18_linear)"/>
<path fill-rule="evenodd" clip-rule="evenodd" d="M69.7494 47.0983L66.2569 49.7925L64.9597 55.2806L72.7429 48.7946C72.9425 43.7056 68.3524 36.122 63.9619 34.2261L64.0616 37.4192C67.9532 40.2132 69.1507 43.6058 69.7494 47.0983Z" fill="url(#paint19_linear)"/>
<path fill-rule="evenodd" clip-rule="evenodd" d="M82.5218 1.09766L76.9339 4.88948L79.1292 8.68129L82.5218 1.09766Z" fill="url(#paint20_linear)"/>
<path fill-rule="evenodd" clip-rule="evenodd" d="M69.7495 47.0985L66.1572 45.1028C64.2613 46.4 63.2635 46.9987 61.3676 48.2959L66.1572 49.8924L69.7495 47.0985Z" fill="url(#paint21_linear)"/>
<path fill-rule="evenodd" clip-rule="evenodd" d="M101.681 44.2046C82.3225 29.8356 89.9062 2.39483 103.976 7.48385L103.577 0C99.5853 2.29505 96.1926 5.1888 93.4984 8.4817C82.2227 22.1522 83.6197 41.9096 103.577 50.0919V49.8923L101.681 44.2046Z" fill="url(#paint22_linear)"/>
<path fill-rule="evenodd" clip-rule="evenodd" d="M103.577 49.9921C118.245 42.5083 126.727 24.2477 116.05 9.37976C113.156 5.38837 108.965 2.19526 103.577 0L103.976 7.48385C116.948 14.8679 121.638 28.3388 112.657 41.0115C109.863 44.9031 106.171 45.402 101.681 44.2046L103.577 49.9921Z" fill="url(#paint23_linear)"/>
<path fill-rule="evenodd" clip-rule="evenodd" d="M25.7445 52.2872L38.6167 43.7057L32.6296 40.4128L25.7445 52.2872Z" fill="url(#paint24_linear)"/>
<defs>
<linearGradient id="paint0_linear" x1="110.791" y1="34.848" x2="97.4307" y2="18.0674" gradientUnits="userSpaceOnUse">
<stop stop-color="#E9B000"/>
<stop offset="1" stop-color="#956200"/>
</linearGradient>
<linearGradient id="paint1_linear" x1="27.0314" y1="3.7779" x2="42.6382" y2="10.3455" gradientUnits="userSpaceOnUse">
<stop stop-color="#956200"/>
<stop offset="1" stop-color="#E9B000"/>
</linearGradient>
<linearGradient id="paint2_linear" x1="22.2433" y1="12.7785" x2="22.0791" y2="4.27423" gradientUnits="userSpaceOnUse">
<stop stop-color="#956200"/>
<stop offset="1" stop-color="#BC8100"/>
</linearGradient>
<linearGradient id="paint3_linear" x1="15.6191" y1="19.7821" x2="19.1753" y2="7.36513" gradientUnits="userSpaceOnUse">
<stop stop-color="#BC8100"/>
<stop offset="1" stop-color="#E9B000"/>
</linearGradient>
<linearGradient id="paint4_linear" x1="19.3734" y1="14.6446" x2="18.0828" y2="11.3755" gradientUnits="userSpaceOnUse">
<stop stop-color="#956200"/>
<stop offset="1" stop-color="#BC8100"/>
</linearGradient>
<linearGradient id="paint5_linear" x1="26.2318" y1="73.4764" x2="35.0378" y2="27.9625" gradientUnits="userSpaceOnUse">
<stop stop-color="#BC8100"/>
<stop offset="1" stop-color="#E9B000"/>
</linearGradient>
<linearGradient id="paint6_linear" x1="35.5067" y1="38.8112" x2="57.3013" y2="-16.6856" gradientUnits="userSpaceOnUse">
<stop stop-color="#956200"/>
<stop offset="1" stop-color="#BC8100"/>
</linearGradient>
<linearGradient id="paint7_linear" x1="55.2083" y1="27.1002" x2="54.1452" y2="3.14736" gradientUnits="userSpaceOnUse">
<stop stop-color="#956200"/>
<stop offset="1" stop-color="#BC8100"/>
</linearGradient>
<linearGradient id="paint8_linear" x1="75.5807" y1="46.8946" x2="59.4191" y2="38.9702" gradientUnits="userSpaceOnUse">
<stop stop-color="#E9B000"/>
<stop offset="1" stop-color="#956200"/>
</linearGradient>
<linearGradient id="paint9_linear" x1="48.4642" y1="53.5751" x2="53.2993" y2="16.0029" gradientUnits="userSpaceOnUse">
<stop stop-color="#BC8100"/>
<stop offset="1" stop-color="#E9B000"/>
</linearGradient>
<linearGradient id="paint10_linear" x1="57.6612" y1="68.8081" x2="50.7898" y2="48.0259" gradientUnits="userSpaceOnUse">
<stop stop-color="#E9B000"/>
<stop offset="1" stop-color="#BC8100"/>
</linearGradient>
<linearGradient id="paint11_linear" x1="45.4343" y1="42.9082" x2="66.9976" y2="38.139" gradientUnits="userSpaceOnUse">
<stop stop-color="#E9B000"/>
<stop offset="1" stop-color="#BC8100"/>
</linearGradient>
<linearGradient id="paint12_linear" x1="60.1173" y1="5.02401" x2="81.9071" y2="10.4627" gradientUnits="userSpaceOnUse">
<stop stop-color="#956200"/>
<stop offset="1" stop-color="#BC8100"/>
</linearGradient>
<linearGradient id="paint13_linear" x1="68.9823" y1="45.7233" x2="58.946" y2="32.3978" gradientUnits="userSpaceOnUse">
<stop stop-color="#E9B000"/>
<stop offset="1" stop-color="#956200"/>
</linearGradient>
<linearGradient id="paint14_linear" x1="62.1518" y1="64.8154" x2="41.6448" y2="20.2891" gradientUnits="userSpaceOnUse">
<stop stop-color="#956200"/>
<stop offset="1" stop-color="#BC8100"/>
</linearGradient>
<linearGradient id="paint15_linear" x1="62.609" y1="53.5766" x2="56.9924" y2="41.8419" gradientUnits="userSpaceOnUse">
<stop stop-color="#956200"/>
<stop offset="1" stop-color="#BC8100"/>
</linearGradient>
<linearGradient id="paint16_linear" x1="70.1726" y1="10.1214" x2="65.322" y2="-20.5225" gradientUnits="userSpaceOnUse">
<stop stop-color="#BC8100"/>
<stop offset="1" stop-color="#E9B000"/>
</linearGradient>
<linearGradient id="paint17_linear" x1="55.9483" y1="34.0523" x2="67.1164" y2="20.2757" gradientUnits="userSpaceOnUse">
<stop stop-color="#BC8100"/>
<stop offset="1" stop-color="#E9B000"/>
</linearGradient>
<linearGradient id="paint18_linear" x1="67.0329" y1="46.3184" x2="84.6131" y2="24.0799" gradientUnits="userSpaceOnUse">
<stop stop-color="#956200"/>
<stop offset="1" stop-color="#BC8100"/>
</linearGradient>
<linearGradient id="paint19_linear" x1="65.0284" y1="45.6525" x2="71.2264" y2="37.8228" gradientUnits="userSpaceOnUse">
<stop stop-color="#956200"/>
<stop offset="1" stop-color="#BC8100"/>
</linearGradient>
<linearGradient id="paint20_linear" x1="81.4517" y1="5.6676" x2="74.6129" y2="-2.5376" gradientUnits="userSpaceOnUse">
<stop stop-color="#956200"/>
<stop offset="1" stop-color="#BC8100"/>
</linearGradient>
<linearGradient id="paint21_linear" x1="64.4337" y1="48.2719" x2="73.837" y2="43.7367" gradientUnits="userSpaceOnUse">
<stop stop-color="#E9B000"/>
<stop offset="1" stop-color="#956200"/>
</linearGradient>
<linearGradient id="paint22_linear" x1="96.6053" y1="44.1626" x2="94.6829" y2="7.93627" gradientUnits="userSpaceOnUse">
<stop stop-color="#BC8100"/>
<stop offset="1" stop-color="#E9B000"/>
</linearGradient>
<linearGradient id="paint23_linear" x1="110.981" y1="46.1488" x2="111.892" y2="4.64139" gradientUnits="userSpaceOnUse">
<stop stop-color="#956200"/>
<stop offset="1" stop-color="#BC8100"/>
</linearGradient>
<linearGradient id="paint24_linear" x1="18.9282" y1="50.2692" x2="52.4427" y2="37.544" gradientUnits="userSpaceOnUse">
<stop stop-color="#956200"/>
<stop offset="1" stop-color="#BC8100"/>
</linearGradient>
</defs>
</svg>
