<svg width="189" height="47" viewBox="0 0 189 47" fill="none" xmlns="http://www.w3.org/2000/svg">
<path fill-rule="evenodd" clip-rule="evenodd" d="M127.719 19.6373L129.969 22.285V18.7833H128.523H127.719L122.173 11.2674L127.478 6.14303H128.04V5.28896H123.941V6.05763C125.307 6.05763 125.549 6.74088 124.504 7.68036L120.324 11.6945V5.37437H117.27V6.22844H118.154V19.7227H121.288V18.8687H120.324V12.5485L125.629 19.6373H127.719ZM171.525 19.6373V6.14303H170.721V5.28896H173.615V18.7833H174.579V19.6373H171.525ZM167.747 15.1962C167.747 14.5129 167.586 13.9151 167.345 13.3172C167.024 12.7194 166.702 12.2923 166.22 11.9507C165.738 11.6091 165.175 11.3529 164.532 11.2674C163.889 11.182 163.246 11.2675 162.603 11.6091V18.8687H164.371C164.854 18.8687 165.255 18.7833 165.657 18.527C166.059 18.3562 166.461 18.1 166.783 17.7584C167.104 17.4168 167.345 17.0751 167.506 16.5627C167.667 16.1356 167.747 15.6232 167.747 15.1962ZM160.513 6.05763H159.629V5.28896H162.523V10.6696C163.246 10.328 164.05 10.1572 164.854 10.2426C165.738 10.328 166.461 10.5842 167.185 10.9258C167.908 11.3529 168.471 11.8653 168.953 12.634C169.435 13.3172 169.676 14.1713 169.676 15.1108C169.676 15.7086 169.516 16.3065 169.274 16.9043C169.033 17.4168 168.712 17.9292 168.229 18.3562C167.828 18.7833 167.345 19.1249 166.783 19.2957C166.22 19.5519 165.657 19.6373 165.014 19.6373H159.307V18.7833H160.352L160.513 6.05763ZM113.411 19.6373V6.14303H112.608V5.28896H115.501V18.7833H116.466V19.6373H113.411ZM109.553 15.1962C109.553 14.5129 109.392 13.9151 109.151 13.3172C108.83 12.7194 108.508 12.2923 108.026 11.9507C107.544 11.6091 106.981 11.3529 106.338 11.2674C105.695 11.182 105.052 11.2675 104.409 11.6091V18.8687H106.177C106.66 18.8687 107.062 18.7833 107.463 18.527C107.865 18.3562 108.267 18.1 108.589 17.7584C108.91 17.4168 109.151 17.0751 109.312 16.5627C109.473 16.1356 109.553 15.6232 109.553 15.1962ZM102.319 6.05763H101.435V5.28896H104.329V10.6696C105.052 10.328 105.856 10.1572 106.66 10.2426C107.544 10.328 108.267 10.5842 108.991 10.9258C109.714 11.3529 110.277 11.8653 110.759 12.634C111.241 13.3172 111.482 14.1713 111.482 15.1108C111.482 15.7086 111.322 16.3065 111.08 16.9043C110.839 17.4168 110.518 17.9292 110.036 18.3562C109.634 18.7833 109.151 19.1249 108.589 19.2957C108.026 19.5519 107.463 19.6373 106.82 19.6373H101.114V18.7833H102.158L102.319 6.05763ZM86.565 15.7086H83.6714V21.3455L81.5816 23.7369V15.7086H79.4917V16.5627H78.6879V14.5983H81.5816V12.9756L77.8038 6.14303H77V5.28896H79.7329L83.2695 11.6945L85.6005 7.93658L84.5556 6.14303H83.7518L83.3499 5.28896H86.2435L87.2081 7.16791L83.6714 12.9756V14.5983H85.7612V13.5734H86.565V15.7086ZM144.679 15.7086H141.785V21.3455L139.695 23.7369V15.7086H137.605V16.5627H136.802V14.5983H139.695V12.9756L135.917 6.14303H135.114V5.28896H137.846L141.383 11.6945L143.714 7.93658L142.669 6.14303H141.865L141.463 5.28896H144.357L145.322 7.16791L141.785 12.9756V14.5983H143.875V13.5734H144.679V15.7086ZM186.556 8.70524C186.073 7.68035 185.591 6.9117 185.109 6.48466C184.546 6.05763 183.662 5.8014 182.617 5.8014C181.251 5.8014 180.125 6.48465 179.241 7.85117C178.438 9.04686 178.036 10.328 178.036 11.8653C178.036 13.8297 178.598 15.4524 179.724 16.7335C180.929 18.1 182.376 18.6978 184.225 18.6978C185.591 18.6978 187.52 18.0146 188.404 16.9043L188.806 17.3313C187.922 18.4416 186.797 19.1249 185.591 19.4665C182.617 20.3206 179.161 19.6373 177.151 16.9897C176.107 15.6232 175.624 14.0005 175.624 12.2069C175.624 10.1572 176.348 8.44902 177.875 6.9971C179.884 5.11814 182.215 4.6057 184.707 5.28896C185.832 5.63059 185.913 5.8014 187.038 5.45977L188.324 7.76577H188.967V8.61984H186.556V8.70524ZM151.189 9.13227L147.251 18.8687H147.974V19.7227H145.402V18.8687H146.125L150.627 7.76577L149.823 6.14303H148.858V5.28896H151.913L157.78 18.7833H158.423V19.6373H155.53L151.189 9.13227ZM93.0757 9.13227L89.1371 18.8687H89.8605V19.7227H87.2884V18.8687H88.0118L92.513 7.76577L91.7092 6.14303H90.7447V5.28896H93.7991L99.6667 18.7833H100.31V19.6373H97.4161L93.0757 9.13227Z" fill="white"/>
<path fill-rule="evenodd" clip-rule="evenodd" d="M96.3252 30.9731C96.8911 30.9731 97.2952 31.3843 97.2952 31.9599C97.2952 32.5355 96.8911 32.9467 96.3252 32.9467C95.7594 32.9467 95.3552 32.5355 95.3552 31.9599C95.3552 31.4665 95.7594 30.9731 96.3252 30.9731ZM169.642 30.9731C170.208 30.9731 170.612 31.3843 170.612 31.9599C170.612 32.5355 170.208 32.9467 169.642 32.9467C169.076 32.9467 168.672 32.5355 168.672 31.9599C168.672 31.4665 169.076 30.9731 169.642 30.9731ZM158.972 35.7425H159.942L160.831 33.769H164.145L165.034 35.7425H166.004L162.448 28.2595L158.972 35.7425ZM162.448 30.2331L163.66 32.8644H161.235L162.448 30.2331ZM158.568 34.838H157.921L154.93 28.2595L151.939 34.838H151.373V37.3049H152.262V35.7425H157.678V37.3049H158.568V34.838ZM157.032 34.838H152.909L154.93 30.3153L157.032 34.838ZM147.251 35.7425V28.3418H149.352C150.888 28.3418 151.858 29.2463 151.858 30.6442C151.858 32.0421 150.888 32.9467 149.352 32.9467H148.221V35.8247H147.251V35.7425ZM148.14 31.9599H149.272C150.322 31.9599 150.888 31.4665 150.888 30.562C150.888 29.6574 150.322 29.1641 149.272 29.1641H148.14V31.9599ZM142.077 34.9202C140.461 34.9202 139.329 33.6868 139.329 32.0421C139.329 30.3975 140.542 29.1641 142.077 29.1641C143.694 29.1641 144.826 30.3975 144.826 32.0421C144.826 33.6868 143.694 34.9202 142.077 34.9202ZM142.077 35.8247C144.179 35.8247 145.796 34.1801 145.796 32.0421C145.796 29.9041 144.179 28.2595 142.077 28.2595C139.976 28.2595 138.359 29.9041 138.359 32.0421C138.359 34.1801 139.976 35.8247 142.077 35.8247ZM128.497 35.7425H129.467V32.3711H133.509V35.7425H134.479V28.3418H133.509V31.4665H129.467V28.3418H128.497V35.7425ZM125.749 35.7425H126.719V28.3418H125.749V35.7425ZM120.818 31.3021V28.3418H119.848V35.7425H122.03C123.566 35.7425 124.617 34.9202 124.617 33.5223C124.617 32.1244 123.647 31.3021 122.03 31.3021H120.818ZM120.818 32.1244H122.03C123.081 32.1244 123.647 32.6177 123.647 33.5223C123.647 34.4268 123.081 34.9202 122.03 34.9202H120.818V32.1244ZM115.725 35.7425H116.695V29.2463H118.797V28.3418H113.705V29.2463H115.806V35.7425H115.725ZM113.3 35.7425L110.714 30.2331L108.208 35.7425H107.238L110.795 28.2595L114.351 35.7425H113.3ZM99.8819 35.7425H100.852L101.741 33.769H105.055L105.944 35.7425H106.915L103.358 28.2595L99.8819 35.7425ZM103.439 30.2331L104.651 32.8644H102.226L103.439 30.2331Z" fill="white"/>
<path fill-rule="evenodd" clip-rule="evenodd" d="M48.8394 6.09873C59.3229 9.811 63.7172 21.4118 57.6908 28.0409C49.8438 23.732 42.8757 16.4401 48.8394 6.09873ZM53.6103 33.2116C62.8384 28.2398 68.1743 16.1086 61.4573 6.23131C59.6368 3.57969 57.0002 1.45839 53.6103 0C51.0993 1.52468 48.9649 3.44711 47.27 5.6347C40.1763 14.6502 40.9924 27.7757 53.6103 33.2116Z" fill="white"/>
<path fill-rule="evenodd" clip-rule="evenodd" d="M4.01765 5.76728H16.0706C9.03971 12.2637 3.8921 23.8646 4.70818 34.7362L12.8063 29.0352C12.4296 21.1467 13.434 11.0042 19.586 3.24823C19.8999 2.85049 20.2138 2.45275 20.5904 2.055L20.6532 0.662903H0.12555L0 9.67841H1.19274L4.01765 5.76728Z" fill="white"/>
<path fill-rule="evenodd" clip-rule="evenodd" d="M32.2665 11.866C40.6157 16.5063 45.8261 28.306 38.9836 36.1946C35.6564 39.9732 32.8315 42.6248 28.1861 47C27.8095 42.5585 22.1597 34.0733 16.7609 32.0183L15.7565 31.7532L28.6256 22.7376C31.3877 23.9972 34.2754 29.0352 34.1498 32.4161L29.2533 36.7249C28.7511 34.9351 27.9978 33.543 27.0562 32.0183C28.2489 31.1565 28.8767 30.7588 30.0694 29.897C29.7555 28.7038 29.4416 27.7094 28.8139 26.8477L22.9757 31.024C25.7379 33.3441 28.6883 39.3103 29.1278 43.0225C33.3965 38.6474 39.1091 34.3385 35.8448 26.7151C34.5893 23.7983 32.706 21.1467 29.8183 19.7546C28.8139 19.2905 27.6839 19.0254 26.554 18.9591L19.0209 24.2623L22.9757 0.729187H40.3018L38.1675 5.76727L24.859 5.83356L22.7246 18.4951L32.2665 11.866Z" fill="white"/>
<path fill-rule="evenodd" clip-rule="evenodd" d="M48.8394 6.09874C59.323 9.81101 63.7173 21.4119 57.6908 28.0409C49.8439 23.732 42.8758 16.4401 48.8394 6.09874ZM52.4177 29.3667C53.9871 29.897 55.5565 30.0296 57.0003 29.3004C58.193 28.7701 58.8836 27.9083 59.5741 26.8477C64.91 18.5614 61.834 9.81101 53.8615 4.9718C53.1082 4.70664 52.4177 4.57406 51.7899 4.57406C44.3196 4.50777 41.2436 20.6164 52.4177 29.3667Z" fill="white"/>
<path fill-rule="evenodd" clip-rule="evenodd" d="M4.01751 5.76727H16.761V5.70098C17.5143 4.70662 16.6354 3.57968 16.0077 3.24823H15.8821H15.8194H15.7566H15.631C15.5683 3.24823 15.5055 3.24823 15.5055 3.24823H2.57367L4.01751 5.76727Z" fill="white"/>
<path fill-rule="evenodd" clip-rule="evenodd" d="M1.25541 9.67841L4.01754 5.76727L2.5737 3.24823L0.815979 8.81664L1.25541 9.67841Z" fill="white"/>
<path fill-rule="evenodd" clip-rule="evenodd" d="M20.5903 0.729187H0.0626221L2.57365 3.24823H16.0704C16.2588 3.11565 19.9625 1.12693 20.5903 0.729187Z" fill="white"/>
<path fill-rule="evenodd" clip-rule="evenodd" d="M0.0627748 0.729187L2.5738 3.24823L0.816086 8.81664L0 9.67841L0.0627748 0.729187Z" fill="white"/>
<path fill-rule="evenodd" clip-rule="evenodd" d="M0.816086 8.81665L1.25551 9.67842H0L0.816086 8.81665Z" fill="white"/>
<path fill-rule="evenodd" clip-rule="evenodd" d="M4.64539 34.7362L8.97692 26.8477C9.41635 19.2243 12.304 11.7334 16.7611 5.76727H16.0706C9.03969 12.33 3.82931 23.9309 4.64539 34.7362Z" fill="white"/>
<path fill-rule="evenodd" clip-rule="evenodd" d="M12.7434 29.0353C12.3667 21.1467 13.3711 11.0042 19.5232 3.24823C19.837 2.85049 20.1509 2.45275 20.5276 2.055L20.5904 0.662903L16.0077 3.18195C16.6355 3.5134 17.5143 4.64034 16.761 5.63469L16.6983 5.70098C12.2412 11.6671 9.35349 19.158 8.91406 26.7814L12.7434 29.0353Z" fill="white"/>
<path fill-rule="evenodd" clip-rule="evenodd" d="M22.8503 18.5613L24.9219 5.83356L24.1058 3.24823L21.0298 21.3455V21.4118L22.8503 18.5613Z" fill="white"/>
<path fill-rule="evenodd" clip-rule="evenodd" d="M27.119 32.0183C28.0606 33.543 28.8767 34.9351 29.3161 36.7249L30.1322 33.079L27.119 32.0183Z" fill="white"/>
<path fill-rule="evenodd" clip-rule="evenodd" d="M29.8811 19.7546C32.706 21.1467 34.6521 23.7983 35.9076 26.7151C39.1719 34.3385 33.4594 38.6474 29.1906 43.0225L29.0023 44.8787C33.6477 40.6361 37.1004 36.7912 38.6697 33.1452C39.4231 31.488 39.4858 29.3004 39.1719 27.5768C38.4814 23.4005 35.8448 18.8928 32.2666 16.6389C28.8139 14.7828 23.8547 19.3568 21.0925 21.4118L19.1465 24.3286L26.6796 19.0254C27.7468 19.0254 28.8767 19.2905 29.8811 19.7546Z" fill="white"/>
<path fill-rule="evenodd" clip-rule="evenodd" d="M19.0838 24.2623L23.0387 0.729187L24.0431 3.24823L21.0299 21.3455C20.8415 21.8096 20.5276 22.141 19.0838 24.2623Z" fill="white"/>
<path fill-rule="evenodd" clip-rule="evenodd" d="M28.1863 47L29.0024 44.8787C26.6169 38.0508 24.7964 35.5317 19.8999 30.9577L15.8195 31.8195C16.8239 32.0184 17.8283 32.5487 18.7071 33.1453C23.227 35.9295 27.8096 42.7574 28.1863 47Z" fill="white"/>
<path fill-rule="evenodd" clip-rule="evenodd" d="M28.6885 22.7377L15.8195 31.7532L19.8999 30.8914L28.7513 24.7927L28.6885 22.7377Z" fill="white"/>
<path fill-rule="evenodd" clip-rule="evenodd" d="M24.9219 5.83356L38.2304 5.76727L36.8493 3.24823H24.1058L24.9219 5.83356Z" fill="white"/>
<path fill-rule="evenodd" clip-rule="evenodd" d="M32.3294 31.2891C31.9527 29.0352 31.1366 26.7151 28.7512 24.8589L28.8139 26.9139C29.4417 27.7094 29.8183 28.7701 30.0694 29.9633L32.3294 31.2891Z" fill="white"/>
<path fill-rule="evenodd" clip-rule="evenodd" d="M29.1907 43.0226C28.7512 39.3766 25.8008 33.3442 23.0386 31.024L19.8998 30.8914C24.8591 35.6643 26.4285 37.7856 29.0023 44.8124L29.1907 43.0226Z" fill="white"/>
<path fill-rule="evenodd" clip-rule="evenodd" d="M23.0386 31.024L28.8768 26.914L28.7512 24.7927L19.8998 30.8914L23.0386 31.024Z" fill="white"/>
<path fill-rule="evenodd" clip-rule="evenodd" d="M23.0386 0.729187L24.1058 3.24823H36.8492L40.3647 0.729187H23.0386Z" fill="white"/>
<path fill-rule="evenodd" clip-rule="evenodd" d="M32.2665 11.866C32.2665 13.4569 32.2665 14.9816 32.2665 16.5726C28.8139 14.7165 23.8546 19.3568 21.0925 21.3455L22.8502 18.495L32.2665 11.866Z" fill="white"/>
<path fill-rule="evenodd" clip-rule="evenodd" d="M32.2667 16.5727C37.6654 19.8872 40.8042 28.2398 38.7326 33.079C37.1632 36.725 33.7105 40.5698 29.0651 44.8124L28.249 46.9337C32.8944 42.5585 35.7193 39.9732 39.0464 36.1284C45.889 28.2398 40.6786 16.4401 32.3294 11.7997L32.2667 16.5727Z" fill="white"/>
<path fill-rule="evenodd" clip-rule="evenodd" d="M32.3293 31.2891L30.1322 33.079L29.3161 36.725L34.2126 32.4161C34.3382 29.0353 31.4505 23.9972 28.6884 22.7377L28.7511 24.859C31.1994 26.7151 31.9527 28.969 32.3293 31.2891Z" fill="white"/>
<path fill-rule="evenodd" clip-rule="evenodd" d="M40.3647 0.729187L36.8492 3.24823L38.2303 5.76727L40.3647 0.729187Z" fill="white"/>
<path fill-rule="evenodd" clip-rule="evenodd" d="M32.3294 31.2891L30.0695 29.9633C28.8768 30.8251 28.249 31.2228 27.0563 32.0846L30.0695 33.1453L32.3294 31.2891Z" fill="white"/>
<path fill-rule="evenodd" clip-rule="evenodd" d="M52.4178 29.3667C40.2393 19.8209 45.0102 1.59097 53.8616 4.97179L53.6105 0C51.0995 1.52468 48.9651 3.44711 47.2702 5.6347C40.1765 14.7165 41.0554 27.842 53.6105 33.2779V33.1453L52.4178 29.3667Z" fill="white"/>
<path fill-rule="evenodd" clip-rule="evenodd" d="M53.6105 33.2116C62.8386 28.2398 68.1745 16.1086 61.4575 6.23131C59.637 3.57969 57.0004 1.45839 53.6105 0L53.8616 4.97179C62.0225 9.87729 64.9729 18.8265 59.3231 27.2454C57.5654 29.8307 55.2427 30.1622 52.4178 29.3667L53.6105 33.2116Z" fill="white"/>
<path fill-rule="evenodd" clip-rule="evenodd" d="M4.64539 34.7363L12.7435 29.0353L8.97691 26.8477L4.64539 34.7363Z" fill="white"/>
</svg>
