<svg width="915" height="696" viewBox="0 0 915 696" fill="none" xmlns="http://www.w3.org/2000/svg">
<g filter="url(#filter0_d)">
<path d="M28.9462 403.806C28.9462 403.806 16.8532 391.906 16.8532 387.597V367.915C16.8532 367.915 13.5427 356.337 16.8532 351.706C20.1636 347.075 51.868 357.495 56.4304 357.495C60.9927 357.495 64.1259 351.706 64.1259 351.706L92.7095 347.075L101.504 357.495C101.504 357.495 124.591 344.156 131.187 335.497C137.784 326.839 135.049 335.497 147.678 335.497C160.307 335.497 210.342 292.66 210.342 292.66C210.342 292.66 246.621 261.4 259.813 261.4C273.006 261.4 267.631 268.854 273.006 274.136C278.38 279.418 297.192 274.136 297.192 274.136C297.192 274.136 304.894 262.684 307.086 255.612C309.278 248.539 320.279 255.612 320.279 255.612C320.279 255.612 337.694 263.234 347.763 261.4C357.832 259.567 352.314 214.352 353.26 209.301C354.205 204.25 362.835 195.212 379.644 195.408C396.454 195.604 399.044 212.849 407.129 218.563C415.213 224.277 428.558 216.158 444.507 218.563C460.456 220.969 481.885 227.955 514.867 226.667C547.848 225.38 567.858 139.92 612.71 93.5243C646.305 58.7731 678.947 20.2553 707.256 13.6384C735.565 7.02145 830.125 13.6384 849.074 25.216C868.023 36.7937 900.749 55.5456 899.645 77.3155C898.542 99.0855 840.057 267.287 823.789 284.556C807.521 301.824 623.773 267.287 612.71 274.136C601.648 280.984 580.737 278.316 570.934 292.66C561.132 307.005 549.839 400.729 547.847 410.752C545.856 420.776 569.836 469.798 587.425 475.587C605.013 481.376 656.804 452.15 669.192 455.807C681.581 459.465 772.661 516.507 769.985 532.41C767.31 548.313 747.383 661.445 731.684 670.832C715.985 680.22 698.589 662.814 685.319 673.52C672.05 684.227 620.812 664.303 620.812 664.303C620.812 664.303 559.77 670.92 547.847 664.303C535.925 657.686 491.78 611.046 491.78 611.046C491.78 611.046 440.593 546.301 436.811 542.738C433.03 539.174 421.834 538.107 419.222 534.633C416.609 531.16 424.718 530.01 424.718 526.45C424.718 522.891 422.085 519.833 424.718 514.319C427.351 508.805 424.718 503.374 424.718 503.374C424.718 503.374 422.937 493.366 419.222 490.638C415.506 487.911 410.799 492.263 407.129 490.638C403.458 489.013 403.075 481.376 398.334 481.376H390.638C387.626 481.376 372.177 487.852 372.177 487.852L360.955 496.427L353.26 503.374L344.59 507.702L336.769 512.636L324.676 519.582L312.583 527.687L303.788 538.107V550.842C303.788 550.842 319.209 558.946 320.279 565.893C321.348 572.84 312.583 571.682 312.583 571.682L303.788 576.313C303.788 576.313 286.105 571.682 279.602 571.682C273.099 571.682 271.927 587.759 259.813 558.946C259.813 558.946 250.793 542.738 248.82 538.107C246.846 533.475 234.528 512.636 234.528 512.636C234.528 512.636 228.723 508.805 223.534 503.374C218.345 497.942 217.688 490.638 207.044 487.165C196.399 483.692 194.515 491.16 190.553 490.638C186.591 490.116 171.497 494.497 165.268 496.427H151.479C145.454 496.427 137.784 487.165 137.784 487.165H131.187V475.587H137.784L147.678 464.01C147.678 464.01 152.075 464.01 155.373 461.694C158.672 459.379 155.373 453.59 155.373 446.643C155.373 439.696 159.194 443.594 165.268 442.012C171.342 440.43 175.162 442.012 175.162 442.012L181.273 436.223C181.273 436.223 180.17 428.299 175.162 430.434C170.154 432.569 160.307 436.223 155.373 436.223C150.44 436.223 137.784 430.434 137.784 430.434H124.591L105.902 436.223C105.902 436.223 88.58 442.636 87.2126 446.643C85.8453 450.65 87.2126 453.59 87.2126 453.59C91.6101 457.063 101.504 464.01 105.902 464.01C110.299 464.01 124.591 464.01 124.591 469.798C124.591 475.587 117.995 475.587 117.995 475.587H101.504C94.4685 475.587 83.9187 475.312 83.0626 479.029C82.3574 482.091 73.6944 481.701 70.6625 481.468C70.1475 481.452 69.6228 481.376 69.6228 481.376C69.6228 481.376 70.0137 481.419 70.6625 481.468C71.8427 481.506 72.9715 481.234 67.6137 479.029C59.9182 475.862 47.7509 464.01 50.9335 464.01H56.4304L57.6823 456.973L50.9335 453.59L55.4753 445.944C58.0405 447.874 64.1259 450.576 64.1259 445.944C64.1259 441.313 67.7905 436.223 69.6228 436.223L64.1259 423.488L43.238 410.752L28.9462 403.806Z" fill="#0E4F32" fill-opacity="0.31"/>
</g>
<path d="M218.808 367.184L214.584 361.808C217.976 358.96 221.768 357.536 225.96 357.536C228.968 357.536 231.512 358.304 233.592 359.84C235.704 361.376 236.76 363.584 236.76 366.464C236.76 367.968 236.504 369.296 235.992 370.448C235.48 371.568 234.568 372.64 233.256 373.664C236.36 375.488 237.912 378.192 237.912 381.776C237.912 385.04 236.744 387.632 234.408 389.552C232.104 391.44 229.24 392.384 225.816 392.384C220.984 392.384 216.968 390.32 213.768 386.192L219.384 381.488C221.336 383.952 223.512 385.184 225.912 385.184C227.352 385.184 228.44 384.816 229.176 384.08C229.944 383.312 230.328 382.352 230.328 381.2C230.328 380.112 229.976 379.264 229.272 378.656C228.568 378.016 227.592 377.696 226.344 377.696H221.592V371.216H225.864C226.888 371.216 227.704 370.912 228.312 370.304C228.952 369.696 229.272 368.896 229.272 367.904C229.272 365.664 227.88 364.544 225.096 364.544C223.816 364.544 222.712 364.752 221.784 365.168C220.888 365.584 219.896 366.256 218.808 367.184ZM262.661 388.736C260.229 391.168 257.285 392.384 253.829 392.384C250.373 392.384 247.429 391.168 244.997 388.736C242.565 386.304 241.349 383.392 241.349 380C241.349 376.608 242.565 373.696 244.997 371.264C247.429 368.832 250.373 367.616 253.829 367.616C257.285 367.616 260.229 368.832 262.661 371.264C265.093 373.696 266.309 376.608 266.309 380C266.309 383.392 265.093 386.304 262.661 388.736ZM250.085 384.08C251.077 385.104 252.325 385.616 253.829 385.616C255.333 385.616 256.565 385.104 257.525 384.08C258.517 383.024 259.013 381.664 259.013 380C259.013 378.336 258.517 376.992 257.525 375.968C256.565 374.912 255.333 374.384 253.829 374.384C252.325 374.384 251.077 374.912 250.085 375.968C249.125 376.992 248.645 378.336 248.645 380C248.645 381.664 249.125 383.024 250.085 384.08ZM266.19 392L280.158 367.616L294.126 392H286.014L280.158 381.152L274.014 392H266.19ZM315.301 388.736C312.869 391.168 309.925 392.384 306.469 392.384C303.013 392.384 300.069 391.168 297.637 388.736C295.205 386.304 293.989 383.392 293.989 380C293.989 376.608 295.205 373.696 297.637 371.264C300.069 368.832 303.013 367.616 306.469 367.616C309.925 367.616 312.869 368.832 315.301 371.264C317.733 373.696 318.949 376.608 318.949 380C318.949 383.392 317.733 386.304 315.301 388.736ZM302.725 384.08C303.717 385.104 304.965 385.616 306.469 385.616C307.973 385.616 309.205 385.104 310.165 384.08C311.157 383.024 311.653 381.664 311.653 380C311.653 378.336 311.157 376.992 310.165 375.968C309.205 374.912 307.973 374.384 306.469 374.384C304.965 374.384 303.717 374.912 302.725 375.968C301.765 376.992 301.285 378.336 301.285 380C301.285 381.664 301.765 383.024 302.725 384.08ZM327.075 392V374.336H320.835V368H341.043V374.336H334.323V392H327.075ZM359.871 392V390.608C358.431 391.792 356.671 392.384 354.591 392.384C351.135 392.384 348.335 391.168 346.191 388.736C344.047 386.304 342.975 383.392 342.975 380C342.975 376.608 344.047 373.696 346.191 371.264C348.335 368.832 351.135 367.616 354.591 367.616C356.639 367.616 358.399 368.224 359.871 369.44V368H367.119V392H359.871ZM355.791 385.76C357.487 385.76 358.847 385.104 359.871 383.792V376.256C358.815 374.912 357.455 374.24 355.791 374.24C354.127 374.24 352.783 374.8 351.759 375.92C350.767 377.008 350.271 378.368 350.271 380C350.271 381.632 350.767 383.008 351.759 384.128C352.783 385.216 354.127 385.76 355.791 385.76ZM370.848 392L376.656 383.024C373.808 381.552 372.384 379.28 372.384 376.208C372.384 373.776 373.168 371.808 374.736 370.304C376.304 368.768 378.464 368 381.216 368H392.976V392H385.728V384.752H383.232L378.576 392H370.848ZM381.648 378.992H385.728V373.76H381.6C379.968 373.76 379.152 374.688 379.152 376.544C379.152 377.28 379.392 377.872 379.872 378.32C380.384 378.768 380.976 378.992 381.648 378.992ZM437.801 387.296C434.409 390.688 430.313 392.384 425.513 392.384C420.713 392.384 416.601 390.688 413.177 387.296C409.785 383.872 408.089 379.76 408.089 374.96C408.089 370.16 409.785 366.064 413.177 362.672C416.601 359.248 420.713 357.536 425.513 357.536C430.313 357.536 434.409 359.248 437.801 362.672C441.225 366.064 442.937 370.16 442.937 374.96C442.937 379.76 441.225 383.872 437.801 387.296ZM418.601 382.064C420.457 384.016 422.761 384.992 425.513 384.992C428.265 384.992 430.569 384.016 432.425 382.064C434.281 380.112 435.209 377.744 435.209 374.96C435.209 372.176 434.281 369.808 432.425 367.856C430.569 365.904 428.265 364.928 425.513 364.928C422.761 364.928 420.457 365.904 418.601 367.856C416.745 369.808 415.817 372.176 415.817 374.96C415.817 377.744 416.745 380.112 418.601 382.064ZM447.302 368H454.55V369.392C455.99 368.208 457.75 367.616 459.83 367.616C463.286 367.616 466.086 368.832 468.23 371.264C470.374 373.696 471.446 376.608 471.446 380C471.446 383.392 470.374 386.304 468.23 388.736C466.086 391.168 463.286 392.384 459.83 392.384C457.782 392.384 456.022 391.776 454.55 390.56V400.832H447.302V368ZM458.63 385.76C460.294 385.76 461.622 385.216 462.614 384.128C463.638 383.008 464.15 381.632 464.15 380C464.15 378.368 463.638 377.008 462.614 375.92C461.622 374.8 460.294 374.24 458.63 374.24C456.87 374.24 455.51 374.896 454.55 376.208V383.744C455.542 385.088 456.902 385.76 458.63 385.76ZM473.314 397.664V385.664H476.482L486.802 367.616L497.122 385.664H500.338V397.664H493.618V392H480.034V397.664H473.314ZM489.634 385.664L486.802 380.432L483.97 385.664H489.634ZM519.152 392V390.608C517.712 391.792 515.952 392.384 513.872 392.384C510.416 392.384 507.616 391.168 505.472 388.736C503.328 386.304 502.256 383.392 502.256 380C502.256 376.608 503.328 373.696 505.472 371.264C507.616 368.832 510.416 367.616 513.872 367.616C515.92 367.616 517.68 368.224 519.152 369.44V368H526.4V392H519.152ZM515.072 385.76C516.768 385.76 518.128 385.104 519.152 383.792V376.256C518.096 374.912 516.736 374.24 515.072 374.24C513.408 374.24 512.064 374.8 511.04 375.92C510.048 377.008 509.552 378.368 509.552 380C509.552 381.632 510.048 383.008 511.04 384.128C512.064 385.216 513.408 385.76 515.072 385.76Z" fill="white" fill-opacity="0.35"/>
<defs>
<filter id="filter0_d" x="0.381836" y="0.00970459" width="914.29" height="695.672" filterUnits="userSpaceOnUse" color-interpolation-filters="sRGB">
<feFlood flood-opacity="0" result="BackgroundImageFix"/>
<feColorMatrix in="SourceAlpha" type="matrix" values="0 0 0 0 0 0 0 0 0 0 0 0 0 0 0 0 0 0 127 0"/>
<feOffset dy="4"/>
<feGaussianBlur stdDeviation="7.5"/>
<feColorMatrix type="matrix" values="0 0 0 0 0 0 0 0 0 0 0 0 0 0 0 0 0 0 0.15 0"/>
<feBlend mode="normal" in2="BackgroundImageFix" result="effect1_dropShadow"/>
<feBlend mode="normal" in="SourceGraphic" in2="effect1_dropShadow" result="shape"/>
</filter>
</defs>
</svg>
