<svg width="44" height="44" viewBox="0 0 44 44" fill="none" xmlns="http://www.w3.org/2000/svg">
<path d="M14.6667 5.5V11C14.6667 11.9725 14.2804 12.9051 13.5927 13.5927C12.9051 14.2804 11.9725 14.6667 11 14.6667H5.5M38.5 14.6667H33C32.0275 14.6667 31.0949 14.2804 30.4073 13.5927C29.7196 12.9051 29.3333 11.9725 29.3333 11V5.5M29.3333 38.5V33C29.3333 32.0275 29.7196 31.0949 30.4073 30.4073C31.0949 29.7196 32.0275 29.3333 33 29.3333H38.5M5.5 29.3333H11C11.9725 29.3333 12.9051 29.7196 13.5927 30.4073C14.2804 31.0949 14.6667 32.0275 14.6667 33V38.5" stroke="#B77F04" stroke-width="2" stroke-linecap="round" stroke-linejoin="round"/>
</svg>
