<svg width="290" height="82" viewBox="0 0 290 82" fill="none" xmlns="http://www.w3.org/2000/svg">
<mask id="mask0" mask-type="alpha" maskUnits="userSpaceOnUse" x="0" y="0" width="290" height="82">
<rect width="290" height="82" rx="30" fill="#B87F04"/>
</mask>
<g mask="url(#mask0)">
<path fill-rule="evenodd" clip-rule="evenodd" d="M90.883 110.814V112.982H98.009H108.13H123.105H133.226H140.352V110.814V76.5258H90.883V110.814ZM126.203 59.2787C126.72 59.2787 127.236 58.8656 127.236 58.2459C127.236 57.7295 126.823 57.2131 126.203 57.2131C125.687 57.2131 125.171 57.6262 125.171 58.2459C125.171 58.7623 125.687 59.2787 126.203 59.2787ZM130.231 59.2787C130.748 59.2787 131.264 58.8656 131.264 58.2459C131.264 57.7295 130.851 57.2131 130.231 57.2131C129.715 57.2131 129.198 57.6262 129.198 58.2459C129.302 58.7623 129.715 59.2787 130.231 59.2787ZM134.362 59.2787C134.879 59.2787 135.395 58.8656 135.395 58.2459C135.395 57.7295 134.982 57.2131 134.362 57.2131C133.846 57.2131 133.33 57.6262 133.33 58.2459C133.33 58.7623 133.846 59.2787 134.362 59.2787ZM138.39 59.2787C138.906 59.2787 139.423 58.8656 139.423 58.2459C139.423 57.7295 139.01 57.2131 138.39 57.2131C137.874 57.2131 137.357 57.6262 137.357 58.2459C137.461 58.7623 137.874 59.2787 138.39 59.2787ZM130.335 61.2409C129.818 61.2409 129.302 61.654 129.302 62.2737C129.302 62.7901 129.715 63.3064 130.335 63.3064C130.851 63.3064 131.367 62.8933 131.367 62.2737C131.264 61.7573 130.851 61.2409 130.335 61.2409ZM134.362 63.3064C134.879 63.3064 135.395 62.8933 135.395 62.2737C135.395 61.7573 134.982 61.2409 134.362 61.2409C133.846 61.2409 133.33 61.654 133.33 62.2737C133.33 62.8933 133.846 63.3064 134.362 63.3064ZM138.39 63.3064C138.906 63.3064 139.423 62.8933 139.423 62.2737C139.423 61.7573 139.01 61.2409 138.39 61.2409C137.874 61.2409 137.357 61.654 137.357 62.2737C137.461 62.8933 137.874 63.3064 138.39 63.3064ZM142.521 59.2787C143.038 59.2787 143.554 58.8656 143.554 58.2459C143.554 57.7295 143.141 57.2131 142.521 57.2131C142.005 57.2131 141.488 57.6262 141.488 58.2459C141.488 58.7623 141.901 59.2787 142.521 59.2787ZM142.521 61.2409C142.005 61.2409 141.488 61.654 141.488 62.2737C141.488 62.7901 141.901 63.3064 142.521 63.3064C143.038 63.3064 143.554 62.8933 143.554 62.2737C143.554 61.7573 143.038 61.2409 142.521 61.2409ZM105.135 59.2787C105.651 59.2787 106.168 58.8656 106.168 58.2459C106.168 57.7295 105.755 57.2131 105.135 57.2131C104.515 57.2131 104.102 57.6262 104.102 58.2459C104.102 58.7623 104.515 59.2787 105.135 59.2787ZM101.004 59.2787C101.52 59.2787 102.037 58.8656 102.037 58.2459C102.037 57.7295 101.624 57.2131 101.004 57.2131C100.488 57.2131 99.9713 57.6262 99.9713 58.2459C99.9713 58.7623 100.488 59.2787 101.004 59.2787ZM96.9763 59.2787C97.4926 59.2787 98.009 58.8656 98.009 58.2459C98.009 57.7295 97.5959 57.2131 96.9763 57.2131C96.4599 57.2131 95.9435 57.6262 95.9435 58.2459C95.9435 58.7623 96.3566 59.2787 96.9763 59.2787ZM92.8452 59.2787C93.3616 59.2787 93.878 58.8656 93.878 58.2459C93.878 57.7295 93.4649 57.2131 92.8452 57.2131C92.3288 57.2131 91.8124 57.6262 91.8124 58.2459C91.8124 58.7623 92.3288 59.2787 92.8452 59.2787ZM101.004 63.3064C101.52 63.3064 102.037 62.8933 102.037 62.2737C102.037 61.7573 101.624 61.2409 101.004 61.2409C100.488 61.2409 99.9713 61.654 99.9713 62.2737C99.9713 62.8933 100.488 63.3064 101.004 63.3064ZM96.9763 63.3064C97.4926 63.3064 98.009 62.8933 98.009 62.2737C98.009 61.7573 97.5959 61.2409 96.9763 61.2409C96.4599 61.2409 95.9435 61.654 95.9435 62.2737C95.9435 62.8933 96.3566 63.3064 96.9763 63.3064ZM92.8452 63.3064C93.3616 63.3064 93.878 62.8933 93.878 62.2737C93.878 61.7573 93.4649 61.2409 92.8452 61.2409C92.3288 61.2409 91.8124 61.654 91.8124 62.2737C91.8124 62.8933 92.3288 63.3064 92.8452 63.3064ZM88.8174 59.2787C89.3338 59.2787 89.8502 58.8656 89.8502 58.2459C89.8502 57.7295 89.4371 57.2131 88.8174 57.2131C88.301 57.2131 87.7847 57.6262 87.7847 58.2459C87.7847 58.7623 88.1978 59.2787 88.8174 59.2787ZM88.8174 63.3064C89.3338 63.3064 89.8502 62.8933 89.8502 62.2737C89.8502 61.7573 89.4371 61.2409 88.8174 61.2409C88.301 61.2409 87.7847 61.654 87.7847 62.2737C87.7847 62.8933 88.1978 63.3064 88.8174 63.3064ZM115.669 57.2131C115.669 57.2131 126.617 61.9638 130.335 67.644H143.554V71.362H87.7847V67.644H101.004C104.722 61.9638 115.669 57.2131 115.669 57.2131ZM108.027 63.9261C106.271 65.1654 104.825 66.4047 103.689 67.644H127.753C126.617 66.4047 125.067 65.0621 123.415 63.9261H108.027ZM90.883 74.9767H140.352L143.451 72.8079H87.7847L90.883 74.9767ZM117.941 108.645V99.5564H113.294V108.645H111.125V97.3876H120.007V108.645H117.941ZM113.707 92.4304C113.707 91.3976 114.533 90.4681 115.669 90.4681C116.702 90.4681 117.632 91.2943 117.632 92.4304C117.632 93.4631 116.805 94.3926 115.669 94.3926C114.533 94.3926 113.707 93.4631 113.707 92.4304ZM115.669 85.8207C115.669 85.8207 108.13 88.7124 108.233 98.5237V108.748H104.515V100.176C104.412 84.9945 115.669 81.5863 115.669 81.5863C115.669 81.5863 126.823 84.9945 126.823 100.176V108.748H123.105V98.5237C123.208 88.6091 115.669 85.8207 115.669 85.8207ZM133.226 81.3798V110.814H129.198V81.3798H133.226ZM102.037 81.3798V110.814H98.009V81.3798H102.037Z" fill="white" fill-opacity="0.11"/>
<path fill-rule="evenodd" clip-rule="evenodd" d="M196.432 41.2055L200.459 37.1777C202.525 35.1121 202.525 31.6008 200.459 29.5352C199.427 28.5025 197.981 27.9861 196.638 27.9861C195.296 27.9861 193.85 28.5025 192.817 29.5352L188.789 33.563L184.761 29.5352C183.729 28.5025 182.283 27.9861 180.94 27.9861C179.598 27.9861 178.152 28.5025 177.119 29.5352C175.053 31.6008 175.053 35.1121 177.119 37.1777L181.147 41.2055L177.119 45.2332C175.053 47.2988 175.053 50.8102 177.119 52.8757C178.152 53.9084 179.598 54.4248 180.94 54.4248C182.283 54.4248 183.729 53.9084 184.761 52.8757L188.789 48.8479L192.817 52.8757C193.85 53.9084 195.296 54.4248 196.638 54.4248C197.981 54.4248 199.427 53.9084 200.459 52.8757C202.525 50.8102 202.525 47.2988 200.459 45.2332L196.432 41.2055ZM194.263 31.0844C194.882 30.4647 195.709 30.1549 196.638 30.1549C197.568 30.1549 198.394 30.4647 199.014 31.0844C199.633 31.704 199.943 32.5302 199.943 33.4597C199.943 34.3892 199.633 35.2154 199.014 35.8351L194.986 39.8629L190.338 35.2154L194.263 31.0844ZM193.437 41.2055L188.789 45.8529L184.142 41.2055L188.789 36.558L193.437 41.2055ZM178.668 35.7318C178.048 35.1122 177.739 34.2859 177.739 33.3564C177.739 32.427 178.048 31.6007 178.668 30.9811C179.288 30.3614 180.114 30.0516 181.043 30.0516C181.973 30.0516 182.799 30.3614 183.419 30.9811L187.447 35.0089L182.799 39.6563L178.668 35.7318ZM183.316 51.3265C182.696 51.9462 181.87 52.256 180.94 52.256C180.011 52.256 179.184 51.9462 178.565 51.3265C177.945 50.7069 177.635 49.8807 177.635 48.9512C177.635 48.0217 177.945 47.1955 178.565 46.5758L182.593 42.5481L187.24 47.1955L183.316 51.3265ZM198.91 51.3265C198.291 51.9462 197.464 52.256 196.535 52.256C195.605 52.256 194.779 51.9462 194.16 51.3265L190.132 47.2988L194.779 42.6513L198.807 46.6791C199.427 47.2988 199.736 48.125 199.736 49.0544C199.943 49.8807 199.53 50.7069 198.91 51.3265Z" fill="white" fill-opacity="0.11"/>
<path fill-rule="evenodd" clip-rule="evenodd" d="M63.2053 74.9767C63.9282 74.6668 64.5479 74.4603 65.0643 74.4603C66.5101 74.4603 67.4396 75.3898 68.3691 76.3193L68.6789 76.6291C68.9888 76.8356 69.2986 77.1455 69.6084 77.352C70.2281 77.7651 70.951 77.9717 71.7772 77.9717C72.5002 77.9717 73.2231 77.7651 73.946 77.352C74.2559 77.1455 74.5657 76.9389 74.8755 76.6291L75.1854 76.3193C76.2181 75.3898 77.1476 74.4603 78.4902 74.4603C79.1099 74.4603 79.7295 74.6668 80.3492 74.9767C78.4902 69.503 75.805 63.6163 73.2231 58.4524C72.81 57.523 72.5002 57.2131 71.674 57.2131C70.8477 57.2131 70.5379 57.523 70.1248 58.4524C67.7495 63.7195 65.0643 69.503 63.2053 74.9767C63.102 74.9767 63.102 74.9767 63.2053 74.9767ZM75.805 59.2787C75.2886 59.2787 74.7722 58.8656 74.7722 58.2459C74.7722 57.7295 75.1854 57.2131 75.805 57.2131C76.3214 57.2131 76.8378 57.6262 76.8378 58.2459C76.8378 58.7623 76.3214 59.2787 75.805 59.2787ZM79.9361 59.2787C79.4197 59.2787 78.9033 58.8656 78.9033 58.2459C78.9033 57.7295 79.3164 57.2131 79.9361 57.2131C80.4524 57.2131 80.9688 57.6262 80.9688 58.2459C80.8656 58.7623 80.4524 59.2787 79.9361 59.2787ZM79.9361 67.3342C79.4197 67.3342 78.9033 66.9211 78.9033 66.3015C78.9033 65.7851 79.3164 65.2687 79.9361 65.2687C80.4524 65.2687 80.9688 65.6818 80.9688 66.3015C80.8656 66.9211 80.4524 67.3342 79.9361 67.3342ZM79.9361 63.3064C79.4197 63.3064 78.9033 62.8933 78.9033 62.2737C78.9033 61.7573 79.3164 61.2409 79.9361 61.2409C80.4524 61.2409 80.9688 61.654 80.9688 62.2737C80.8656 62.8933 80.4524 63.3064 79.9361 63.3064ZM83.9638 59.2787C84.4802 59.2787 84.9966 58.8656 84.9966 58.2459C84.9966 57.7295 84.5835 57.2131 83.9638 57.2131C83.4475 57.2131 82.9311 57.6262 82.9311 58.2459C82.9311 58.7623 83.4475 59.2787 83.9638 59.2787ZM83.9638 75.493C84.4802 75.493 84.9966 75.0799 84.9966 74.4603C84.9966 73.9439 84.5835 73.4275 83.9638 73.4275C83.4475 73.4275 82.9311 73.8406 82.9311 74.4603C82.9311 75.0799 83.4475 75.493 83.9638 75.493ZM83.9638 71.4653C84.4802 71.4653 84.9966 71.0522 84.9966 70.4325C84.9966 69.9161 84.5835 69.3997 83.9638 69.3997C83.4475 69.3997 82.9311 69.8129 82.9311 70.4325C82.9311 70.9489 83.4475 71.4653 83.9638 71.4653ZM83.9638 63.3064C84.4802 63.3064 84.9966 62.8933 84.9966 62.2737C84.9966 61.7573 84.5835 61.2409 83.9638 61.2409C83.4475 61.2409 82.9311 61.654 82.9311 62.2737C82.9311 62.8933 83.4475 63.3064 83.9638 63.3064ZM83.9638 67.3342C84.4802 67.3342 84.9966 66.9211 84.9966 66.3015C84.9966 65.7851 84.5835 65.2687 83.9638 65.2687C83.4475 65.2687 82.9311 65.6818 82.9311 66.3015C82.9311 66.9211 83.4475 67.3342 83.9638 67.3342ZM67.6462 59.2787C67.1298 59.2787 66.6134 58.8656 66.6134 58.2459C66.6134 57.7295 67.0265 57.2131 67.6462 57.2131C68.1626 57.2131 68.6789 57.6262 68.6789 58.2459C68.6789 58.7623 68.2658 59.2787 67.6462 59.2787ZM63.6184 59.2787C63.102 59.2787 62.5856 58.8656 62.5856 58.2459C62.5856 57.7295 62.9987 57.2131 63.6184 57.2131C64.1348 57.2131 64.6512 57.6262 64.6512 58.2459C64.5479 58.7623 64.1348 59.2787 63.6184 59.2787ZM63.6184 67.3342C63.102 67.3342 62.5856 66.9211 62.5856 66.3015C62.5856 65.7851 62.9987 65.2687 63.6184 65.2687C64.1348 65.2687 64.6512 65.6818 64.6512 66.3015C64.5479 66.9211 64.1348 67.3342 63.6184 67.3342ZM63.6184 63.3064C63.102 63.3064 62.5856 62.8933 62.5856 62.2737C62.5856 61.7573 62.9987 61.2409 63.6184 61.2409C64.1348 61.2409 64.6512 61.654 64.6512 62.2737C64.5479 62.8933 64.1348 63.3064 63.6184 63.3064ZM59.4874 59.2787C60.0037 59.2787 60.5201 58.8656 60.5201 58.2459C60.5201 57.7295 60.107 57.2131 59.4874 57.2131C58.971 57.2131 58.4546 57.6262 58.4546 58.2459C58.5579 58.7623 58.971 59.2787 59.4874 59.2787ZM59.4874 75.493C60.0037 75.493 60.5201 75.0799 60.5201 74.4603C60.5201 73.9439 60.107 73.4275 59.4874 73.4275C58.971 73.4275 58.4546 73.8406 58.4546 74.4603C58.5579 75.0799 58.971 75.493 59.4874 75.493ZM59.4874 71.4653C60.0037 71.4653 60.5201 71.0522 60.5201 70.4325C60.5201 69.9161 60.107 69.3997 59.4874 69.3997C58.971 69.3997 58.4546 69.8129 58.4546 70.4325C58.5579 70.9489 58.971 71.4653 59.4874 71.4653ZM59.4874 63.3064C60.0037 63.3064 60.5201 62.8933 60.5201 62.2737C60.5201 61.7573 60.107 61.2409 59.4874 61.2409C58.971 61.2409 58.4546 61.654 58.4546 62.2737C58.5579 62.8933 58.971 63.3064 59.4874 63.3064ZM59.4874 67.3342C60.0037 67.3342 60.5201 66.9211 60.5201 66.3015C60.5201 65.7851 60.107 65.2687 59.4874 65.2687C58.971 65.2687 58.4546 65.6818 58.4546 66.3015C58.5579 66.9211 58.971 67.3342 59.4874 67.3342ZM80.7623 76.7324C82.1049 77.5586 84.4802 78.9012 84.9966 79.211C84.8933 79.7274 84.2737 81.4831 81.795 83.7551H73.3264C73.3264 82.206 72.6034 81.07 71.7772 81.07C70.951 81.07 70.2281 82.3093 70.2281 83.7551H61.7594C59.2808 81.4831 58.6611 79.7274 58.5579 79.211C59.0742 78.9012 61.4496 77.5586 62.7922 76.7324L63.102 76.6291C63.4119 76.4225 63.6184 76.3193 63.7217 76.3193C63.825 76.216 64.0315 76.216 64.1348 76.1127H64.2381H64.3413C64.4446 76.1127 64.5479 76.0094 64.6512 76.0094C64.961 75.9061 65.2708 75.9061 65.6839 76.0094C65.7872 76.0094 65.8905 76.1127 65.9938 76.1127C66.3036 76.216 66.5101 76.4225 66.82 76.6291C67.0265 76.7324 67.1298 76.9389 67.3364 77.1455C67.4396 77.2487 67.4396 77.2487 67.5429 77.352L67.956 77.7651C68.2658 78.0749 68.6789 78.3848 69.092 78.5913C70.7445 79.6241 72.9133 79.6241 74.5657 78.5913C74.9788 78.3848 75.3919 78.0749 75.7017 77.7651L75.9083 77.5586C76.0116 77.4553 76.2181 77.2487 76.3214 77.1455C76.5279 76.9389 76.7345 76.8356 76.8378 76.6291C77.1476 76.3193 77.4574 76.216 77.664 76.1127C77.7673 76.1127 77.8705 76.0094 77.9738 76.0094C78.2836 75.9061 78.5935 75.9061 79.0066 76.0094C79.1099 76.0094 79.2131 76.0094 79.3164 76.1127C79.4197 76.1127 79.4197 76.1127 79.523 76.216C79.6262 76.216 79.7295 76.3192 79.9361 76.4225C80.0393 76.5258 80.3492 76.6291 80.5557 76.8356C80.5557 76.6291 80.659 76.6291 80.7623 76.7324Z" fill="white" fill-opacity="0.11"/>
<path fill-rule="evenodd" clip-rule="evenodd" d="M121.143 -0.105162C120.317 -0.518267 119.387 -0.828098 118.458 -1.03465C117.528 -1.2412 116.599 -1.34448 115.669 -1.34448C114.74 -1.34448 113.81 -1.2412 112.881 -1.03465C111.951 -0.828098 111.022 -0.518267 110.196 -0.105162C109.783 0.101391 109.163 0.411215 108.543 0.721044H122.899C122.176 0.411215 121.659 0.101391 121.143 -0.105162ZM130.231 0.721044C130.748 0.721044 131.264 0.307939 131.264 -0.311719C131.264 -0.828101 130.851 -1.34448 130.231 -1.34448C129.715 -1.34448 129.198 -0.931377 129.198 -0.311719C129.302 0.204663 129.715 0.721044 130.231 0.721044ZM134.362 0.721044C134.879 0.721044 135.395 0.307939 135.395 -0.311719C135.395 -0.828101 134.982 -1.34448 134.362 -1.34448C133.743 -1.34448 133.33 -0.931377 133.33 -0.311719C133.33 0.204663 133.846 0.721044 134.362 0.721044ZM138.39 0.721044C138.906 0.721044 139.423 0.307939 139.423 -0.311719C139.423 -0.828101 139.01 -1.34448 138.39 -1.34448C137.874 -1.34448 137.357 -0.931377 137.357 -0.311719C137.461 0.204663 137.874 0.721044 138.39 0.721044ZM138.39 4.74882C138.906 4.74882 139.423 4.33572 139.423 3.71606C139.423 3.19968 139.01 2.6833 138.39 2.6833C137.874 2.6833 137.357 3.0964 137.357 3.71606C137.461 4.33572 137.874 4.74882 138.39 4.74882ZM142.521 0.721044C143.038 0.721044 143.554 0.307939 143.554 -0.311719C143.554 -0.828101 143.141 -1.34448 142.521 -1.34448C141.901 -1.34448 141.488 -0.931377 141.488 -0.311719C141.488 0.204663 141.901 0.721044 142.521 0.721044ZM142.521 2.78657C142.005 2.78657 141.488 3.19968 141.488 3.81933C141.488 4.33572 141.901 4.8521 142.521 4.8521C143.141 4.8521 143.554 4.43899 143.554 3.81933C143.451 3.19968 143.038 2.78657 142.521 2.78657ZM101.004 0.721044C101.52 0.721044 102.037 0.307939 102.037 -0.311719C102.037 -0.828101 101.624 -1.34448 101.004 -1.34448C100.488 -1.34448 99.9713 -0.931377 99.9713 -0.311719C99.9713 0.204663 100.488 0.721044 101.004 0.721044ZM96.9763 0.721044C97.4926 0.721044 98.009 0.307939 98.009 -0.311719C98.009 -0.828101 97.5959 -1.34448 96.9763 -1.34448C96.3566 -1.34448 95.9435 -0.931377 95.9435 -0.311719C95.9435 0.204663 96.3566 0.721044 96.9763 0.721044ZM92.8452 0.721044C93.3616 0.721044 93.878 0.307939 93.878 -0.311719C93.878 -0.828101 93.4649 -1.34448 92.8452 -1.34448C92.3288 -1.34448 91.8124 -0.931377 91.8124 -0.311719C91.8124 0.204663 92.3288 0.721044 92.8452 0.721044ZM92.8452 4.74882C93.3616 4.74882 93.878 4.33572 93.878 3.71606C93.878 3.19968 93.4649 2.6833 92.8452 2.6833C92.3288 2.6833 91.8124 3.0964 91.8124 3.71606C91.8124 4.33572 92.3288 4.74882 92.8452 4.74882ZM88.8174 0.721044C89.3338 0.721044 89.8502 0.307939 89.8502 -0.311719C89.8502 -0.828101 89.4371 -1.34448 88.8174 -1.34448C88.301 -1.34448 87.7847 -0.931377 87.7847 -0.311719C87.7847 0.204663 88.1978 0.721044 88.8174 0.721044ZM88.8174 4.74882C89.3338 4.74882 89.8502 4.33572 89.8502 3.71606C89.8502 3.19968 89.4371 2.6833 88.8174 2.6833C88.301 2.6833 87.7847 3.0964 87.7847 3.71606C87.7847 4.33572 88.1978 4.74882 88.8174 4.74882ZM141.901 9.39626C142.934 9.80936 143.554 10.8421 143.554 11.9782V12.288V25.0943H121.04V16.7289H118.871V25.0943H112.364V16.7289H110.196V25.0943H87.7847V12.288V11.9782C87.7847 10.8421 88.4043 9.91264 89.4371 9.39626C92.6387 7.95039 99.9713 4.54227 105.238 2.16691H125.997C131.367 4.64555 138.7 7.95039 141.901 9.39626ZM108.13 21.5829V16.7289H89.9535V22.9255H106.788C107.51 23.0287 108.13 22.4091 108.13 21.5829ZM141.385 23.0287V16.8322H123.208V21.6861C123.208 22.4091 123.828 23.132 124.551 23.132H141.385V23.0287ZM141.385 14.6633V12.288H89.9535V14.6633H112.468H118.974H141.385Z" fill="white" fill-opacity="0.11"/>
<path fill-rule="evenodd" clip-rule="evenodd" d="M32.5319 83.6519H29.2271V57.2131H55.6658V80.347H35.8367V63.8228H49.0561V73.7373H42.4464V70.4325H45.7513V67.1277H39.1416V77.0422H52.361V60.518H32.5319V83.6519Z" fill="white" fill-opacity="0.11"/>
<path fill-rule="evenodd" clip-rule="evenodd" d="M286.179 34.2859H283.287V15.7994H269.861V34.2859H266.969L266.556 40.2759H286.592L286.179 34.2859ZM284.733 0.721106C285.249 0.721106 285.766 0.308 285.766 -0.311658C285.766 -0.828039 285.353 -1.34442 284.733 -1.34442C284.217 -1.34442 283.7 -0.931316 283.7 -0.311658C283.803 0.204724 284.217 0.721106 284.733 0.721106ZM284.733 4.74888C285.249 4.74888 285.766 4.33578 285.766 3.71612C285.766 3.19974 285.353 2.68336 284.733 2.68336C284.217 2.68336 283.7 3.09646 283.7 3.71612C283.803 4.33578 284.217 4.74888 284.733 4.74888ZM288.864 0.721106C289.38 0.721106 289.897 0.308 289.897 -0.311658C289.897 -0.828039 289.484 -1.34442 288.864 -1.34442C288.244 -1.34442 287.831 -0.931316 287.831 -0.311658C287.831 0.204724 288.244 0.721106 288.864 0.721106ZM288.864 2.78663C288.348 2.78663 287.831 3.19974 287.831 3.8194C287.831 4.33578 288.244 4.85216 288.864 4.85216C289.484 4.85216 289.897 4.43905 289.897 3.8194C289.793 3.19974 289.38 2.78663 288.864 2.78663ZM288.864 31.2909C288.348 31.2909 287.831 31.704 287.831 32.3237C287.831 32.84 288.244 33.3564 288.864 33.3564C289.484 33.3564 289.897 32.9433 289.897 32.3237C289.793 31.704 289.38 31.2909 288.864 31.2909ZM288.864 27.1598C288.348 27.1598 287.831 27.5729 287.831 28.1926C287.831 28.8123 288.244 29.2254 288.864 29.2254C289.484 29.2254 289.897 28.8123 289.897 28.1926C289.897 27.5729 289.38 27.1598 288.864 27.1598ZM288.864 23.1321C288.348 23.1321 287.831 23.5452 287.831 24.1648C287.831 24.6812 288.244 25.1976 288.864 25.1976C289.484 25.1976 289.897 24.7845 289.897 24.1648C289.793 23.5452 289.38 23.1321 288.864 23.1321ZM288.864 19.001C288.348 19.001 287.831 19.4141 287.831 20.0338C287.831 20.5502 288.244 21.0665 288.864 21.0665C289.484 21.0665 289.897 20.6534 289.897 20.0338C289.793 19.5174 289.38 19.001 288.864 19.001ZM288.864 14.9732C288.348 14.9732 287.831 15.3863 287.831 16.006C287.831 16.5224 288.244 17.0388 288.864 17.0388C289.484 17.0388 289.897 16.6257 289.897 16.006C289.793 15.3863 289.38 14.9732 288.864 14.9732ZM288.864 10.9455C288.348 10.9455 287.831 11.3586 287.831 11.9782C287.831 12.4946 288.244 13.011 288.864 13.011C289.484 13.011 289.897 12.5979 289.897 11.9782C289.793 11.3586 289.38 10.9455 288.864 10.9455ZM288.864 6.81441C288.348 6.81441 287.831 7.22752 287.831 7.84717C287.831 8.36355 288.244 8.87994 288.864 8.87994C289.484 8.87994 289.897 8.46683 289.897 7.84717C289.793 7.33079 289.38 6.81441 288.864 6.81441ZM268.519 0.721106C269.035 0.721106 269.551 0.308 269.551 -0.311658C269.551 -0.828039 269.138 -1.34442 268.519 -1.34442C268.002 -1.34442 267.486 -0.931316 267.486 -0.311658C267.486 0.204724 267.899 0.721106 268.519 0.721106ZM268.519 4.74888C269.035 4.74888 269.551 4.33578 269.551 3.71612C269.551 3.19974 269.138 2.68336 268.519 2.68336C268.002 2.68336 267.486 3.09646 267.486 3.71612C267.486 4.33578 267.899 4.74888 268.519 4.74888ZM264.387 0.721106C264.904 0.721106 265.42 0.308 265.42 -0.311658C265.42 -0.828039 265.007 -1.34442 264.387 -1.34442C263.768 -1.34442 263.355 -0.931316 263.355 -0.311658C263.355 0.204724 263.871 0.721106 264.387 0.721106ZM264.387 4.74888C264.904 4.74888 265.42 4.33578 265.42 3.71612C265.42 3.19974 265.007 2.68336 264.387 2.68336C263.768 2.68336 263.355 3.09646 263.355 3.71612C263.355 4.33578 263.871 4.74888 264.387 4.74888ZM264.387 33.2532C264.904 33.2532 265.42 32.84 265.42 32.2204C265.42 31.704 265.007 31.1876 264.387 31.1876C263.768 31.1876 263.355 31.6007 263.355 32.2204C263.355 32.84 263.871 33.2532 264.387 33.2532ZM264.387 29.2254C264.904 29.2254 265.42 28.8123 265.42 28.1926C265.42 27.5729 265.007 27.1598 264.387 27.1598C263.768 27.1598 263.355 27.5729 263.355 28.1926C263.355 28.8123 263.871 29.2254 264.387 29.2254ZM264.387 25.0943C264.904 25.0943 265.42 24.6812 265.42 24.0616C265.42 23.5452 265.007 23.0288 264.387 23.0288C263.768 23.0288 263.355 23.4419 263.355 24.0616C263.355 24.6812 263.871 25.0943 264.387 25.0943ZM264.387 21.0665C264.904 21.0665 265.42 20.6534 265.42 20.0338C265.42 19.5174 265.007 19.001 264.387 19.001C263.768 19.001 263.355 19.4141 263.355 20.0338C263.355 20.6534 263.871 21.0665 264.387 21.0665ZM264.387 17.0388C264.904 17.0388 265.42 16.6257 265.42 16.006C265.42 15.4896 265.007 14.9732 264.387 14.9732C263.768 14.9732 263.355 15.3863 263.355 16.006C263.355 16.5224 263.871 17.0388 264.387 17.0388ZM264.387 12.9077C264.904 12.9077 265.42 12.4946 265.42 11.875C265.42 11.3586 265.007 10.8422 264.387 10.8422C263.768 10.8422 263.355 11.2553 263.355 11.875C263.355 12.4946 263.871 12.9077 264.387 12.9077ZM264.387 8.87994C264.904 8.87994 265.42 8.46683 265.42 7.84717C265.42 7.33079 265.007 6.81441 264.387 6.81441C263.768 6.81441 263.355 7.22752 263.355 7.84717C263.355 8.36355 263.871 8.87994 264.387 8.87994ZM283.39 14.3536L284.63 11.3586H268.725L269.964 14.3536H283.39ZM267.486 9.80943V7.02096H272.65L273.063 1.96043C273.063 1.34077 273.373 0.721104 273.889 0.307999L275.541 -1.03459C276.161 -1.55097 277.09 -1.55097 277.71 -1.03459L279.363 0.307999C279.879 0.721104 280.189 1.23749 280.189 1.96043L280.602 7.02096H285.766V9.80943H267.486ZM287.005 56.2838C286.489 56.5936 285.869 57.11 284.63 57.11C283.597 57.11 282.977 56.8002 282.461 56.387C282.358 56.387 282.358 56.2838 282.254 56.2838C281.841 55.9739 281.428 55.6641 280.602 55.6641C279.776 55.6641 279.466 55.8707 278.949 56.1805C278.433 56.4903 277.813 57.0067 276.574 57.0067C275.438 57.0067 274.715 56.5936 274.199 56.1805C273.786 55.8707 273.373 55.6641 272.546 55.6641C271.72 55.6641 271.41 55.9739 270.894 56.2838C270.791 56.2838 270.791 56.387 270.687 56.387C270.171 56.6969 269.551 57.11 268.519 57.11C267.279 57.11 266.66 56.6969 266.143 56.2838C265.833 56.0772 265.627 55.9739 265.317 55.8707L263.251 83.652H289.69L287.625 55.8707C287.521 55.9739 287.212 56.1805 287.005 56.2838ZM268.519 79.6242C268.002 79.6242 267.486 79.2111 267.486 78.5915C267.486 78.0751 267.899 77.5587 268.519 77.5587C269.035 77.5587 269.551 77.9718 269.551 78.5915C269.448 79.2111 269.035 79.6242 268.519 79.6242ZM268.519 75.5965C268.002 75.5965 267.486 75.1833 267.486 74.5637C267.486 74.0473 267.899 73.5309 268.519 73.5309C269.035 73.5309 269.551 73.944 269.551 74.5637C269.448 75.0801 269.035 75.5965 268.519 75.5965ZM268.519 71.5687C268.002 71.5687 267.486 71.1556 267.486 70.5359C267.486 70.0195 267.899 69.5031 268.519 69.5031C269.035 69.5031 269.551 69.9162 269.551 70.5359C269.448 71.0523 269.035 71.5687 268.519 71.5687ZM272.546 79.6242C272.03 79.6242 271.514 79.2111 271.514 78.5915C271.514 78.0751 271.927 77.5587 272.546 77.5587C273.063 77.5587 273.579 77.9718 273.579 78.5915C273.579 79.2111 273.063 79.6242 272.546 79.6242ZM272.546 75.5965C272.03 75.5965 271.514 75.1833 271.514 74.5637C271.514 74.0473 271.927 73.5309 272.546 73.5309C273.063 73.5309 273.579 73.944 273.579 74.5637C273.579 75.0801 273.063 75.5965 272.546 75.5965ZM272.546 71.5687C272.03 71.5687 271.514 71.1556 271.514 70.5359C271.514 70.0195 271.927 69.5031 272.546 69.5031C273.063 69.5031 273.579 69.9162 273.579 70.5359C273.579 71.0523 273.063 71.5687 272.546 71.5687ZM276.574 79.6242C276.058 79.6242 275.541 79.2111 275.541 78.5915C275.541 78.0751 275.954 77.5587 276.574 77.5587C277.09 77.5587 277.607 77.9718 277.607 78.5915C277.607 79.2111 277.194 79.6242 276.574 79.6242ZM276.574 75.5965C276.058 75.5965 275.541 75.1833 275.541 74.5637C275.541 74.0473 275.954 73.5309 276.574 73.5309C277.09 73.5309 277.607 73.944 277.607 74.5637C277.607 75.0801 277.194 75.5965 276.574 75.5965ZM276.574 71.5687C276.058 71.5687 275.541 71.1556 275.541 70.5359C275.541 70.0195 275.954 69.5031 276.574 69.5031C277.09 69.5031 277.607 69.9162 277.607 70.5359C277.607 71.0523 277.194 71.5687 276.574 71.5687ZM280.705 79.6242C280.189 79.6242 279.672 79.2111 279.672 78.5915C279.672 78.0751 280.085 77.5587 280.705 77.5587C281.222 77.5587 281.738 77.9718 281.738 78.5915C281.738 79.2111 281.222 79.6242 280.705 79.6242ZM280.705 75.5965C280.189 75.5965 279.672 75.1833 279.672 74.5637C279.672 74.0473 280.085 73.5309 280.705 73.5309C281.222 73.5309 281.738 73.944 281.738 74.5637C281.738 75.0801 281.222 75.5965 280.705 75.5965ZM280.705 71.5687C280.189 71.5687 279.672 71.1556 279.672 70.5359C279.672 70.0195 280.085 69.5031 280.705 69.5031C281.222 69.5031 281.738 69.9162 281.738 70.5359C281.738 71.0523 281.222 71.5687 280.705 71.5687ZM284.733 79.6242C284.217 79.6242 283.7 79.2111 283.7 78.5915C283.7 78.0751 284.113 77.5587 284.733 77.5587C285.249 77.5587 285.766 77.9718 285.766 78.5915C285.766 79.2111 285.353 79.6242 284.733 79.6242ZM284.733 75.5965C284.217 75.5965 283.7 75.1833 283.7 74.5637C283.7 74.0473 284.113 73.5309 284.733 73.5309C285.249 73.5309 285.766 73.944 285.766 74.5637C285.766 75.0801 285.353 75.5965 284.733 75.5965ZM284.733 71.5687C284.217 71.5687 283.7 71.1556 283.7 70.5359C283.7 70.0195 284.113 69.5031 284.733 69.5031C285.249 69.5031 285.766 69.9162 285.766 70.5359C285.766 71.0523 285.353 71.5687 284.733 71.5687ZM268.622 55.8707C267.796 55.8707 267.486 55.5608 266.969 55.251C266.556 55.0444 266.143 54.7346 265.524 54.5281L266.453 41.7218H286.695L287.625 54.5281C287.005 54.6313 286.592 54.9412 286.179 55.251C285.766 55.5608 285.353 55.8707 284.526 55.8707C283.7 55.8707 283.39 55.5608 282.874 55.251C282.564 55.0444 282.151 54.7346 281.531 54.6314C281.531 54.6314 281.531 54.6314 281.428 54.6314C281.325 54.6314 281.222 54.5281 281.015 54.5281H280.912C280.705 54.5281 280.602 54.5281 280.395 54.5281C279.776 54.5281 279.363 54.6313 278.949 54.8379C278.536 54.9412 278.33 55.1477 278.02 55.3543C277.504 55.6641 277.194 55.9739 276.368 55.9739C275.541 55.9739 275.231 55.6641 274.715 55.3543C274.509 55.1477 274.199 54.9412 273.786 54.8379C273.373 54.7346 272.959 54.5281 272.34 54.5281C272.133 54.5281 272.03 54.5281 271.823 54.5281H271.72C271.617 54.5281 271.514 54.5281 271.307 54.6314C271.307 54.6314 271.307 54.6314 271.204 54.6314C270.687 54.8379 270.274 55.0444 269.861 55.251C269.758 55.5608 269.448 55.8707 268.622 55.8707ZM272.65 20.5502H280.602V34.3892H278.846V27.4697C278.846 24.4747 276.574 23.6485 276.574 23.6485C276.574 23.6485 274.302 24.4747 274.302 27.4697V34.2859H272.546V20.5502H272.65Z" fill="white" fill-opacity="0.11"/>
<path fill-rule="evenodd" clip-rule="evenodd" d="M88.8174 29.9483C89.3338 29.9483 89.8502 29.5352 89.8502 28.9156C89.8502 28.3992 89.4371 27.8828 88.8174 27.8828C88.301 27.8828 87.7847 28.2959 87.7847 28.9156C87.7847 29.5352 88.1978 29.9483 88.8174 29.9483ZM109.163 48.3315C108.646 48.3315 108.13 48.7446 108.13 49.3643C108.13 49.8807 108.543 50.3971 109.163 50.3971C109.679 50.3971 110.196 49.9839 110.196 49.3643C110.196 48.7446 109.679 48.3315 109.163 48.3315ZM113.191 52.3593C112.674 52.3593 112.158 52.7724 112.158 53.3921C112.158 53.9085 112.571 54.4248 113.191 54.4248C113.707 54.4248 114.223 54.0117 114.223 53.3921C114.223 52.8757 113.81 52.3593 113.191 52.3593ZM113.191 44.2005C112.674 44.2005 112.158 44.6136 112.158 45.2332C112.158 45.7496 112.571 46.266 113.191 46.266C113.707 46.266 114.223 45.8529 114.223 45.2332C114.223 44.7169 113.81 44.2005 113.191 44.2005ZM113.191 48.3315C112.674 48.3315 112.158 48.7446 112.158 49.3643C112.158 49.8807 112.571 50.3971 113.191 50.3971C113.707 50.3971 114.223 49.9839 114.223 49.3643C114.223 48.7446 113.81 48.3315 113.191 48.3315ZM92.8452 48.3315C92.3288 48.3315 91.8124 48.7446 91.8124 49.3643C91.8124 49.8807 92.2255 50.3971 92.8452 50.3971C93.3616 50.3971 93.878 49.9839 93.878 49.3643C93.878 48.7446 93.4649 48.3315 92.8452 48.3315ZM88.8174 52.3593C88.301 52.3593 87.7847 52.7724 87.7847 53.3921C87.7847 53.9085 88.1978 54.4248 88.8174 54.4248C89.3338 54.4248 89.8502 54.0117 89.8502 53.3921C89.8502 52.8757 89.3338 52.3593 88.8174 52.3593ZM88.8174 44.2005C88.301 44.2005 87.7847 44.6136 87.7847 45.2332C87.7847 45.7496 88.1978 46.266 88.8174 46.266C89.3338 46.266 89.8502 45.8529 89.8502 45.2332C89.8502 44.7169 89.3338 44.2005 88.8174 44.2005ZM88.8174 48.3315C88.301 48.3315 87.7847 48.7446 87.7847 49.3643C87.7847 49.8807 88.1978 50.3971 88.8174 50.3971C89.3338 50.3971 89.8502 49.9839 89.8502 49.3643C89.8502 48.7446 89.3338 48.3315 88.8174 48.3315ZM107.201 52.7724C107.614 52.7724 108.027 53.0822 108.027 53.4953C108.13 54.0117 107.717 54.4248 107.201 54.4248H94.6009C94.0845 54.4248 93.6714 54.0117 93.7747 53.4953C93.878 53.0822 94.1878 52.7724 94.6009 52.7724C95.9435 52.7724 97.2861 51.9462 97.8025 50.7069C98.1123 49.984 98.3188 48.125 98.4221 47.402C99.2483 47.5053 99.9713 47.6086 100.797 47.6086C101.624 47.6086 102.45 47.5053 103.173 47.402C103.276 48.125 103.483 49.984 103.792 50.7069C104.619 51.9462 105.858 52.7724 107.201 52.7724ZM89.024 36.2482C89.8502 36.2482 90.16 35.9384 90.6764 35.6285C91.1928 35.3187 91.8124 34.8023 93.0518 34.8023C94.0845 34.8023 94.7042 35.1122 95.2206 35.5253C95.3238 35.5253 95.3238 35.6285 95.4271 35.6285C95.8402 35.9384 96.2533 36.2482 97.0795 36.2482C97.9057 36.2482 98.2156 36.0416 98.732 35.7318C99.2483 35.422 99.868 34.9056 101.107 34.9056C102.347 34.9056 102.966 35.3187 103.483 35.7318C103.896 36.0416 104.309 36.2482 105.135 36.2482C105.961 36.2482 106.271 35.9384 106.788 35.6285C106.891 35.6285 106.891 35.5253 106.994 35.5253C107.51 35.2154 108.13 34.8023 109.163 34.8023C110.402 34.8023 111.022 35.2154 111.538 35.6285C111.951 35.9384 112.364 36.2482 113.191 36.2482C113.5 36.2482 113.81 36.2482 114.017 36.1449C114.223 35.1122 114.43 34.0794 114.43 33.0466H87.7847C87.7847 34.0794 87.8879 35.1122 88.1978 36.1449C88.4043 36.1449 88.6109 36.2482 89.024 36.2482ZM112.984 37.4875C113.087 37.4875 113.294 37.4875 113.397 37.4875C111.538 42.6513 106.684 46.3693 101.004 46.3693C95.3238 46.3693 90.4698 42.6513 88.6109 37.4875C88.7142 37.4875 88.9207 37.4875 89.024 37.4875C90.2633 37.4875 90.883 37.0744 91.3993 36.6613C91.9157 36.3515 92.2255 36.0417 93.0518 36.0417C93.878 36.0417 94.1878 36.3515 94.7042 36.6613C95.014 36.8679 95.4271 37.1777 96.0468 37.281C96.0468 37.281 96.0468 37.281 96.15 37.281C96.2533 37.281 96.3566 37.3842 96.5632 37.3842H96.6664C96.873 37.3842 96.9763 37.3842 97.1828 37.3842C97.8025 37.3842 98.2156 37.281 98.6287 37.0744C99.0418 36.9711 99.2483 36.7646 99.5582 36.558C100.075 36.2482 100.384 35.9384 101.211 35.9384C102.037 35.9384 102.347 36.2482 102.863 36.558C103.07 36.7646 103.379 36.9711 103.792 37.0744C104.206 37.1777 104.619 37.3842 105.238 37.3842C105.445 37.3842 105.548 37.3842 105.755 37.3842H105.858C105.961 37.3842 106.065 37.3842 106.271 37.281C106.271 37.281 106.271 37.281 106.374 37.281C106.891 37.0744 107.304 36.8679 107.717 36.6613C108.13 36.3515 108.543 36.0417 109.369 36.0417C110.196 36.0417 110.505 36.3515 111.022 36.6613C111.125 37.0744 111.848 37.4875 112.984 37.4875ZM93.0518 39.553C93.5681 39.553 94.0845 39.1399 94.0845 38.5203C94.0845 38.0039 93.6714 37.4875 93.0518 37.4875C92.5354 37.4875 92.019 37.9006 92.019 38.5203C92.019 39.1399 92.5354 39.553 93.0518 39.553ZM101.004 39.553C101.52 39.553 102.037 39.1399 102.037 38.5203C102.037 38.0039 101.624 37.4875 101.004 37.4875C100.488 37.4875 99.9713 37.9006 99.9713 38.5203C99.9713 39.1399 100.488 39.553 101.004 39.553ZM108.956 39.553C109.473 39.553 109.989 39.1399 109.989 38.5203C109.989 38.0039 109.576 37.4875 108.956 37.4875C108.44 37.4875 107.924 37.9006 107.924 38.5203C108.027 39.1399 108.44 39.553 108.956 39.553ZM113.191 29.9483C113.707 29.9483 114.223 29.5352 114.223 28.9156C114.223 28.3992 113.81 27.8828 113.191 27.8828C112.674 27.8828 112.158 28.2959 112.158 28.9156C112.261 29.5352 112.674 29.9483 113.191 29.9483ZM109.163 29.9483C109.679 29.9483 110.196 29.5352 110.196 28.9156C110.196 28.3992 109.783 27.8828 109.163 27.8828C108.646 27.8828 108.13 28.2959 108.13 28.9156C108.13 29.5352 108.646 29.9483 109.163 29.9483ZM105.135 29.9483C105.651 29.9483 106.168 29.5352 106.168 28.9156C106.168 28.3992 105.755 27.8828 105.135 27.8828C104.515 27.8828 104.102 28.2959 104.102 28.9156C104.102 29.5352 104.515 29.9483 105.135 29.9483ZM101.004 29.9483C101.52 29.9483 102.037 29.5352 102.037 28.9156C102.037 28.3992 101.624 27.8828 101.004 27.8828C100.488 27.8828 99.9713 28.2959 99.9713 28.9156C99.9713 29.5352 100.488 29.9483 101.004 29.9483ZM96.9763 29.9483C97.4926 29.9483 98.009 29.5352 98.009 28.9156C98.009 28.3992 97.5959 27.8828 96.9763 27.8828C96.4599 27.8828 95.9435 28.2959 95.9435 28.9156C95.9435 29.5352 96.3566 29.9483 96.9763 29.9483ZM92.8452 29.9483C93.3616 29.9483 93.878 29.5352 93.878 28.9156C93.878 28.3992 93.4649 27.8828 92.8452 27.8828C92.3288 27.8828 91.8124 28.2959 91.8124 28.9156C91.8124 29.5352 92.3288 29.9483 92.8452 29.9483Z" fill="white" fill-opacity="0.11"/>
<path fill-rule="evenodd" clip-rule="evenodd" d="M209.651 20.2403C209.754 20.2403 209.754 20.2403 209.651 20.2403C211.304 20.137 212.336 19.2075 212.44 17.6584V17.4518C212.646 15.7994 212.853 13.9404 212.956 12.5978C212.956 11.8749 213.472 11.0487 214.402 10.8421C214.505 10.8421 214.608 10.8421 214.712 10.8421C215.538 10.8421 216.261 10.8421 216.777 10.8421C216.674 14.4568 216.364 19.5173 215.538 21.0665C215.435 21.273 215.538 21.4796 215.744 21.4796H219.979C220.185 21.4796 220.289 21.273 220.185 21.0665C219.359 19.5173 219.049 14.4568 218.946 10.8421C219.462 10.8421 220.185 10.8421 221.012 10.8421C221.115 10.8421 221.218 10.8421 221.321 10.8421C222.354 10.9454 222.767 11.8749 222.767 12.5978C222.87 13.9404 223.077 15.7994 223.18 17.3485V17.5551C223.387 19.1042 224.316 20.0337 225.969 20.137C225.969 20.137 225.969 20.137 226.072 20.137C226.485 20.137 226.898 19.8272 226.898 19.3108C226.898 18.8977 226.588 18.4846 226.072 18.3813C225.143 18.278 224.936 17.7616 224.833 17.2453V17.0387C224.626 15.3863 224.42 13.6306 224.42 12.288C224.316 10.5323 223.077 9.1897 221.425 8.98315C221.218 8.98315 221.115 8.98315 220.908 8.98315C220.082 8.98315 219.359 8.98315 218.739 8.98315C218.739 8.57005 218.739 8.26022 218.739 7.95039C219.772 7.53728 220.495 6.71108 220.702 5.57504H222.87C223.284 5.57504 223.697 5.16193 223.697 4.74882C223.697 4.33572 223.284 3.92261 222.87 3.92261H220.598C220.185 2.78657 219.049 1.96037 217.707 1.96037C215.951 1.96037 214.608 3.40623 214.608 5.05866C214.608 6.40125 215.435 7.53728 216.674 7.95039C216.674 8.26022 216.674 8.57005 216.674 8.98315C216.054 8.98315 215.331 8.98315 214.505 8.98315C214.299 8.98315 214.195 8.98315 213.989 8.98315C212.336 9.1897 211.097 10.429 210.994 12.288C210.89 13.6306 210.684 15.3863 210.581 17.0387V17.2453C210.477 17.7616 210.374 18.278 209.341 18.3813C208.928 18.3813 208.515 18.7944 208.515 19.3108C208.928 19.9305 209.238 20.2403 209.651 20.2403ZM209.961 8.7766C209.445 8.7766 208.928 8.3635 208.928 7.74384C208.928 7.22746 209.341 6.71107 209.961 6.71107C210.477 6.71107 210.994 7.12418 210.994 7.74384C210.89 8.3635 210.477 8.7766 209.961 8.7766ZM226.175 8.7766C225.659 8.7766 225.143 8.3635 225.143 7.74384C225.143 7.22746 225.556 6.71107 226.175 6.71107C226.692 6.71107 227.208 7.12418 227.208 7.74384C227.208 8.3635 226.795 8.7766 226.175 8.7766ZM230.203 -1.34448C230.823 -1.34448 231.339 -0.828102 231.339 -0.208444V23.9582C231.339 24.5779 230.823 25.0943 230.203 25.0943H206.036C205.417 25.0943 204.9 24.5779 204.9 23.9582V-0.208444C204.9 -0.828102 205.417 -1.34448 206.036 -1.34448H230.203ZM229.17 23.0287H206.966V0.824319H229.17V23.0287ZM218.12 3.71606C218.946 3.71606 219.566 4.33572 219.566 5.16193C219.566 5.98814 218.946 6.6078 218.12 6.6078C217.294 6.6078 216.674 5.98814 216.674 5.16193C216.674 4.33572 217.294 3.71606 218.12 3.71606Z" fill="white" fill-opacity="0.11"/>
<path fill-rule="evenodd" clip-rule="evenodd" d="M200.873 57.2131H176.706C176.086 57.2131 175.57 57.7295 175.57 58.3492V82.5158C175.57 83.1355 176.086 83.6519 176.706 83.6519H200.873C201.492 83.6519 202.009 83.1355 202.009 82.5158V58.3492C202.009 57.7295 201.492 57.2131 200.873 57.2131ZM199.943 70.4325C197.774 68.9866 195.709 67.3342 193.85 65.4752C191.991 63.6163 190.338 61.5507 188.892 59.3819H199.943V70.4325ZM188.789 70.4325V77.8684C187.756 76.4225 186.517 75.1832 185.278 73.9439C184.038 72.7046 182.696 71.5685 181.25 70.4325H188.789V62.9966C189.822 64.4425 191.061 65.6818 192.301 66.9211C193.54 68.1604 194.882 69.2965 196.328 70.4325H188.789ZM177.739 81.5863V59.3819H188.789C187.756 60.9311 186.62 62.377 185.484 63.7195C184.968 64.3392 184.452 64.8556 183.832 65.4752C183.316 65.9916 182.696 66.508 182.076 67.0244C180.734 68.2637 179.184 69.3997 177.635 70.4325C179.804 71.8784 181.87 73.5308 183.729 75.3898C185.588 77.2487 187.24 79.3143 188.686 81.4831C190.132 79.3143 191.784 77.2487 193.643 75.3898C194.366 74.6668 195.089 74.0472 195.812 73.3242C196.638 72.6013 197.568 71.8784 198.497 71.2587C198.91 70.9489 199.323 70.6391 199.736 70.3292V81.3798H177.739V81.5863Z" fill="white" fill-opacity="0.11"/>
<path fill-rule="evenodd" clip-rule="evenodd" d="M218.12 62.1704C218.946 62.1704 219.669 62.2737 220.392 62.4802C220.392 62.4802 220.392 60.518 219.049 59.4852C218.016 58.659 218.12 57.9361 218.429 57.4197C218.533 57.3164 218.326 57.2131 218.223 57.2131C217.293 57.6262 215.124 58.9688 215.951 62.4802C216.57 62.2737 217.293 62.1704 218.12 62.1704ZM230.306 81.6896C229.79 81.6896 229.273 82.1027 229.273 82.7224C229.273 83.2388 229.686 83.7551 230.306 83.7551C230.823 83.7551 231.339 83.342 231.339 82.7224C231.339 82.1027 230.823 81.6896 230.306 81.6896ZM205.83 81.6896C205.313 81.6896 204.797 82.1027 204.797 82.7224C204.797 83.2388 205.21 83.7551 205.83 83.7551C206.346 83.7551 206.862 83.342 206.862 82.7224C206.862 82.1027 206.449 81.6896 205.83 81.6896ZM230.306 59.2787C230.823 59.2787 231.339 58.8656 231.339 58.2459C231.339 57.7295 230.926 57.2131 230.306 57.2131C229.79 57.2131 229.273 57.6262 229.273 58.2459C229.273 58.7623 229.79 59.2787 230.306 59.2787ZM205.83 59.2787C206.346 59.2787 206.862 58.8656 206.862 58.2459C206.862 57.7295 206.449 57.2131 205.83 57.2131C205.313 57.2131 204.797 57.6262 204.797 58.2459C204.9 58.7623 205.313 59.2787 205.83 59.2787ZM218.429 77.0422C221.837 76.8356 224.626 73.9439 224.626 70.5358C224.626 66.9211 221.734 63.9261 218.016 63.9261C216.983 63.9261 215.951 64.1326 215.125 64.649C212.233 66.508 212.543 69.6063 212.543 69.6063C212.543 70.5358 212.852 71.362 213.472 72.0849C213.782 72.498 214.195 72.8079 214.505 73.1177C215.538 73.8406 216.777 73.8406 217.603 73.5308C218.429 73.3242 219.049 72.8079 219.256 72.2915C219.565 71.7751 219.669 71.5685 219.669 71.1554C219.875 69.9161 219.359 68.7801 218.429 68.367C217.5 67.9539 216.88 68.1604 216.57 68.367C216.467 68.367 216.364 68.4703 216.364 68.5735C216.364 68.6768 216.467 68.6768 216.57 68.6768C216.674 68.6768 216.777 68.6768 216.88 68.6768C217.397 68.7801 217.913 69.0899 218.12 69.6063C218.223 69.9161 218.326 70.1227 218.326 70.4325C218.326 71.1554 217.81 71.7751 217.087 71.9817C215.951 72.2915 214.505 71.6718 214.402 69.9161C214.402 68.9866 214.608 68.2637 215.021 67.8506C215.641 67.0244 216.57 66.6113 217.603 66.508C218.636 66.4047 219.462 66.8178 220.185 67.3342C221.528 68.367 222.147 70.1227 221.734 71.7751C221.321 73.4275 220.082 74.9767 217.81 75.3898C216.261 75.6996 214.918 75.1832 213.988 74.5636C212.749 73.7374 212.129 72.6013 212.026 72.6013C211.923 72.498 211.923 72.498 211.82 72.6013C211.82 72.7046 211.82 72.8079 211.82 72.8079C211.82 72.9111 211.82 73.0144 211.82 73.1177C211.923 73.5308 212.026 73.9439 212.336 74.2537C212.646 74.7701 213.162 75.2865 213.575 75.6996L213.679 75.8029C213.782 75.9062 213.885 76.0094 213.988 76.0094C215.331 76.6291 216.88 77.1455 218.429 77.0422ZM210.89 66.3015C207.895 64.4425 208.412 61.9638 208.825 60.9311C208.825 60.8278 209.031 60.8278 209.134 60.9311C209.341 61.5507 209.754 62.0671 211.097 61.9638C212.852 61.7573 214.195 63.0999 214.195 63.0999C212.749 63.9261 211.716 65.0621 210.89 66.3015ZM205.107 70.1227C205.003 70.0194 204.9 70.226 204.9 70.3292C205.313 71.2587 206.656 73.4275 210.167 72.6013C209.961 71.8784 209.857 71.1554 209.857 70.4325C209.857 69.6063 209.961 68.8834 210.167 68.1604C210.167 68.1604 208.205 68.1604 207.172 69.503C206.346 70.5358 205.623 70.4325 205.107 70.1227ZM210.89 74.4603C211.613 75.8029 212.749 76.8356 213.988 77.6619C212.129 80.6569 209.651 80.1405 208.618 79.7274C208.515 79.7274 208.515 79.5208 208.618 79.4175C209.238 79.211 209.754 78.7979 209.651 77.4553C209.444 75.8029 210.89 74.4603 210.89 74.4603ZM218.12 78.6946C217.293 78.6946 216.57 78.5913 215.847 78.3848C215.847 78.3848 215.847 80.347 217.19 81.3798C218.223 82.206 218.12 82.9289 217.81 83.4453C217.706 83.5486 217.913 83.6519 218.016 83.6519C218.946 83.2388 221.115 81.8962 220.288 78.3848C219.565 78.5913 218.842 78.6946 218.12 78.6946ZM225.246 74.5636C228.241 76.4225 227.724 78.9012 227.311 79.9339C227.311 80.0372 227.105 80.0372 227.001 79.9339C226.795 79.3143 226.382 78.7979 225.039 78.9012C223.283 79.1077 221.941 77.7651 221.941 77.7651C223.387 76.9389 224.419 75.9062 225.246 74.5636ZM231.132 70.7423C231.236 70.8456 231.339 70.6391 231.339 70.5358C230.926 69.6063 229.583 67.4375 226.072 68.2637C226.278 68.9866 226.382 69.7096 226.382 70.4325C226.382 71.2587 226.278 71.9817 226.072 72.7046C226.175 72.7046 228.034 72.7046 229.067 71.362C229.79 70.4325 230.513 70.4325 231.132 70.7423ZM225.349 66.508C224.626 65.1654 223.49 64.1326 222.251 63.3064C224.11 60.3114 226.588 60.8278 227.621 61.2409C227.724 61.2409 227.724 61.4475 227.621 61.5507C227.001 61.7573 226.485 62.1704 226.588 63.513C226.691 65.1654 225.349 66.508 225.349 66.508Z" fill="white" fill-opacity="0.11"/>
<path fill-rule="evenodd" clip-rule="evenodd" d="M10.3276 4.12917C10.3276 3.61278 9.91453 3.19968 9.29487 3.19968C8.77849 3.19968 8.2621 3.61278 8.2621 4.12917V12.4945H0C0.103276 15.1797 1.03276 17.6584 2.58191 19.7239H10.3276V4.12917ZM18.0734 12.4945V4.12917C18.0734 3.61278 17.6603 3.19968 17.0406 3.19968C16.5242 3.19968 16.0078 3.61278 16.0078 4.12917V19.7239H23.7536C25.3027 17.6584 26.2322 15.1797 26.3355 12.4945H18.0734ZM5.6802 4.12917V9.91264H0.103276C1.03276 3.50951 6.50641 -1.34448 13.2194 -1.34448C19.8291 -1.34448 25.3027 3.50951 26.3355 9.91264H20.7585V4.12917C20.7585 2.16692 19.1061 0.61777 17.1439 0.61777C15.5947 0.61777 14.2521 1.54725 13.7358 2.88985H12.703C12.1866 1.54725 10.844 0.61777 9.29487 0.61777C8.77849 0.61777 8.15883 0.721047 7.74572 1.03088C6.50641 1.65053 5.6802 2.78657 5.6802 4.12917ZM13.2194 25.0943C16.3177 25.0943 19.2094 24.0615 21.4815 22.2025H4.95726C7.22934 24.0615 10.1211 25.0943 13.2194 25.0943Z" fill="white" fill-opacity="0.11"/>
<path fill-rule="evenodd" clip-rule="evenodd" d="M244.455 33.4597C244.455 32.9434 244.042 32.5302 243.422 32.5302C242.906 32.5302 242.39 32.9434 242.39 33.4597V41.8251H234.127C234.231 44.5103 235.16 46.9889 236.709 49.0544H244.455V33.4597ZM252.201 41.7218V33.3564C252.201 32.8401 251.788 32.427 251.168 32.427C250.652 32.427 250.135 32.8401 250.135 33.3564V48.9512H257.881C259.43 46.8857 260.36 44.407 260.463 41.7218H252.201ZM239.808 33.4597V39.2432H234.231C235.16 32.8401 240.634 27.9861 247.347 27.9861C253.956 27.9861 259.43 32.8401 260.463 39.2432H254.886V33.4597C254.886 31.4975 253.234 29.9483 251.271 29.9483C249.722 29.9483 248.38 30.8778 247.863 32.2204H246.83C246.314 30.8778 244.971 29.9483 243.422 29.9483C242.906 29.9483 242.286 30.0516 241.873 30.3614C240.634 30.8778 239.808 32.0139 239.808 33.4597ZM247.347 54.4248C250.445 54.4248 253.337 53.3921 255.609 51.5331H239.188C241.357 53.2888 244.249 54.4248 247.347 54.4248Z" fill="white" fill-opacity="0.11"/>
<path fill-rule="evenodd" clip-rule="evenodd" d="M150.99 45.7496C151.713 45.4398 152.332 45.2332 152.849 45.2332C154.295 45.2332 155.224 46.1627 156.154 47.0922L156.463 47.402C156.773 47.6086 157.083 47.9184 157.393 48.125C158.013 48.5381 158.735 48.7446 159.562 48.7446C160.285 48.7446 161.008 48.5381 161.73 48.125C162.04 47.9184 162.35 47.7119 162.66 47.402L162.97 47.0922C164.003 46.1627 164.932 45.2332 166.275 45.2332C166.894 45.2332 167.514 45.4398 168.134 45.7496C166.275 40.276 163.589 34.3892 161.008 29.2254C160.594 28.2959 160.285 27.9861 159.458 27.9861C158.632 27.9861 158.322 28.2959 157.909 29.2254C155.534 34.3892 152.849 40.276 150.99 45.7496ZM163.589 29.9483C163.073 29.9483 162.557 29.5352 162.557 28.9156C162.557 28.3992 162.97 27.8828 163.589 27.8828C164.106 27.8828 164.622 28.2959 164.622 28.9156C164.622 29.5352 164.209 29.9483 163.589 29.9483ZM167.72 29.9483C167.204 29.9483 166.688 29.5352 166.688 28.9156C166.688 28.3992 167.101 27.8828 167.72 27.8828C168.34 27.8828 168.753 28.2959 168.753 28.9156C168.753 29.5352 168.237 29.9483 167.72 29.9483ZM167.72 38.1072C167.204 38.1072 166.688 37.6941 166.688 37.0744C166.688 36.558 167.101 36.0417 167.72 36.0417C168.34 36.0417 168.753 36.4548 168.753 37.0744C168.753 37.6941 168.237 38.1072 167.72 38.1072ZM167.72 34.0794C167.204 34.0794 166.688 33.6663 166.688 33.0466C166.688 32.5302 167.101 32.0139 167.72 32.0139C168.34 32.0139 168.753 32.427 168.753 33.0466C168.753 33.563 168.237 34.0794 167.72 34.0794ZM171.748 29.9483C172.265 29.9483 172.781 29.5352 172.781 28.9156C172.781 28.3992 172.368 27.8828 171.748 27.8828C171.129 27.8828 170.716 28.2959 170.716 28.9156C170.716 29.5352 171.232 29.9483 171.748 29.9483ZM171.748 46.266C172.265 46.266 172.781 45.8529 172.781 45.2332C172.781 44.7169 172.368 44.2005 171.748 44.2005C171.129 44.2005 170.716 44.6136 170.716 45.2332C170.716 45.8529 171.232 46.266 171.748 46.266ZM171.748 42.1349C172.265 42.1349 172.781 41.7218 172.781 41.1022C172.781 40.5858 172.368 40.0694 171.748 40.0694C171.129 40.0694 170.716 40.4825 170.716 41.1022C170.716 41.7218 171.232 42.1349 171.748 42.1349ZM171.748 34.0794C172.265 34.0794 172.781 33.6663 172.781 33.0466C172.781 32.5302 172.368 32.0139 171.748 32.0139C171.129 32.0139 170.716 32.427 170.716 33.0466C170.716 33.563 171.232 34.0794 171.748 34.0794ZM171.748 38.1072C172.265 38.1072 172.781 37.6941 172.781 37.0744C172.781 36.558 172.368 36.0417 171.748 36.0417C171.129 36.0417 170.716 36.4548 170.716 37.0744C170.716 37.6941 171.232 38.1072 171.748 38.1072ZM155.431 29.9483C154.914 29.9483 154.398 29.5352 154.398 28.9156C154.398 28.3992 154.811 27.8828 155.431 27.8828C155.947 27.8828 156.463 28.2959 156.463 28.9156C156.463 29.5352 156.05 29.9483 155.431 29.9483ZM151.403 29.9483C150.886 29.9483 150.37 29.5352 150.37 28.9156C150.37 28.3992 150.783 27.8828 151.403 27.8828C151.919 27.8828 152.436 28.2959 152.436 28.9156C152.436 29.5352 151.919 29.9483 151.403 29.9483ZM151.403 38.1072C150.886 38.1072 150.37 37.6941 150.37 37.0744C150.37 36.558 150.783 36.0417 151.403 36.0417C151.919 36.0417 152.436 36.4548 152.436 37.0744C152.436 37.6941 151.919 38.1072 151.403 38.1072ZM151.403 34.0794C150.886 34.0794 150.37 33.6663 150.37 33.0466C150.37 32.5302 150.783 32.0139 151.403 32.0139C151.919 32.0139 152.436 32.427 152.436 33.0466C152.436 33.563 151.919 34.0794 151.403 34.0794ZM147.375 29.9483C147.891 29.9483 148.408 29.5352 148.408 28.9156C148.408 28.3992 147.995 27.8828 147.375 27.8828C146.859 27.8828 146.342 28.2959 146.342 28.9156C146.342 29.5352 146.755 29.9483 147.375 29.9483ZM147.375 46.266C147.891 46.266 148.408 45.8529 148.408 45.2332C148.408 44.7169 147.995 44.2005 147.375 44.2005C146.859 44.2005 146.342 44.6136 146.342 45.2332C146.342 45.8529 146.755 46.266 147.375 46.266ZM147.375 42.1349C147.891 42.1349 148.408 41.7218 148.408 41.1022C148.408 40.5858 147.995 40.0694 147.375 40.0694C146.859 40.0694 146.342 40.4825 146.342 41.1022C146.342 41.7218 146.755 42.1349 147.375 42.1349ZM147.375 34.0794C147.891 34.0794 148.408 33.6663 148.408 33.0466C148.408 32.5302 147.995 32.0139 147.375 32.0139C146.859 32.0139 146.342 32.427 146.342 33.0466C146.342 33.563 146.755 34.0794 147.375 34.0794ZM147.375 38.1072C147.891 38.1072 148.408 37.6941 148.408 37.0744C148.408 36.558 147.995 36.0417 147.375 36.0417C146.859 36.0417 146.342 36.4548 146.342 37.0744C146.342 37.6941 146.755 38.1072 147.375 38.1072ZM168.547 47.402C169.889 48.2283 172.265 49.5708 172.781 49.8807C172.678 50.3971 172.058 52.1528 169.579 54.4248H161.111C161.111 52.8757 160.388 51.7396 159.562 51.7396C158.735 51.7396 158.013 52.979 158.013 54.4248H149.544C147.065 52.1528 146.446 50.3971 146.342 49.8807C146.859 49.5708 149.234 48.2283 150.577 47.402L150.886 47.2988C151.196 47.0922 151.403 46.9889 151.506 46.9889C151.609 46.8857 151.816 46.8857 151.919 46.7824H152.022H152.126C152.229 46.7824 152.332 46.6791 152.436 46.6791C152.745 46.5758 153.055 46.5758 153.468 46.6791C153.572 46.6791 153.675 46.7824 153.778 46.7824C154.088 46.8857 154.295 47.0922 154.604 47.2988C154.811 47.402 154.914 47.6086 155.121 47.8151C155.224 47.9184 155.224 47.9184 155.327 48.0217L155.74 48.4348C156.05 48.7446 156.463 49.0545 156.876 49.261C158.529 50.2938 160.698 50.2938 162.35 49.261C162.763 49.0545 163.176 48.7446 163.486 48.4348L163.693 48.2283C163.796 48.125 164.003 47.9184 164.106 47.8151C164.312 47.6086 164.519 47.5053 164.622 47.2988C164.932 46.9889 165.242 46.8857 165.448 46.7824C165.552 46.7824 165.655 46.6791 165.758 46.6791C166.068 46.5758 166.378 46.5758 166.791 46.6791C166.894 46.6791 166.998 46.6791 167.101 46.7824C167.204 46.7824 167.204 46.7824 167.307 46.8857C167.411 46.8857 167.514 46.9889 167.72 47.0922C167.824 47.1955 168.134 47.2988 168.34 47.5053C168.34 47.2988 168.443 47.402 168.547 47.402Z" fill="white" fill-opacity="0.11"/>
<path fill-rule="evenodd" clip-rule="evenodd" d="M234.127 81.2765V83.6519H260.566V81.2765H234.127ZM251.375 59.2787C251.891 59.2787 252.407 58.8656 252.407 58.2459C252.407 57.7295 251.994 57.2131 251.375 57.2131C250.858 57.2131 250.342 57.6263 250.342 58.2459C250.445 58.7623 250.858 59.2787 251.375 59.2787ZM255.506 59.2787C256.022 59.2787 256.538 58.8656 256.538 58.2459C256.538 57.7295 256.125 57.2131 255.506 57.2131C254.989 57.2131 254.473 57.6263 254.473 58.2459C254.473 58.7623 254.989 59.2787 255.506 59.2787ZM255.506 67.3342C256.022 67.3342 256.538 66.9211 256.538 66.3015C256.538 65.7851 256.125 65.2687 255.506 65.2687C254.989 65.2687 254.473 65.6818 254.473 66.3015C254.473 66.9211 254.989 67.3342 255.506 67.3342ZM251.375 63.3064C251.891 63.3064 252.407 62.8933 252.407 62.2737C252.407 61.7573 251.994 61.2409 251.375 61.2409C250.858 61.2409 250.342 61.654 250.342 62.2737C250.445 62.8933 250.858 63.3064 251.375 63.3064ZM255.506 63.3064C256.022 63.3064 256.538 62.8933 256.538 62.2737C256.538 61.7573 256.125 61.2409 255.506 61.2409C254.989 61.2409 254.473 61.654 254.473 62.2737C254.473 62.8933 254.989 63.3064 255.506 63.3064ZM259.533 59.2787C260.05 59.2787 260.566 58.8656 260.566 58.2459C260.566 57.7295 260.153 57.2131 259.533 57.2131C259.017 57.2131 258.501 57.6263 258.501 58.2459C258.604 58.7623 259.017 59.2787 259.533 59.2787ZM259.533 71.4653C260.05 71.4653 260.566 71.0522 260.566 70.4325C260.566 69.9161 260.153 69.3998 259.533 69.3998C259.017 69.3998 258.501 69.8129 258.501 70.4325C258.604 71.0522 259.017 71.4653 259.533 71.4653ZM259.533 63.3064C260.05 63.3064 260.566 62.8933 260.566 62.2737C260.566 61.7573 260.153 61.2409 259.533 61.2409C259.017 61.2409 258.501 61.654 258.501 62.2737C258.604 62.8933 259.017 63.3064 259.533 63.3064ZM259.533 67.3342C260.05 67.3342 260.566 66.9211 260.566 66.3015C260.566 65.7851 260.153 65.2687 259.533 65.2687C259.017 65.2687 258.501 65.6818 258.501 66.3015C258.604 66.9211 259.017 67.3342 259.533 67.3342ZM243.319 59.2787C243.835 59.2787 244.352 58.8656 244.352 58.2459C244.352 57.7295 243.939 57.2131 243.319 57.2131C242.803 57.2131 242.286 57.6263 242.286 58.2459C242.286 58.7623 242.699 59.2787 243.319 59.2787ZM239.188 59.2787C239.704 59.2787 240.221 58.8656 240.221 58.2459C240.221 57.7295 239.808 57.2131 239.188 57.2131C238.672 57.2131 238.155 57.6263 238.155 58.2459C238.155 58.7623 238.672 59.2787 239.188 59.2787ZM239.188 67.3342C239.704 67.3342 240.221 66.9211 240.221 66.3015C240.221 65.7851 239.808 65.2687 239.188 65.2687C238.672 65.2687 238.155 65.6818 238.155 66.3015C238.155 66.9211 238.672 67.3342 239.188 67.3342ZM243.319 63.3064C243.835 63.3064 244.352 62.8933 244.352 62.2737C244.352 61.7573 243.939 61.2409 243.319 61.2409C242.803 61.2409 242.286 61.654 242.286 62.2737C242.286 62.8933 242.699 63.3064 243.319 63.3064ZM239.188 63.3064C239.704 63.3064 240.221 62.8933 240.221 62.2737C240.221 61.7573 239.808 61.2409 239.188 61.2409C238.672 61.2409 238.155 61.654 238.155 62.2737C238.155 62.8933 238.672 63.3064 239.188 63.3064ZM235.16 59.2787C235.677 59.2787 236.193 58.8656 236.193 58.2459C236.193 57.7295 235.78 57.2131 235.16 57.2131C234.644 57.2131 234.127 57.6263 234.127 58.2459C234.127 58.7623 234.541 59.2787 235.16 59.2787ZM235.16 71.4653C235.677 71.4653 236.193 71.0522 236.193 70.4325C236.193 69.9161 235.78 69.3998 235.16 69.3998C234.644 69.3998 234.127 69.8129 234.127 70.4325C234.127 71.0522 234.541 71.4653 235.16 71.4653ZM235.16 63.3064C235.677 63.3064 236.193 62.8933 236.193 62.2737C236.193 61.7573 235.78 61.2409 235.16 61.2409C234.644 61.2409 234.127 61.654 234.127 62.2737C234.127 62.8933 234.541 63.3064 235.16 63.3064ZM235.16 67.3342C235.677 67.3342 236.193 66.9211 236.193 66.3015C236.193 65.7851 235.78 65.2687 235.16 65.2687C234.644 65.2687 234.127 65.6818 234.127 66.3015C234.127 66.9211 234.541 67.3342 235.16 67.3342ZM260.566 79.211H247.347H234.127C234.127 78.075 235.367 74.2537 239.085 70.9489C239.085 70.9489 240.324 69.9161 240.531 69.7096C243.939 66.9211 245.178 64.0294 245.281 63.9261C246.107 62.0671 246.727 60.3114 247.037 59.0721C246.624 58.9688 246.417 58.5557 246.417 58.1426C246.417 57.6262 246.83 57.1099 247.45 57.1099C247.966 57.1099 248.483 57.523 248.483 58.1426C248.483 58.5557 248.173 58.9688 247.863 59.0721C248.173 60.3114 248.793 62.0671 249.619 63.9261C249.619 63.9261 250.961 66.9211 254.37 69.7096C254.576 69.9161 255.815 70.9489 255.815 70.9489C259.327 74.2537 260.566 78.075 260.566 79.211Z" fill="white" fill-opacity="0.11"/>
<path fill-rule="evenodd" clip-rule="evenodd" d="M57.1117 -1.34448C41.7235 -1.34448 29.2271 11.152 29.2271 26.5401C29.2271 41.9283 41.7235 54.4247 57.1117 54.4247C72.4998 54.4247 84.9963 41.9283 84.9963 26.5401C84.9963 11.152 72.4998 -1.34448 57.1117 -1.34448ZM75.8047 52.3592C76.3211 52.3592 76.8374 52.7723 76.8374 53.392C76.8374 53.9084 76.4243 54.4247 75.8047 54.4247C75.2883 54.4247 74.7719 54.0116 74.7719 53.392C74.7719 52.8756 75.2883 52.3592 75.8047 52.3592ZM79.9357 52.3592C80.4521 52.3592 80.9685 52.7723 80.9685 53.392C80.9685 53.9084 80.5554 54.4247 79.9357 54.4247C79.4193 54.4247 78.903 54.0116 78.903 53.392C78.903 52.8756 79.3161 52.3592 79.9357 52.3592ZM79.9357 48.3314C80.4521 48.3314 80.9685 48.7445 80.9685 49.3642C80.9685 49.8806 80.5554 50.397 79.9357 50.397C79.4193 50.397 78.903 49.9838 78.903 49.3642C78.903 48.7445 79.3161 48.3314 79.9357 48.3314ZM83.9635 52.3592C84.4799 52.3592 84.9963 52.7723 84.9963 53.392C84.9963 53.9084 84.5832 54.4247 83.9635 54.4247C83.4471 54.4247 82.9307 54.0116 82.9307 53.392C82.9307 52.8756 83.4471 52.3592 83.9635 52.3592ZM83.9635 48.3314C84.4799 48.3314 84.9963 48.7445 84.9963 49.3642C84.9963 49.8806 84.5832 50.397 83.9635 50.397C83.4471 50.397 82.9307 49.9838 82.9307 49.3642C82.9307 48.7445 83.4471 48.3314 83.9635 48.3314ZM83.9635 44.2004C84.4799 44.2004 84.9963 44.6135 84.9963 45.2331C84.9963 45.7495 84.5832 46.2659 83.9635 46.2659C83.4471 46.2659 82.9307 45.8528 82.9307 45.2331C82.9307 44.7168 83.4471 44.2004 83.9635 44.2004ZM38.4186 52.3592C38.935 52.3592 39.4514 52.7723 39.4514 53.392C39.4514 53.9084 39.0383 54.4247 38.4186 54.4247C37.9023 54.4247 37.3859 54.0116 37.3859 53.392C37.3859 52.8756 37.799 52.3592 38.4186 52.3592ZM34.2876 52.3592C34.804 52.3592 35.3204 52.7723 35.3204 53.392C35.3204 53.9084 34.9073 54.4247 34.2876 54.4247C33.7712 54.4247 33.2548 54.0116 33.2548 53.392C33.3581 52.8756 33.7712 52.3592 34.2876 52.3592ZM34.2876 48.3314C34.804 48.3314 35.3204 48.7445 35.3204 49.3642C35.3204 49.8806 34.9073 50.397 34.2876 50.397C33.7712 50.397 33.2548 49.9838 33.2548 49.3642C33.3581 48.7445 33.7712 48.3314 34.2876 48.3314ZM30.2598 52.3592C30.7762 52.3592 31.2926 52.7723 31.2926 53.392C31.2926 53.9084 30.8795 54.4247 30.2598 54.4247C29.7434 54.4247 29.2271 54.0116 29.2271 53.392C29.2271 52.8756 29.7434 52.3592 30.2598 52.3592ZM30.2598 48.3314C30.7762 48.3314 31.2926 48.7445 31.2926 49.3642C31.2926 49.8806 30.8795 50.397 30.2598 50.397C29.7434 50.397 29.2271 49.9838 29.2271 49.3642C29.2271 48.7445 29.7434 48.3314 30.2598 48.3314ZM30.2598 44.2004C30.7762 44.2004 31.2926 44.6135 31.2926 45.2331C31.2926 45.7495 30.8795 46.2659 30.2598 46.2659C29.7434 46.2659 29.2271 45.8528 29.2271 45.2331C29.2271 44.7168 29.7434 44.2004 30.2598 44.2004ZM75.8047 0.721044C75.2883 0.721044 74.7719 0.307939 74.7719 -0.311719C74.7719 -0.828101 75.185 -1.34448 75.8047 -1.34448C76.3211 -1.34448 76.8374 -0.931377 76.8374 -0.311719C76.8374 0.204662 76.3211 0.721044 75.8047 0.721044ZM79.9357 0.721044C79.4193 0.721044 78.903 0.307939 78.903 -0.311719C78.903 -0.828101 79.3161 -1.34448 79.9357 -1.34448C80.4521 -1.34448 80.9685 -0.931377 80.9685 -0.311719C80.8652 0.204662 80.4521 0.721044 79.9357 0.721044ZM79.9357 4.74882C79.4193 4.74882 78.903 4.33572 78.903 3.71606C78.903 3.19968 79.3161 2.6833 79.9357 2.6833C80.4521 2.6833 80.9685 3.0964 80.9685 3.71606C80.8652 4.33572 80.4521 4.74882 79.9357 4.74882ZM83.9635 0.721044C83.4471 0.721044 82.9307 0.307939 82.9307 -0.311719C82.9307 -0.828101 83.3438 -1.34448 83.9635 -1.34448C84.4799 -1.34448 84.9963 -0.931377 84.9963 -0.311719C84.9963 0.204662 84.4799 0.721044 83.9635 0.721044ZM83.9635 2.78657C84.4799 2.78657 84.9963 3.19968 84.9963 3.81933C84.9963 4.33572 84.5832 4.8521 83.9635 4.8521C83.4471 4.8521 82.9307 4.43899 82.9307 3.81933C82.9307 3.19968 83.4471 2.78657 83.9635 2.78657ZM83.9635 6.81435C84.4799 6.81435 84.9963 7.22745 84.9963 7.84711C84.9963 8.36349 84.5832 8.87988 83.9635 8.87988C83.4471 8.87988 82.9307 8.46677 82.9307 7.84711C82.9307 7.33073 83.4471 6.81435 83.9635 6.81435ZM38.4186 0.721044C37.9023 0.721044 37.3859 0.307939 37.3859 -0.311719C37.3859 -0.828101 37.799 -1.34448 38.4186 -1.34448C38.935 -1.34448 39.4514 -0.931377 39.4514 -0.311719C39.4514 0.204662 38.935 0.721044 38.4186 0.721044ZM34.2876 0.721044C33.7712 0.721044 33.2548 0.307939 33.2548 -0.311719C33.2548 -0.828101 33.6679 -1.34448 34.2876 -1.34448C34.804 -1.34448 35.3204 -0.931377 35.3204 -0.311719C35.3204 0.204662 34.9073 0.721044 34.2876 0.721044ZM34.2876 4.74882C33.7712 4.74882 33.2548 4.33572 33.2548 3.71606C33.2548 3.19968 33.6679 2.6833 34.2876 2.6833C34.804 2.6833 35.3204 3.0964 35.3204 3.71606C35.3204 4.33572 34.9073 4.74882 34.2876 4.74882ZM30.2598 0.721044C29.7434 0.721044 29.2271 0.307939 29.2271 -0.311719C29.2271 -0.828101 29.6402 -1.34448 30.2598 -1.34448C30.7762 -1.34448 31.2926 -0.931377 31.2926 -0.311719C31.2926 0.204662 30.7762 0.721044 30.2598 0.721044ZM30.2598 4.74882C29.7434 4.74882 29.2271 4.33572 29.2271 3.71606C29.2271 3.19968 29.6402 2.6833 30.2598 2.6833C30.7762 2.6833 31.2926 3.0964 31.2926 3.71606C31.2926 4.33572 30.7762 4.74882 30.2598 4.74882ZM30.2598 8.87988C29.7434 8.87988 29.2271 8.46677 29.2271 7.84711C29.2271 7.33073 29.6402 6.81435 30.2598 6.81435C30.7762 6.81435 31.2926 7.22745 31.2926 7.84711C31.2926 8.36349 30.7762 8.87988 30.2598 8.87988ZM68.8852 23.8549C69.0917 23.8549 69.5048 23.8549 69.9179 23.9582C69.9179 23.9582 76.8374 23.7517 77.4571 30.6712C77.6637 32.84 76.7342 34.9055 74.7719 36.4547C74.1523 36.971 73.5326 37.2809 72.8097 37.5907C73.1195 39.7595 72.7064 42.548 69.2983 44.2004C63.7214 46.8856 57.628 48.1249 56.5953 46.7823C55.6658 45.4397 56.9051 44.0971 57.628 43.7873C58.351 43.4774 60.1067 44.5102 65.0639 43.1676C68.4721 42.2381 69.195 40.1726 69.195 38.6235C68.5753 38.7267 68.059 38.7267 67.4393 38.7267C65.9934 38.7267 64.5476 38.5202 63.1017 38.1071C63.1017 39.4497 63.3082 41.2054 58.6608 42.0316C53.6003 42.9611 49.3659 40.8955 49.1594 39.3464C48.9528 37.7972 50.3987 36.6612 51.7413 37.9005C53.0839 39.2431 57.2149 40.3792 59.1772 39.5529C61.0362 38.7267 59.0739 34.699 57.3182 33.4596C55.6658 32.2203 51.2249 32.7367 49.779 33.3564C48.1266 34.0793 47.1971 36.7645 43.6857 38.83C40.2776 40.8955 38.2121 35.3186 37.5924 33.3564C37.0761 31.2908 35.4236 28.5024 37.799 28.0893C40.2776 27.7794 40.2776 32.6334 40.2776 32.6334C40.2776 32.6334 40.1743 37.0743 42.8595 35.1121C45.648 33.0465 44.6152 29.7417 44.3054 28.8122C43.9956 27.8827 41.5169 24.3713 41.3104 20.7567C41.1038 17.142 45.7513 14.3535 46.5775 13.7339C47.507 13.1142 46.4742 11.2552 45.8545 9.80936C45.2349 8.36349 47.3004 7.12418 48.3332 7.33073C49.4692 7.43401 50.6053 8.36349 50.6053 8.36349C51.8446 9.29298 51.7413 7.74384 51.8446 6.6078C52.0511 5.05865 54.2199 5.57504 55.356 6.6078C56.3887 7.53729 55.9756 8.36349 56.5953 9.91264C57.2149 11.4618 60.8296 12.5978 62.0689 12.9077C63.3082 13.1142 62.8951 16.419 61.5525 17.7616C60.21 19.1042 57.628 19.4141 55.2527 19.2075C52.8773 19.001 51.7413 19.6206 51.7413 21.6861C51.7413 23.7517 54.4265 23.7517 54.4265 23.7517H64.4443C66.3033 22.4091 69.2983 19.7239 69.4015 17.9682C69.6081 14.8699 66.4065 12.5978 66.4065 12.5978C65.8902 12.288 65.7869 11.5651 66.0967 11.0487C66.4065 10.5323 67.1295 10.429 67.6459 10.7389C67.8524 10.8421 71.9835 13.7339 71.6736 18.1747C71.4671 20.2403 69.7114 22.3058 67.9557 23.7517H68.059C68.4721 23.8549 68.6786 23.8549 68.8852 23.8549ZM54.633 12.4945C55.2527 12.5978 55.8723 12.9076 56.3887 13.2175L56.8018 13.5273C56.8018 13.5273 54.5298 15.9027 52.0511 13.5273C52.0511 13.5273 52.8773 12.288 54.633 12.4945ZM63.205 36.8678C63.4115 35.5252 63.8246 33.6662 65.477 33.5629C67.5426 33.4596 68.9884 35.4219 69.0917 36.7645C69.0917 36.971 69.0917 37.0743 69.195 37.3841C67.336 37.5907 65.2705 37.3841 63.205 36.8678ZM72.7064 34.1826C73.0162 33.976 73.5326 33.5629 74.049 33.0465C75.185 31.8072 75.5981 30.1548 75.185 28.5024C75.185 28.3991 75.0817 28.2958 75.0817 28.2958C75.0817 28.1926 75.0817 28.0893 75.185 28.0893C75.2883 28.0893 75.3916 28.0893 75.4949 28.1925C75.908 28.8122 76.2178 29.7417 76.3211 30.7745C76.5276 32.5302 75.7014 34.1826 74.049 35.4219C73.9457 35.5252 73.8424 35.5252 73.7392 35.6284C73.2228 36.0415 72.4998 35.7317 72.3966 35.1121C72.3966 35.1121 72.3966 35.1121 72.3966 35.0088C72.19 34.699 72.3966 34.3891 72.7064 34.1826ZM57.1117 52.2559C42.8595 52.2559 31.3959 40.689 31.3959 26.5401C31.3959 12.288 42.9628 0.824319 57.1117 0.824319C71.3638 0.824319 82.8275 12.3913 82.8275 26.5401C82.8275 40.7923 71.3638 52.2559 57.1117 52.2559Z" fill="white" fill-opacity="0.11"/>
<path fill-rule="evenodd" clip-rule="evenodd" d="M140.662 47.1955V44.9234H142.005C142.521 44.9234 142.831 44.3038 142.418 43.9939C137.771 39.8629 133.846 35.1122 130.955 29.7418C130.851 29.5352 130.645 29.432 130.335 29.432C130.025 29.432 129.818 29.5352 129.715 29.7418C126.72 35.1122 122.899 39.9662 118.252 43.9939C117.838 44.3038 118.148 44.9234 118.665 44.9234H120.007V47.1955C118.355 47.6086 117.219 49.0545 117.219 50.8102C117.219 52.8757 118.871 54.5281 120.937 54.5281C123.002 54.5281 124.655 52.8757 124.655 50.8102C124.655 49.0545 123.415 47.6086 121.866 47.1955V44.9234H129.715V47.1955C128.063 47.6086 126.823 49.0545 126.823 50.8102C126.823 52.8757 128.476 54.5281 130.541 54.5281C132.607 54.5281 134.259 52.8757 134.259 50.8102C134.259 49.0545 133.02 47.6086 131.471 47.1955V44.9234H139.32V47.1955C137.667 47.6086 136.531 49.0545 136.531 50.8102C136.531 52.8757 138.184 54.5281 140.249 54.5281C142.315 54.5281 143.967 52.8757 143.967 50.8102C143.554 48.9512 142.315 47.5053 140.662 47.1955ZM142.521 38.0039C142.005 38.0039 141.489 37.5908 141.489 36.9711C141.489 36.4548 141.902 35.9384 142.521 35.9384C143.038 35.9384 143.554 36.3515 143.554 36.9711C143.451 37.5908 143.038 38.0039 142.521 38.0039ZM138.39 33.9761C137.874 33.9761 137.358 33.563 137.358 32.9434C137.358 32.427 137.771 31.9106 138.39 31.9106C138.907 31.9106 139.423 32.3237 139.423 32.9434C139.423 33.563 139.01 33.9761 138.39 33.9761ZM142.521 33.9761C142.005 33.9761 141.489 33.563 141.489 32.9434C141.489 32.427 141.902 31.9106 142.521 31.9106C143.038 31.9106 143.554 32.3237 143.554 32.9434C143.451 33.563 143.038 33.9761 142.521 33.9761ZM134.363 29.9483C133.846 29.9483 133.33 29.5352 133.33 28.9156C133.33 28.3992 133.743 27.8828 134.363 27.8828C134.982 27.8828 135.395 28.2959 135.395 28.9156C135.395 29.5352 134.879 29.9483 134.363 29.9483ZM138.39 29.9483C137.874 29.9483 137.358 29.5352 137.358 28.9156C137.358 28.3992 137.771 27.8828 138.39 27.8828C138.907 27.8828 139.423 28.2959 139.423 28.9156C139.423 29.5352 139.01 29.9483 138.39 29.9483ZM142.521 29.9483C142.005 29.9483 141.489 29.5352 141.489 28.9156C141.489 28.3992 141.902 27.8828 142.521 27.8828C143.038 27.8828 143.554 28.2959 143.554 28.9156C143.451 29.5352 143.038 29.9483 142.521 29.9483ZM118.045 38.0039C117.529 38.0039 117.012 37.5908 117.012 36.9711C117.012 36.4548 117.425 35.9384 118.045 35.9384C118.561 35.9384 119.078 36.3515 119.078 36.9711C119.078 37.5908 118.561 38.0039 118.045 38.0039ZM122.176 33.9761C121.66 33.9761 121.143 33.563 121.143 32.9434C121.143 32.427 121.556 31.9106 122.176 31.9106C122.692 31.9106 123.209 32.3237 123.209 32.9434C123.106 33.563 122.692 33.9761 122.176 33.9761ZM118.045 33.9761C117.529 33.9761 117.012 33.563 117.012 32.9434C117.012 32.427 117.425 31.9106 118.045 31.9106C118.561 31.9106 119.078 32.3237 119.078 32.9434C119.078 33.563 118.561 33.9761 118.045 33.9761ZM126.204 29.9483C125.687 29.9483 125.171 29.5352 125.171 28.9156C125.171 28.3992 125.584 27.8828 126.204 27.8828C126.72 27.8828 127.237 28.2959 127.237 28.9156C127.237 29.5352 126.72 29.9483 126.204 29.9483ZM122.176 29.9483C121.66 29.9483 121.143 29.5352 121.143 28.9156C121.143 28.3992 121.556 27.8828 122.176 27.8828C122.692 27.8828 123.209 28.2959 123.209 28.9156C123.106 29.5352 122.692 29.9483 122.176 29.9483ZM118.045 29.9483C117.529 29.9483 117.012 29.5352 117.012 28.9156C117.012 28.3992 117.425 27.8828 118.045 27.8828C118.561 27.8828 119.078 28.2959 119.078 28.9156C119.078 29.5352 118.561 29.9483 118.045 29.9483ZM130.232 37.281C131.368 37.281 132.194 38.2104 132.194 39.2432C132.194 40.3792 131.264 41.2055 130.232 41.2055C129.096 41.2055 128.269 40.276 128.269 39.2432C128.269 38.2104 129.199 37.281 130.232 37.281ZM122.692 50.7069C122.692 51.8429 121.763 52.6691 120.73 52.6691C119.594 52.6691 118.768 51.7397 118.768 50.7069C118.768 49.5708 119.697 48.7446 120.73 48.7446C121.866 48.7446 122.692 49.5708 122.692 50.7069ZM132.297 50.7069C132.297 51.8429 131.368 52.6691 130.335 52.6691C129.199 52.6691 128.373 51.7397 128.373 50.7069C128.373 49.5708 129.302 48.7446 130.335 48.7446C131.368 48.7446 132.297 49.5708 132.297 50.7069ZM130.232 42.9612C128.166 42.9612 126.514 41.3087 126.514 39.2432C126.514 37.1777 128.166 35.5253 130.232 35.5253C132.297 35.5253 133.95 37.1777 133.95 39.2432C133.95 41.3087 132.297 42.9612 130.232 42.9612ZM139.836 52.7724C138.7 52.7724 137.874 51.8429 137.874 50.8102C137.874 49.6741 138.804 48.8479 139.836 48.8479C140.972 48.8479 141.799 49.7774 141.799 50.8102C141.799 51.8429 140.972 52.7724 139.836 52.7724Z" fill="white" fill-opacity="0.11"/>
<path fill-rule="evenodd" clip-rule="evenodd" d="M165.035 16.2124C165.345 17.0386 166.378 17.4517 167.204 17.1419C168.03 16.8321 168.443 15.7993 168.134 14.9731C167.824 14.1469 166.791 13.7338 165.965 14.0436C165.035 14.4567 164.622 15.3862 165.035 16.2124ZM192.92 23.1319C192.404 23.1319 191.887 23.545 191.887 24.1647C191.887 24.6811 192.3 25.1974 192.92 25.1974C193.436 25.1974 193.953 24.7843 193.953 24.1647C193.849 23.545 193.436 23.1319 192.92 23.1319ZM196.948 23.1319C196.431 23.1319 195.915 23.545 195.915 24.1647C195.915 24.6811 196.328 25.1974 196.948 25.1974C197.464 25.1974 197.98 24.7843 197.98 24.1647C197.98 23.545 197.464 23.1319 196.948 23.1319ZM196.948 19.1041C196.431 19.1041 195.915 19.5172 195.915 20.1369C195.915 20.6533 196.328 21.1697 196.948 21.1697C197.464 21.1697 197.98 20.7565 197.98 20.1369C197.98 19.5172 197.464 19.1041 196.948 19.1041ZM201.079 23.1319C200.562 23.1319 200.046 23.545 200.046 24.1647C200.046 24.6811 200.459 25.1974 201.079 25.1974C201.595 25.1974 202.112 24.7843 202.112 24.1647C202.008 23.545 201.595 23.1319 201.079 23.1319ZM201.079 19.1041C200.562 19.1041 200.046 19.5172 200.046 20.1369C200.046 20.6533 200.459 21.1697 201.079 21.1697C201.595 21.1697 202.112 20.7565 202.112 20.1369C202.008 19.5172 201.595 19.1041 201.079 19.1041ZM201.079 14.9731C200.562 14.9731 200.046 15.3862 200.046 16.0058C200.046 16.5222 200.459 17.0386 201.079 17.0386C201.595 17.0386 202.112 16.6255 202.112 16.0058C202.008 15.3862 201.595 14.9731 201.079 14.9731ZM155.431 23.1319C154.914 23.1319 154.398 23.545 154.398 24.1647C154.398 24.6811 154.811 25.1974 155.431 25.1974C155.947 25.1974 156.463 24.7843 156.463 24.1647C156.463 23.545 156.05 23.1319 155.431 23.1319ZM151.403 23.1319C150.886 23.1319 150.37 23.545 150.37 24.1647C150.37 24.6811 150.783 25.1974 151.403 25.1974C151.919 25.1974 152.436 24.7843 152.436 24.1647C152.436 23.545 151.919 23.1319 151.403 23.1319ZM151.403 19.1041C150.886 19.1041 150.37 19.5172 150.37 20.1369C150.37 20.6533 150.783 21.1697 151.403 21.1697C151.919 21.1697 152.436 20.7565 152.436 20.1369C152.436 19.5172 151.919 19.1041 151.403 19.1041ZM147.375 23.1319C146.859 23.1319 146.342 23.545 146.342 24.1647C146.342 24.6811 146.755 25.1974 147.375 25.1974C147.891 25.1974 148.408 24.7843 148.408 24.1647C148.305 23.545 147.891 23.1319 147.375 23.1319ZM147.375 19.1041C146.859 19.1041 146.342 19.5172 146.342 20.1369C146.342 20.6533 146.755 21.1697 147.375 21.1697C147.891 21.1697 148.408 20.7565 148.408 20.1369C148.305 19.5172 147.891 19.1041 147.375 19.1041ZM147.375 14.9731C146.859 14.9731 146.342 15.3862 146.342 16.0058C146.342 16.5222 146.755 17.0386 147.375 17.0386C147.891 17.0386 148.408 16.6255 148.408 16.0058C148.305 15.3862 147.891 14.9731 147.375 14.9731ZM192.92 -28.6095C193.436 -28.6095 193.953 -29.0226 193.953 -29.6423C193.953 -30.1587 193.54 -30.675 192.92 -30.675C192.404 -30.675 191.887 -30.2619 191.887 -29.6423C191.887 -29.0226 192.3 -28.6095 192.92 -28.6095ZM196.948 -28.6095C197.464 -28.6095 197.98 -29.0226 197.98 -29.6423C197.98 -30.1587 197.567 -30.675 196.948 -30.675C196.431 -30.675 195.915 -30.2619 195.915 -29.6423C195.915 -29.0226 196.431 -28.6095 196.948 -28.6095ZM196.948 -24.4785C197.464 -24.4785 197.98 -24.8916 197.98 -25.5112C197.98 -26.0276 197.567 -26.544 196.948 -26.544C196.431 -26.544 195.915 -26.1309 195.915 -25.5112C195.915 -24.8916 196.431 -24.4785 196.948 -24.4785ZM201.079 -28.6095C201.595 -28.6095 202.112 -29.0226 202.112 -29.6423C202.112 -30.1587 201.698 -30.675 201.079 -30.675C200.562 -30.675 200.046 -30.2619 200.046 -29.6423C200.046 -29.0226 200.459 -28.6095 201.079 -28.6095ZM201.079 -26.544C200.562 -26.544 200.046 -26.1309 200.046 -25.5112C200.046 -24.9949 200.459 -24.4785 201.079 -24.4785C201.595 -24.4785 202.112 -24.8916 202.112 -25.5112C202.008 -26.0276 201.595 -26.544 201.079 -26.544ZM201.079 -22.4129C200.562 -22.4129 200.046 -21.9998 200.046 -21.3802C200.046 -20.8638 200.459 -20.3474 201.079 -20.3474C201.595 -20.3474 202.112 -20.7605 202.112 -21.3802C202.008 -21.9998 201.595 -22.4129 201.079 -22.4129ZM155.431 -28.6095C155.947 -28.6095 156.463 -29.0226 156.463 -29.6423C156.463 -30.1587 156.05 -30.675 155.431 -30.675C154.914 -30.675 154.398 -30.2619 154.398 -29.6423C154.501 -29.0226 154.914 -28.6095 155.431 -28.6095ZM151.403 -28.6095C151.919 -28.6095 152.436 -29.0226 152.436 -29.6423C152.436 -30.1587 152.022 -30.675 151.403 -30.675C150.886 -30.675 150.37 -30.2619 150.37 -29.6423C150.37 -29.0226 150.886 -28.6095 151.403 -28.6095ZM151.403 -24.4785C151.919 -24.4785 152.436 -24.8916 152.436 -25.5112C152.436 -26.0276 152.022 -26.544 151.403 -26.544C150.886 -26.544 150.37 -26.1309 150.37 -25.5112C150.37 -24.8916 150.886 -24.4785 151.403 -24.4785ZM147.375 -28.6095C147.891 -28.6095 148.408 -29.0226 148.408 -29.6423C148.408 -30.1587 147.995 -30.675 147.375 -30.675C146.859 -30.675 146.342 -30.2619 146.342 -29.6423C146.342 -29.0226 146.755 -28.6095 147.375 -28.6095ZM147.375 -24.4785C147.891 -24.4785 148.408 -24.8916 148.408 -25.5112C148.408 -26.0276 147.995 -26.544 147.375 -26.544C146.859 -26.544 146.342 -26.1309 146.342 -25.5112C146.342 -24.8916 146.755 -24.4785 147.375 -24.4785ZM147.375 -20.4507C147.891 -20.4507 148.408 -20.8638 148.408 -21.4835C148.408 -21.9998 147.995 -22.5162 147.375 -22.5162C146.859 -22.5162 146.342 -22.1031 146.342 -21.4835C146.342 -20.8638 146.755 -20.4507 147.375 -20.4507ZM174.227 -30.5718C189.615 -30.5718 202.112 -18.0753 202.112 -2.68716C202.112 12.701 189.615 25.1974 174.227 25.1974C158.839 25.1974 146.342 12.701 146.342 -2.68716C146.342 -18.0753 158.839 -30.5718 174.227 -30.5718ZM175.26 -26.1309V-16.2164C178.151 -16.0098 180.837 -14.8738 183.005 -13.0148L190.028 -20.0376C190.958 -20.9671 190.854 -22.4129 189.822 -23.1359C186.31 -25.8211 182.179 -27.5768 177.635 -28.1964C176.396 -28.403 175.26 -27.3702 175.26 -26.1309ZM184.658 -2.68716C184.658 -3.20354 184.245 -3.71992 183.625 -3.71992C183.109 -3.71992 182.592 -3.30682 182.592 -2.68716C182.592 -2.17078 183.005 -1.6544 183.625 -1.6544C184.141 -1.75768 184.658 -2.17078 184.658 -2.68716ZM181.56 -8.67719C181.973 -9.0903 181.973 -9.70996 181.56 -10.1231C181.146 -10.5362 180.527 -10.5362 180.114 -10.1231C179.701 -9.70996 179.701 -9.0903 180.114 -8.67719C180.527 -8.26409 181.146 -8.26409 181.56 -8.67719ZM181.56 4.64545C181.973 4.23235 181.973 3.61269 181.56 3.19958C181.146 2.78648 180.527 2.78648 180.114 3.19958C179.701 3.61269 179.701 4.23235 180.114 4.64545C180.527 5.05856 181.146 5.05856 181.56 4.64545ZM179.494 -2.68716C179.494 -5.68217 177.119 -8.05754 174.124 -8.05754C171.129 -8.05754 168.753 -5.68217 168.753 -2.68716C168.753 0.307852 171.129 2.6832 174.124 2.6832C177.119 2.6832 179.494 0.204575 179.494 -2.68716ZM174.227 -13.1181C173.711 -13.1181 173.194 -12.705 173.194 -12.0853C173.194 -11.5689 173.607 -11.0525 174.227 -11.0525C174.743 -11.0525 175.26 -11.4657 175.26 -12.0853C175.156 -12.705 174.743 -13.1181 174.227 -13.1181ZM158.529 -23.1359C157.496 -22.4129 157.393 -20.8638 158.322 -20.0376L165.345 -13.0148C167.411 -14.8738 170.096 -16.0098 173.091 -16.2164V-26.1309C173.091 -27.3702 171.955 -28.403 170.716 -28.1964C166.171 -27.5768 162.04 -25.8211 158.529 -23.1359ZM168.237 -8.67719C168.65 -9.0903 168.65 -9.70996 168.237 -10.1231C167.824 -10.5362 167.204 -10.5362 166.791 -10.1231C166.378 -9.70996 166.378 -9.0903 166.791 -8.67719C167.204 -8.26409 167.824 -8.26409 168.237 -8.67719ZM168.237 4.64545C168.65 4.23235 168.65 3.61269 168.237 3.19958C167.824 2.78648 167.204 2.78648 166.791 3.19958C166.378 3.61269 166.378 4.23235 166.791 4.64545C167.204 5.05856 167.824 5.05856 168.237 4.64545ZM165.758 -2.68716C165.758 -3.20354 165.345 -3.71992 164.725 -3.71992C164.209 -3.71992 163.693 -3.30682 163.693 -2.68716C163.693 -2.17078 164.106 -1.6544 164.725 -1.6544C165.345 -1.75768 165.758 -2.17078 165.758 -2.68716ZM148.718 -6.19856C148.511 -4.95924 149.544 -3.82321 150.783 -3.82321H160.698C160.904 -6.71494 162.144 -9.40013 163.899 -11.5689L156.876 -18.5917C155.947 -19.5212 154.501 -19.4179 153.778 -18.3852C151.093 -14.8738 149.337 -10.7427 148.718 -6.19856ZM153.778 12.9076C154.501 13.9403 156.05 14.0436 156.876 13.1141L163.899 6.09132C162.04 4.0258 160.904 1.34061 160.698 -1.6544H150.783C149.544 -1.6544 148.511 -0.518364 148.718 0.720951C149.337 5.26511 151.093 9.39616 153.778 12.9076ZM173.091 20.6533C173.091 21.8926 171.955 22.9254 170.716 22.7188C166.171 22.0991 162.04 20.3435 158.529 17.6583C157.496 16.9353 157.393 15.3862 158.322 14.56L165.345 7.53719C167.411 9.39616 170.096 10.5322 173.091 10.7388V20.6533ZM174.227 7.74374C174.743 7.74374 175.26 7.33064 175.26 6.71098C175.26 6.1946 174.847 5.67822 174.227 5.67822C173.711 5.67822 173.194 6.09132 173.194 6.71098C173.194 7.22736 173.607 7.74374 174.227 7.74374ZM189.822 17.7615C190.854 17.0386 190.958 15.4895 190.028 14.6633L183.005 7.64047C180.94 9.49944 178.255 10.6355 175.26 10.842V20.7566C175.26 21.9959 176.396 23.0286 177.635 22.8221C182.179 22.2024 186.31 20.3435 189.822 17.7615ZM199.633 0.720951C199.839 -0.518364 198.807 -1.6544 197.567 -1.6544H187.653C187.55 -0.20853 187.24 1.23734 186.62 2.47665C186.104 3.81924 185.277 4.95528 184.451 5.98804L191.474 13.0108C192.404 13.9403 193.849 13.837 194.572 12.8043C197.258 9.39617 199.117 5.26511 199.633 0.720951ZM194.676 -18.2819C193.953 -19.3147 192.404 -19.4179 191.577 -18.4884L184.555 -11.4656C186.414 -9.40012 187.55 -6.71494 187.756 -3.71992H197.671C198.91 -3.71992 199.943 -4.85597 199.736 -6.09528C199.116 -10.7427 197.258 -14.8738 194.676 -18.2819ZM170.922 -2.68716C170.922 -0.931465 172.368 0.514402 174.124 0.514402C175.879 0.514402 177.325 -0.931465 177.325 -2.68716C177.325 -4.44286 175.879 -5.88873 174.124 -5.88873C172.368 -5.99201 170.922 -4.54613 170.922 -2.68716ZM167.204 -19.5212C168.03 -19.831 168.443 -20.8638 168.134 -21.69C167.824 -22.5162 166.791 -22.9293 165.965 -22.6195C165.139 -22.3097 164.725 -21.2769 165.035 -20.4507C165.345 -19.6245 166.378 -19.2114 167.204 -19.5212ZM183.315 -21.69C183.005 -22.5162 181.973 -22.9293 181.146 -22.6195C180.32 -22.3097 179.907 -21.2769 180.217 -20.4507C180.527 -19.6245 181.56 -19.2114 182.386 -19.5212C183.212 -19.9343 183.625 -20.8638 183.315 -21.69ZM191.887 -11.8788C191.061 -11.5689 190.648 -10.5362 190.958 -9.70996C191.267 -8.88374 192.3 -8.47064 193.126 -8.78047C193.953 -9.09029 194.366 -10.1231 194.056 -10.9493C193.746 -11.8788 192.713 -12.1886 191.887 -11.8788ZM156.463 -8.88374C157.29 -9.19357 157.703 -10.2263 157.393 -11.0525C157.083 -11.8788 156.05 -12.2919 155.224 -11.982C154.398 -11.6722 153.985 -10.6394 154.295 -9.81323C154.604 -8.88374 155.534 -8.47063 156.463 -8.88374ZM155.121 3.30286C154.295 3.61269 153.881 4.64545 154.191 5.47166C154.501 6.29787 155.534 6.71098 156.36 6.40115C157.186 6.09132 157.599 5.05856 157.29 4.23235C156.98 3.40614 155.947 2.99303 155.121 3.30286ZM191.887 3.30286C191.061 3.61269 190.648 4.64545 190.958 5.47166C191.267 6.29787 192.3 6.71098 193.126 6.40115C193.953 6.09132 194.366 5.05856 194.056 4.23235C193.643 3.40614 192.713 2.99303 191.887 3.30286ZM181.146 14.1469C180.32 14.4567 179.907 15.4895 180.217 16.3157C180.527 17.1419 181.56 17.555 182.386 17.2452C183.212 16.9353 183.625 15.9026 183.315 15.0764C182.902 14.1469 181.973 13.7338 181.146 14.1469Z" fill="white" fill-opacity="0.11"/>
<path fill-rule="evenodd" clip-rule="evenodd" d="M260.566 11.152C260.566 18.8977 254.679 25.0943 247.347 25.0943C240.014 25.0943 234.127 18.7944 234.127 11.152C234.127 5.67831 237.122 1.03087 241.357 -1.34448C239.601 0.824321 238.155 3.81933 238.155 7.0209C238.155 13.7339 242.286 17.7616 247.347 17.7616C252.407 17.7616 256.538 13.8371 256.538 7.0209C256.538 3.81933 255.093 0.824321 253.337 -1.34448C257.571 1.03087 260.566 5.67831 260.566 11.152Z" fill="white" fill-opacity="0.11"/>
<path fill-rule="evenodd" clip-rule="evenodd" d="M147.375 59.2787C147.891 59.2787 148.408 58.8656 148.408 58.2459C148.408 57.7295 147.995 57.2131 147.375 57.2131C146.859 57.2131 146.342 57.6262 146.342 58.2459C146.342 58.7623 146.755 59.2787 147.375 59.2787ZM167.72 77.5586C167.204 77.5586 166.688 77.9717 166.688 78.5913C166.688 79.1077 167.101 79.6241 167.72 79.6241C168.237 79.6241 168.753 79.211 168.753 78.5913C168.65 78.075 168.237 77.5586 167.72 77.5586ZM171.748 81.6896C171.232 81.6896 170.716 82.1027 170.716 82.7224C170.716 83.2388 171.129 83.7551 171.748 83.7551C172.265 83.7551 172.781 83.342 172.781 82.7224C172.781 82.1027 172.368 81.6896 171.748 81.6896ZM171.748 73.5308C171.232 73.5308 170.716 73.9439 170.716 74.5636C170.716 75.0799 171.129 75.5963 171.748 75.5963C172.265 75.5963 172.781 75.1832 172.781 74.5636C172.781 73.9439 172.368 73.5308 171.748 73.5308ZM171.748 77.5586C171.232 77.5586 170.716 77.9717 170.716 78.5913C170.716 79.1077 171.129 79.6241 171.748 79.6241C172.265 79.6241 172.781 79.211 172.781 78.5913C172.781 78.075 172.368 77.5586 171.748 77.5586ZM151.403 77.5586C150.886 77.5586 150.37 77.9717 150.37 78.5913C150.37 79.1077 150.783 79.6241 151.403 79.6241C152.022 79.6241 152.436 79.211 152.436 78.5913C152.436 78.075 151.919 77.5586 151.403 77.5586ZM147.375 81.6896C146.859 81.6896 146.342 82.1027 146.342 82.7224C146.342 83.2388 146.755 83.7551 147.375 83.7551C147.891 83.7551 148.408 83.342 148.408 82.7224C148.305 82.1027 147.891 81.6896 147.375 81.6896ZM147.375 73.5308C146.859 73.5308 146.342 73.9439 146.342 74.5636C146.342 75.0799 146.755 75.5963 147.375 75.5963C147.891 75.5963 148.408 75.1832 148.408 74.5636C148.305 73.9439 147.891 73.5308 147.375 73.5308ZM147.375 77.5586C146.859 77.5586 146.342 77.9717 146.342 78.5913C146.342 79.1077 146.755 79.6241 147.375 79.6241C147.891 79.6241 148.408 79.211 148.408 78.5913C148.305 78.075 147.891 77.5586 147.375 77.5586ZM165.758 81.9995C166.171 81.9995 166.584 82.3093 166.584 82.7224C166.688 83.2388 166.275 83.6519 165.758 83.6519H153.159C152.642 83.6519 152.229 83.2388 152.332 82.7224C152.436 82.3093 152.745 81.9995 153.159 81.9995C154.501 81.9995 155.844 81.1732 156.36 79.9339C156.67 79.211 156.876 77.352 156.98 76.6291C157.806 76.7324 158.529 76.8356 159.355 76.8356C160.181 76.8356 161.008 76.7324 161.73 76.6291C161.834 77.352 162.04 79.211 162.35 79.9339C163.176 81.1732 164.416 81.9995 165.758 81.9995ZM147.582 65.4752C148.408 65.4752 148.718 65.1654 149.234 64.8556C149.75 64.5457 150.37 64.0294 151.609 64.0294C152.642 64.0294 153.262 64.3392 153.778 64.7523C153.881 64.7523 153.881 64.8556 153.985 64.8556C154.398 65.1654 154.811 65.4752 155.637 65.4752C156.463 65.4752 156.773 65.2687 157.29 64.9589C157.806 64.649 158.426 64.1326 159.665 64.1326C160.801 64.1326 161.524 64.5458 162.04 64.9589C162.453 65.2687 162.867 65.4752 163.693 65.4752C164.519 65.4752 164.829 65.1654 165.345 64.8556C165.448 64.8556 165.448 64.7523 165.552 64.7523C166.068 64.4425 166.688 64.0294 167.72 64.0294C168.96 64.0294 169.579 64.4425 170.096 64.8556C170.509 65.1654 170.922 65.4752 171.748 65.4752C172.058 65.4752 172.368 65.4752 172.574 65.372C172.781 64.3392 172.988 63.3064 172.988 62.2737H146.549C146.549 63.3064 146.652 64.3392 146.962 65.372C146.962 65.4752 147.168 65.4752 147.582 65.4752ZM171.542 66.7146C171.645 66.7146 171.852 66.7146 171.955 66.7146C170.096 71.8784 165.242 75.5963 159.562 75.5963C153.881 75.5963 149.027 71.8784 147.168 66.7146C147.272 66.7146 147.478 66.7146 147.582 66.7146C148.821 66.7146 149.441 66.3014 149.957 65.8883C150.473 65.5785 150.783 65.2687 151.609 65.2687C152.436 65.2687 152.745 65.5785 153.262 65.8883C153.572 66.0949 153.985 66.4047 154.604 66.508C154.604 66.508 154.604 66.508 154.708 66.508C154.811 66.508 154.914 66.6113 155.121 66.6113H155.224C155.431 66.6113 155.534 66.6113 155.74 66.6113C156.36 66.6113 156.773 66.508 157.186 66.3015C157.599 66.1982 157.806 65.9916 158.116 65.7851C158.632 65.4752 158.942 65.1654 159.768 65.1654C160.594 65.1654 160.904 65.4752 161.421 65.7851C161.627 65.9916 161.937 66.1982 162.35 66.3015C162.763 66.4047 163.176 66.6113 163.796 66.6113C164.003 66.6113 164.106 66.6113 164.312 66.6113H164.416C164.519 66.6113 164.622 66.6113 164.829 66.508C164.829 66.508 164.829 66.508 164.932 66.508C165.448 66.3015 165.862 66.0949 166.275 65.8883C166.688 65.5785 167.101 65.2687 167.927 65.2687C168.753 65.2687 169.063 65.5785 169.579 65.8883C169.683 66.3014 170.302 66.7146 171.542 66.7146ZM151.609 68.8834C152.126 68.8834 152.642 68.4703 152.642 67.8506C152.642 67.3342 152.229 66.8178 151.609 66.8178C151.093 66.8178 150.577 67.2309 150.577 67.8506C150.577 68.367 150.99 68.8834 151.609 68.8834ZM159.562 68.8834C160.078 68.8834 160.594 68.4703 160.594 67.8506C160.594 67.3342 160.181 66.8178 159.562 66.8178C159.045 66.8178 158.529 67.2309 158.529 67.8506C158.529 68.367 158.942 68.8834 159.562 68.8834ZM167.514 68.8834C168.03 68.8834 168.547 68.4703 168.547 67.8506C168.547 67.3342 168.134 66.8178 167.514 66.8178C166.998 66.8178 166.481 67.2309 166.481 67.8506C166.481 68.367 166.998 68.8834 167.514 68.8834ZM171.748 59.2787C172.265 59.2787 172.781 58.8656 172.781 58.2459C172.781 57.7295 172.368 57.2131 171.748 57.2131C171.232 57.2131 170.716 57.6262 170.716 58.2459C170.716 58.7623 171.232 59.2787 171.748 59.2787ZM167.72 59.2787C168.237 59.2787 168.753 58.8656 168.753 58.2459C168.753 57.7295 168.34 57.2131 167.72 57.2131C167.204 57.2131 166.688 57.6262 166.688 58.2459C166.688 58.7623 167.101 59.2787 167.72 59.2787ZM163.589 59.2787C164.106 59.2787 164.622 58.8656 164.622 58.2459C164.622 57.7295 164.209 57.2131 163.589 57.2131C163.073 57.2131 162.557 57.6262 162.557 58.2459C162.66 58.7623 163.073 59.2787 163.589 59.2787ZM159.562 59.2787C160.078 59.2787 160.594 58.8656 160.594 58.2459C160.594 57.7295 160.181 57.2131 159.562 57.2131C159.045 57.2131 158.529 57.6262 158.529 58.2459C158.529 58.7623 158.942 59.2787 159.562 59.2787ZM155.431 59.2787C155.947 59.2787 156.463 58.8656 156.463 58.2459C156.463 57.7295 156.05 57.2131 155.431 57.2131C154.914 57.2131 154.398 57.6262 154.398 58.2459C154.501 58.7623 154.914 59.2787 155.431 59.2787ZM151.403 59.2787C151.919 59.2787 152.436 58.8656 152.436 58.2459C152.436 57.7295 152.022 57.2131 151.403 57.2131C150.783 57.2131 150.37 57.6262 150.37 58.2459C150.37 58.7623 150.886 59.2787 151.403 59.2787Z" fill="white" fill-opacity="0.11"/>
<path fill-rule="evenodd" clip-rule="evenodd" d="M208.102 54.4248H204.9V27.9861H231.339V51.12H211.51V34.5958H224.729V44.5103H218.12V41.2055H221.425V37.9006H214.712V47.8151H214.815H228.034V31.2909H208.102V54.4248Z" fill="white" fill-opacity="0.11"/>
<path fill-rule="evenodd" clip-rule="evenodd" d="M14.2521 36.558C15.3882 36.3515 16.1111 35.422 15.4914 33.4597C14.6652 30.9811 14.7685 27.9861 14.7685 27.9861H13.2194H11.6702C11.6702 27.9861 11.7735 31.0844 10.9473 33.4597C10.3276 35.422 10.9473 36.2482 12.1866 36.558V79.2112C12.1866 79.2112 2.1688 93.2567 2.27208 102.965C2.27208 103.171 2.27208 103.378 2.27208 103.481C2.27208 103.584 2.27208 103.791 2.27208 103.894C2.27208 103.894 2.27208 103.894 2.27208 103.997C2.27208 104.101 2.27208 104.101 2.27208 104.204C2.78846 108.438 6.0933 111.64 10.4309 112.673C10.5342 112.673 10.6375 112.673 10.7407 112.776C11.0506 112.879 11.3604 112.879 11.6702 112.879C11.7735 112.879 11.8768 112.879 11.9801 112.879C12.1866 112.879 12.2899 112.879 12.3932 112.879C12.4964 112.879 12.4964 112.879 12.5997 112.879C12.8063 112.879 12.9095 112.879 13.1161 112.879C13.2194 112.879 13.4259 112.879 13.5292 112.879C13.6325 112.879 13.6325 112.879 13.7358 112.879C13.839 112.879 14.0456 112.879 14.1489 112.879C14.2521 112.879 14.3554 112.879 14.4587 112.879C14.7685 112.879 15.0783 112.776 15.3882 112.776C15.4914 112.776 15.5947 112.776 15.698 112.673C20.0356 111.64 23.3405 108.438 23.8568 104.204C23.8568 104.101 23.8568 104.101 23.8568 103.997C23.8568 103.997 23.8568 103.997 23.8568 103.894C23.8568 103.791 23.8568 103.688 23.8568 103.481C23.8568 103.275 23.8568 103.068 23.8568 102.965C23.9601 93.1535 13.9423 79.2112 13.9423 79.2112V36.558H14.2521ZM22.5142 35.9384C20.3454 35.9384 18.4865 34.1827 18.4865 31.9106C18.4865 29.7418 20.2422 27.9861 22.5142 27.9861C24.683 27.9861 26.542 29.7418 26.542 31.9106C26.4387 34.0794 24.683 35.9384 22.5142 35.9384ZM7.95228 75.2866C7.95228 77.4555 6.19658 79.3144 4.02778 79.3144C1.85897 79.3144 0 77.5587 0 75.2866C0 73.1178 1.7557 71.2589 4.02778 71.2589C6.19658 71.2589 7.95228 73.0146 7.95228 75.2866ZM7.95228 58.3493C7.95228 59.5886 7.4359 60.7247 6.50641 61.4476C7.4359 62.1705 7.95228 63.3066 7.95228 64.5459C7.95228 66.7147 6.19658 68.5737 4.02778 68.5737C1.85897 68.5737 0 66.818 0 64.5459C0 63.3066 0.619658 62.1705 1.44587 61.4476C0.516381 60.7247 0 59.5886 0 58.3493C0 56.1805 1.7557 54.3216 4.02778 54.3216C6.19658 54.3216 7.95228 56.0772 7.95228 58.3493ZM3.9245 56.0772C5.16382 56.0772 6.0933 57.0067 6.0933 58.2461C6.0933 59.4854 5.16382 60.4148 3.9245 60.4148C2.68518 60.4148 1.7557 59.4854 1.7557 58.2461C1.7557 57.11 2.78846 56.0772 3.9245 56.0772ZM6.0933 64.4426C6.0933 65.6819 5.16382 66.6114 3.9245 66.6114C2.68518 66.6114 1.7557 65.6819 1.7557 64.4426C1.7557 63.2033 2.68518 62.2738 3.9245 62.2738C5.16382 62.2738 6.0933 63.3066 6.0933 64.4426ZM26.4387 42.7546C26.4387 43.9939 25.8191 45.13 24.9929 45.8529C25.9224 46.5758 26.4387 47.7119 26.4387 48.9512C26.4387 50.1905 25.8191 51.3265 24.9929 52.0495C25.9224 52.7724 26.4387 53.9084 26.4387 55.1478C26.4387 56.3871 25.8191 57.5231 24.9929 58.2461C25.9224 58.969 26.4387 60.105 26.4387 61.3443C26.4387 63.5131 24.683 65.3721 22.411 65.3721C20.2422 65.3721 18.3832 63.6164 18.3832 61.3443C18.3832 60.105 18.8996 58.969 19.8291 58.2461C18.8996 57.5231 18.3832 56.3871 18.3832 55.1478C18.3832 53.9084 18.8996 52.7724 19.8291 52.0495C18.8996 51.3265 18.3832 50.1905 18.3832 48.9512C18.3832 47.7119 18.8996 46.5758 19.8291 45.8529C18.8996 45.13 18.3832 43.9939 18.3832 42.7546C18.3832 40.5858 20.1389 38.7268 22.411 38.7268C24.683 38.7268 26.4387 40.4825 26.4387 42.7546ZM22.5142 63.3066C21.2749 63.3066 20.3454 62.3771 20.3454 61.1378C20.3454 59.8985 21.2749 58.969 22.5142 58.969C23.7536 58.969 24.683 59.8985 24.683 61.1378C24.683 62.3771 23.7536 63.3066 22.5142 63.3066ZM24.683 55.0445C24.683 56.2838 23.7536 57.2133 22.5142 57.2133C21.2749 57.2133 20.3454 56.2838 20.3454 55.0445C20.3454 53.8052 21.2749 52.8757 22.5142 52.8757C23.7536 52.8757 24.683 53.8052 24.683 55.0445ZM24.683 48.8479C24.683 50.0872 23.7536 51.0167 22.5142 51.0167C21.2749 51.0167 20.3454 50.0872 20.3454 48.8479C20.3454 47.6086 21.2749 46.6791 22.5142 46.6791C23.7536 46.6791 24.683 47.7119 24.683 48.8479ZM22.5142 44.9234C21.2749 44.9234 20.3454 43.9939 20.3454 42.7546C20.3454 41.5153 21.2749 40.5858 22.5142 40.5858C23.7536 40.5858 24.683 41.5153 24.683 42.7546C24.683 43.8906 23.7536 44.9234 22.5142 44.9234ZM18.5897 79.7275C20.1389 78.6948 21.4815 77.3522 22.5142 75.803C21.4815 74.2539 20.1389 72.9113 18.5897 71.8785C20.1389 70.8458 21.4815 69.5032 22.5142 67.954C23.547 69.5032 24.8896 70.8458 26.4387 71.8785C24.8896 72.9113 23.547 74.2539 22.5142 75.803C23.547 77.3522 24.8896 78.6948 26.4387 79.7275C24.8896 80.7603 23.547 82.1029 22.5142 83.652C21.4815 82.1029 20.1389 80.7603 18.5897 79.7275ZM0 47.6086C1.54914 46.5758 2.89174 45.2332 3.9245 43.6841C2.89174 42.1349 1.54914 40.7923 0 39.7596C1.54914 38.7268 2.89174 37.3842 3.9245 35.8351C2.89174 34.2859 1.54914 32.9434 0 31.9106C1.54914 30.8778 2.89174 29.5352 3.9245 27.9861C4.95726 29.5352 6.29986 30.8778 7.849 31.9106C6.29986 32.9434 4.95726 34.2859 3.9245 35.8351C4.95726 37.3842 6.29986 38.7268 7.849 39.7596C6.29986 40.7923 4.95726 42.1349 3.9245 43.6841C4.95726 45.2332 6.29986 46.5758 7.849 47.6086C6.29986 48.6414 4.95726 49.9839 3.9245 51.5331C2.89174 49.9839 1.54914 48.6414 0 47.6086ZM16.4209 107.406H9.91453V105.237H16.4209V107.406ZM15.1816 90.5715C15.1816 91.6043 14.3554 92.5338 13.2194 92.5338C12.1866 92.5338 11.2571 91.7076 11.2571 90.5715C11.2571 89.5388 12.0833 88.6093 13.2194 88.6093C14.2521 88.7126 15.1816 89.5388 15.1816 90.5715Z" fill="white" fill-opacity="0.11"/>
</g>
</svg>
