<svg width="70" height="70" viewBox="0 0 70 70" fill="none" xmlns="http://www.w3.org/2000/svg">
<path fill-rule="evenodd" clip-rule="evenodd" d="M40.8018 52.2229C41.4962 52.5323 42.3888 52.1416 42.7139 51.4401C43.039 50.7386 42.6683 49.8546 41.9739 49.5452C41.2795 49.2357 40.3869 49.6264 40.0618 50.3279C39.7353 51.1564 40.0433 51.9777 40.8018 52.2229ZM62.3294 39.1022C62.0086 39.423 61.9387 39.9948 62.3151 40.3712C62.6288 40.6849 63.1992 40.742 63.5841 40.357C63.905 40.0362 63.9748 39.4644 63.5984 39.088C63.1578 38.7757 62.6502 38.7814 62.3294 39.1022ZM64.8318 36.5999C64.5109 36.9207 64.4411 37.4924 64.8175 37.8689C65.1312 38.1826 65.7015 38.2396 66.0865 37.8546C66.4073 37.5338 66.4772 36.962 66.1008 36.5856C65.7243 36.2092 65.1526 36.279 64.8318 36.5999ZM62.385 34.1531C62.0642 34.4739 61.9943 35.0457 62.3707 35.4221C62.6844 35.7358 63.2548 35.7928 63.6397 35.4078C63.9605 35.087 64.0304 34.5152 63.654 34.1388C63.2776 33.7624 62.7058 33.8323 62.385 34.1531ZM67.3983 34.0333C67.0775 34.3541 67.0076 34.9259 67.384 35.3023C67.6977 35.616 68.2681 35.6731 68.653 35.2881C68.9739 34.9673 69.0437 34.3955 68.6673 34.0191C68.2267 33.7068 67.7191 33.7125 67.3983 34.0333ZM64.9515 31.5865C64.6307 31.9074 64.5608 32.4791 64.9373 32.8556C65.2509 33.1692 65.8213 33.2263 66.2063 32.8413C66.5271 32.5205 66.5969 31.9487 66.2205 31.5723C65.7799 31.26 65.2723 31.2657 64.9515 31.5865ZM62.442 29.077C62.1212 29.3978 62.0513 29.9696 62.4278 30.346C62.7414 30.6597 63.3118 30.7168 63.6968 30.3318C64.0176 30.011 64.0874 29.4392 63.711 29.0628C63.2704 28.7505 62.7628 28.7562 62.442 29.077ZM39.0381 62.3935C38.7173 62.7144 38.6474 63.2861 39.0238 63.6625C39.3375 63.9762 39.9078 64.0333 40.2928 63.6483C40.6136 63.3275 40.6835 62.7557 40.3071 62.3793C39.9307 62.0028 39.4231 62.0086 39.0381 62.3935ZM36.5357 64.8959C36.2149 65.2167 36.145 65.7885 36.5214 66.1649C36.8351 66.4786 37.4055 66.5356 37.7904 66.1507C38.1113 65.8299 38.1811 65.2581 37.8047 64.8817C37.4283 64.5052 36.8565 64.5751 36.5357 64.8959ZM34.0889 62.4491C33.7681 62.77 33.6982 63.3417 34.0747 63.7181C34.3883 64.0318 34.9587 64.0889 35.3437 63.7039C35.6645 63.3831 35.7344 62.8113 35.3579 62.4349C34.9815 62.0585 34.4097 62.1283 34.0889 62.4491ZM34.0333 67.3983C33.7125 67.7191 33.6426 68.2909 34.0191 68.6673C34.3328 68.981 34.9031 69.038 35.2881 68.653C35.6089 68.3322 35.6788 67.7605 35.3023 67.384C34.8617 67.0718 34.3541 67.0775 34.0333 67.3983ZM31.5866 64.9515C31.2657 65.2723 31.1959 65.8441 31.5723 66.2205C31.886 66.5342 32.4563 66.5912 32.8413 66.2063C33.1621 65.8854 33.232 65.3137 32.8556 64.9372C32.415 64.625 31.9074 64.6307 31.5866 64.9515ZM29.077 62.442C28.7562 62.7628 28.6864 63.3346 29.0628 63.711C29.3765 64.0247 29.9468 64.0817 30.3318 63.6968C30.6526 63.3759 30.7225 62.8042 30.3461 62.4277C29.9055 62.1155 29.3979 62.1212 29.077 62.442ZM30.8978 7.67061C31.2186 7.34979 31.2885 6.77802 30.912 6.4016C30.5983 6.08791 30.028 6.03087 29.643 6.41585C29.3222 6.73667 29.2523 7.30844 29.6288 7.68487C30.0052 8.06129 30.5128 8.05559 30.8978 7.67061ZM33.4001 5.16824C33.721 4.84742 33.7908 4.27566 33.4144 3.89923C33.1007 3.58554 32.5304 3.5285 32.1454 3.91348C31.8246 4.2343 31.7547 4.80607 32.1311 5.18249C32.5076 5.55892 33.0793 5.48906 33.4001 5.16824ZM35.9096 7.67775C36.2305 7.35693 36.3003 6.78517 35.9239 6.40874C35.6102 6.09505 35.0399 6.03801 34.6549 6.42299C34.3341 6.74381 34.2642 7.31558 34.6406 7.692C35.0171 8.06843 35.5888 7.99857 35.9096 7.67775ZM35.9667 2.6017C36.2875 2.28088 36.3574 1.70912 35.9809 1.33269C35.6672 1.019 35.0969 0.961967 34.7119 1.34695C34.3911 1.66777 34.3212 2.23953 34.6977 2.61596C35.0741 2.99239 35.5817 2.98668 35.9667 2.6017ZM37.2214 3.85646C36.9006 4.17727 36.8307 4.74904 37.2072 5.12547C37.5209 5.43916 38.0912 5.49619 38.4762 5.11121C38.797 4.79039 38.8669 4.21863 38.4904 3.8422C38.1126 3.59268 37.5422 3.53564 37.2214 3.85646ZM39.7309 6.36597C39.4101 6.68678 39.3403 7.25855 39.7167 7.63498C40.0304 7.94867 40.6007 8.0057 40.9857 7.62072C41.3065 7.2999 41.3764 6.72814 41 6.35171C40.5594 6.03945 40.0518 6.04515 39.7309 6.36597ZM7.60646 30.9619C7.92727 30.6411 7.99714 30.0693 7.62071 29.6929C7.30703 29.3792 6.73668 29.3222 6.3517 29.7072C6.03089 30.028 5.96102 30.5998 6.33745 30.9762C6.77804 31.2884 7.28564 31.2827 7.60646 30.9619ZM5.10408 33.4643C5.4249 33.1435 5.49476 32.5717 5.11834 32.1953C4.80465 31.8816 4.23431 31.8246 3.84932 32.2095C3.52851 32.5304 3.45864 33.1021 3.83507 33.4786C4.21149 33.855 4.78326 33.7851 5.10408 33.4643ZM7.61359 35.9738C7.93441 35.653 8.00427 35.0812 7.62785 34.7048C7.31416 34.3911 6.74381 34.3341 6.35883 34.7191C6.03802 35.0399 5.96815 35.6116 6.34458 35.9881C6.721 36.3645 7.29277 36.2946 7.61359 35.9738ZM2.60171 35.9667C2.92253 35.6459 2.99239 35.0741 2.61597 34.6977C2.30228 34.384 1.73194 34.3269 1.34696 34.7119C1.02614 35.0327 0.956273 35.6045 1.3327 35.9809C1.70913 36.3574 2.21673 36.3516 2.60171 35.9667ZM5.11122 38.4762C5.43204 38.1554 5.5019 37.5836 5.12548 37.2072C4.81179 36.8935 4.24145 36.8364 3.85647 37.2214C3.53565 37.5422 3.46578 38.114 3.84221 38.4904C4.21864 38.8669 4.72624 38.8612 5.11122 38.4762ZM7.55799 40.923C7.87881 40.6021 7.94868 40.0304 7.57225 39.6539C7.25856 39.3402 6.68822 39.2832 6.30324 39.6682C5.98242 39.989 5.91256 40.5608 6.28898 40.9372C6.66541 41.3136 7.17301 41.3079 7.55799 40.923ZM18.0922 18.0922C27.6525 8.53183 43.0076 8.35932 52.3555 17.7072C61.7034 27.0552 61.5309 42.4102 51.9706 51.9706C42.4102 61.5309 27.0552 61.7034 17.7073 52.3555C8.35933 43.0076 8.53183 27.6525 18.0922 18.0922ZM21.4315 20.1483L27.4544 26.1711C29.3764 24.5 31.7348 23.5219 34.2115 23.3037L34.3084 14.6744C34.3213 13.5323 33.3788 12.7181 32.298 12.9206C28.4852 13.471 24.8522 14.971 21.6525 17.4177C20.7571 18.0622 20.6787 19.3954 21.4315 20.1483ZM41.5119 28.5509C41.1982 28.2372 40.6278 28.1801 40.2429 28.5651C39.922 28.8859 39.8522 29.4577 40.2286 29.8341C40.5423 30.1478 41.1126 30.2048 41.4976 29.8199C41.7557 29.4363 41.8256 28.8645 41.5119 28.5509ZM35.9482 26.837C35.9539 26.3294 35.5775 25.9529 35.0699 25.9586C34.5623 25.9643 34.1773 26.3493 34.1716 26.8569C34.1659 27.3645 34.5423 27.741 35.0499 27.7353C35.5575 27.7296 35.9425 27.3446 35.9482 26.837ZM44.0414 34.9301C44.0471 34.4225 43.6706 34.0461 43.163 34.0518C42.6554 34.0575 42.2704 34.4425 42.2647 34.9501C42.259 35.4577 42.6355 35.8341 43.1431 35.8284C43.6507 35.8227 44.0357 35.4377 44.0414 34.9301ZM38.3037 31.759C36.4843 29.9396 33.5656 29.9724 31.7048 31.8332C29.8441 33.6939 29.8113 36.6126 31.6307 38.432C33.4501 40.2514 36.3688 40.2186 38.2296 38.3579C40.0903 36.4972 40.0604 33.5157 38.3037 31.759ZM28.6949 28.6948C28.374 29.0157 28.3042 29.5874 28.6806 29.9639C28.9943 30.2775 29.5646 30.3346 29.9496 29.9496C30.2704 29.6288 30.3403 29.057 29.9639 28.6806C29.5233 28.3683 29.0157 28.374 28.6949 28.6948ZM12.8565 32.3621C12.654 33.4429 13.5309 34.4481 14.6103 34.3726L23.2395 34.2756C23.3935 31.8631 24.3717 29.5047 26.1069 27.5185L20.0841 21.4957C19.3312 20.7428 17.9981 20.8213 17.3536 21.7167C14.9068 24.9163 13.4068 28.5494 12.8565 32.3621ZM27.6711 35.1141C27.6768 34.6064 27.3004 34.23 26.7928 34.2357C26.2852 34.2414 25.9002 34.6264 25.8945 35.134C25.8888 35.6416 26.2652 36.018 26.7728 36.0123C27.2804 36.0066 27.6654 35.6217 27.6711 35.1141ZM35.7643 43.2072C35.77 42.6996 35.3935 42.3232 34.8859 42.3289C34.3783 42.3346 33.9934 42.7196 33.9877 43.2272C33.982 43.7348 34.3584 44.1112 34.866 44.1055C35.3736 44.0998 35.7586 43.7148 35.7643 43.2072ZM29.77 40.2928C29.4563 39.9791 28.8859 39.922 28.501 40.307C28.1801 40.6278 28.1103 41.1996 28.4867 41.576C28.8004 41.8897 29.3707 41.9468 29.7557 41.5618C30.078 41.1141 30.0837 40.6064 29.77 40.2928ZM17.0499 48.7466C17.6745 49.6278 19.0062 49.6763 19.7762 48.9063L25.9358 42.7467C24.3075 40.8617 23.4463 38.4605 23.2196 36.0523L14.5903 36.1492C13.4482 36.162 12.6126 37.1231 12.7909 38.1996C13.2557 42.0009 14.6744 45.6012 17.0499 48.7466ZM31.8004 57.2091C32.8769 57.3873 33.9021 56.4876 33.8508 55.4097L33.9477 46.7804C31.538 46.6806 29.2011 45.7552 27.2533 44.0641L21.0937 50.2238C20.3237 50.9938 20.3722 52.3255 21.2534 52.9501C24.3988 55.3255 27.9991 56.7443 31.8004 57.2091ZM48.5043 49.9159C49.2571 50.6687 49.1787 52.0019 48.2833 52.6464C45.0837 55.0932 41.4506 56.5932 37.6379 57.1435C36.5571 57.346 35.5518 56.4691 35.6274 55.3897L35.7243 46.7605C38.1369 46.6065 40.4953 45.6283 42.4815 43.8931L48.5043 49.9159ZM41.3679 41.3679C41.6887 41.0471 41.7586 40.4753 41.3821 40.0989C41.0684 39.7852 40.4981 39.7281 40.1131 40.1131C39.7923 40.4339 39.7224 41.0057 40.0989 41.3821C40.4126 41.6958 40.9829 41.7529 41.3679 41.3679ZM57.1421 37.7648C57.3446 36.684 56.4677 35.6787 55.3883 35.7543L46.759 35.8512C46.605 38.2638 45.6269 40.6222 43.8916 42.6084L49.9145 48.6312C50.6673 49.384 52.0005 49.3056 52.645 48.4102C55.0917 45.2106 56.529 41.5148 57.1421 37.7648ZM52.8859 21.3175C52.2614 20.4363 50.9296 20.3878 50.1597 21.1578L44 27.3175C44.8142 28.26 45.5 29.3308 45.8679 30.4686C46.3626 31.6051 46.5394 32.8085 46.6535 33.9492L55.2828 33.8522C56.4249 33.8394 57.2605 32.8784 57.0822 31.8018C56.6801 28.0632 55.3256 24.3988 52.8859 21.3175ZM38.2623 12.8536C37.1858 12.6754 36.1606 13.5751 36.2119 14.653L36.115 23.2823C38.5247 23.3821 40.8617 24.3075 42.8094 25.9986L48.9691 19.8389C49.739 19.0689 49.6906 17.7372 48.8094 17.1127C45.6012 14.6744 41.9368 13.3199 38.2623 12.8536ZM32.9781 37.0846C34.0447 38.1511 35.8213 38.1312 36.9121 37.0404C38.0029 35.9496 38.0228 34.173 36.9563 33.1065C35.8897 32.0399 34.1131 32.0599 33.0223 33.1507C31.8688 34.1787 31.8489 35.9553 32.9781 37.0846ZM20.442 29.1682C20.7671 28.4667 20.3964 27.5827 19.702 27.2733C19.0076 26.9638 18.115 27.3545 17.7899 28.056C17.4648 28.7576 17.8355 29.6416 18.5299 29.951C19.2243 30.2604 20.1169 29.8697 20.442 29.1682ZM29.134 17.8412C28.4396 17.5318 27.547 17.9225 27.2219 18.624C26.8968 19.3256 27.2676 20.2096 27.962 20.519C28.6563 20.8284 29.5489 20.4377 29.874 19.7362C30.1364 18.9719 29.8284 18.1507 29.134 17.8412ZM40.4197 18.4758C40.0946 19.1773 40.4653 20.0613 41.1597 20.3707C41.8541 20.6801 42.7467 20.2895 43.0717 19.5879C43.3968 18.8864 43.0261 18.0024 42.3317 17.693C41.5746 17.3208 40.7447 17.7742 40.4197 18.4758ZM20.231 42.3032C20.5561 41.6017 20.1854 40.7176 19.491 40.4082C18.7966 40.0988 17.904 40.4895 17.5789 41.191C17.2538 41.8925 17.6245 42.7766 18.3189 43.086C19.0761 43.4581 19.9045 43.1316 20.231 42.3032ZM26.7999 50.5404C26.4748 51.2419 26.8456 52.1259 27.54 52.4353C28.2343 52.7447 29.1269 52.3541 29.452 51.6526C29.7771 50.951 29.4064 50.067 28.712 49.7576C28.0176 49.4482 27.125 49.8389 26.7999 50.5404ZM49.6421 27.6982C49.317 28.3997 49.6877 29.2838 50.3821 29.5932C51.0765 29.9026 51.9691 29.5119 52.2942 28.8104C52.6193 28.1089 52.2486 27.2248 51.5542 26.9154C50.7956 26.6702 49.9672 26.9967 49.6421 27.6982ZM49.5566 40.9587C49.2315 41.6602 49.6022 42.5442 50.2966 42.8536C50.991 43.163 51.8836 42.7724 52.2087 42.0708C52.5338 41.3693 52.163 40.4853 51.4686 40.1759C50.6473 39.8679 49.8189 40.1944 49.5566 40.9587Z" fill="#B97727"/>
</svg>
