<svg width="43" height="43" viewBox="0 0 43 43" fill="none" xmlns="http://www.w3.org/2000/svg">
<path fill-rule="evenodd" clip-rule="evenodd" d="M3.34243 41.279C3.34243 40.4434 2.67394 39.6078 1.67121 39.6078C0.835606 39.6078 -1.16882e-07 40.2763 -7.3051e-08 41.279C-3.65255e-08 42.1146 0.668485 42.9502 1.67121 42.9502C2.67394 42.9502 3.34243 42.2817 3.34243 41.279ZM21.2244 5.51503C20.0545 7.35337 19.7203 9.52594 19.7203 11.3643C19.7203 13.5369 20.2217 15.7094 20.723 17.2135C21.0573 18.0491 21.2244 18.7176 21.5586 19.0518C12.7012 16.7121 8.35606 21.5587 8.35606 21.5587C8.35606 21.5587 12.7012 26.4052 21.5586 24.0655C21.3915 24.5668 21.0573 25.0682 20.723 25.9038C20.2217 27.4079 19.7203 29.5805 19.7203 31.7531C19.7203 33.7585 20.0545 35.764 21.2244 37.6023C22.3942 39.6078 25.0682 42.7831 30.249 42.7831C31.0846 42.7831 31.753 42.7831 32.7558 42.616C34.427 42.2817 35.4297 41.6132 35.5968 41.6132C36.9338 40.9447 38.1036 39.7749 38.9393 38.2708C41.1118 33.7585 38.605 30.0818 38.605 29.9147C38.605 29.9147 36.9338 27.2408 33.2571 27.0737C30.7503 27.0737 28.5777 28.5778 27.7421 30.5832C27.2408 31.9202 27.4079 32.9229 27.7421 33.7585C28.2435 34.9284 29.5805 35.5969 31.0846 35.5969C31.4188 35.5969 31.9202 35.5969 32.4215 35.4297L32.5887 35.4297C32.7558 35.4297 32.7558 35.4297 32.7558 35.2626C32.7558 35.2626 32.7558 35.2626 32.5887 35.0955L32.4215 35.0955C31.0845 34.7613 30.4161 33.5914 30.4161 32.2544C30.5832 30.9175 31.4188 30.0819 32.7558 30.0819C33.9256 29.9147 34.7612 30.4161 35.4297 31.2517C36.9338 33.2572 36.5996 36.0982 34.7612 37.9366C33.2571 39.4406 30.9174 39.6078 29.7476 39.6078C29.2462 39.6078 28.7449 39.4406 28.7449 39.4406C28.0764 39.2735 27.4079 39.1064 26.9065 38.7722C24.9011 37.7694 23.8983 36.0982 23.397 34.9284C23.0627 34.2599 22.8956 33.4243 22.8956 32.5887C22.8956 27.4079 27.4079 23.2299 32.9229 23.2299C36.9338 23.2299 40.2762 25.4025 42.1146 28.7449C42.1146 28.7449 42.2817 29.0791 42.2817 29.2463C42.4488 29.5805 42.4488 29.7476 42.6159 30.0819L42.6159 21.3916L42.6159 12.7012C42.4488 13.0355 42.4488 13.2026 42.2817 13.5368C42.2817 13.704 42.1146 13.8711 42.1146 14.0382C40.2762 17.3806 37.1009 19.5532 32.9229 19.5532C27.4079 19.5532 22.8956 15.3752 22.8956 10.1944C22.8956 9.3588 23.0627 8.69033 23.397 7.85472C23.8983 6.68487 24.9011 5.18077 26.9065 4.01093C27.4079 3.67668 28.0764 3.50957 28.7449 3.34245C28.7449 3.34245 29.2462 3.17532 29.7476 3.17532C30.9174 3.17532 33.09 3.17532 34.7612 4.84653C36.5996 6.68487 36.9338 9.52593 35.4297 11.5314C34.7612 12.367 33.7585 12.8683 32.7558 12.7012C31.4188 12.5341 30.5832 11.6985 30.4161 10.5287C30.2489 9.1917 31.0845 8.02183 32.4215 7.68759L32.5887 7.68759C32.5887 7.68759 32.7558 7.6876 32.7558 7.52048C32.7558 7.52048 32.7558 7.35335 32.5887 7.35335L32.4215 7.35335C31.9202 7.18623 31.5859 7.18625 31.0846 7.18625C29.5805 7.18625 28.2435 7.85472 27.7421 9.02456C27.4079 9.86017 27.2408 10.8629 27.7421 12.1999C28.5777 14.2053 30.7503 15.8765 33.2571 15.7094C36.7667 15.7094 38.605 12.8684 38.605 12.8684C38.7721 12.7012 41.2789 9.02457 38.9393 4.51229C38.1036 3.0082 36.9338 1.83835 35.5968 1.16987C35.4297 1.00275 34.2599 0.501373 32.7558 0.16713C31.9202 8.82251e-06 31.0846 2.41619e-05 30.2489 2.41985e-05C25.0682 0.167146 22.3942 3.50958 21.2244 5.51503ZM9.86015 28.2435C9.86015 29.0791 9.19166 29.9147 8.18893 29.9147C7.35333 29.9147 6.51772 29.2462 6.51772 28.2435C6.51772 27.4079 7.1862 26.5723 8.18893 26.5723C9.19166 26.5723 9.86015 27.2408 9.86015 28.2435ZM3.34243 28.2435C3.34243 27.4079 2.67394 26.5723 1.67121 26.5723C0.835606 26.5723 -6.8668e-07 27.2408 -6.42849e-07 28.2435C-6.06324e-07 29.0791 0.668485 29.9147 1.67121 29.9147C2.67394 29.7476 3.34243 29.0791 3.34243 28.2435ZM3.34242 21.5587C3.34242 20.7231 2.67394 19.8875 1.67121 19.8875C0.835605 19.8875 -9.78884e-07 20.5559 -9.35054e-07 21.5587C-8.98528e-07 22.3943 0.668484 23.2299 1.67121 23.2299C2.67394 23.2299 3.34242 22.5614 3.34242 21.5587ZM16.545 8.35609C16.545 9.1917 15.8765 10.0273 14.8738 10.0273C14.0382 10.0273 13.2026 9.35882 13.2026 8.35609C13.2026 7.52048 13.8711 6.68488 14.8738 6.68488C15.8765 6.852 16.545 7.52048 16.545 8.35609ZM9.86014 8.35609C9.86014 9.1917 9.19166 10.0273 8.18893 10.0273C7.35333 10.0273 6.51772 9.35882 6.51772 8.35609C6.51772 7.52048 7.1862 6.68488 8.18893 6.68488C9.19166 6.852 9.86014 7.52048 9.86014 8.35609ZM3.34242 8.35609C3.34242 7.52048 2.67394 6.68488 1.67121 6.68488C0.835605 6.68488 -1.55599e-06 7.35336 -1.51216e-06 8.35609C-1.47563e-06 9.1917 0.668484 10.0273 1.67121 10.0273C2.67394 10.0273 3.34242 9.35882 3.34242 8.35609ZM9.86014 15.0409C9.86014 15.8765 9.19166 16.7122 8.18893 16.7122C7.35333 16.7122 6.51772 16.0437 6.51772 15.0409C6.51772 14.2053 7.1862 13.3697 8.18893 13.3697C9.19166 13.3697 9.86014 14.0382 9.86014 15.0409ZM3.34242 15.0409C3.34242 14.2053 2.67394 13.3697 1.67121 13.3697C0.835605 13.3697 -1.26378e-06 14.0382 -1.21995e-06 15.0409C-1.18343e-06 15.8765 0.668484 16.7122 1.67121 16.7122C2.67394 16.545 3.34242 15.8765 3.34242 15.0409ZM13.2026 1.83834C13.2026 1.00274 13.8711 0.167131 14.8738 0.167131C15.7094 0.167131 16.545 0.835616 16.545 1.83834C16.545 2.67395 15.8765 3.50956 14.8738 3.50956C14.0382 3.50956 13.2026 2.67395 13.2026 1.83834ZM6.68485 1.83834C6.68485 1.00274 7.35333 0.167131 8.35606 0.167131C9.19167 0.167131 10.0273 0.835616 10.0273 1.83834C10.0273 2.67395 9.35879 3.50956 8.35606 3.50956C7.35334 3.50956 6.68485 2.67395 6.68485 1.83834ZM3.34242 1.83834C3.34242 1.00274 2.67394 0.167131 1.67121 0.167131C0.835605 0.167131 -1.84089e-06 0.835617 -1.79706e-06 1.83834C-1.76053e-06 2.67395 0.668483 3.50956 1.67121 3.50956C2.67394 3.50956 3.34242 2.67395 3.34242 1.83834ZM16.545 34.7613C16.545 35.5969 15.8765 36.4325 14.8738 36.4325C14.0382 36.4325 13.2026 35.764 13.2026 34.7613C13.2026 33.9257 13.8711 33.09 14.8738 33.09C15.8765 33.09 16.545 33.9257 16.545 34.7613ZM9.86015 34.7613C9.86015 35.5969 9.19166 36.4325 8.18893 36.4325C7.35333 36.4325 6.51772 35.764 6.51772 34.7613C6.51772 33.9257 7.1862 33.09 8.18893 33.09C9.19166 33.09 9.86015 33.9257 9.86015 34.7613ZM3.34243 34.7613C3.34243 33.9257 2.67394 33.09 1.67121 33.09C0.835606 33.09 -4.0178e-07 33.7585 -3.5795e-07 34.7613C-3.21424e-07 35.5969 0.668485 36.4325 1.67121 36.4325C2.67394 36.4325 3.34243 35.5969 3.34243 34.7613ZM16.545 41.279C16.545 42.1146 15.8765 42.9502 14.8738 42.9502C14.0382 42.9502 13.2026 42.2817 13.2026 41.279C13.2026 40.4434 13.8711 39.6078 14.8738 39.6078C15.8765 39.7749 16.545 40.4434 16.545 41.279ZM9.86015 41.279C9.86015 42.1146 9.19166 42.9502 8.18893 42.9502C7.35333 42.9502 6.51772 42.2817 6.51772 41.279C6.51772 40.4434 7.18621 39.6078 8.18893 39.6078C9.19166 39.7749 9.86015 40.4434 9.86015 41.279Z" fill="#0E4F32"/>
</svg>
