<svg width="44" height="43" viewBox="0 0 44 43" fill="none" xmlns="http://www.w3.org/2000/svg">
<path fill-rule="evenodd" clip-rule="evenodd" d="M39.8894 1.67121C39.8894 2.50682 40.5579 3.34243 41.5607 3.34243C42.3963 3.34243 43.2319 2.67394 43.2319 1.67121C43.2319 0.835607 42.5634 7.9716e-09 41.5607 1.9929e-08C40.5579 3.18864e-08 39.8894 0.668485 39.8894 1.67121ZM22.0075 37.4352C23.1773 35.5968 23.5116 33.4243 23.5116 31.5859C23.5116 29.4133 23.0102 27.2408 22.5088 25.7367C22.1746 24.9011 22.0075 24.2326 21.6732 23.8984C30.5307 26.2381 34.8758 21.3915 34.8758 21.3915C34.8758 21.3915 30.5307 16.545 21.6732 18.8847C21.8404 18.3833 22.1746 17.882 22.5088 17.0464C23.0102 15.5423 23.5116 13.3697 23.5116 11.1971C23.5116 9.19167 23.1773 7.18621 22.0075 5.34788C20.8376 3.34242 18.1637 0.167132 12.9829 0.167132C12.1473 0.167132 11.4788 0.167117 10.4761 0.334238C8.80488 0.668481 7.80216 1.33698 7.63504 1.33698C6.29807 2.00546 5.12822 3.17531 4.29261 4.6794C2.12003 9.19168 4.62685 12.8683 4.62685 13.0355C4.62685 13.0355 6.29807 15.7094 9.97474 15.8765C12.4816 15.8765 14.6541 14.3724 15.4897 12.367C15.9911 11.03 15.824 10.0273 15.4897 9.19167C14.9884 8.02182 13.6514 7.35333 12.1473 7.35333C11.8131 7.35333 11.3117 7.35334 10.8103 7.52046L10.6432 7.52046C10.4761 7.52046 10.4761 7.52047 10.4761 7.68759C10.4761 7.68759 10.4761 7.68758 10.6432 7.8547L10.8103 7.8547C12.1473 8.18894 12.8158 9.35878 12.8158 10.6958C12.6487 12.0327 11.8131 12.8683 10.4761 12.8683C9.30624 13.0355 8.47064 12.5341 7.80215 11.6985C6.29806 9.69304 6.63231 6.85197 8.47065 5.01364C9.97474 3.50955 12.3144 3.34243 13.4843 3.34243C13.9856 3.34243 14.487 3.50956 14.487 3.50956C15.1555 3.67668 15.824 3.84379 16.3253 4.17803C18.3308 5.18076 19.3335 6.85198 19.8349 8.02183C20.1691 8.69031 20.3363 9.52591 20.3363 10.3615C20.3363 15.5423 15.824 19.7203 10.309 19.7203C6.29806 19.7203 2.95564 17.5477 1.11731 14.2053C1.11731 14.2053 0.950188 13.8711 0.950188 13.7039C0.783067 13.3697 0.783058 13.2026 0.615936 12.8683L0.615937 21.5586L0.615937 30.249C0.783058 29.9147 0.783067 29.7476 0.950188 29.4134C0.950188 29.2462 1.11731 29.0791 1.11731 28.912C2.95564 25.5696 6.13094 23.397 10.309 23.397C15.824 23.397 20.3363 27.575 20.3363 32.7558C20.3363 33.5914 20.1691 34.2599 19.8349 35.0955C19.3335 36.2653 18.3308 37.7694 16.3253 38.9393C15.824 39.2735 15.1555 39.4406 14.487 39.6077C14.487 39.6077 13.9856 39.7749 13.4843 39.7749C12.3144 39.7749 10.1419 39.7749 8.47065 38.1037C6.63231 36.2653 6.29806 33.4243 7.80215 31.4188C8.47064 30.5832 9.47337 30.0818 10.4761 30.249C11.8131 30.4161 12.6487 31.2517 12.8158 32.4215C12.9829 33.7585 12.1473 34.9284 10.8103 35.2626L10.6432 35.2626C10.6432 35.2626 10.4761 35.2626 10.4761 35.4297C10.4761 35.4297 10.4761 35.5968 10.6432 35.5968L10.8103 35.5968C11.3117 35.764 11.6459 35.764 12.1473 35.764C13.6514 35.764 14.9884 35.0955 15.4897 33.9256C15.824 33.09 15.9911 32.0873 15.4897 30.7503C14.6541 28.7449 12.4816 27.0737 9.97474 27.2408C6.46519 27.2408 4.62685 30.0818 4.62685 30.0818C4.45973 30.249 1.95291 33.9256 4.29261 38.4379C5.12822 39.942 6.29807 41.1118 7.63504 41.7803C7.80216 41.9474 8.972 42.4488 10.4761 42.7831C11.3117 42.9502 12.1473 42.9502 12.9829 42.9502C18.1637 42.783 20.8376 39.4406 22.0075 37.4352ZM33.3717 14.7067C33.3717 13.8711 34.0402 13.0355 35.0429 13.0355C35.8785 13.0355 36.7141 13.704 36.7141 14.7067C36.7141 15.5423 36.0457 16.3779 35.0429 16.3779C34.0402 16.3779 33.3717 15.7094 33.3717 14.7067ZM39.8894 14.7067C39.8894 15.5423 40.5579 16.3779 41.5607 16.3779C42.3963 16.3779 43.2319 15.7094 43.2319 14.7067C43.2319 13.8711 42.5634 13.0355 41.5607 13.0355C40.5579 13.2026 39.8894 13.8711 39.8894 14.7067ZM39.8894 21.3915C39.8894 22.2271 40.5579 23.0627 41.5607 23.0627C42.3963 23.0627 43.2319 22.3943 43.2319 21.3915C43.2319 20.5559 42.5634 19.7203 41.5607 19.7203C40.5579 19.7203 39.8894 20.3888 39.8894 21.3915ZM26.6869 34.5941C26.6869 33.7585 27.3554 32.9229 28.3581 32.9229C29.1937 32.9229 30.0293 33.5914 30.0293 34.5941C30.0293 35.4297 29.3608 36.2653 28.3581 36.2653C27.3554 36.0982 26.6869 35.4297 26.6869 34.5941ZM33.3717 34.5941C33.3717 33.7585 34.0402 32.9229 35.0429 32.9229C35.8785 32.9229 36.7141 33.5914 36.7141 34.5941C36.7141 35.4297 36.0457 36.2653 35.0429 36.2653C34.0402 36.0982 33.3717 35.4297 33.3717 34.5941ZM39.8894 34.5941C39.8894 35.4297 40.5579 36.2653 41.5607 36.2653C42.3963 36.2653 43.2319 35.5968 43.2319 34.5941C43.2319 33.7585 42.5634 32.9229 41.5607 32.9229C40.5579 32.9229 39.8894 33.5914 39.8894 34.5941ZM33.3717 27.9093C33.3717 27.0736 34.0402 26.238 35.0429 26.238C35.8785 26.238 36.7141 26.9065 36.7141 27.9093C36.7141 28.7449 36.0457 29.5805 35.0429 29.5805C34.0402 29.5805 33.3717 28.912 33.3717 27.9093ZM39.8894 27.9093C39.8894 28.7449 40.5579 29.5805 41.5607 29.5805C42.3963 29.5805 43.2319 28.912 43.2319 27.9093C43.2319 27.0736 42.5634 26.238 41.5607 26.238C40.5579 26.4052 39.8894 27.0736 39.8894 27.9093ZM30.0293 41.1119C30.0293 41.9475 29.3608 42.7831 28.3581 42.7831C27.5225 42.7831 26.6869 42.1146 26.6869 41.1119C26.6869 40.2762 27.3554 39.4406 28.3581 39.4406C29.1937 39.4406 30.0293 40.2762 30.0293 41.1119ZM36.547 41.1119C36.547 41.9475 35.8785 42.7831 34.8758 42.7831C34.0402 42.7831 33.2046 42.1146 33.2046 41.1119C33.2046 40.2762 33.8731 39.4406 34.8758 39.4406C35.8785 39.4406 36.547 40.2762 36.547 41.1119ZM39.8894 41.1119C39.8894 41.9475 40.5579 42.7831 41.5607 42.7831C42.3963 42.7831 43.2319 42.1146 43.2319 41.1119C43.2319 40.2762 42.5634 39.4406 41.5607 39.4406C40.5579 39.4406 39.8894 40.2762 39.8894 41.1119ZM26.6869 8.18893C26.6869 7.35333 27.3554 6.51772 28.3581 6.51772C29.1937 6.51772 30.0293 7.18621 30.0293 8.18893C30.0293 9.02454 29.3608 9.86015 28.3581 9.86015C27.3554 9.86015 26.6869 9.02454 26.6869 8.18893ZM33.3717 8.18893C33.3717 7.35333 34.0402 6.51772 35.0429 6.51772C35.8785 6.51772 36.7141 7.18621 36.7141 8.18893C36.7141 9.02454 36.0457 9.86015 35.0429 9.86015C34.0402 9.86015 33.3717 9.02454 33.3717 8.18893ZM39.8894 8.18893C39.8894 9.02454 40.5579 9.86015 41.5607 9.86015C42.3963 9.86015 43.2319 9.19166 43.2319 8.18893C43.2319 7.35333 42.5634 6.51772 41.5607 6.51772C40.5579 6.51772 39.8894 7.35333 39.8894 8.18893ZM26.6869 1.67121C26.6869 0.835607 27.3554 1.89325e-07 28.3581 1.77368e-07C29.1937 1.67404e-07 30.0293 0.668485 30.0293 1.67121C30.0293 2.50682 29.3608 3.34243 28.3581 3.34243C27.3554 3.1753 26.6869 2.50682 26.6869 1.67121ZM33.3717 1.67121C33.3717 0.835607 34.0402 1.09609e-07 35.0429 9.7652e-08C35.8785 8.76875e-08 36.7141 0.668485 36.7141 1.67121C36.7141 2.50682 36.0457 3.34243 35.0429 3.34243C34.0402 3.1753 33.3717 2.50682 33.3717 1.67121Z" fill="#0E4F32"/>
</svg>
